<?xml version="1.0" encoding="utf-8"?>
<!-- Generator: Adobe Illustrator 20.1.0, SVG Export Plug-In . SVG Version: 6.00 Build 0)  -->
<svg version="1.1" id="Layer_1" xmlns="http://www.w3.org/2000/svg" xmlns:xlink="http://www.w3.org/1999/xlink" x="0px" y="0px"
	 viewBox="0 0 149 149" style="enable-background:new 0 0 149 149;" xml:space="preserve">
<style type="text/css">
	.st0{clip-path:url(#SVGID_1_);}
	.st1{fill:#919191;}
	.st2{fill:none;stroke:#919191;stroke-miterlimit:10;}
	.st3{fill:none;stroke:#919191;stroke-width:2;stroke-miterlimit:10;}
</style>
<g>
	<defs>
		<circle id="SVGID_3_" cx="74.5" cy="74.5" r="72.6"/>
	</defs>
	<clipPath id="SVGID_1_">
		<use xlink:href="#SVGID_3_"  style="overflow:visible;"/>
	</clipPath>
	<g class="st0">
		<g>
			<path class="st1" d="M42.2,61.8c0.9-0.5,2-0.8,3-0.7c1.1,0,2.1,0.4,3,1l0.6,0.5c0.2,0.1,0.5,0.3,0.5,0.3c0.1,0,0.1-0.3,0.2-0.6
				l0.1-0.8c0-0.3,0.1-0.5,0.2-0.8c0.1-0.3,0.3-0.6,0.6-0.7c0.6-0.2,1.1-0.2,1.6-0.2l0.8,0c0.3,0,0.5,0,0.7-0.1
				c0.2-0.1,0.3-0.1,0.2-0.3c0-0.1-0.2-0.2-0.4-0.3c-0.4,0-1,0.1-1.5,0c-0.5,0-1.1-0.1-1.6-0.2c-1-0.2-2-0.5-3-0.7
				c-0.5-0.1-1-0.2-1.5-0.3c-0.5-0.1-1-0.2-1.6-0.5c-0.1-0.1-0.3-0.2-0.4-0.3l-0.2-0.3c-0.2-0.2-0.3-0.3-0.5-0.5
				c-0.4-0.3-0.8-0.5-1.3-0.6c-0.9-0.2-1.9-0.1-3-0.2l-0.8,0l-0.4,0c-0.1,0-0.4,0-0.5-0.1c-0.1,0-0.1-0.1-0.2-0.1l-0.1-0.1l-0.1,0
				l0,0c-0.1-0.1,0.1,0.2-0.2-0.3c0-0.3,0-0.1,0-0.1l0,0l0.1-0.4c0-0.2,0.1-0.4,0-0.6c0-0.1-0.1-0.2-0.2-0.3
				c-0.2-0.1-0.4-0.1-0.6-0.1c-0.2,0-0.5,0-0.8-0.1c-0.1,0-0.3-0.1-0.5-0.1c-0.2-0.1-0.3-0.2-0.4-0.3c-0.7-0.5-1.8-0.6-2.8-0.9
				c-0.3-0.1-0.5-0.1-0.8-0.2l-0.4-0.1L30,51.5c0,0-0.1,0-0.1-0.1c0,0-0.1,0-0.1-0.1c0,0-0.1,0-0.1-0.3c0-0.1,0-0.2,0-0.2l0,0
				c0.1-0.4,0.3-0.7,0.6-0.9c0.2-0.1,0.3-0.2,0.5-0.2l0.4-0.1c1-0.1,2.1-0.3,3.3,0c0.3,0.1,0.6,0.2,0.8,0.3c0.2,0.1,0.4,0.1,0.6,0.1
				c0.4,0.1,0.9,0,1.5,0l0.4,0l0.1,0.4c0.1,0.3,0.3,0.5,0.6,0.8l0.2,0.2l0.1,0.1c0,0,0.1,0.1,0,0c0,0,0.1,0,0.1,0c0,0,0,0-0.1,0
				c0,0-0.1,0-0.1,0.1c0,0-0.1,0.1-0.1,0.1l0,0c0,0,0,0,0,0c0,0,0,0,0,0c0,0,0,0,0,0c0,0,0-0.1-0.1-0.1l-0.1-0.1
				c0-0.1,0-0.1-0.1-0.1c-0.1-0.1-0.1-0.1-0.2-0.1c-0.2-0.2-0.5-0.2-0.9-0.2l-0.4,0l-0.2-0.4c-0.1-0.3-0.2-0.3-0.7-0.4
				c-0.2,0-0.5-0.1-0.8-0.1c-0.3-0.1-0.6-0.3-0.9-0.6c-0.3-0.4-0.5-0.9-0.8-1.2c-0.1-0.2-0.2-0.3-0.3-0.3c-0.1,0-0.1,0-0.2-0.1
				c0,0-0.1,0-0.1,0l-0.2,0c-0.7,0-1.2-0.5-1.6-0.8c-0.3-0.3-0.6-0.6-0.9-0.6c-0.1,0-0.1,0-0.2,0l-0.2,0c-0.1,0-0.1,0-0.2,0
				c-0.5,0-0.7-0.2-1-0.3c-0.5-0.3-0.8-0.7-1.1-0.8c-0.1-0.1-0.3-0.1-0.4-0.1c0,0-0.3,0-0.6-0.1c-0.2-0.1-0.5-0.3-0.6-0.5
				c-0.1-0.2-0.1-0.5-0.1-0.6c0-0.2,0.1-0.5,0.3-0.7c0.2-0.2,0.4-0.3,0.6-0.4c0.1,0,0.2,0,0.3,0l0.2,0c0.5,0,0.9-0.1,1.4,0
				c0.5,0,0.9,0,1.2-0.1c0.2-0.1,0.4-0.2,0.5-0.6c0-0.1,0-0.2,0-0.3l0-0.1c0-0.2,0-0.1,0.1-0.3c0.2-0.5,0.4-0.6,0.6-0.8
				c0.2-0.2,0.4-0.3,0.5-0.4c0.1-0.1,0.1-0.1,0.1-0.2c0.1-0.1,0.1-0.2,0.1-0.3c0.2-0.4,0.3-0.8,0.5-1.3l0.4-1l0.7,0.8
				c0.2,0.2,0.4,0.5,0.5,0.9c0.1,0.3,0.1,0.7,0,0.9c0,0.3-0.1,0.5-0.2,0.7c-0.1,0.2-0.2,0.5-0.2,0.7l-0.1,0.3c0,0.1-0.1,0.2,0,0.1
				c0,0,0,0,0,0s0,0,0,0c0,0,0,0-0.1-0.1c-0.3-0.2-0.3-0.1-0.3-0.1l0.3-0.1c-0.1,0-0.2,0.1-0.1,0c0,0,0.1-0.1,0.2-0.1
				c0,0,0.1,0,0.2-0.1l0.1,0l0,0c0,0,0.1,0-0.1,0l0,0l0,0l0.2,0c0,0,0,0,0,0c0,0,0.1,0,0.1-0.1c0.2-0.2,0.3-0.6,0.7-1.1
				c0.2-0.2,0.5-0.5,0.9-0.6c0.2-0.1,0.3-0.1,0.6-0.1c0.1,0,0.2,0,0.4,0c0.6,0.1,1,0.3,1.4,0.4c0.4,0.1,0.7,0.2,1,0.1l0.4-0.1
				l0.3,0.4c0,0.1,0.1,0.2,0.1,0.2c0,0.1,0,0.1,0,0.1l0,0.2c0,0,0,0.1,0,0.1c0,0,0,0,0,0c0,0,0-0.1,0-0.1c0-0.1-0.1-0.1-0.2-0.2
				c-0.1-0.1-0.2-0.1-0.3-0.1c-0.1,0-0.1,0-0.2,0c0,0,0,0-0.1,0c0,0,0,0,0,0l0,0l0.1,1.2l-0.5-0.3l-0.2-0.1l-0.1-0.2l-0.2-0.3
				c0,0,0-0.1,0-0.1l0,0c0.1,0.1,0,0,0,0l-0.1-0.1l-0.6-0.5l-1.2-1l1.5-0.3c0.2,0,0.4-0.2,0.8-0.2c0.1,0,0.1,0,0.2,0l0.1,0l0,0
				c0,0,0.2,0,0.3,0.1c0.2,0.1,0.3,0.1,0.5,0.2c0.3,0.1,0.5,0.2,0.6,0.3c0.2,0.1,0.2,0.1,0.3,0l0.7-0.1l0.2,0.6c0,0,0,0.1,0,0
				c0,0,0,0,0,0c0.1,0,0.3,0,0.6,0.1l0.5,0L43,41c0,0,0,0.1,0,0.1c0,0,0,0,0,0c0,0,0.3,0,0.5,0l0.6,0l0.1,0.7c0,0.1,0,0,0,0
				c-0.1,0-0.1,0,0,0l0.5,0.1l0.1,0.5c0,0.1,0,0.1,0,0.1c0,0-0.1,0,0,0c0,0,0.3,0,0.6,0l0.6,0l0.1,0.7c0,0.1,0,0,0-0.1
				c-0.1-0.1-0.1,0,0,0l0.3,0l0.2,0.3l0.3,0.5l-1.3,0l0.3-0.5l0.4-0.6L47,43l1.3,0.6l0.6,0.3l-0.3,0.7c-0.2,0.5-0.5,1-1,1.4
				c-0.5,0.4-1.2,0.5-1.7,0.4l-0.4,0l-0.3-0.5c-0.1-0.1,0,0,0,0c0,0-0.3,0-0.5,0l-0.6,0L44,45.2c0-0.1,0-0.1,0,0c0,0,0.1,0.1,0.1,0
				c0,0-0.3,0-0.6,0l-0.5,0l-0.2-0.4c-0.1-0.2-0.1-0.3-0.1-0.4c0,0,0,0,0,0c0,0,0,0.1,0.1,0.2c0,0.1,0.1,0.1,0.2,0.2
				c0.1,0.1,0.2,0.1,0.3,0.1c0.1,0,0.1,0,0.2,0c0.1,0,0,0,0.1,0c0,0,0,0,0,0l0,0l-0.1-1.3l0.5,0.3l0.3,0.1l0.1,0.3c0,0,0,0,0,0
				c0,0-0.1,0,0,0c0.1,0,0.3,0,0.7,0.1l0.3,0l0.3,0.5c0.1,0.1,0,0,0,0c0.1,0,0.3,0,0.6,0.1l0.7,0.6c0,0,0-0.1,0-0.1
				c0,0,0.1,0.1,0.3,0.1l0.1,0.1l0.1,0l0,0l0,0l0,0l0,0c0,0-0.1,0-0.1,0l0,0l0,0l0.2,0.1c0,0,0,0-0.1,0c0,0-0.1,0-0.1,0c0,0,0,0,0,0
				c0.1-0.1,0.1-0.2,0.2-0.4c0-0.1,0.1-0.2,0.2-0.3c0.1-0.1,0.2-0.2,0.3-0.3c0.1-0.1,0.3-0.2,0.5-0.3c0.2-0.1,0.4,0,0.6,0l-0.9,1
				c-0.1-0.3-0.2-0.3-0.5-0.4l-1-0.3l0.5-0.9c0.1-0.3,0.2-0.5,0.2-0.6c0,0,0,0.1,0,0.1c0,0,0,0,0,0c0,0,0,0-0.1,0c0,0-0.1,0,0,0
				l-0.1,0c-0.1,0-0.1,0-0.1,0c0,0,0,0,0.1,0c0.1,0,0.2-0.1,0.2-0.2c0.1-0.1,0,0,0,0.1c0,0.1,0,0.3,0,0.6l-0.1,0.7l-0.7,0l-0.7,0
				l-0.7,0l-0.1-0.7c0-0.1,0,0,0,0c0,0.1,0.1,0,0,0l-0.5-0.1l-0.2-0.5c0,0,0-0.1,0-0.1c0,0,0,0,0,0c0,0-0.2,0-0.5,0l-0.7,0l-0.1-0.8
				c0-0.1,0,0,0.1,0.1c0.1,0.1,0.1,0.1,0,0l-0.5-0.1l-0.2-0.5c0,0,0-0.1,0,0c0,0,0.1,0,0,0c0,0-0.3,0-0.6,0l-0.6,0l-0.2-0.6
				c0,0,0-0.1,0,0c0,0,0.1,0.1,0.1,0.1c0,0-0.2,0-0.5,0l-0.8,0l0-0.9c0-0.5-0.1-0.8-0.4-1.2c-0.3-0.4-0.8-0.7-1.3-1
				c-1.1-0.7-2.1-1.4-3.2-2c-1.1-0.6-2.2-1-3.3-1.1c-0.3,0-0.6-0.1-1-0.2c-0.2-0.1-0.4-0.1-0.8-0.3c-0.3-0.2-0.5-0.7-0.5-1
				c0-0.6,0.2-0.9,0.3-1.3c0.1-0.3,0.3-0.6,0.4-0.9l1.6-3.6l0,4c0,0.2,0,0.4,0,0.4c0,0.1,0,0-0.1-0.1c0,0,0,0,0,0c0.1,0,0.1,0,0.1,0
				c0.1,0,0.1,0,0,0c0,0-0.1,0.1-0.1,0.1l0,0l-0.1,0.2l0,0l0,0c0,0.1,0,0.3,0,0.4c0,0.1,0,0.1,0,0.1c0,0,0,0,0,0
				c0,0-0.1-0.1-0.1-0.1c0,0-0.1-0.1,0,0c-0.1,0-0.1,0-0.1,0l-0.1,0c-0.1,0-0.1,0-0.2,0l-0.6-0.1l-0.2,0l-0.4-0.5c0,0,0-0.1,0-0.1
				c0,0,0.1,0,0.1,0.1c0.1,0,0,0-0.2,0.1c-0.2,0.1-0.5,0.2-0.9,0.2c-0.4,0-1-0.2-1.3-0.5c-0.1-0.1-0.2-0.2-0.2-0.2l-0.1-0.1
				l-0.2-0.2c-0.1-0.1-0.3-0.3-0.4-0.4c-0.3-0.2-0.5-0.2-0.8-0.2l0.5-1.5l0,0l-1.2,1.2c-0.2-0.2-0.4-0.5-0.6-0.9
				c-0.2-0.4-0.1-1,0.1-1.4c0.2-0.4,0.4-0.7,0.6-0.9l0.6-0.5l1.2,1.3l0,0l-0.6-1.5l1.3,0l0.8,0l0.1,0.8c0,0,0,0-0.1-0.1
				c-0.1-0.1-0.1-0.1-0.1-0.1l0.6,0.1l0.2,0.6c0,0,0,0.1,0,0c0,0-0.1-0.1-0.1-0.1c0,0,0.2,0,0.5,0l0.8,0l0.1,0.9c0,0.1,0,0-0.1-0.1
				c-0.1-0.1-0.2-0.1-0.1-0.1l0.6,0l0.2,0.6c0,0,0,0.1,0,0c0,0-0.1-0.1-0.1-0.1c0,0,0.2,0,0.5,0l0.4,0l0.5,0.8c0,0,0-0.1-0.1-0.1
				c-0.1,0,0,0,0,0l0.6,0.1l0.1,0.6c0,0,0,0,0-0.1c-0.1-0.1-0.1-0.1-0.1-0.1l0.4,0.1l0.2,0.3c0.1,0.1,0.1,0.2,0.1,0.2
				c0,0.1,0,0.1,0.1,0.2c0,0.1,0,0.1,0,0.2c0,0,0,0.1,0,0l0,0c0,0,0-0.1-0.1-0.1c-0.1-0.1-0.1-0.2-0.2-0.2c-0.1-0.1-0.3-0.1-0.4-0.1
				c-0.1,0-0.2,0-0.2,0c-0.1,0-0.1,0-0.1,0c-0.1,0,0,0,0,0l0,0l0.2,1.5L32.5,32l-0.1,0L32,31.3c0,0,0,0.1,0.1,0.2c0.1,0.1,0.1,0,0,0
				l-0.2,0l-0.2-0.2L31,30.6l0,0l-0.2-0.3c0-0.1,0,0,0,0c0,0-0.2,0-0.5,0l-0.7,0l-0.2-0.8c0,0,0,0.1,0.1,0.1c0.1,0.1,0.1,0.1,0.1,0
				l-0.5-0.1L28.9,29c0,0,0,0,0,0c0,0,0.1,0.1,0.1,0.1c0,0-0.2,0-0.5,0l-0.6,0l-0.3-0.7c0,0,0,0.1,0.1,0.1c0,0,0,0,0,0l-0.5-0.1
				L27,27.8c-0.1-0.3-0.2-0.4-0.3-0.5c-0.1-0.1-0.3-0.1-0.6-0.1l-0.8,0l-0.1-0.8c0,0,0,0,0.1,0.1c0.1,0.1,0.1,0.1,0.1,0.1l-0.5-0.1
				l-0.2-0.5c-0.1-0.2-0.1-0.3-0.1-0.4c0,0,0,0,0,0c0,0,0,0.1,0.1,0.2c0,0.1,0.2,0.2,0.3,0.2c0.1,0.1,0.3,0.1,0.4,0.1
				c0.1,0,0.1,0,0.2,0l0.1,0c0.1,0,0,0,0,0l-0.2-1.4l0.5,0.3l0.4,0.2l0.1,0.4c0,0.1,0,0,0,0c-0.1-0.1-0.1-0.1-0.1-0.1l0.8,0.2l0,0.7
				l0,0.6l-1.5-0.7l0,0l0.4,1.5c-1.1-0.3-2.1-0.7-3.1-1c-0.5-0.1-1-0.3-1.4-0.3c-0.5-0.1-0.9-0.1-1.4,0c-0.5,0-1-0.2-1.4-0.5
				c-0.2-0.2-0.3-0.4-0.4-0.7c-0.1-0.2-0.1-0.6-0.1-0.8c0.2-0.7,0.6-1,1-1.2c0.4-0.2,0.7-0.3,1.1-0.3c0.8-0.1,1.5,0.1,2,0.4
				c0.6,0.3,1,0.6,1.4,0.7c0.1,0.1,0.2,0.1,0.2,0.1s0,0-0.1,0c-0.1,0-0.3,0.1-0.3,0.2c-0.1,0.1-0.1,0-0.1,0.4c0,0.1,0,0.1,0,0.1
				c0,0-0.1-0.1-0.1-0.1l0,0l-0.2-0.1l-0.3-0.2c-0.2-0.1-0.4-0.3-0.6-0.4c-0.9-0.5-1.8-1-2.8-1.5l-1.5-0.7c-0.5-0.2-1-0.5-1.5-0.8
				c-0.9-0.5-1.8-0.9-2.6-0.8l0.5-1.5l0,0L13,20c-2.3-1.8-5.4-2.6-8.3-3.9l-0.5-0.2c-0.1-0.1-0.3-0.1-0.5-0.2
				c-0.4-0.1-0.8-0.2-1.2-0.5c-0.2-0.1-0.4-0.2-0.6-0.4c-0.1-0.1-0.2-0.2-0.3-0.2c0,0,0,0,0,0c0,0,0.1,0,0.1,0c0,0,0.1,0,0.1-0.1
				c0,0,0,0,0,0l0,0c-0.1,0.1,0.1-0.2,0.1-0.1c0,0.1,0.1-0.1,0.1-0.3c0-0.1,0-0.1,0-0.1c0,0,0-0.1,0-0.1c0,0,0,0,0,0
				c0,0,0.1,0.1,0.1,0.2l0.2,0.2c0.1,0.1,0.2,0.2,0.2,0.4c0.1,0.2,0.2,0.4,0.1,0.8c0,0.2-0.2,0.4-0.3,0.5c-0.1,0.1-0.3,0.2-0.4,0.2
				c-0.4,0.1-0.6,0.1-0.8,0.1c-0.2,0-0.5,0-0.7-0.1c-0.5-0.1-1-0.3-1.3-0.4c-0.2-0.1-0.3-0.1-0.4-0.1c-0.1,0,0,0-0.1,0
				c-0.3,0.1-0.4,0.7-0.2,1.2c0.1,0.1,0.4,0.7,0.5,1c0.2,0.4,0.3,0.7,0.5,1c0.4,0.6,0.7,0.9,1.3,1c0.2,0,0.3,0,0.5,0
				c0.1,0,0.3,0,0.4,0c0.2,0,0.3,0.1,0.4,0.1c0.6,0.3,0.9,0.8,1.1,1.2c0.7,1.5,1.4,2.8,2.1,4.3c0.3,0.7,0.6,1.6,0.8,2.2
				c0.3,0.7,0.6,1.4,0.9,2.1c0.7,1.4,1.5,2.7,2.2,4.1c0.2,0.4,0.4,0.7,0.5,1.1c0.2,0.4,0.3,0.6,0.5,1c0.2,0.3,0.4,0.7,0.6,1.2
				c0.1,0.4,0.2,0.7,0.4,1.1c0.1,0.3,0.3,0.6,0.5,0.8c0.1,0.1,0.2,0.2,0.3,0.3c0.2,0.1,0.3,0.2,0.5,0.3c0.7,0.5,1.3,1,1.9,1.6
				c0.6,0.6,1.1,1.1,1.7,1.6c0.3,0.3,0.5,0.4,0.9,0.7c0.4,0.3,0.6,0.7,0.9,1c0.5,0.7,0.8,1.3,1.3,1.7c0.1,0.1,0.2,0.1,0.5,0.4
				c0.3,0.3,0.3,0.7,0.3,0.9c0,0.3-0.1,0.6-0.2,0.8c-0.1,0.2-0.3,0.5-0.8,0.6c-0.4,0.1-0.7-0.1-0.9-0.2l-0.5-0.3
				c-0.4-0.2-0.7-0.4-1.1-0.7c-0.7-0.5-1.3-1.1-1.8-1.7c-1.1-1.2-2.1-2.4-3.1-3.5c-0.5-0.6-1.1-1.1-1.7-1.6c-0.6-0.5-1.3-1-1.8-1.7
				c-1.1-1.3-1.6-2.9-2.1-4.3L5.5,33l-0.4-1.1c-0.1-0.3-0.3-0.9-0.3-1c-0.2-0.2-0.6-0.5-0.9-0.8c-0.3-0.3-0.5-0.7-0.7-1
				c-0.4-0.7-0.7-1.4-1.1-2.2c-0.3-0.7-0.6-1.5-1-2.1c-0.4-0.6-0.9-1.2-1.5-1.7c-1.1-1.1-2.4-2.1-3.2-3.5c-0.9-1.3-1.6-2.8-2.3-4.2
				c-0.3-0.7-0.8-1.3-0.9-2.3c-0.1-0.9,0.1-1.8,0.7-2.5c0.6-0.7,1.4-1.1,2.3-1.1c0.4,0,0.9,0,1.3,0.1l1.1,0.3
				c3.1,0.8,6.1,1.8,8.9,3.1c2.9,1.3,5.7,2.6,8.7,3.7c3,1,5.9,2.4,8.7,3.8c2.8,1.4,5.6,2.9,8.4,4.2l0.1,0l0.1,0.1
				c0.8,1,1.9,1.6,3.1,2.2c0.6,0.3,1.2,0.7,1.7,1.1c0.3,0.2,0.5,0.5,0.7,0.7c0.1,0.1,0.2,0.2,0.3,0.3c0,0,0.1,0.1,0.1,0.1l0.2,0.1
				c2.6,0.8,4.8,2.5,6.9,4.1c1.1,0.8,2.1,1.5,3.3,2.1c1.2,0.6,2.3,1.5,3.3,2.3l3,2.6l3.1,2.5c1,0.8,2.1,1.6,3.1,2.3
				c0.5,0.4,1.1,0.7,1.7,1c0.6,0.3,1.2,0.7,1.7,1.1c0.5,0.4,1,0.8,1.6,1.2c0.5,0.3,1.1,0.6,1.7,0.7c0.6,0.2,1.2,0.2,1.8,0.1
				c0.6-0.1,1.2-0.3,1.8-0.5c5.1-1.5,10.5-2.2,15.8-2c0.7,0,1.3,0,2,0.1c0.7,0.1,1.5,0.2,2.1,0.5c1.1,0.4,2.4,0.4,3.5-0.1
				c1.3-0.5,2.8-0.6,4.2-0.3c1.4,0.3,2.6,0.8,3.9,1.3c1.3,0.6,2.4,1.3,3.5,1.9c1.1,0.6,2.4,1,3.6,1.5c1.2,0.4,2.5,0.8,3.7,1
				c0.6,0.1,1.3,0.2,1.9,0.2l0.5,0c0.2,0,0.4,0.1,0.6,0.1c0.4,0.1,0.8,0.3,1.1,0.5c0.7,0.4,1.1,1,1.6,1.4c0.2,0.2,0.5,0.5,0.7,0.6
				c0.2,0.2,0.5,0.4,0.6,0.4c0.1,0.1,0.7-0.2,1.2-0.6c0.5-0.4,1.2-0.7,1.6-1c0.2-0.2,0.4-0.4,0.6-0.6l0.6-0.8
				c0.4-0.6,0.8-1.1,1.3-1.6c0.9-1,1.8-2,2.7-3c0.9-1,1.9-1.9,2.8-2.8c0.1-0.1,0.2-0.2,0.3-0.3c0.1-0.1,0.2-0.2,0.2-0.3l0.5-0.8
				c0.1-0.1,0.1-0.1,0.2-0.3l0.2-0.2l0.3-0.4l0.4-0.4l0.4-0.4c0.5-0.5,1.1-1,1.9-1.3c0.8-0.3,1.8-0.2,2.5,0.1c0.8,0.4,1.5,1.2,1.7,2
				c0.2,0.8,0.2,1.6,0.1,2.3l-0.1,0.6l-0.7,0.2c0,0,0,0,0.1-0.1c0-0.1,0-0.1,0,0l0,0.3l-0.2,0.2l-0.4,0.3l-0.2,0.2l-0.2,0.2
				l-0.7,0.7l-1.4,1.4l-1.2-1.2l0.4-0.3l0,0l1.2-1.2l0.6-0.6l0.6-0.7l0.2-0.2l0.2-0.1c0.1,0,0.1,0,0,0c0,0-0.1,0.1,0,0.1l0.2-0.5
				l0.4-0.1c0.3-0.1,0.6-0.4,0.9-0.7c0.3-0.3,0.6-0.8,1.2-1.2c0.5-0.4,1-0.7,1.6-0.9c0.1-0.1,0.2-0.1,0.4-0.2c0.1,0,0.2-0.1,0.4-0.1
				c0.3-0.1,0.6-0.1,1-0.1c1.3-0.1,2.7,0.5,3.5,1.8l0.1,0.2c0,0.1,0.1,0.2,0.1,0.3c0.1,0.2,0.1,0.4,0.1,0.6c0,0.4,0,0.7-0.1,1.1
				c-0.2,0.7-0.5,1.2-0.9,1.7c-0.4,0.5-0.9,0.9-1.3,1.2l-1.3,0.9l-2.5,1.8c-1.7,1.2-3.3,2.5-4.9,3.8c-1.7,1.3-3.4,2.5-5.2,3.6
				c-0.4,0.2-0.7,0.5-0.8,0.7c-0.1,0.1-0.1,0.2-0.1,0.3c0,0.2,0,0.5-0.1,0.7c0,1,0,2.1-0.2,3.2c-0.1,0.3-0.1,0.6-0.2,0.9
				c0,0.1-0.1,0.3-0.1,0.4l-0.1,0.2l0,0l0,0c0-0.1,0,0,0-0.1c0,0,0,0.1,0,0c0-0.1,0-0.1,0-0.1c0-0.1,0,0.1,0,0.1
				c0.2,0.2,0.3,0.4,0.5,0.6c0.8,1,1.2,2.1,1.4,3.2c0.5,2.2,0.6,4.2,1.5,5.7l0.2,0.3l0,0.3l-0.3,2.8c-0.1,0.9-0.3,1.9-0.5,2.9
				c-0.2,0.8-0.3,1.6-0.2,2.5c0,0.9,0,1.9-0.2,3c-0.1,0.5-0.3,1.1-0.5,1.6c-0.1,0.3-0.3,0.5-0.4,0.7c-0.1,0.2-0.1,0.2-0.2,0.4
				c-0.2,0.5,0,1.5-0.1,2.6c-0.1,1.2-0.5,2.2-1.2,3.1c-0.4,0.5-0.8,0.9-1.5,1.2c-0.2,0.1-0.3,0.1-0.5,0.2c-0.2,0.1-0.2,0.1-0.4,0.1
				c-0.3,0.1-0.6,0.1-0.8,0.1c-0.5,0-1,0-1.5,0l-0.7,0c-0.2,0-0.6,0-1-0.1c-0.7-0.2-1.3-0.7-1.7-1.2c-0.2-0.3-0.3-0.6-0.4-0.8
				c0,0-0.1-0.1,0-0.1c0,0,0,0,0,0c0,0,0,0-0.1-0.1c-0.1-0.1,0,0-0.8-0.1c-0.6-0.1-1.3-0.4-1.8-0.9c-0.5-0.4-0.9-1.2-0.8-1.1
				c-0.1-0.1-0.2-0.1-0.4-0.1c-0.2,0.1-0.2,0.1-0.7,0.5c-0.4,0.4-1.1,0.7-1.7,0.8l-0.2,0l-0.2,0c-0.2,0-0.6,0-1-0.3
				c-0.2-0.1-0.4-0.4-0.5-0.5c-0.1-0.2-0.1-0.4-0.1-0.5c0-0.3,0-0.4,0-0.5c0-0.1,0,0,0.1,0.2c0.1,0.1,0.2,0.2,0.3,0.3l-0.2-0.1
				c-0.2-0.1-0.4-0.2-0.6-0.2c-0.4-0.1-0.7-0.2-0.9-0.2c-0.2,0-0.4,0.1-0.7,0.3c-0.3,0.2-0.6,0.5-0.9,0.8c-0.3,0.3-0.6,0.7-1.2,1.1
				l-0.1,0l-0.1,0l-11.4,5.3l-0.2,0.1l-0.2,0.1l-0.4,0.1l-0.7,0.3l-1.5,0.6c-0.5,0.2-1,0.4-1.5,0.6l-1.4,0.6c-1,0.4-2,0.8-3,1.1
				c-0.5,0.2-1.1,0.3-1.6,0.4c-0.4,0.1-0.9,0.3-1.3,0.5c-0.9,0.4-1.8,0.9-2.7,1.4l-1.4,0.8l-0.7,0.4c-0.2,0.1-0.5,0.3-0.6,0.4
				c-1.6,1-2.9,2.5-4.4,4c-0.8,0.8-1.6,1.5-2.3,2.2l-2.4,2.1c-1.6,1.4-3.3,2.8-5.1,3.9c-1.8,1.2-3.8,2.1-5.9,2.8
				c-0.9,0.3-1.8,0.7-2.5,1.2c-0.4,0.3-0.7,0.6-1,0.9c-0.4,0.5-0.9,0.9-1.4,1.2c-0.3,0.2-0.5,0.3-0.8,0.4c-0.3,0.1-0.5,0.2-1,0.3
				c-0.3,0-0.5,0-0.8-0.1c-0.1,0-0.3-0.1-0.3-0.1l-0.2-0.1c-0.2-0.1-0.5-0.2-0.6-0.3c-0.1,0-0.1,0-0.1,0c0,0,0.1,0,0.1,0
				c0,0-0.1,0.1-0.3,0.3l-0.5,0.6l-0.5,0.6l-2.2,2.3l-1.1,1.2c-0.2,0.2-0.5,0.5-1,0.7l-0.8,0.3c-1.9,0.7-3.7,1.7-5.6,2.6
				c-1.9,0.9-4.1,1.7-6.3,1.8c-0.5,0-1.2,0-1.5,0c-0.4,0-0.9,0.2-1.4,0.3c-0.5,0.1-1.2,0.3-2,0.2c-0.4-0.1-0.8-0.2-1.1-0.5
				c-0.1-0.1-0.2-0.1-0.2-0.2l-0.1-0.1l-0.1-0.1c0,0,0,0,0,0c0,0,0,0,0,0c-0.1,0-0.1,0-0.1,0c0,0-0.1,0-0.2,0.1c0,0-0.1,0.1-0.1,0.1
				l-0.3,0.3c-0.1,0.2-0.4,0.5-0.6,0.7c-0.9,0.9-2.2,1.4-3.3,1.5c-1.2,0.2-2.2,0.1-3.3,0.1c-0.9,0-1.8,0.2-2.7,0.6
				c-0.9,0.3-1.9,0.8-3,1.1c-1,0.3-2.2,0.6-3.5,0.4c-0.6-0.1-1.3-0.4-1.8-0.9C8.7,138,8.3,137.5,8,137c-0.6-1-0.9-2.1-1.2-3
				c-0.2-0.5-0.4-1-0.5-1.6c-0.1-0.3-0.1-0.6-0.2-0.9c0-0.2,0-0.3,0-0.5l0-0.4c0-0.8-0.3-1.6-0.9-2.3c-0.3-0.3-0.7-0.7-1.1-1.1
				c-0.4-0.4-0.8-0.8-1.1-1.3c-0.7-0.9-1.1-2-1.5-3c-0.6-2.2-0.7-4.2-1.2-6.3c-0.5-2.2-0.3-4.5,0.4-6.6c0.3-1.1,0.8-2.1,1.3-3
				c0.1-0.2,0.3-0.5,0.4-0.7l0.1-0.2l0.1-0.1c0.1-0.2,0-0.1,0.1-0.2c0.3-0.3,0.4-0.3,0.5-0.4c0,0,0,0,0,0c0,0-0.1,0.2-0.1,0.4
				c0,0.1,0.1,0.2,0.1,0.2l-0.1-0.1c-0.1-0.1-0.2-0.2-0.3-0.3c-0.1-0.1-0.2-0.3-0.3-0.4c-0.3-0.6-0.4-1.3-0.3-1.9
				c0.1-0.6,0.3-1.2,0.5-1.7c0.2-0.5,0.5-1,0.7-1.4L4,98.7c0.9-1.9,1.9-3.8,3.1-5.6c0.6-0.9,1.3-1.7,2-2.5c0.4-0.4,0.7-0.8,1.1-1.1
				c0.5-0.4,0.6-0.5,0.8-1c0.9-1.9,2.2-3.7,3.5-5.3c1.4-1.6,2.8-3.2,4.3-4.6l1.1-1.1c0.4-0.4,0.7-0.7,1.1-1.1c0.4-0.4,0.9-0.8,1.5-1
				c0.3-0.1,0.6-0.2,0.9-0.2c0,0,0.2-0.1,0.3-0.2c0.2-0.2,0.5-0.8,0.9-1.2c0.3-0.4,0.7-0.9,1.1-1.3c0.8-0.8,1.6-1.5,2.5-2.1
				c0.9-0.6,1.9-1,2.7-1.6c0.9-0.5,1.7-1.2,2.6-1.8l0,0.8c-0.7-0.6-1.5-1.1-2.4-1.6c-0.9-0.5-1.7-1-2.6-1.4
				c-0.9-0.4-1.8-0.8-2.7-1.4c-0.4-0.3-0.8-0.8-1.1-0.8c-0.3-0.1-0.9,0-1.5-0.2c-0.1,0-0.2,0-0.3-0.1c-0.1,0-0.1-0.1-0.2-0.3
				c0-0.1,0-0.2,0-0.2c0-0.1,0-0.1,0.1-0.2c0.2-0.3,0.3-0.3,0.4-0.4c0.1-0.1,0.1-0.1,0.2-0.2c0.1-0.1,0.1-0.1,0.1-0.2
				c0-0.1,0-0.1,0-0.1c0,0.1,0.1,0,0,0c-0.1,0-0.3,0-0.6,0.1c-0.6,0.1-1.2,0-1.7-0.3c-0.5-0.3-0.9-0.7-1.2-1L19.9,59
				c-0.1-0.1-0.3-0.3-0.2-0.6c0.1-0.3,0.2-0.4,0.4-0.5c0,0,0.2-0.1,0.3-0.1c0.1,0,0.2,0,0.2,0c0.1,0,0.3,0,0.3,0c0.1,0,0,0,0,0
				c0,0,0-0.3-0.1-0.4c-0.1-0.1-0.3-0.2-0.5-0.2c-0.1,0-0.2,0-0.3-0.1c-0.1,0-0.3,0-0.4-0.1c-0.1-0.1-0.3-0.1-0.4-0.3
				c-0.1-0.1-0.2-0.2-0.2-0.4c0-0.1,0-0.1,0-0.1c0,0,0,0,0,0l0-0.1c0.1-0.2,0.1-0.4,0.1-0.6c0-0.4-0.3-0.7-0.6-1.1l-0.3-0.3
				l-0.1-0.1L18.1,54c0,0-0.1-0.1-0.1-0.2c-0.1-0.2-0.1-0.3,0-0.6c0.1-0.2,0.2-0.2,0.3-0.3c0.1,0,0.2-0.1,0.2-0.1
				c0.6-0.1,1.2,0.1,1.6,0.4c0.4,0.4,0.7,0.8,1,1.2c1.2,1.6,2.6,3,4.1,4.3c1.5,1.3,3.2,2.3,4.9,3.3l5.1,3l-0.1,0.2L30,62.3
				c-1.8-0.9-3.5-2-5-3.2c-1.6-1.2-3-2.7-4.2-4.3c-0.3-0.4-0.6-0.8-0.9-1.1c-0.3-0.3-0.8-0.4-1.2-0.3c-0.1,0-0.2,0.1-0.1,0
				c0,0,0,0.1,0,0.2c0,0,0,0,0,0l0.1,0.1l0.1,0.1l0.3,0.3c0.3,0.3,0.8,0.8,0.8,1.4c0,0.3-0.1,0.6-0.2,0.9l0,0.1l0,0.1c0,0,0,0,0-0.1
				c0-0.1,0-0.1,0-0.1c0,0,0.1,0.1,0.2,0.1c0.1,0,0.2,0,0.3,0.1c0.1,0,0.3,0,0.4,0.1c0.3,0.1,0.6,0.2,0.8,0.4c0.2,0.3,0.3,0.6,0.3,1
				c0,0.1-0.1,0.3-0.3,0.3c-0.1,0.1-0.2,0.1-0.3,0.1c-0.2,0-0.3,0-0.4,0c-0.1,0-0.1,0-0.1,0c-0.1,0,0,0-0.1,0c0,0-0.1,0.1-0.1,0
				c0-0.1,0,0,0.1,0l0.3,0.3c0.7,0.7,1.4,1.3,2.3,1.1c0.2,0,0.5-0.1,0.9-0.1c0.2,0,0.5,0.1,0.6,0.4c0.1,0.3,0,0.5,0,0.7
				c-0.1,0.2-0.2,0.3-0.3,0.4c-0.1,0.1-0.2,0.2-0.3,0.3c-0.1,0.1-0.2,0.2-0.2,0.1c0,0,0.1-0.1,0-0.2c0-0.1-0.1-0.1-0.1-0.1
				c0,0,0,0,0.1,0c0.4,0.1,0.8,0,1.5,0.2c0.2,0,0.3,0.1,0.5,0.2c0.1,0.1,0.1,0.1,0.2,0.1l0.1,0.1c0.2,0.2,0.4,0.3,0.6,0.4
				c0.8,0.5,1.7,0.9,2.6,1.3c0.9,0.4,1.8,0.9,2.7,1.4c0.9,0.5,1.8,1,2.6,1.7l0.5,0.4l-0.5,0.4c-0.8,0.6-1.7,1.2-2.6,1.8
				c-0.9,0.6-1.9,1-2.7,1.6c-0.8,0.6-1.6,1.2-2.3,1.9c-0.3,0.4-0.7,0.7-1,1.2c-0.1,0.2-0.3,0.4-0.4,0.6L25,75.1
				c-0.1,0.1-0.2,0.3-0.3,0.4c-0.2,0.2-0.5,0.5-1,0.6c-0.2,0-0.4,0.1-0.6,0.1c-0.4,0.2-0.7,0.4-1.1,0.8c-0.3,0.3-0.7,0.8-1.1,1.1
				l-1.1,1.1c-1.5,1.5-2.9,3-4.2,4.6c-1.3,1.6-2.5,3.3-3.3,5.2c-0.1,0.2-0.3,0.6-0.5,0.8c-0.1,0.1-0.2,0.2-0.3,0.3l-0.3,0.3
				c-0.4,0.3-0.7,0.7-1.1,1.1c-0.7,0.8-1.3,1.6-1.9,2.4c-1.2,1.7-2.1,3.5-2.9,5.4l-0.6,1.4c-0.2,0.5-0.5,1-0.7,1.4
				c-0.4,0.9-0.6,1.7-0.2,2.4l0.1,0.2c0.1,0.1,0.2,0.2,0.2,0.3l0.1,0.2c0.1,0.1,0.2,0.2,0.2,0.5c0,0.3-0.1,0.6-0.2,0.7
				c-0.1,0.1-0.2,0.2-0.3,0.2c-0.1,0.1-0.3,0.2-0.2,0.1c0-0.1-0.1,0.1,0,0l0,0.1L3.7,107c-0.1,0.2-0.3,0.4-0.4,0.7
				c-0.5,0.9-0.9,1.8-1.2,2.8c-0.6,1.9-0.7,3.9-0.3,5.8c0.5,2.1,0.6,4.2,1.2,6.1c0.3,0.9,0.7,1.8,1.3,2.6c0.3,0.4,0.6,0.8,0.9,1.1
				c0.3,0.3,0.8,0.7,1.1,1.1c0.8,0.8,1.4,2.1,1.3,3.4l0,0.4c0,0.1,0,0.2,0,0.3c0,0.2,0.1,0.4,0.1,0.6c0.1,0.4,0.3,0.9,0.5,1.4
				c0.4,1.1,0.7,2,1.2,2.8c0.5,0.8,1,1.3,1.8,1.5c0.8,0.1,1.7,0,2.7-0.3c0.9-0.3,1.9-0.7,2.9-1.1c1-0.4,2.2-0.7,3.4-0.7
				c1.1,0,2.1,0,3-0.1c0.9-0.1,1.7-0.5,2.3-1.1c0.2-0.2,0.3-0.2,0.4-0.5l0.2-0.3c0.1-0.2,0.3-0.3,0.4-0.5c0.3-0.3,0.7-0.5,1.2-0.5
				c0.5-0.1,1,0.1,1.4,0.3c0.4,0.3,0.6,0.6,0.7,0.6c0.1,0.1,0.1,0.1,0.3,0.1c0.3,0,0.7,0,1.1-0.1c0.5-0.1,1-0.3,1.7-0.4
				c0.8-0.1,1.1,0,1.6-0.1c1.9-0.1,3.8-0.8,5.7-1.7c1.9-0.9,3.7-1.9,5.8-2.6l0.7-0.3c0,0,0.1-0.1,0.3-0.2l1.1-1.1l2.2-2.3l0.5-0.6
				l0.5-0.6c0.2-0.2,0.4-0.5,0.9-0.7c0.2-0.1,0.6-0.2,0.9-0.2c0.3,0,0.5,0.1,0.6,0.1c0.6,0.2,1.3,0.5,1,0.4c0,0,0.3-0.1,0.5-0.2
				c0.2-0.1,0.4-0.2,0.6-0.3c0.4-0.2,0.7-0.5,0.9-0.8c0.4-0.5,0.8-0.9,1.3-1.2c1-0.7,2-1.2,3.1-1.5c1.9-0.6,3.7-1.4,5.4-2.5
				c1.7-1.1,3.3-2.4,4.8-3.8l2.3-2.1c0.8-0.7,1.6-1.4,2.3-2.1c1.4-1.4,2.8-3.1,4.9-4.4c0.3-0.2,0.4-0.3,0.7-0.4l0.7-0.4l1.3-0.8
				c0.9-0.5,1.8-1.1,2.9-1.5c0.5-0.2,1-0.4,1.6-0.6c0.5-0.1,1-0.3,1.5-0.4c0.9-0.3,1.9-0.7,2.9-1.1l1.5-0.6c0.5-0.2,1-0.4,1.5-0.6
				l1.5-0.6l0.7-0.3L98,97l0.3-0.1l11.4-5.3l-0.1,0.1c0.2-0.1,0.4-0.4,0.8-0.8c0.4-0.4,0.7-0.7,1.2-1c0.4-0.3,1.1-0.7,1.8-0.7
				c0.7-0.1,1.3,0.1,1.8,0.3c0.2,0.1,0.5,0.2,0.7,0.3l0.2,0.1c0.2,0.1,0.4,0.3,0.6,0.5c0.3,0.4,0.2,0.7,0.2,0.9l0,0.2
				c0,0-0.1-0.3-0.3-0.4c-0.2-0.1-0.3-0.1-0.3-0.1l0.1,0l0,0l0,0c0.1,0-0.1,0-0.1,0l0,0l0.1,0c0.3,0,0.5-0.1,0.8-0.4
				c0.2-0.1,0.2-0.2,0.6-0.5c0.3-0.2,0.6-0.4,1-0.5c0.7-0.2,1.6,0,2.2,0.6c0.1,0.1,0.3,0.3,0.4,0.5l0.2,0.3c0.1,0.1,0.2,0.3,0.3,0.3
				c0.2,0.2,0.4,0.3,0.7,0.3c0.2,0,0.2,0,0.7,0.1c0.4,0.1,0.8,0.3,1.1,0.6c0.2,0.1,0.3,0.3,0.4,0.5c0.1,0.1,0.1,0.2,0.2,0.3
				c0.1,0.1,0,0.1,0.1,0.2c0.1,0.2,0.1,0.3,0.2,0.4c0.2,0.2,0.3,0.3,0.5,0.4c0.1,0,0.2,0,0.4,0l0.7,0c0.5,0,0.9,0,1.3,0
				c0.9-0.1,1.2-0.2,1.7-0.7c0.4-0.5,0.7-1.3,0.8-2l0-0.3l0-0.3l0-0.7c0-0.5,0-1.1,0.2-1.7c0.1-0.3,0.3-0.7,0.4-0.9
				c0.1-0.2,0.2-0.3,0.3-0.5c0.2-0.3,0.3-0.7,0.3-1.1c0.2-0.8,0.1-1.7,0.1-2.6c0-1,0.1-2,0.3-3c0.2-0.9,0.4-1.7,0.5-2.6l0.3-2.8
				l0.1,0.6c-0.6-1-0.9-2.2-1.1-3.2c-0.2-1.1-0.3-2.1-0.6-3c-0.2-0.9-0.6-1.8-1.1-2.4c-0.1-0.2-0.3-0.4-0.5-0.6
				c-0.2-0.2-0.3-0.4-0.4-0.6c-0.1-0.2-0.1-0.4-0.1-0.7c0-0.1,0-0.2,0-0.3l0-0.1l0-0.1l0.1-0.2c0-0.1,0.1-0.2,0.1-0.3
				c0.1-0.2,0.1-0.4,0.2-0.6c0.2-0.9,0.1-1.9,0.2-3c0-0.3,0-0.5,0.1-0.8c0-0.4,0.2-0.8,0.4-1.1c0.4-0.6,1-1.1,1.5-1.3
				c1.7-1,3.4-2.2,5-3.5c1.6-1.2,3.3-2.6,5-3.8l2.6-1.8l1.3-0.9c0.5-0.3,0.7-0.5,1-0.9c0.6-0.6,0.8-1.5,0.5-1.8
				c-0.3-0.6-1.1-1-1.8-0.9c-0.7,0-1.7,0.5-2.3,0.9c-0.6,0.4-1.2,1.6-2.6,2.1l0.6-0.7c0,0.3-0.2,0.6-0.5,0.9
				c-0.3,0.2-0.6,0.4-0.8,0.4l0.4-0.3l-0.6,0.7l-0.6,0.7l-1.3,1.3l0,0l0,0l-0.4,0.3l-1.2-1.2l1.4-1.4l0.7-0.7l0.2-0.2l0.2-0.2
				l0.4-0.3l-0.3,0.5c0-0.2,0.1-0.6,0.4-0.8c0.3-0.3,0.7-0.4,1-0.4l-0.7,0.7c0.1-0.6,0.1-1.2-0.1-1.6c-0.1-0.5-0.4-0.8-0.8-1
				c-0.5-0.2-0.9-0.3-1.3-0.1c-0.4,0.2-0.9,0.5-1.3,0.9l-0.3,0.3l-0.3,0.3l-0.3,0.4L135,45c0,0-0.1,0.1-0.1,0.1l-0.5,0.8
				c-0.1,0.2-0.2,0.3-0.4,0.5c-0.1,0.1-0.3,0.3-0.4,0.4c-1,0.9-1.9,1.8-2.8,2.8c-0.9,0.9-1.8,1.9-2.7,2.9c-0.4,0.5-0.8,1-1.2,1.5
				l-0.6,0.8c-0.3,0.3-0.5,0.6-0.8,0.8c-0.6,0.5-1.2,0.7-1.7,1.1c-0.3,0.2-0.6,0.4-0.9,0.5c-0.2,0.1-0.4,0.2-0.6,0.2
				c-0.2,0.1-0.6,0-0.8,0c-0.5-0.2-0.8-0.5-1.1-0.7c-0.3-0.2-0.5-0.5-0.7-0.7c-0.5-0.5-0.9-0.9-1.4-1.2c-0.2-0.1-0.5-0.3-0.7-0.3
				c-0.1,0-0.2-0.1-0.4-0.1l-0.5,0c-0.7,0-1.4-0.1-2.1-0.2c-1.3-0.2-2.7-0.6-3.9-1.1c-1.3-0.5-2.5-0.9-3.7-1.6
				c-1.2-0.6-2.3-1.4-3.4-1.9c-1.2-0.5-2.4-1-3.6-1.3c-1.2-0.2-2.4-0.2-3.6,0.2C95,49,93.4,49,92,48.5C90.9,48,89.7,48,88.3,48
				c-5.2-0.2-10.5,0.4-15.5,1.8l-1,0.3c-0.3,0.1-0.7,0.2-1,0.2c-0.7,0.1-1.5,0-2.1-0.2c-0.7-0.2-1.3-0.5-1.9-0.9
				c-0.6-0.4-1.1-0.8-1.6-1.2c-0.5-0.4-1-0.7-1.6-1c-0.6-0.3-1.2-0.7-1.7-1.1c-1.1-0.8-2.2-1.6-3.2-2.4l-3.1-2.5l-3-2.6
				c-1-0.8-2-1.6-3.2-2.2c-1.2-0.6-2.3-1.4-3.4-2.2c-2.1-1.6-4.2-3.2-6.7-4L39.1,30c-0.1,0-0.2-0.1-0.3-0.2
				c-0.2-0.1-0.3-0.3-0.4-0.4c-0.2-0.2-0.4-0.5-0.7-0.7c-0.5-0.4-1-0.7-1.6-1.1c-1.1-0.6-2.4-1.3-3.3-2.4l0.1,0.1
				c-2.9-1.3-5.6-2.8-8.5-4.2c-2.8-1.4-5.6-2.7-8.6-3.8c-2.9-1.1-5.8-2.4-8.7-3.7c-2.8-1.3-5.8-2.2-8.9-3l-1.1-0.3
				c-0.4-0.1-0.7-0.1-1.1-0.1c-0.7,0-1.4,0.4-1.8,0.9c-0.4,0.5-0.6,1.2-0.5,1.9c0.1,0.6,0.6,1.4,0.9,2.1c0.7,1.4,1.4,2.8,2.3,4.1
				c0.8,1.3,2,2.3,3.2,3.4c0.6,0.6,1.1,1.1,1.6,1.8c0.5,0.7,0.8,1.5,1.1,2.2c0.3,0.7,0.6,1.4,1,2.1C4,29,4.3,29.3,4.5,29.6
				c0.3,0.3,0.5,0.4,0.9,0.8c0.2,0.3,0.3,0.5,0.3,0.7c0,0.2,0.1,0.3,0.2,0.5l0.4,1.1l0.8,2.2c0.6,1.5,1.1,2.9,2,4.1
				c0.5,0.6,1,1,1.7,1.5c0.6,0.5,1.2,1.1,1.8,1.7c1.1,1.2,2.1,2.4,3.2,3.5c0.5,0.6,1.1,1.1,1.7,1.5c0.3,0.2,0.6,0.4,0.9,0.6
				c0.3,0.2,0.8,0.4,0.7,0.4c-0.1,0,0,0,0.1-0.1c0.1-0.1,0.1-0.2,0.1-0.3c0-0.1,0-0.2,0-0.1c0,0-0.3-0.2-0.4-0.3
				c-0.8-0.6-1.2-1.4-1.6-1.9c-0.2-0.3-0.4-0.6-0.7-0.8c-0.3-0.2-0.7-0.5-0.9-0.7c-0.6-0.5-1.2-1.1-1.7-1.6c-0.6-0.5-1.1-1-1.7-1.4
				c-0.1-0.1-0.3-0.2-0.5-0.3c-0.2-0.1-0.4-0.3-0.6-0.5c-0.3-0.3-0.6-0.8-0.8-1.2c-0.2-0.4-0.3-0.8-0.4-1.2
				c-0.1-0.3-0.3-0.6-0.5-0.9C9.3,36.4,9,36,8.8,35.7c-0.2-0.3-0.3-0.7-0.5-1c-0.7-1.4-1.5-2.7-2.3-4.1c-0.4-0.7-0.7-1.4-1-2.2
				c-0.3-0.8-0.5-1.5-0.8-2.2c-0.6-1.4-1.4-2.8-2.1-4.2c-0.2-0.3-0.3-0.5-0.5-0.5c0,0-0.1,0-0.1,0c-0.1,0,0,0-0.1,0
				c-0.1,0-0.4,0-0.7,0c-0.5,0-1-0.2-1.4-0.5c-0.4-0.3-0.7-0.7-0.9-1.1c-0.2-0.4-0.4-0.8-0.6-1.1c-0.2-0.4-0.3-0.5-0.6-1.1
				C-3,17-3.1,16.5-3,15.9c0-0.3,0.1-0.5,0.3-0.8c0.1-0.1,0.2-0.3,0.3-0.4l0.1-0.1l0,0c0,0,0.1-0.1,0.1-0.1l0.1-0.1
				c0.3-0.2,0.8-0.3,1.1-0.2c0.3,0,0.6,0.1,0.8,0.2c0.4,0.2,0.6,0.3,0.9,0.3c0.2,0,0.3,0,0.5,0c0.1,0,0.4,0,0.3,0c0,0,0,0-0.1,0.1
				c-0.1,0-0.2,0.2-0.2,0.3c0,0.3,0,0.3,0,0.3c0,0-0.1-0.2-0.3-0.4c-0.1-0.1-0.1-0.2-0.2-0.3c0-0.1-0.1-0.1-0.1-0.2
				c0,0,0-0.1-0.1-0.2c0-0.1,0-0.1,0-0.2c0-0.2,0.1-0.4,0.1-0.3C1,13,1.7,13,2.1,13.1c0.2,0.1,0.4,0.1,0.6,0.3
				c0.1,0.1,0.1,0.1,0.2,0.2c0.1,0.1,0.2,0.2,0.4,0.2c0.3,0.1,0.6,0.2,1,0.4c0.2,0.1,0.4,0.1,0.6,0.2l0.5,0.2c2.8,1.2,6,2,8.7,4.1
				L13,20l0,0l-1.5-1.3l1.9-0.2c0.7-0.1,1.4,0.1,1.9,0.3c0.6,0.2,1.1,0.5,1.6,0.8c0.5,0.3,0.9,0.5,1.4,0.7l1.5,0.7
				c1,0.5,2,0.9,2.9,1.5c0.2,0.1,0.5,0.3,0.7,0.5l0.3,0.2l0.2,0.1c0.1,0.1,0.2,0.2,0.3,0.2c0.1,0.2,0.3,0.3,0.4,0.5
				c0.1,0.1,0.1,0.2,0.1,0.5c0,0.1,0,0.1,0,0.2l0,0.1l0,0.1l0,0.1c0,0.1-0.1,0.2-0.2,0.3c-0.1,0.2-0.4,0.4-0.7,0.4
				c-0.2,0-0.4,0-0.5,0c-0.3-0.1-0.4-0.1-0.5-0.2c-0.6-0.3-1-0.5-1.4-0.7c-0.4-0.2-0.8-0.3-1.1-0.2c-0.2,0-0.4,0.1-0.5,0.1
				c-0.1,0-0.1,0.1-0.1-0.1c0,0.1,0-0.1,0,0c0,0,0,0,0,0c0,0,0.1,0,0.1,0c0.5-0.1,1.2-0.1,1.8,0c0.6,0.1,1.2,0.2,1.7,0.4
				c1.1,0.3,2.1,0.7,3.1,1l1.5,0.4l-1.1,1.1l0,0L25,29.1l0.1-2.2l0-0.6l0.8,0.9c-0.3,0-0.7-0.2-0.9-0.5c-0.3-0.3-0.4-0.6-0.4-0.9
				l0.5,0.6l-0.5-0.3l-1.2-0.6l1-0.8c0.1-0.1,0.2-0.1,0.3-0.2c0.1,0,0.1,0,0.2-0.1c0.1,0,0.1,0,0.3-0.1c0.1,0,0.3,0,0.4,0.1
				c0.1,0.1,0.3,0.2,0.3,0.3c0.1,0.2,0.2,0.3,0.2,0.4c0,0.1,0,0.1,0,0.2c0,0.1,0,0.1,0,0l-0.7-0.6c0.3,0,0.6,0.1,0.9,0.4
				c0.3,0.3,0.4,0.7,0.4,1L26,25.4c0.5,0,1.1,0,1.7,0.4c0.6,0.4,0.9,0.9,1.1,1.4l-0.6-0.6c0.2,0.1,0.5,0.2,0.8,0.4
				c0.3,0.3,0.4,0.6,0.5,0.9l-0.8-0.7c0.2,0,0.5,0,1,0.1c0.2,0.1,0.5,0.2,0.7,0.5c0.2,0.2,0.3,0.5,0.4,0.7l-0.7-0.6
				c0.3,0,0.6,0.1,0.9,0.4c0.3,0.3,0.4,0.7,0.5,1l-0.9-0.8c0.3,0,0.6,0,1,0.2c0.2,0.1,0.5,0.2,0.6,0.4c0.2,0.2,0.3,0.4,0.4,0.6
				l-0.2-0.3l0.6,0.6l-0.4-0.2c0.2,0.1,0.5,0.1,0.8,0.4c0.3,0.3,0.5,0.7,0.5,1l-0.5-0.7l0.5,0.2l1.2,0.6l-1.1,0.8l-0.1,0.1
				c-0.1,0-0.1,0.1-0.2,0.1c-0.1,0-0.1,0-0.2,0.1c-0.1,0-0.2,0-0.3,0c-0.2,0-0.3,0-0.5-0.1c-0.2-0.1-0.2-0.2-0.3-0.3
				c0-0.1-0.1-0.2-0.1-0.2c0-0.1,0-0.1,0-0.1l0-0.1c0,0,0,0,0,0l0,0.1c0,0,0.1,0.1,0.1,0.2l0.6,0.3c-0.3,0-0.7-0.2-1-0.5
				c-0.3-0.3-0.4-0.7-0.4-0.9l0.7,0.7c-0.2-0.1-0.5-0.2-0.8-0.4c-0.3-0.3-0.5-0.7-0.5-1l0.9,0.8c-0.2,0-0.5,0.1-1-0.1
				c-0.3-0.1-0.6-0.3-0.8-0.5c-0.2-0.3-0.3-0.5-0.3-0.7l0.8,0.7c-0.3,0-0.7-0.1-1-0.4c-0.3-0.3-0.4-0.7-0.4-1l0.9,0.8
				c-0.2,0-0.5,0.1-1-0.1c-0.3-0.1-0.6-0.3-0.7-0.5c-0.2-0.2-0.3-0.5-0.3-0.7l0.7,0.7c-0.3,0-0.6-0.2-0.9-0.5
				c-0.3-0.3-0.4-0.7-0.4-0.9l0.9,0.8l-1.3,0l-2.2,0.1l1.6-1.6l0,0l1.2,1.3c-0.4,0.4-0.8,0.7-0.8,0.9c0,0.1,0,0,0,0.1
				c0,0.1,0.1,0.2,0.2,0.3l-1.2,1.2l0,0l-1.4-1.2l1.8-0.3c0.7-0.1,1.5,0.1,2,0.5c0.3,0.2,0.5,0.4,0.7,0.6l0.3,0.3l0.1,0.1
				c0,0.1,0.1,0.1,0.1,0.1c0,0,0,0,0,0c0,0,0,0,0,0c0.1,0,0.3,0,0.5-0.1c0.1,0,0.3-0.1,0.5-0.1c0.2,0,0.4,0,0.7,0.1
				c0.3,0.1,0.5,0.3,0.7,0.5c0.2,0.2,0.2,0.4,0.3,0.5L31.2,31l0.5,0.1c0.1,0,0.2,0,0.4,0.1l0.2,0.1c0.1,0,0.2,0.1,0.2,0.1
				c0.3,0.1,0.4,0.2,0.5,0.3c0.1,0.1,0.2,0.2,0.3,0.3c0,0.1,0.1,0.1,0.1,0.3c0,0.1,0.1,0.1,0.1,0.3c0,0.1,0,0.3,0,0.4l0,0l-0.1,0.2
				l0,0c-0.1,0.2-0.3,0.4-0.5,0.5c-0.4,0.3-0.9,0.3-1.1,0.2c-0.1,0-0.3-0.1-0.4-0.1c-0.2-0.1-0.3-0.1-0.5-0.3
				c-0.4-0.3-0.6-0.7-0.6-1c-0.1-0.3,0-0.5,0-0.7l1.6,0.3c-0.1,0.3-0.3,0.6-0.4,0.8c-0.1,0.3-0.2,0.6-0.2,0.6c0,0-0.1-0.2-0.1-0.2
				c0,0,0,0,0.1,0c0.2,0.1,0.5,0.1,0.9,0.1c1.4,0.2,2.7,0.7,3.9,1.3c1.2,0.6,2.3,1.4,3.3,2.1c0.5,0.4,1.2,0.8,1.7,1.4
				c0.5,0.6,0.8,1.5,0.8,2.3L41,39.8c0.2,0,0.5,0,1,0.1c0.2,0.1,0.5,0.3,0.7,0.5c0.2,0.2,0.3,0.5,0.3,0.7l-0.8-0.6
				c0.2,0,0.5,0,1,0.1c0.2,0.1,0.5,0.2,0.7,0.4c0.2,0.2,0.3,0.4,0.3,0.6l-0.7-0.6c0.3,0,0.6,0.1,0.9,0.4c0.3,0.3,0.4,0.7,0.4,0.9
				l-0.8-0.7c0.3,0,0.6,0,1.1,0.1c0.2,0.1,0.5,0.2,0.6,0.5c0.2,0.2,0.3,0.4,0.3,0.6l-0.7-0.6c0.3,0,0.6,0.1,0.9,0.4
				c0.3,0.3,0.4,0.6,0.4,0.9L46,42.9l0.7,0l-0.8,0.7c0-0.1,0-0.2,0-0.4c0-0.2,0-0.4,0.2-0.8c0.1-0.2,0.4-0.4,0.6-0.5
				c0.2-0.1,0.4-0.1,0.6-0.1c0.1,0,0.3,0.1,0.4,0.1l0.1,0L48,42c0.2,0.1,0.5,0.2,0.7,0.5c0.2,0.3,0.3,0.7,0.3,1
				c0,0.3-0.1,0.5-0.2,0.7c-0.1,0.2-0.2,0.4-0.2,0.5l-0.5-1.2c0.3,0.1,0.7,0.2,1,0.5c0.3,0.3,0.5,0.6,0.6,1l-0.9,1c0,0,0,0,0.1,0
				c0.1,0,0.1,0,0.1-0.1c0,0,0,0,0,0c0,0-0.1,0.1-0.1,0.1c-0.1,0.1-0.2,0.3-0.3,0.5c-0.1,0.1-0.2,0.2-0.3,0.3
				c-0.1,0.1-0.3,0.2-0.5,0.3c-0.4,0.1-0.8,0-1.1-0.1l-0.4-0.2c-0.1-0.1-0.3-0.1-0.5-0.3c-0.3-0.2-0.5-0.5-0.5-0.8l0.7,0.6
				c-0.2,0-0.5,0-0.9-0.1c-0.2-0.1-0.4-0.2-0.6-0.4c-0.2-0.2-0.3-0.4-0.4-0.6l0.6,0.5c-0.1,0-0.4,0-0.9-0.1
				c-0.2-0.1-0.5-0.2-0.7-0.4c-0.2-0.2-0.3-0.4-0.4-0.6l0.4,0.5l-0.5-0.3l-1.1-0.6l0.9-0.7l0.1-0.1c0.1,0,0.1-0.1,0.2-0.1
				c0.1,0,0.1,0,0.2-0.1c0.1,0,0.1,0,0.3,0c0.1,0,0.3,0,0.4,0.1c0.1,0.1,0.2,0.2,0.3,0.3c0.1,0.2,0.1,0.3,0.2,0.3l0,0.2
				c0,0.1,0,0.1,0,0l-0.7-0.4c0.2,0,0.5,0,1,0.1c0.2,0.1,0.5,0.2,0.7,0.5c0.2,0.2,0.3,0.5,0.3,0.7l-0.7-0.6c0.2,0,0.5,0,1,0.1
				c0.2,0.1,0.5,0.2,0.6,0.4c0.2,0.2,0.3,0.4,0.3,0.6l-0.7-0.5c0.3,0,0.5,0,0.7-0.1c0.2-0.1,0.3-0.3,0.4-0.6l0.4,1l-1.3-0.6l1-0.3
				L47,44.6l-0.6,1l-0.6-1l-0.3-0.5l0.5,0.3c-0.2,0-0.6-0.1-0.9-0.4c-0.3-0.3-0.4-0.7-0.4-0.9l0.7,0.7c-0.2,0-0.5,0-1-0.1
				c-0.2-0.1-0.5-0.2-0.7-0.5c-0.2-0.2-0.3-0.4-0.3-0.6l0.6,0.6c-0.2,0-0.6-0.1-0.9-0.4c-0.3-0.3-0.4-0.7-0.4-0.9l0.7,0.7
				c-0.2,0-0.5,0-1-0.1c-0.2-0.1-0.5-0.2-0.6-0.4c-0.2-0.2-0.3-0.4-0.3-0.6l0.6,0.5c-0.2,0-0.5,0-0.9-0.1c-0.2-0.1-0.5-0.2-0.7-0.4
				c-0.2-0.2-0.3-0.4-0.3-0.6l0.9,0.5c-0.4,0.1-0.8,0-1.1-0.1c-0.3-0.1-0.5-0.3-0.7-0.3c-0.1,0-0.2-0.1-0.2-0.1c0,0,0,0-0.1,0l0,0
				l0,0c0,0,0,0,0,0l0,0l0,0c0,0,0,0,0,0c-0.1,0-0.3,0.1-0.6,0.2l0.3-1.2l0.6,0.5l0.1,0.1c0,0,0,0,0.1,0.1l0.1,0.1
				c0.1,0.1,0.1,0.2,0.2,0.2l0.2,0.3l-0.3-0.2l0.5,0.3l1,0.5L40.1,42L40,42.1c-0.1,0-0.1,0.1-0.2,0.1c0,0-0.1,0-0.1,0.1
				c-0.1,0-0.1,0-0.3,0c-0.1,0-0.3,0-0.4-0.1c-0.1-0.1-0.2-0.2-0.3-0.3c0-0.1-0.1-0.2-0.1-0.2c0,0,0-0.1,0-0.1l0-0.1c0,0,0-0.1,0,0
				l0,0c0,0,0,0.1,0.1,0.1l0.7,0.3c-0.6,0.1-1.2,0-1.7-0.2c-0.5-0.2-0.9-0.3-1.2-0.4l-0.1,0l-0.2,0c0,0-0.1,0-0.1,0
				c-0.1,0-0.1,0.1-0.2,0.2c-0.2,0.2-0.4,0.7-0.8,1.2c-0.1,0.1-0.2,0.2-0.4,0.3c-0.1,0.1-0.2,0.1-0.3,0.1l-0.2,0l0,0l0,0
				c-0.1,0,0,0-0.1,0l0,0l0,0c0,0,0.1,0,0.1,0c0,0,0,0,0,0c0,0-0.2,0.1-0.4,0.2c-0.1,0-0.2,0.1-0.4,0.1c-0.1,0-0.3,0.1-0.6-0.2
				c-0.2-0.1-0.1-0.1-0.2-0.2c0-0.1-0.1-0.1-0.1-0.2c-0.1-0.2-0.2-0.4-0.2-0.6c0-0.3,0.1-0.4,0.1-0.5l0.1-0.4
				c0.1-0.2,0.2-0.4,0.2-0.6c0.1-0.2,0.1-0.4,0.2-0.6c0.1-0.4,0-0.5-0.2-0.7l1.1-0.2c-0.2,0.4-0.3,0.8-0.6,1.3
				c-0.1,0.1-0.1,0.3-0.2,0.4c-0.1,0.1-0.2,0.3-0.3,0.4c-0.2,0.2-0.4,0.4-0.6,0.5c-0.2,0.1-0.3,0.3-0.3,0.3c0-0.1,0,0.1,0,0l0,0.2
				c0,0.1,0,0.3-0.1,0.4c-0.1,0.6-0.6,1.3-1.2,1.5c-0.6,0.2-1.1,0.2-1.6,0.2c-0.4,0-0.9,0-1.4,0l-0.2,0c0,0,0,0,0,0c0,0,0,0,0,0
				c0,0,0-0.1,0-0.1c0,0,0,0.1,0,0c0,0,0-0.1-0.1-0.1c0,0-0.1,0,0.1,0c0.3,0,0.7,0.1,0.9,0.3c0.5,0.3,0.8,0.7,1.1,0.9
				c0.1,0,0.1,0.1,0.2,0.1c0.1,0,0.1,0,0.1,0c0,0,0.1,0,0.2,0c0,0,0.1,0,0,0l0.1,0l0.1,0c0.2,0,0.3,0,0.5,0c0.7,0.1,1.1,0.6,1.4,0.9
				c0.3,0.3,0.6,0.5,0.8,0.5l0.2,0c0.1,0,0.2,0,0.3,0c0.2,0,0.3,0.1,0.5,0.2c0.3,0.2,0.5,0.4,0.7,0.6c0.3,0.5,0.5,0.9,0.7,1.2
				c0.1,0.1,0.4,0.2,0.9,0.3c0.2,0,0.5,0.1,0.9,0.3c0.3,0.2,0.6,0.5,0.7,0.8l-0.5-0.3c0.5,0,1.1,0.1,1.6,0.4
				c0.1,0.1,0.2,0.2,0.3,0.3c0,0.1,0.1,0.1,0.1,0.2l0,0.1l0.1,0.1c0.1,0.1,0.2,0.3,0.2,0.5c0,0.2,0,0.5-0.1,0.7c0,0.1,0,0.1-0.1,0.1
				c0,0.1-0.1,0.1-0.1,0.1l0,0c0,0-0.1,0.1-0.1,0.1c-0.1,0.1-0.2,0.1-0.2,0.1c-0.1,0-0.2,0-0.2,0c-0.2,0-0.3-0.1-0.5-0.2
				C38,52.4,38,52.4,38,52.3l-0.1-0.1L37.7,52c-0.3-0.3-0.7-0.7-0.9-1.3l0.5,0.4c-0.5,0-1,0-1.6,0c-0.3,0-0.6-0.1-0.9-0.2
				c-0.3-0.1-0.4-0.2-0.7-0.3c-0.9-0.3-1.8-0.1-2.9,0l-0.4,0c-0.1,0-0.1,0-0.2,0.1c-0.1,0.1-0.2,0.2-0.2,0.4l0,0c0,0,0,0,0-0.1
				c-0.1-0.2-0.1-0.2-0.1-0.3c-0.1-0.1-0.1,0-0.1,0l0,0l0.2,0.1l0.4,0.1c0.2,0.1,0.5,0.1,0.7,0.2c1,0.3,2.1,0.4,3.1,1.1
				c0.1,0.1,0.2,0.2,0.3,0.2c0.1,0,0.2,0.1,0.3,0.1c0.2,0,0.5,0.1,0.7,0.1c0.3,0,0.6,0.1,0.9,0.2c0.3,0.1,0.7,0.5,0.7,0.9
				c0.1,0.4,0,0.7-0.1,1l-0.1,0.4l0,0c0-0.1,0,0.1,0-0.1c-0.3-0.6-0.1-0.2-0.2-0.3c0,0,0,0,0,0l0,0l0.1,0l0.1,0.1
				c0.1,0.1,0.4,0,0.6,0.1l0.8,0c1,0,2.1-0.1,3.2,0.2c0.5,0.1,1.1,0.4,1.5,0.8c0.2,0.2,0.4,0.4,0.6,0.6l0.2,0.3
				c0,0.1,0.1,0.1,0.2,0.2c0.7,0.4,1.9,0.5,2.9,0.8c1,0.3,2,0.6,3,0.8c0.5,0.1,1,0.2,1.5,0.2c0.3,0,0.5,0,0.8,0c0.1,0,0.3,0,0.4,0
				l0.2,0c0,0,0.2,0,0.3,0c0.2,0,0.3,0.1,0.4,0.2c0.1,0,0.1,0.1,0.2,0.2c0.1,0.1,0.1,0.2,0.1,0.3c0,0.2,0,0.4-0.1,0.5
				c-0.1,0.2-0.3,0.2-0.4,0.3c-0.3,0.1-0.6,0.1-0.8,0.1l-0.8,0c-0.5,0-1.1,0-1.5,0.1c-0.4,0.1-0.4,0.7-0.5,1.2l-0.1,0.8
				c0,0.1,0,0.3-0.1,0.4c0,0.1-0.1,0.3-0.3,0.4c-0.2,0.1-0.4,0-0.5-0.1c-0.1-0.1-0.2-0.1-0.3-0.2L48,62.3c-0.8-0.6-1.8-1-2.8-1
				c-1-0.1-2,0.2-2.9,0.7L42.2,61.8z"/>
		</g>
		<path class="st2" d="M57.3,47.5c0.1,0.1,0,0.6,0.4,0.3C57.6,47.7,57.4,47.6,57.3,47.5c-0.1-0.1-0.1-0.2-0.2-0.2c0,0-0.1,0-0.2-0.1
			C57,47.3,57.2,47.4,57.3,47.5z"/>
		<path class="st3" d="M142.9,46.9c0.1-0.1,0.2-0.2,0.3-0.3C143.2,46.6,143,46.7,142.9,46.9c-0.1,0.1-0.3,0.2-0.4,0.3
			C142.7,47.1,142.8,47,142.9,46.9z"/>
		<path class="st3" d="M136.1,46.9c0.2-0.2,0.4-0.4,0.6-0.6c0.1-0.1,0.2-0.2,0.3-0.4c-0.1,0.1-0.2,0.2-0.4,0.3
			C136.4,46.4,136.2,46.6,136.1,46.9c-0.1,0.1-0.2,0.2-0.3,0.3C135.8,47.1,136,47,136.1,46.9z"/>
		<path class="st2" d="M52.9,49.3c0,0.1,0.1,0.2,0.1,0.3c0,0,0.1,0,0.2,0.1C53.1,49.6,53,49.5,52.9,49.3c-0.1-0.1,0-0.6-0.4-0.2
			C52.6,49.2,52.8,49.3,52.9,49.3z"/>
		<path class="st3" d="M140.4,48.8c0.1-0.1,0.2-0.2,0.3-0.4C140.7,48.5,140.5,48.6,140.4,48.8c-0.1,0.1-0.2,0.2-0.4,0.3
			C140.2,49,140.3,48.9,140.4,48.8z"/>
		<path class="st2" d="M50.4,40.6c0.1,0,0.2,0,0.3-0.1c0,0,0-0.1,0.1-0.2C50.5,40.3,50.4,40.4,50.4,40.6c-0.2,0-0.4,0-0.6,0
			c-0.3-2.2-2.2-2.8-3.7-3.8c-0.1-0.4-0.3-0.5-0.6-0.6c-0.4-0.7-1.2-0.9-1.9-1.2c-0.1-0.2,0-0.6-0.4-0.3c0.2,0.1,0.3,0.1,0.5,0.2
			c-0.5,1.4-0.5,1.4,1.2,1.9c0,0.4,0.3,0.6,0.6,0.6c1,0.8,2.1,1.6,3,2.6c0.4,0.5,0.9,0.5,1.4,0.5c0.1,0.1,0.2,0.3,0.3,0.4
			C50.2,40.9,50.3,40.7,50.4,40.6z"/>
		<path class="st2" d="M47.3,40.6c0.1,0.1,0,0.6,0.4,0.2C47.6,40.8,47.4,40.7,47.3,40.6c-0.1-0.1,0-0.6-0.4-0.2
			C47,40.4,47.1,40.5,47.3,40.6z"/>
		<path class="st2" d="M42.9,38.1c0.1,0.1,0.2,0.2,0.4,0.3C43.1,38.3,43,38.2,42.9,38.1c-0.2-0.2-0.4-0.4-0.6-0.7
			c-0.2-0.2-0.4-0.4-0.6-0.6c-0.1-0.1-0.3-0.2-0.4-0.3c0.1,0.1,0.2,0.2,0.3,0.3c0.2,0.2,0.4,0.4,0.6,0.6
			C42.5,37.7,42.7,37.9,42.9,38.1z"/>
		<path class="st2" d="M50.4,45c0,0.1,0,0.2,0.1,0.3c0,0,0.1,0.1,0.2,0.1C50.6,45.2,50.5,45.1,50.4,45c-0.1-0.3-0.3-0.5-0.7-0.6
			c-0.1-0.1,0-0.6-0.4-0.2c0.2,0.1,0.3,0.1,0.5,0.2C49.8,44.7,50,44.9,50.4,45z"/>
		<path class="st2" d="M39.2,35c-0.1-0.1-0.2-0.2-0.4-0.3C38.9,34.8,39,34.9,39.2,35c0.1,0.1,0.2,0.2,0.3,0.3
			C39.4,35.2,39.3,35.1,39.2,35z"/>
		<path class="st2" d="M52.9,42.5c0.2-0.1,0.3-0.2,0.5-0.3c-0.2-0.1-0.3-0.2-0.5-0.3c-0.2-0.5-0.4-0.7-0.6,0
			c-0.1,0.1-0.3,0.2-0.4,0.3c0.1,0.1,0.3,0.2,0.4,0.3C52.5,42.9,52.7,43.1,52.9,42.5z"/>
		<path class="st3" d="M42.3,127.5c-0.1,0-0.2,0.1-0.3,0.1c0,0-0.1,0.1-0.1,0.2C42,127.7,42.2,127.6,42.3,127.5
			c0.1-0.1,0.2-0.1,0.3-0.2c0,0,0.1-0.1,0.1-0.2C42.5,127.3,42.4,127.4,42.3,127.5z"/>
		<path class="st3" d="M36.6,128.1c-0.1,0.1-0.2,0.2-0.3,0.4C36.4,128.4,36.6,128.3,36.6,128.1c0.2-0.1,0.3-0.2,0.4-0.3
			C36.9,127.9,36.8,128,36.6,128.1z"/>
		<path class="st2" d="M62.3,50.6c-0.1-0.1,0-0.6-0.4-0.3C62,50.4,62.1,50.5,62.3,50.6c0.1,0.1,0.1,0.2,0.2,0.2c0,0,0.1,0,0.2,0.1
			C62.5,50.8,62.4,50.7,62.3,50.6z"/>
		<path class="st3" d="M133.5,53.7c-0.1,0.1-0.2,0.2-0.3,0.4C133.3,54,133.5,53.9,133.5,53.7c0.2-0.1,0.3-0.2,0.4-0.3
			C133.8,53.5,133.6,53.6,133.5,53.7z"/>
		<path class="st2" d="M56.7,49.3c0.1,0.1,0,0.6,0.4,0.3C56.9,49.5,56.8,49.5,56.7,49.3c-0.2-0.7-0.8-0.6-1.3-0.6
			c-0.2-0.7-0.7-0.6-1.2-0.6c-0.1-0.2,0-0.6-0.4-0.3c0.2,0.1,0.3,0.2,0.5,0.2c0.2,0.6,0.7,0.6,1.2,0.6
			C55.6,49.4,56.2,49.3,56.7,49.3z"/>
		<path class="st2" d="M54.8,52.5c-0.1-0.2,0-0.6-0.4-0.3C54.5,52.3,54.6,52.4,54.8,52.5c0,0.2,0,0.4,0,0.6c-0.1,0-0.2,0-0.3,0
			c-0.3,0.1-0.5,0.2-0.8,0.3c0.1,0.1,0.1,0.2,0.2,0.2c0.4,0.1,0.7,0,0.8-0.5c0.4,0,1,0.1,1-0.3C55.8,52.4,55.2,52.5,54.8,52.5z"/>
		<path class="st3" d="M59.8,117.5c-0.3,0.1-1-0.1-0.9,0.3C59.1,118.2,59.6,117.9,59.8,117.5c0-0.2,0.6,0,0.2-0.4
			C59.9,117.2,59.9,117.4,59.8,117.5z"/>
		<path class="st2" d="M59.8,52.5c0.1,0.3,0.3,0.5,0.6,0.5c0.3,0,0.4-0.2,0.2-0.3C60.4,52.6,60.1,52.6,59.8,52.5
			c-0.1-0.3-0.3-0.5-0.7-0.5c-0.3,0-0.4,0.2-0.2,0.3C59.2,52.4,59.5,52.4,59.8,52.5z"/>
		<path class="st2" d="M52.3,51.3c-0.1-0.1,0-0.6-0.4-0.3C52,51.1,52.1,51.1,52.3,51.3c0.1,0.3,0.3,0.5,0.7,0.5
			c0.3,0,0.4-0.2,0.2-0.3C52.9,51.4,52.6,51.3,52.3,51.3z"/>
		<path class="st2" d="M56.6,53.7c0.4,0,0.8,0,1.3,0c-0.1,0.3-0.4,0.8-0.3,1c0.2,0.4,1.4-0.2,1.3-0.7c-0.1-0.4-0.6-0.3-1-0.4
			C57.5,52.9,57.1,53,56.6,53.7c-0.1,0-0.2,0-0.3,0c-0.3,0.1-0.5,0.2-0.8,0.3c0.1,0.1,0.1,0.2,0.2,0.2
			C56.3,54.4,56.5,54.2,56.6,53.7z"/>
		<path class="st2" d="M27.3,25c-0.1-0.2,0-0.6-0.4-0.3C27,24.8,27.1,24.9,27.3,25c0.8,1.6,2.5,1.3,3.8,1.8c1,2.1,3.2,2.7,5,3.7
			c1.4,1.2,3.3,2,4.6,3.4c0.3,0.4,1,0.6,1.3,0.1c0.3-0.5-0.4-0.9-0.7-1.1c-1.5-1-3-2-4.5-3c-1.8-1.2-3.4-2.7-5.6-3.1
			C30.2,25.3,28.6,25.5,27.3,25z"/>
		<path class="st2" d="M56.7,45.6c0.7,0.6,1.4,1.1,2.2,1.7c0.1,0.1,0.4,0,0.6,0c0,0,0.1-0.2,0.1-0.2c-0.6-0.6-1.1-1.2-1.8-1.7
			C57.5,45.2,57,45.5,56.7,45.6c0.1-1.3-1-1.8-1.9-2.5c0-0.1-0.1-0.2-0.2-0.3c0,0-0.1,0-0.2-0.1c0.1,0.1,0.3,0.2,0.4,0.3
			c-0.3,0.6-0.6,1.2,0.3,1.7C55.6,45,56.1,45.3,56.7,45.6z"/>
		<path class="st2" d="M42.9,53.1c-0.1-0.2-0.2-0.4-0.3-0.5c-0.8-0.2-1.6-0.3-2.4,0c0.6,0.6,1.4,0.2,2.1,0.4
			C42.5,53.1,42.7,53.1,42.9,53.1c1.3,0.8,2.1,2.4,3.7,2.5c1.5,0,2.8,0.4,4.2,0.9c0.6,0.2,1.2,0.4,1.8,0.3c0.2,0,0.4-0.1,0.6-0.2
			c-0.1-0.1-0.3-0.3-0.4-0.4c-0.3-0.2-0.5-0.4-0.8-0.4c-2.8-0.8-5.5-1.5-8.2-2.7C43.6,53,43.2,53.1,42.9,53.1z"/>
		<path class="st2" d="M52.2,52.8c-0.3-0.3-0.5-0.6-0.8-0.8c-1.2-0.6-2.6-0.9-3.1-2.4c0-0.1-0.4-0.2-0.5-0.2c-0.7,0.3-1,0.4-1.2-0.6
			c-0.2-1.3-1.3-2-2.4-2.2c-2-0.5-3.3-2-4.9-3.1c-0.9-0.6-1.9-1.6-2.8-1.8c-0.9-0.1-1.4,1.4-1.9,2.3c-0.2,0.3-0.6,0.6-0.9,0.8
			c-0.3,0.2-0.9,0.3-0.2,0.7c0.8,0.4,1.7,1.1,2.5,1.1c0.8,0,1.3-0.2,1.2,0.9c-0.1,1,0.2,1.5,1.4,1.9c3.3,1.1,6.6,2.1,9.7,3.6
			c0.8,0.4,1.7,0.8,2.5,1.2c0.3,0.1,0.8,0.2,1.1-0.2C51.5,53.7,50.9,53.3,52.2,52.8z"/>
		<path class="st3" d="M-2.6,12.6c-0.1,0.1-0.8,0.2-0.3,0.4c0.8,0.3,0,1.2,0.7,1.3c0.5,0.1,0.6-0.4,0.6-0.9
			C-1.5,12.7-2,12.5-2.6,12.6z"/>
		<path class="st2" d="M32.2,44.4c-0.1-0.1-0.2-0.3-0.3-0.4c-0.2,0.2-0.4,0.4-0.6,0.6c0.1,0.1,0.2,0.3,0.3,0.3
			C32,44.9,32.1,44.7,32.2,44.4z"/>
		<path class="st3" d="M30.7,131.7c0.4,0,0.7,0.1,1,0.1c0.1,0,0.2-0.2,0.3-0.3c-0.3,0-0.6-0.1-0.9-0.1
			C31,131.4,30.9,131.5,30.7,131.7z"/>
		<path class="st2" d="M51.9,61c0.2,0.1,0.3,0.1,0.5,0.2c0.1,0,0.1-0.1,0.2-0.2c-0.1-0.1-0.2-0.2-0.4-0.2
			C52.2,60.7,52.1,60.9,51.9,61z"/>
		<path class="st3" d="M131.4,55.3c-0.1-0.1-0.2-0.2-0.2-0.2c-0.2,0-0.4,0.1-0.5,0.2c0.1,0.1,0.1,0.2,0.2,0.2
			C131,55.4,131.2,55.3,131.4,55.3z"/>
		<path class="st2" d="M57,55.9c-0.2-0.1-0.3-0.1-0.5-0.2c-0.1,0-0.1,0.1-0.2,0.1c0.1,0.1,0.2,0.2,0.3,0.2
			C56.8,56.1,56.9,56,57,55.9z"/>
		<path class="st2" d="M55.1,55.3c-0.2-0.1-0.3-0.1-0.5-0.2c-0.1,0-0.1,0.1-0.2,0.1c0.1,0.1,0.2,0.2,0.3,0.2
			C54.9,55.5,55,55.3,55.1,55.3z"/>
		<path class="st2" d="M55.2,57.2C55.1,57.1,55,57,54.9,57c-0.2,0-0.4,0.1-0.6,0.2c0.1,0.1,0.2,0.2,0.2,0.2
			C54.8,57.3,55,57.3,55.2,57.2z"/>
		<path class="st2" d="M57,57.7c-0.2,0-0.3-0.1-0.5-0.1c-0.3,0.1-0.3,0.2,0,0.3c0.1,0,0.3,0,0.5-0.1C57,57.9,57,57.8,57,57.7z"/>
		<polygon class="st2" points="53.2,54.5 53.1,54.7 53.3,54.7 		"/>
		<polygon class="st2" points="57.6,51.4 57.5,51.6 57.7,51.6 		"/>
		<polygon class="st3" points="0.1,13.3 0,13.5 0.2,13.5 		"/>
		<polygon class="st3" points="37,130.2 36.9,130.4 37.1,130.4 		"/>
		<polygon class="st3" points="33.2,129.6 33.1,129.7 33.3,129.7 		"/>
		<polygon class="st3" points="53.8,121.7 53.9,121.6 53.8,121.5 		"/>
		<polygon class="st3" points="58.8,116.1 58.9,115.9 58.7,115.9 		"/>
		<path class="st3" d="M100.8,100.2"/>
		<polygon class="st3" points="120.7,89.8 120.8,89.6 120.6,89.6 		"/>
		<polygon class="st2" points="41.5,42.8 41.3,42.7 41.3,42.9 		"/>
		<polygon class="st2" points="44.5,38.9 44.4,39.1 44.6,39.1 		"/>
		<polygon class="st2" points="45.7,39.8 45.8,39.6 45.6,39.6 		"/>
		<polygon class="st2" points="49.5,42.3 49.6,42.1 49.4,42.1 		"/>
		<polygon class="st2" points="51.3,48.5 51.5,48.4 51.3,48.4 		"/>
		<polygon class="st2" points="37.6,33.9 37.5,34.1 37.7,34.1 		"/>
		<polygon class="st2" points="60.8,49.5 60.6,49.7 60.8,49.7 		"/>
		<polygon class="st2" points="35.8,32.8 35.7,32.7 35.6,32.9 		"/>
		<polygon class="st2" points="50.7,50.4 50.8,50.3 50.6,50.2 		"/>
		<polygon class="st2" points="55.1,50.2 55,50.3 55.2,50.4 		"/>
		<polygon class="st2" points="58.8,50.2 58.7,50.3 58.9,50.4 		"/>
		<polygon class="st2" points="34.4,32.3 34.6,32.1 34.4,32.1 		"/>
		<polygon class="st2" points="56.3,50.8 56.2,51 56.4,51 		"/>
		<polygon class="st2" points="60.1,50.8 60,51 60.2,51 		"/>
		<polygon class="st2" points="51.9,46.5 52,46.6 52,46.5 		"/>
		<polygon class="st2" points="49.4,47.3 49.5,47.1 49.4,47.1 		"/>
		<path class="st2" d="M13.5,19.3c0.2,0.7,1,0.6,1.4,1.1c0.3,0.3,0.5,0.7,0.3,1.1c-0.3,0.5-0.7,0.2-1,0c-0.3-0.2-0.6-0.5-1-0.8
			c-0.6-0.4-1.4-0.5-1.8-1.2C12.1,19.5,12.8,19.4,13.5,19.3L13.5,19.3z"/>
		<path class="st2" d="M28.5,35.6c0.8,0.6,2.1,0.4,2.8,1.3c0.2,0.2,0.3,0.6,0.2,0.8c-0.1,0.3-0.6,0.4-0.8,0.2
			C30,37.2,28.5,37.1,28.5,35.6L28.5,35.6z"/>
		<path class="st2" d="M21.6,30.6c0.4,0,0.9,0,1.3,0c0,0,0,0,0,0c0.2,0.2,0.4,0.5,0.6,0.6c0.4,0.3,1.3,0.4,0.8,1.1
			c-0.3,0.5-1.1,0.1-1.6-0.3C22.3,31.6,21.8,31.2,21.6,30.6L21.6,30.6z"/>
		<path class="st2" d="M28.5,35.6c-0.3-0.2-0.7-0.4-1-0.7c-0.3-0.3-0.7-0.5-0.6-1c0-0.1,0.4-0.2,0.5-0.2c0.4,0,0.8,0.1,0.9,0.6
			C28.5,34.8,28.5,35.2,28.5,35.6L28.5,35.6z"/>
		<path class="st2" d="M28.1,39.4c0.4-0.1,0.8,0.1,1.1,0.4c0.1,0.1,0.4,0.4,0.3,0.5c-0.1,0.3-0.5,0.3-0.7,0.2
			c-0.3-0.1-0.5-0.3-0.8-0.4c-0.2-0.1-0.3-0.2-0.4-0.4C27.7,39.6,27.9,39.5,28.1,39.4z"/>
		<path class="st2" d="M38.7,57.4c-0.3,0-0.6-0.1-0.6-0.4c-0.1-0.6,0.4-0.6,0.8-0.7c0.3,0,0.7,0.1,0.7,0.3
			C39.5,57,39.1,57.2,38.7,57.4z"/>
		<path class="st2" d="M26,30c0,0.3,0,0.6-0.1,0.9c-0.1,0.3-0.5,0.4-0.7,0.3c-0.4-0.2-0.1-0.5,0.1-0.7C25.5,30.2,25.8,30.1,26,30
			L26,30z"/>
		<path class="st2" d="M27.9,32c0.3,0,0.5,0.2,0.5,0.5c0,0.1-0.2,0.3-0.3,0.4c-0.2-0.2-0.4-0.4-0.6-0.6C27.7,32.2,27.8,32.1,27.9,32
			z"/>
		<path class="st2" d="M39.4,59.7c0.1-0.1,0.2-0.3,0.3-0.2c0.1,0,0.2,0.2,0.4,0.2c-0.1,0.1-0.1,0.2-0.2,0.2
			C39.8,59.9,39.6,59.8,39.4,59.7z"/>
		<path class="st2" d="M21.7,30.6c-0.2,0-0.4,0-0.6,0c-0.2,0-0.3-0.2-0.5-0.2c0.2-0.3,0.5-0.3,0.7-0.1
			C21.5,30.3,21.5,30.5,21.7,30.6L21.7,30.6z"/>
		<path class="st2" d="M30.3,35.5c-0.1-0.1-0.1-0.2-0.2-0.3c0.2,0,0.3-0.1,0.5-0.1c0.1,0,0.1,0.1,0.2,0.2
			C30.6,35.4,30.5,35.4,30.3,35.5z"/>
		<path class="st2" d="M30.4,48.1c-0.2,0-0.4,0-0.6,0c-0.2,0-0.3-0.2-0.5-0.3c0.2-0.3,0.5-0.3,0.7-0.1C30.2,47.8,30.3,48,30.4,48.1
			L30.4,48.1z"/>
		<path class="st3" d="M3.5,15.7c0.1,0.1,0.2,0.2,0.3,0.3c-0.2,0.1-0.3,0.1-0.5,0.2c-0.1,0-0.1-0.1-0.2-0.2
			C3.3,15.9,3.4,15.8,3.5,15.7z"/>
		<path class="st2" d="M22.9,30.6c0.1-0.4,0.4-0.6,0.8-0.5c0.1,0,0.2,0.2,0.2,0.2C23.6,30.6,23.2,30.6,22.9,30.6L22.9,30.6z"/>
		<polygon class="st2" points="20.2,32.2 20,32.3 20,32.1 		"/>
		<path class="st2" d="M26.7,27.5c-0.4-0.1-0.6-0.3-0.6-0.6l0,0C26.4,26.9,26.6,27.1,26.7,27.5L26.7,27.5z"/>
		<polygon class="st2" points="34.5,37 34.6,37.2 34.4,37.2 		"/>
		<path class="st2" d="M29.2,38.1c-0.2-0.1-0.3-0.2-0.5-0.2C29.1,37.5,29,38,29.2,38.1L29.2,38.1z"/>
		<path class="st2" d="M29.1,38.1c0.2,0.1,0.3,0.2,0.5,0.3C29.2,38.7,29.3,38.3,29.1,38.1L29.1,38.1z"/>
		<path class="st2" d="M30.4,48.1c0.2,0.1,0.3,0.2,0.5,0.2C30.4,48.7,30.5,48.2,30.4,48.1L30.4,48.1z"/>
		<path class="st3" d="M47.3,68.4C47.2,68.7,47.1,69,47,69c-0.4,0-0.4-0.3-0.4-0.5c0-0.3,0.2-0.5,0.3-0.7
			C47.1,68,47.2,68.2,47.3,68.4z"/>
		<path class="st3" d="M36,123.4c-0.1-0.1-0.2-0.3-0.4-0.6c0.2-0.1,0.3-0.2,0.5-0.2c0.3,0,0.5,0.3,0.4,0.6
			C36.5,123.5,36.3,123.6,36,123.4z"/>
		<path class="st2" d="M65.4,54.4c-0.1,0.2-0.2,0.3-0.3,0.5C64.8,54.4,65.3,54.5,65.4,54.4L65.4,54.4z"/>
		<path class="st2" d="M66,53.7c-0.1,0.4-0.3,0.6-0.6,0.6l0,0C65.5,54,65.7,53.8,66,53.7L66,53.7z"/>
		<path class="st3" d="M66.7,113.8c-0.1-0.1-0.3-0.2-0.4-0.3C66.6,113.1,66.6,113.6,66.7,113.8L66.7,113.8z"/>
		<path class="st2" d="M48.3,51.5c-0.1,0.1-0.3,0.2-0.4,0.2c-0.1,0-0.2-0.2-0.3-0.3c0.1-0.1,0.2-0.2,0.2-0.2
			C47.9,51.4,48.1,51.4,48.3,51.5z"/>
		<path class="st2" d="M39.7,46.9c-0.1,0.1-0.2,0.1-0.3,0.2c0-0.2-0.1-0.3-0.1-0.5c0-0.1,0.1-0.1,0.2-0.2
			C39.6,46.6,39.6,46.8,39.7,46.9z"/>
		<polygon class="st2" points="49.5,52.1 49.6,52.2 49.4,52.2 		"/>
		<polygon class="st2" points="38.8,44.8 38.8,44.6 38.9,44.6 		"/>
		<path class="st2" d="M36,30.6c0.1-0.4,0.3-0.6,0.7-0.7C36.6,30.3,36.4,30.5,36,30.6z"/>
		<path class="st2" d="M45.4,36.8c0.2,0,0.4,0,0.7,0c-0.1,0.3-0.3,0.6-0.7,0.7C45.4,37.3,45.4,37.1,45.4,36.8z"/>
		<path class="st2" d="M45.4,36.2c0,0.2,0,0.4,0,0.7c-0.2,0-0.4,0-0.7,0C44.8,36.5,45.1,36.3,45.4,36.2z"/>
		<path class="st2" d="M52.3,41.8c0.2,0,0.4,0,0.7,0c0,0.2,0,0.4,0,0.7c-0.2,0-0.4,0-0.7,0C52.3,42.3,52.3,42.1,52.3,41.8z"/>
	</g>
	<use xlink:href="#SVGID_3_"  style="overflow:visible;fill:none;stroke:#000000;stroke-miterlimit:10;"/>
</g>
<path class="st2" d="M33.9,67.2l5.1,2.1L56.3,72h6.3l5.7-2.4c0,0,4,0.6,6.2,0c2.2-0.6,7.2-2.4,7.2-2.4"/>
<polyline class="st2" points="67.6,49.3 71.3,52 78.7,57.3 83.3,60 "/>
<g>
	<path class="st1" d="M125.8,65.3c-0.2,0.7-0.5,1.4-0.8,2l0-0.1c0.1,1.2,0.1,2.4,0.2,3.6c0,1.2-0.1,2.4-0.2,3.6l-0.3-0.3
		c0.6,0,1.2,0.1,1.7,0.1l0.1,0l0,0c0.8,0.6,1.7,1.2,2.5,1.7l-0.1,0l1.5-0.1l-0.3,0.3c-0.1-1.8-0.2-3.7-0.2-5.5l0,0.1
		c-0.5-1.8-0.9-3.7-1.3-5.5l0.3,0.3C127.9,65.5,126.9,65.4,125.8,65.3z M125.8,65.2c1.1-0.1,2.2-0.2,3.2-0.3l0.3,0l0.1,0.3
		c0.6,1.8,1.2,3.6,1.7,5.5l0,0.1l0,0.1c0,1.8-0.1,3.7-0.2,5.5l0,0.3l-0.3,0l-1.5-0.1l-0.1,0l0,0c-0.8-0.6-1.6-1.2-2.5-1.8l0.1,0
		c-0.6,0-1.2,0.1-1.7,0.1l-0.3,0l0-0.3c-0.1-1.2-0.2-2.4-0.2-3.6c0-1.2,0.1-2.4,0.2-3.6l0-0.1l0,0C124.9,66.4,125.3,65.8,125.8,65.2
		L125.8,65.2L125.8,65.2z"/>
</g>
</svg>
