<?xml version="1.0" encoding="utf-8"?>
<!-- Generator: Adobe Illustrator 20.1.0, SVG Export Plug-In . SVG Version: 6.00 Build 0)  -->
<svg version="1.1" id="Layer_1" xmlns="http://www.w3.org/2000/svg" xmlns:xlink="http://www.w3.org/1999/xlink" x="0px" y="0px"
	 viewBox="0 0 149 149" style="enable-background:new 0 0 149 149;" xml:space="preserve">
<style type="text/css">
	.st0{clip-path:url(#SVGID_3_);}
	.st1{enable-background:new    ;}
	.st2{fill:#010101;}
	.st3{clip-path:url(#SVGID_5_);}
	.st4{fill:none;stroke:#231F20;stroke-miterlimit:10;}
	.st5{clip-path:url(#SVGID_7_);fill-rule:evenodd;clip-rule:evenodd;fill:#C9C9C9;}
	.st6{clip-path:url(#SVGID_7_);}
	.st7{fill-rule:evenodd;clip-rule:evenodd;fill:#C9C9C9;}
	.st8{fill-rule:evenodd;clip-rule:evenodd;fill:#5D5D5D;}
	.st9{fill-rule:evenodd;clip-rule:evenodd;fill:#6F6F6F;}
	.st10{fill:#E8E8E8;}
	.st11{font-family:'ArialMT';}
	.st12{font-size:6.9717px;}
	.st13{fill:#5D5D5D;}
	.st14{fill:#6F6F6F;}
	.st15{fill:none;stroke:#E8E8E8;stroke-width:0.3624;stroke-miterlimit:10;}
	.st16{fill:none;stroke:#5D5D5D;stroke-width:0.3624;stroke-miterlimit:10;}
	.st17{fill:none;stroke:#6F6F6F;stroke-width:0.3624;stroke-miterlimit:10;}
	.st18{fill:url(#SVGID_8_);}
	.st19{fill:none;stroke:#9D9D9D;stroke-width:0.6718;stroke-miterlimit:10;}
	.st20{clip-path:url(#SVGID_7_);fill:none;stroke:#9D9D9D;stroke-width:1.1296;stroke-linecap:round;stroke-miterlimit:10;}
	.st21{fill-rule:evenodd;clip-rule:evenodd;fill:#C8C8C8;}
</style>
<g>
	<defs>
		<circle id="SVGID_2_" cx="74.5" cy="74.5" r="72.6"/>
	</defs>
	<clipPath id="SVGID_3_">
		<use xlink:href="#SVGID_2_"  style="overflow:visible;"/>
	</clipPath>
	<g class="st0">
		<text transform="matrix(1 0 0 1 21.9336 374.9835)" class="st2 st11" style="font-size:6.7855px;">SolidWorks Educational Edition.</text>
	</g>
</g>
<g>
	<defs>
		<circle id="SVGID_4_" cx="74.5" cy="74.5" r="72.6"/>
	</defs>
	<clipPath id="SVGID_5_">
		<use xlink:href="#SVGID_4_"  style="overflow:visible;"/>
	</clipPath>
	<g class="st3">
		<text transform="matrix(1 0 0 1 21.9336 382.3937)" class="st2 st11" style="font-size:6.7855px;"> For Instructional Use Only.</text>
	</g>
</g>
<circle id="SVGID_1_" class="st4" cx="74.5" cy="74.5" r="72.6"/>
<g>
	<defs>
		<circle id="SVGID_6_" cx="74.5" cy="74.5" r="72.6"/>
	</defs>
	<clipPath id="SVGID_7_">
		<use xlink:href="#SVGID_6_"  style="overflow:visible;"/>
	</clipPath>
	<path class="st5" d="M-7.6,120.9c1-0.3,1.9-0.8,2.9-1.2c1.6-0.6,3.2-1.3,4.9-2c1.6-0.6,3.1-1.3,4.7-1.9c1.9-0.8,3.9-1.6,5.9-2.4
		c1.6-0.7,3.2-1.3,4.8-2c1.6-0.6,3.1-1.3,4.7-1.9c1.3-0.5,2.6-1.1,3.9-1.6c1.8-0.8,3.8-1.5,5.6-2.3c1.3-0.6,2.6-1,3.8-1.6
		c1.5-0.7,3.1-1.3,4.7-1.9c1.2-0.5,2.4-1,3.6-1.5c0.8-0.3,1.7-0.7,2.5-1c0.3-0.1,0.6-0.1,0.9,0c3.4,1.2,6.9,2.3,10.4,3.5
		c3.1,1,6.2,2,9.3,3.1c4.1,1.4,8.2,2.7,12.2,4.1c0.3,0.1,0.5,0.2,0.8,0.4c-0.4,0.4-0.7,0.6-1.2,0.9c-1.6,0.9-3.2,1.7-4.8,2.6
		c-1.3,0.7-2.6,1.5-4,2.2c-1.6,0.9-3.2,1.8-4.8,2.7c-0.8,0.4-1.5,0.8-2.2,1.2c-1.5,0.8-3,1.7-4.5,2.5c-0.7,0.4-1.5,0.8-2.2,1.2
		c-2,1.1-4,2.2-6,3.4c-1.8,1-3.7,2-5.5,3c-1.7,0.9-3.4,1.9-5.1,2.8c-1.8,1-3.6,2-5.4,3c-1.5,0.8-3,1.7-4.5,2.5
		c-0.3,0.2-0.7,0.3-1.1,0.5c-0.6-0.5-1.4-0.8-2.1-1.1c-2.4-1.3-4.9-2.6-7.3-3.9c-2.1-1.1-4.3-2.3-6.4-3.4c-2.3-1.2-4.5-2.4-6.7-3.6
		c-2-1-3.9-2.1-5.8-3.1c-1.9-1-3.7-2-5.6-3C-7.5,121.1-7.5,121-7.6,120.9z M19,128.7c0.2,0.3,0.4,0.5,0.7,0.6
		c0.6,0.2,1.1,0.5,1.6,0.8c0.6,0.3,1.1,0.3,1.8,0.1c1.2-0.4,2.4-0.9,3.7-1.3c2.4-0.9,4.9-1.8,7.3-2.6c1.8-0.6,3.6-1.3,5.4-1.9
		c3-1.1,6-2.1,9-3.2c1.9-0.7,3.9-1.3,5.9-1.6c0.8-0.1,1.7-0.3,2.5-0.5c0.8-0.2,1.7-0.4,2.5-0.4c0.8-0.1,1.7-0.3,2.5-0.5
		c0.7-0.2,1.2-0.6,1.8-0.9c1-0.5,2-1,3-1.6c1.8-1,3.5-2,5.3-2.9c0.6-0.3,1.2-0.6,1.7-1.1c-0.1-0.3-0.3-0.4-0.5-0.4
		c-1.9-0.6-3.8-1.3-5.7-2c-0.9-0.3-1.7-0.8-2.6-0.7c0,0-0.1,0.1-0.1,0.1c0.1,0.1,0.2,0.2,0.3,0.4c-1,0.5-2,1-3.2,1.6
		c1.6,0.6,3,1.1,4.5,1.6c-1.2,0.7-2.4,1.3-3.4,1.8c-2-0.7-4-1.5-6-2.2c-1.2,0.6-2.3,1.2-3.6,1.8c2,0.8,3.9,1.5,5.9,2.2
		c-1.4,0.5-2.5,1.4-3.8,2c-1.4-0.5-2.6-1-3.9-1.5c-0.5-0.2-0.9-0.2-1.3,0.1c-1.1,0.6-2.2,1.1-3.4,1.7c-0.9-0.6-2-0.8-3-1.3
		c-7.8,4-15.8,7.7-23.5,11.7c-0.4,0-0.6-0.3-1-0.3C19.2,128.4,19.1,128.5,19,128.7z M37.6,111.5c0.8,0.3,1.4,0.6,2.2,0.9
		c-2.8,1.3-5.5,2.6-8.2,3.8c-0.7-0.4-1.5-0.7-2.2-1c-2.1,1-4.2,1.8-6.3,2.9c0.8,0.3,1.5,0.6,2.2,0.9c-1.8,0.9-3.5,1.7-5.3,2.5
		c-2,0.9-4,1.8-5.9,2.7c-0.5,0.2-1,0.5-1.5,0.6c-0.9-0.5-1.9-0.9-2.8-1.4c-1.3,0.6-2.6,1.2-4,1.8c-0.5-0.3-0.8-0.1-1.3,0.4
		c0.5-0.1,0.7,0.2,1,0.2c1.5-0.3,2.8-1.1,4.2-1.6c0.7,0.4,1.5,0.8,2.3,1.2c0,0.1-0.1,0.2-0.1,0.2c-0.9,1.2-0.6,1.9,0.8,2.3
		c1.5,0.5,2.9,0.4,4.4,0c0.5,0.2,1,0.3,1.4,0c0-0.3-0.3-0.3-0.2-0.5c4.4-2.1,8.8-4.2,13.2-6.4c-1.7-0.9-3.4-1.5-5.1-2.4
		c1.6-0.8,3.2-1.5,4.7-2.2c1.8,0.8,3.5,1.5,5.3,2.2c3.1-1.7,6.3-3,9.5-4.7c-1.7-0.7-3.2-1.3-4.9-2c1.2-0.6,2.2-1.1,3.2-1.5
		c0.7-0.3,1.3-0.3,2.1,0c1.3,0.6,2.8,1.1,4.1,1.6c3.2-1.7,6.5-3.1,9.6-4.7c0.4-0.1,0.7,0.1,1.1-0.1c0.1-0.3-0.2-0.3-0.3-0.4
		c0.2-0.2,0.1-0.5,0.1-0.7c-0.7-0.7-2.7-1.4-3.7-1c-0.7,0.2-1.4,0.1-2-0.1c-0.4-0.1-0.8-0.5-1.3-0.2c0.2,0.4,0.7,0.3,1,0.8
		c-3.1,1.4-6.1,2.8-9.2,4.2c-0.6-0.2-1.2-0.4-1.8-0.7c-0.3-0.1-0.5-0.1-0.8,0c-0.7,0.3-1.4,0.6-2.1,0.9
		C39.8,110.5,38.8,111,37.6,111.5z M3.8,124.1c1.1-0.5,2.3-1,3.4-1.5c2.2-1,4.3-1.9,6.4-2.9c1.7-0.7,3.4-1.5,5-2.2
		c2.1-0.9,4.2-1.9,6.4-2.8c2-0.9,4-1.8,6-2.7c0.6-0.3,1.2-0.6,1.9-0.9c1.8-0.7,3.5-1.6,5.3-2.3c0.2-0.1,0.3-0.1,0.4-0.4
		c-0.3,0-0.6-0.1-0.9,0c-1.3,0.4-2.6,0.7-4,1c-1.5,0.4-3,0.7-4.5,1.1c-1.7,0.4-3.4,0.8-5.1,1.2c-1.5,0.3-2.9,0.7-4.4,1
		c-1.6,0.4-3.1,0.8-4.7,1.1c-0.8,0.2-1.6,0.4-2.5,0.6c-1.3,0.3-2.5,0.5-3.8,0.9c-1,0.3-2,0.7-3,1.2c-1.3,0.6-2.6,1.1-3.8,1.6
		c-2,0.8-4,1.6-5.9,2.5c-0.1,0-0.1,0.1-0.1,0.1c0,0.1,0,0.2,0,0.3c2.1,1.1,4.2,2.2,6.2,3.3c0.6,0.3,1.3,0.6,2,0.1
		C4.1,124.4,3.9,124.4,3.8,124.1z"/>
	<g class="st6">
		<path class="st7" d="M69.6,118.7c-0.1-0.1-0.2-0.2-0.3-0.3c0.5-0.2,1.1-0.4,1.6-0.6c0.8-0.3,1.6-0.7,2.4-1c1.2-0.5,2.4-1,3.6-1.5
			c0.8-0.3,1.6-0.7,2.4-1c1.2-0.5,2.4-1,3.7-1.5c1.1-0.4,2.1-0.9,3.2-1.3c1.2-0.5,2.4-0.9,3.5-1.5c0.8-0.4,1.6-0.7,2.4-1
			c1.2-0.6,2.5-1,3.8-1.6c0.7-0.3,1.5-0.6,2.2-0.9c0.9-0.4,1.8-0.7,2.8-1.1c2.2-0.9,4.3-1.8,6.5-2.7c1.2-0.5,2.5-1,3.7-1.6
			c1.7-0.8,3.5-1.4,5.3-2.2c0.6-0.2,1.1-0.5,1.6-0.7c0.3-0.2,0.6-0.2,1,0c3.6,1.3,7.3,2.5,10.9,3.7c2.5,0.8,5,1.7,7.6,2.5
			c4.1,1.4,8.2,2.7,12.3,4.1c0.1,0,0.1,0.1,0.2,0.2c0,0.2-0.4,0.1-0.3,0.3c-0.8,0.4-1.5,0.8-2.3,1.2c-0.9,0.5-1.8,1-2.7,1.5
			c-1.8,1-3.6,2-5.4,3c-1.5,0.8-3,1.6-4.4,2.5c-0.6,0.3-1.2,0.6-1.8,1c-1.4,0.8-2.8,1.6-4.2,2.3c-0.8,0.4-1.7,0.9-2.5,1.4
			c-1.8,1-3.6,2-5.4,3c-1.5,0.8-2.9,1.6-4.4,2.4c-0.6,0.3-1.2,0.6-1.8,1c-1.3,0.7-2.6,1.5-3.9,2.2c-1.4,0.8-2.8,1.6-4.3,2.3
			c-1.7,0.9-3.4,1.9-5.1,2.8c-0.3-0.2-0.5-0.4-0.7-0.5c-2-1-3.9-2-5.9-3.1c-2-1.1-4.1-2.2-6.1-3.2c-1.1-0.6-2.2-1.1-3.3-1.7
			c-2-1.1-4-2.1-6-3.2c-1.4-0.7-2.8-1.5-4.2-2.2c-0.4-0.2-0.9-0.4-1.3-0.6C72.7,120.2,71.1,119.5,69.6,118.7z M131.9,115.7
			c0-0.2,0.3-0.1,0.3-0.3c-0.2,0-0.3,0-0.5-0.1c0-0.2,0.4-0.1,0.3-0.4c0,0-0.1-0.1-0.1-0.1c-1.2,0.3-2.1,1.2-3.2,1.6
			c-1.2-0.4-2.4-0.8-3.5-1.4c-0.5-0.3-1-0.2-1.5,0.1c-1,0.6-2,1-2.9,1.5c-1-0.4-2-0.8-2.9-1.2c-7.3,3.7-14.7,7.4-22,11.1
			c0.1,0.1,0.1,0.2,0.1,0.2c0.1,0,0.2,0,0.3,0c0.1,0.2,0.3,0.2,0.5,0.3c0.2,0,0.3,0.2,0.5,0.2c6.9-3.6,13.9-7,20.8-10.6
			c0.9,0.6,1.9,0.8,2.8,1.2c1.2-0.8,2.5-1.3,3.7-2c0.8,0.5,1.6,0.7,2.4,1c0.3,0.1,0.7,0.2,1-0.1c0.2,0,0.4,0,0.7,0
			c0.1,0,0.2,0,0.2-0.2c0.1,0,0.1,0,0.2,0c0.4,0,0.7,0.1,1-0.2c0.8,0.1,1.4-0.3,2-0.7C132.1,115.8,132,115.7,131.9,115.7z
			 M133.3,105.1L133.3,105.1c0-0.6-0.5-0.6-0.8-0.7c-0.9-0.3-1.9-0.1-2.9-0.2c-0.1,0-0.3,0.1-0.3,0.2c-0.5-0.2-1.1-0.4-1.5-0.5
			c-1.6,0.7-3.1,1.4-4.7,2.1c-1.3,0.6-2.5,1.2-3.8,1.8c-0.6-0.2-1.1-0.4-1.7-0.6c-0.3-0.1-0.5-0.1-0.7,0c-0.6,0.3-1.2,0.5-1.8,0.8
			c-1,0.5-2,0.9-3.1,1.4c0.4,0.3,0.6,0.2,0.9,0c1.4-0.7,2.9-1.3,4.3-2c0.6,0.3,1.2,0.4,1.7,0.7c0.2,0.1,0.5,0.1,0.8-0.1
			c2.1-1,4.2-2,6.3-3c0.4-0.2,0.9-0.4,1.3-0.6c0.3-0.1,0.6-0.1,0.8,0c0.3,0.1,0.7,0.3,1.1,0.3c0.2,0.2,0.4,0.3,0.7,0.3
			c0,0.1,0,0.1,0,0.2v0c-0.1,0-0.2,0-0.3,0c-0.8,0.5-1.7,0.8-2.5,1.2c-0.8,0.4-1.6,0.9-2.5,1.2c-1,0.4-1.9,0.9-2.9,1.4
			c0.1,0.2,0.3,0.3,0.5,0.3c0.3,0.2,0.6,0.3,0.9,0.4c2.7-1.5,5.6-2.7,8.3-4.1c0.2,0,0.5,0.4,0.7,0c0.3,0,0.5-0.2,0.7-0.2
			c0.2,0,0.3,0,0.5,0c0,0,0.1,0.1,0.1,0.1c0.2-0.1,0.3-0.2,0.2-0.4C133.7,105,133.5,105.1,133.3,105.1z M137.6,108.1
			c-0.3,0.1-0.6,0.3-0.9,0.4c-0.3,0.2-0.7,0.2-0.8,0.6c0.2,0,0.3,0,0.5,0c0.6,0.3,0.8,0.3,1.2-0.2c0.1-0.1,0.2-0.2,0.4-0.2
			c0.3,0.1,0.5,0,0.8,0.2c1.7,0.6,3.5,1.2,5.2,1.8c0.1-0.1,0.2-0.1,0.4-0.2c0.2-0.1,0.4-0.1,0.5-0.3c0.2-0.1,0.3-0.2,0.5-0.3
			c-0.5-0.2-1-0.3-1.6-0.5c-1.7-0.5-3.4-1.2-5.1-1.7c-0.5-0.1-1-0.5-1.5-0.3c-0.8,0.3-1.6,0.7-2.3,1.2c0.2,0.3,0.4,0.2,0.6,0.1
			c0.6-0.3,1.2-0.6,1.8-0.9c0.2-0.1,0.4-0.2,0.6,0.1C137.7,108,137.7,108.1,137.6,108.1z M128.9,112.4c0.1,0.3,0.3,0.2,0.5,0.1
			c0.3-0.2,0.7-0.3,0.9-0.5c1.9,0.7,3.7,1.4,5.5,2.1c1-0.6,2.1-1.1,3.1-1.7c-0.1-0.2-0.1-0.2-0.2-0.2c0-0.2,0.3-0.1,0.3-0.3
			c-0.2,0-0.3,0-0.5-0.1c0-0.2,0.2-0.1,0.3-0.3c-0.1-0.1-0.2-0.2-0.2-0.2c-0.9,0.4-1.7,0.8-2.5,1.2c-0.3,0.2-0.5,0.2-0.9,0.1
			c-0.7-0.2-1.3-0.5-1.9-0.7c-1.1-0.4-2.1-0.8-3.1-1.2c-0.8,0.4-1.6,0.8-2.3,1.2c0.1,0.2,0.3,0.3,0.5,0.3
			C128.6,112.2,128.7,112.4,128.9,112.4z M87.4,123.4c0.1,0,0.2,0,0.3,0c0.1,0.3,0.6,0.2,0.7,0.5c-0.2,0.3-0.6,0.1-0.9,0.3
			c-0.1,0.5,0.2,0.7,0.6,0.8c0.2,0,0.3,0.2,0.5,0.2c1.2,0.3,2.4,0.3,3.7,0c0-0.1-0.2-0.2-0.1-0.4c0.7-0.4,1.4-0.8,2.2-1.1
			c0.8-0.3,1.5-0.7,2.2-1c0.7-0.4,1.5-0.8,2.2-1.1c0.7-0.4,1.5-0.6,2.2-1c0.7-0.4,1.5-0.7,2.2-1.1c0.7-0.4,1.5-0.5,2.2-1.1
			c-1.5-0.6-2.8-1.3-4.3-1.9c0.9-0.4,1.6-0.8,2.4-1.1c0.4-0.1,0.8-0.4,1.2-0.6c0,0,0-0.1,0.1-0.1c-0.1-0.1-0.3-0.1-0.4-0.2
			c-0.2,0.2-0.5,0.1-0.7,0.2c-0.7,0.3-1.3,0.6-2,0.9c-0.6,0.3-1.2,0.5-1.7,0.9c0,0,0,0.1,0,0.1c0.1,0.1,0.2,0,0.3,0.2
			c-0.1,0.1-0.3,0-0.3,0.2c-0.1,0-0.2,0-0.3,0.1c-1.4,0.7-2.9,1.3-4.3,2c-1.7,0.8-3.4,1.6-5.1,2.4c-0.6,0.3-1.2,0.6-1.8,0.8
			c-0.9-0.4-1.8-0.9-2.7-1.3c-1.3,0.6-2.5,1.1-3.7,1.7c-0.4-0.3-0.8-0.1-1.2,0.2c0.3,0.4,0.7,0,0.9,0.1c0.5,0.2,0.8,0,1.1-0.2
			c1-0.5,2-0.9,2.9-1.4c0.5,0.3,1.1,0.5,1.6,0.8c0.7,0.5,1.5,0.7,2.2,0.1c0.2-0.1,0.4-0.1,0.6-0.2c1.7-0.9,3.5-1.7,5.3-2.5
			c1.3-0.6,2.7-1.3,4-1.9c0.2-0.1,0.4-0.1,0.6-0.1c0.8,0.2,1.5,0.6,2.3,1c-0.1,0.1-0.1,0.2-0.2,0.3c-1.1,0.5-2.2,1-3.3,1.5
			c-0.8,0.4-1.6,0.8-2.4,1.1c-2,0.9-3.9,1.9-5.9,2.9c-0.9-0.4-1.8-0.9-2.6-1.4C87.5,123,87.5,123,87.4,123.4c-0.3,0.1-0.2,0.3,0,0.5
			C87.4,123.8,87.4,123.6,87.4,123.4z M115.7,112c-1.2,0.6-2.4,1.1-3.5,1.7c-1.1,0.6-2.4,0.9-3.4,1.7c0.2,0.2,0.4,0.1,0.5,0.2
			c0.5,0.5,1,0.5,1.5,0.2c1.9-1,3.9-1.8,5.8-2.8c0.7-0.4,1.4-0.8,2.1-1c0.1,0,0.3,0,0.3-0.3c-1.3-0.6-2.6-1-4-1.7
			c1-0.5,1.8-1,2.8-1.3c-0.3-0.4-0.6-0.3-0.9-0.1c-1.1,0.5-2.2,1-3.3,1.6c0.2,0.1,0.3,0.1,0.4,0.2c-0.1,0.1-0.1,0.2-0.2,0.3
			c-0.7,0.3-1.4,0.6-2.1,0.9c-1.8,0.8-3.6,1.7-5.3,2.5c-0.7-0.4-1.4-0.6-2-0.9c-2,0.9-4,1.8-6,2.7c0.3,0.1,0.4,0.2,0.5,0.2
			c1.9-0.9,3.7-1.7,5.5-2.5c0.5,0.2,1.1,0.4,1.6,0.7c0.3,0.2,0.6,0.1,0.9,0c1.2-0.4,2.3-1.1,3.5-1.6c1.1-0.5,2.2-1,3.3-1.5
			c0.8,0.3,1.6,0.5,2.3,0.9C115.7,112,115.7,112,115.7,112z M107.5,109.1c0.8,0,1.4-0.6,2.2-0.8c-0.4-0.3-0.7,0-1,0.1
			c-1.5,0.2-2.9,0.7-4.4,1c-1,0.2-2,0.6-3.1,0.8c-1.2,0.2-2.4,0.6-3.6,0.8c-0.8,0.2-1.5,0.5-2.3,0.6c-1.5,0.2-2.9,0.7-4.3,1
			c-1.4,0.3-2.8,0.7-4.2,1c-1.2,0.3-2.4,0.6-3.5,1.1c-0.7,0.4-1.5,0.6-2.3,1c-1,0.4-2,0.8-3,1.2c-0.9,0.4-1.8,0.7-2.7,1.1
			c-0.7,0.3-1.4,0.4-2,1c0.1,0.1,0.2,0.1,0.3,0.1c0.2,0.2,0.4,0.3,0.7,0.3c0.1,0.3,0.4,0.1,0.5,0.2c0,0.2,0.1,0.2,0.3,0.3
			c1.2,0.7,2.5,1.3,3.8,2c0.5,0.2,0.8,0.2,1.2-0.1c-0.1-0.1-0.2-0.2-0.1-0.3c0.9-0.5,1.8-0.9,2.8-1.3c1.7-0.7,3.4-1.5,5.1-2.2
			c1.3-0.6,2.6-1.2,3.9-1.8c1.8-0.8,3.6-1.6,5.4-2.4c1.2-0.6,2.5-1.1,3.7-1.7c1.8-0.8,3.6-1.6,5.4-2.4
			C106.8,109.5,107.2,109.4,107.5,109.1z M72.7,118.7c0.8-0.5,1.7-0.7,2.5-1.1c0.9-0.5,1.8-0.8,2.7-1.2c1.3-0.6,2.6-1.1,3.9-1.6
			c0.9-0.4,1.8-0.7,2.7-1.1c1.4-0.5,2.8-0.7,4.2-1.1c1.4-0.4,2.8-0.6,4.2-1c1.3-0.4,2.5-0.6,3.8-0.9c1.4-0.3,2.8-0.8,4.3-1
			c0.8-0.1,1.6-0.5,2.5-0.6c1.5-0.2,2.9-0.7,4.3-1c1.5-0.3,2.9-0.7,4.4-1c0.3,0,0.6-0.1,0.8-0.5c-0.4,0.1-0.8,0.1-1.2,0.2
			c-1,0.2-2,0.6-3,0.7c-1.3,0.2-2.5,0.6-3.7,0.9c-0.8,0.2-1.5,0.4-2.3,0.6c-1.2,0.2-2.4,0.6-3.6,0.8c-1.4,0.2-2.7,0.7-4.1,1
			c-1.4,0.3-2.8,0.6-4.1,1c-1.7,0.4-3.3,0.8-5,1.2c-0.8,0.2-1.6,0.4-2.4,0.8c-0.8,0.4-1.7,0.6-2.5,1c-0.8,0.4-1.6,0.6-2.4,1
			c-0.8,0.4-1.7,0.7-2.6,1.1c-1.1,0.5-2.3,0.9-3.4,1.5C72.7,118.4,72.7,118.5,72.7,118.7z M117.8,114.5c-7.4,3.8-14.9,7.3-22.2,11.1
			c-0.3-0.1-0.5-0.4-0.9-0.3c-0.1,0.1-0.4,0.2-0.2,0.5c0.1,0,0.4-0.1,0.5,0c0.4,0.3,0.8,0.1,1.1,0c2-1,4-2,6.1-3
			c3.9-1.9,7.7-3.9,11.6-5.8c1.4-0.7,2.8-1.4,4.1-2c0.8,0.3,1.5,0.6,2.2,0.9c0.5,0.2,0.9,0.2,1.4,0c1-0.5,2.1-1.1,3.1-1.6
			c1.2,0.5,2.4,0.9,3.5,1.4c0.5,0.2,0.9,0.2,1.4-0.1c0.9-0.5,1.8-1,2.7-1.5c-0.1-0.1-0.2-0.2-0.3-0.3c-1.2,0.4-2.1,1.2-3.2,1.6
			c-1-0.4-2-0.7-3-1.2c-0.8-0.4-1.5-0.5-2.3,0.1c-0.9,0.5-1.8,0.9-2.7,1.4C119.8,115.2,118.8,115,117.8,114.5z M127.2,111.8
			c0.7-0.3,1.4-0.6,2.1-1c0.7-0.4,1.3-0.3,1.9-0.1c1.5,0.6,3,1.1,4.6,1.7c1-0.7,2.1-1.2,3.2-1.7c-0.1-0.1-0.3-0.2-0.4-0.2
			c-0.9,0.5-1.9,1-2.8,1.5c-1.9-0.7-3.8-1.4-5.6-2c-1.1,0.6-2.2,1.1-3.3,1.7C126.9,111.7,127.1,111.7,127.2,111.8z M124.3,102.3
			c0.9,0.2,1.8,0.6,2.6,0.9c1.4,0.6,2.9,0.8,4.4,0.7c0.7-0.1,1.3,0.1,1.9,0.5c0.1,0.1,0.3,0.2,0.5,0.1c-0.2-0.3-0.4-0.5-0.7-0.6
			c-1-0.3-2-0.7-3.2-0.3c-0.4,0.1-0.8,0.1-1.2-0.1c-1.1-0.4-2.3-0.8-3.4-1.2C124.9,102.1,124.6,102.1,124.3,102.3z M145.9,109.7
			c0-0.4-0.2-0.5-0.5-0.6c-2.2-0.7-4.3-1.5-6.5-2.2c-0.5-0.2-1-0.4-1.7-0.1C140.2,107.7,143,108.8,145.9,109.7z M138.8,109.7
			c1.5,0.5,2.8,1.1,4.3,1.5c0-0.2,0.3-0.1,0.3-0.2c-1.3-0.5-2.6-1-4-1.4C139.2,109.5,139,109.4,138.8,109.7z"/>
		<path class="st7" d="M69.8,119.7c0-0.2-0.1-0.2-0.2-0.3c-0.1-0.1-0.1-0.2,0-0.2c0.1,0,0.3,0,0.4,0.1c1.6,0.9,3.2,1.7,4.8,2.6
			c1.9,1,3.8,2,5.7,3c1.9,1,3.7,2,5.6,2.9c1.9,1,3.8,2,5.7,3.1c1.9,1,3.7,2,5.6,2.9c1.4,0.7,2.8,1.5,4.2,2.2c0.7-0.3,1.3-0.7,1.9-1
			c1.4-0.9,2.9-1.7,4.4-2.5c1.6-0.9,3.2-1.8,4.8-2.7c1.6-0.9,3.2-1.8,4.8-2.7c1.9-1.1,3.8-2.1,5.7-3.2c0.6-0.3,1.2-0.6,1.8-1
			c1.4-0.8,2.8-1.6,4.2-2.4c0.7-0.4,1.4-0.7,2.1-1.1c1.3-0.8,2.6-1.5,3.9-2.2c1.3-0.7,2.7-1.5,4-2.2c1.8-1,3.6-2,5.4-3
			c1.4-0.8,2.7-1.5,4.1-2.3c0.3-0.2,0.6-0.6,1-0.5c0.1,0.1,0.1,0.2,0.2,0.3c-0.1,0.1-0.3,0-0.3,0.2c-0.1,0-0.2,0-0.3,0.1
			c-1.3,0.7-2.5,1.4-3.8,2.2c-1.3,0.7-2.6,1.5-4,2.2c-0.7,0.4-1.4,0.7-2.1,1.1c-1.1,0.7-2.3,1.3-3.5,2c-1.3,0.7-2.7,1.5-4,2.2
			c-1.7,0.9-3.3,1.9-5,2.8c-1.4,0.8-2.9,1.6-4.3,2.5c-2,1.1-4.1,2.3-6.1,3.4c-1.6,0.9-3.1,1.8-4.7,2.7c-2,1.1-4,2.3-6,3.4
			c-1.4,0.8-2.7,1.5-4.1,2.3c-0.1-0.1-0.3-0.2-0.4-0.3c-2-1-3.9-2.1-5.9-3.1c-1.6-0.8-3.2-1.7-4.8-2.5c-2-1.1-4-2.1-6-3.2
			c-0.6-0.4-1.3-0.7-2-1c-1.9-1-3.8-2-5.7-3c-1.4-0.8-2.9-1.5-4.3-2.3c-0.1-0.1-0.2-0.2-0.4-0.2C71.5,120.5,70.7,120,69.8,119.7z"/>
		<path class="st8" d="M149.9,109.3c-0.5-0.1-0.7,0.3-1,0.5c-1.4,0.7-2.8,1.5-4.1,2.3c-1.8,1-3.6,2-5.4,3c-1.3,0.8-2.7,1.5-4,2.2
			c-1.3,0.7-2.6,1.4-3.9,2.2c-0.7,0.4-1.4,0.8-2.1,1.1c-1.4,0.8-2.9,1.6-4.2,2.4c-0.6,0.4-1.2,0.6-1.8,1c-1.9,1.1-3.8,2.1-5.7,3.2
			c-1.6,0.9-3.2,1.8-4.8,2.7c-1.6,0.9-3.2,1.8-4.8,2.7c-1.5,0.8-2.9,1.6-4.4,2.5c-0.6,0.4-1.3,0.7-1.9,1c-1.4-0.7-2.8-1.5-4.2-2.2
			c-1.9-1-3.7-2-5.6-2.9c-1.9-1-3.8-2-5.7-3.1c-1.9-1-3.7-2-5.6-2.9c-1.9-1-3.8-2-5.7-3c-1.6-0.9-3.2-1.7-4.8-2.6
			c-0.1-0.1-0.3-0.1-0.4-0.1c0-0.2-0.2-0.1-0.3-0.2c0-0.2,0.3,0,0.3-0.3c1.5,0.8,3.1,1.5,4.5,2.4c0.4,0.2,0.9,0.4,1.3,0.6
			c1.4,0.7,2.8,1.5,4.2,2.2c2,1,4,2.1,6,3.2c1.1,0.6,2.2,1.1,3.3,1.7c2,1.1,4.1,2.2,6.1,3.2c2,1,3.9,2.1,5.9,3.1
			c0.3,0.1,0.5,0.3,0.7,0.5c1.7-0.9,3.4-1.9,5.1-2.8c1.4-0.8,2.8-1.6,4.3-2.3c1.3-0.7,2.6-1.5,3.9-2.2c0.6-0.3,1.2-0.6,1.8-1
			c1.5-0.8,3-1.6,4.4-2.4c1.8-1,3.6-2,5.4-3c0.8-0.5,1.6-0.9,2.5-1.4c1.4-0.8,2.8-1.5,4.2-2.3c0.6-0.4,1.2-0.6,1.8-1
			c1.5-0.8,2.9-1.6,4.4-2.5c1.8-1,3.6-2.1,5.4-3c0.9-0.5,1.8-1,2.7-1.5c0.8-0.4,1.5-0.8,2.3-1.2c0.1,0,0.2,0,0.3,0.1
			C150,109.1,150,109.2,149.9,109.3z"/>
		<path class="st8" d="M69.8,119.7c0.9,0.3,1.7,0.8,2.5,1.2c0.1,0.1,0.2,0.2,0.4,0.2c1.4,0.7,2.9,1.5,4.3,2.3c1.9,1,3.8,2,5.7,3
			c0.7,0.3,1.3,0.7,2,1c2,1.1,4,2.1,6,3.2c1.6,0.8,3.2,1.7,4.8,2.5c2,1,3.9,2.1,5.9,3.1c0.2,0.1,0.3,0.2,0.4,0.3
			c1.4-0.8,2.7-1.5,4.1-2.3c2-1.1,4-2.2,6-3.4c1.6-0.9,3.1-1.8,4.7-2.7c2-1.1,4.1-2.3,6.1-3.4c1.4-0.8,2.9-1.6,4.3-2.5
			c1.6-1,3.3-1.9,5-2.8c1.3-0.8,2.7-1.5,4-2.2c1.2-0.6,2.3-1.3,3.5-2c0.7-0.4,1.4-0.8,2.1-1.1c1.3-0.7,2.7-1.5,4-2.2
			c1.3-0.7,2.5-1.4,3.8-2.2c0.1-0.1,0.2-0.1,0.3-0.1c0.1,0,0.2,0,0.3,0c0,0.2-0.3,0.1-0.3,0.3c-1.6,0.9-3.2,1.8-4.9,2.7
			c-1.9,1.1-3.7,2.1-5.6,3.2c-2,1.1-4,2.3-6,3.4c-1.9,1.1-3.8,2.1-5.7,3.2c-1.5,0.8-2.9,1.6-4.4,2.5c-2,1.2-4,2.3-6,3.4
			c-1.9,1.1-3.8,2.1-5.7,3.2c-1.8,1-3.6,2-5.4,3c-0.6,0.3-1.2,0.6-1.7,1c-0.7,0.4-1.5,0.8-2.2,1.2c-0.3,0.2-0.6,0.2-0.9,0
			c-0.5-0.2-0.9-0.5-1.3-0.7c-1.7-0.9-3.4-1.8-5.1-2.7c-1.6-0.9-3.2-1.7-4.8-2.6c-1.7-0.9-3.4-1.9-5.1-2.7c-1.6-0.8-3.2-1.7-4.8-2.5
			c-1.8-1-3.7-1.9-5.5-2.9c-1.3-0.7-2.5-1.3-3.8-2c-0.4-0.2-0.7-0.6-1.1-0.6c0-0.2-0.3-0.1-0.3-0.3
			C69.6,119.7,69.7,119.8,69.8,119.7z"/>
		<path class="st9" d="M69.8,120.1c0.5,0,0.8,0.4,1.1,0.6c1.3,0.6,2.5,1.3,3.8,2c1.8,1,3.7,2,5.5,2.9c1.6,0.8,3.2,1.7,4.8,2.5
			c1.7,0.9,3.4,1.8,5.1,2.7c1.6,0.9,3.2,1.7,4.8,2.6c1.7,0.9,3.4,1.9,5.1,2.7c0.5,0.2,0.9,0.5,1.3,0.7c0.3,0.2,0.6,0.2,0.9,0
			c0.7-0.4,1.5-0.7,2.2-1.2c0.6-0.4,1.1-0.7,1.7-1c1.8-1,3.6-2,5.4-3c1.9-1.1,3.8-2.1,5.7-3.2c2-1.1,4-2.2,6-3.4
			c1.5-0.8,2.9-1.7,4.4-2.5c1.9-1.1,3.8-2.1,5.7-3.2c2-1.1,4-2.2,6-3.4c1.9-1.1,3.7-2.1,5.6-3.2c1.6-0.9,3.2-1.8,4.9-2.7
			c0.1,0,0.2,0,0.3,0.1c-0.1,0.1-0.1,0.2-0.2,0.3c-0.7,0.2-1.3,0.7-1.9,1c-1.3,0.7-2.6,1.5-3.9,2.2c-0.6,0.3-1.1,0.7-1.7,1
			c-1.3,0.7-2.6,1.5-3.9,2.2c-0.6,0.3-1.2,0.6-1.7,1c-1.1,0.7-2.3,1.3-3.5,2c-1.1,0.7-2.3,1.2-3.4,1.9c-1.7,1-3.4,1.9-5,2.9
			c-1.1,0.6-2.3,1.2-3.4,1.9c-1.6,0.9-3.1,1.8-4.7,2.7c-1.7,0.9-3.4,1.8-5,2.8c-0.6,0.3-1.2,0.6-1.7,1c-1.1,0.7-2.4,1.3-3.6,2
			c-0.8,0.5-1.5,0.9-2.3,1.3c-0.8,0.4-1.4,0.9-2.3,1.2c-2.1-1.1-4.1-2.2-6.2-3.3c-0.3-0.2-0.7-0.3-1-0.5c-1.7-1.1-3.6-2-5.4-2.9
			c-1.3-0.7-2.5-1.3-3.8-2c-1.8-1-3.7-2-5.5-3c-1.2-0.7-2.5-1.3-3.7-2c-2-1.1-4-2.1-6-3.2c-0.1-0.1-0.2-0.1-0.3-0.1
			c0-0.2-0.3-0.1-0.3-0.1C69.6,120.2,69.7,120.1,69.8,120.1z"/>
		<path class="st8" d="M70,120.6c0.1,0,0.2,0,0.3,0.1c2,1.1,4,2.1,6,3.2c1.2,0.7,2.5,1.3,3.7,2c1.8,1,3.7,2,5.5,3
			c1.2,0.7,2.5,1.3,3.8,2c1.8,1,3.7,1.9,5.4,2.9c0.3,0.2,0.7,0.3,1,0.5c2.1,1.1,4.1,2.2,6.2,3.3c0.9-0.3,1.5-0.8,2.3-1.2
			c0.8-0.4,1.5-0.9,2.3-1.3c1.2-0.7,2.4-1.3,3.6-2c0.5-0.4,1.2-0.6,1.7-1c1.6-1,3.3-1.9,5-2.8c1.6-0.9,3.1-1.8,4.7-2.7
			c1.1-0.6,2.3-1.3,3.4-1.9c1.7-1,3.4-1.9,5-2.9c1.1-0.6,2.3-1.2,3.4-1.9c1.1-0.7,2.3-1.3,3.5-2c0.5-0.3,1.1-0.7,1.7-1
			c1.3-0.7,2.6-1.5,3.9-2.2c0.6-0.3,1.1-0.6,1.7-1c1.3-0.7,2.6-1.5,3.9-2.2c0.6-0.3,1.2-0.8,1.9-1c0.1,0.1,0.1,0.2,0.2,0.3
			c-0.1,0.1-0.3,0-0.3,0.2c-0.1,0-0.2,0-0.3,0.1c-0.8,0.4-1.5,0.9-2.3,1.3c-1.8,1-3.6,2-5.4,3c-1.9,1.1-3.8,2.1-5.7,3.2
			c-1.8,1-3.5,2-5.3,3c-2,1.1-4,2.3-6,3.4c-0.6,0.3-1.2,0.6-1.8,1c-1.2,0.7-2.4,1.4-3.6,2.1c-1,0.6-2,1.1-3,1.7
			c-1.1,0.7-2.3,1.3-3.5,2c-1.1,0.6-2.2,1.3-3.4,1.9c-1.3,0.7-2.5,1.5-3.8,2.2c-0.6,0.3-1.2,0.7-1.8,1c-0.8,0.4-1.4,0.9-2.2,1.2
			c-0.8-0.3-1.4-0.8-2.1-1.1c-1.1-0.5-2.2-1.2-3.3-1.8c-1.8-0.9-3.6-2-5.4-3c-1.2-0.6-2.3-1.2-3.5-1.8c-1.7-0.9-3.4-1.8-5-2.8
			c-1.4-0.8-2.8-1.6-4.3-2.3c-1.8-0.9-3.5-2-5.4-2.9c-0.4-0.2-0.7-0.4-1-0.6c-0.7-0.4-1.3-0.8-2.1-1c-0.1-0.1-0.1-0.2-0.2-0.3
			C69.8,120.7,69.9,120.6,70,120.6z"/>
		<path class="st7" d="M69.9,121c0.8,0.2,1.4,0.6,2.1,1c0.3,0.2,0.7,0.4,1,0.6c1.8,0.9,3.6,1.9,5.4,2.9c1.4,0.7,2.9,1.5,4.3,2.3
			c1.7,0.9,3.4,1.8,5,2.8c1.1,0.6,2.3,1.2,3.5,1.8c1.8,0.9,3.6,2,5.4,3c1.1,0.6,2.2,1.2,3.3,1.8c0.7,0.3,1.3,0.8,2.1,1.1
			c0.8-0.3,1.5-0.8,2.2-1.2c0.6-0.3,1.2-0.7,1.8-1c1.3-0.7,2.5-1.5,3.8-2.2c1.1-0.6,2.2-1.2,3.4-1.9c1.2-0.7,2.4-1.3,3.5-2
			c1-0.6,2-1.1,3-1.7c1.2-0.7,2.4-1.3,3.6-2.1c0.6-0.4,1.2-0.6,1.8-1c2-1.1,4-2.2,6-3.4c1.8-1,3.5-2,5.3-3c1.9-1.1,3.8-2.1,5.7-3.2
			c1.8-1,3.6-2,5.4-3c0.8-0.4,1.5-0.9,2.3-1.3c0.1-0.1,0.2-0.1,0.3-0.1c0.1,0,0.2,0,0.3,0.1c0,0.2-0.3,0-0.3,0.3
			c-1.1,0.6-2.1,1.2-3.2,1.8c-1.6,0.9-3.3,1.9-4.9,2.8c-1.8,1-3.6,2-5.4,3c-1.3,0.8-2.7,1.5-4,2.3c-1.9,1.1-3.8,2.1-5.7,3.2
			c-0.6,0.3-1.2,0.6-1.8,1c-1.1,0.6-2.1,1.2-3.2,1.9c-1,0.6-2,1.1-3,1.7c-1.2,0.7-2.4,1.4-3.6,2.1c-1,0.6-2,1.1-3,1.7
			c-1.2,0.7-2.4,1.4-3.6,2c-1,0.6-2,1.1-3,1.7c-1.2,0.7-2.4,1.3-3.6,2.1c-1.4-0.7-2.7-1.4-4-2.1c-1.5-0.8-3-1.7-4.5-2.5
			c-1.1-0.6-2.2-1.2-3.3-1.8c-0.9-0.5-1.8-0.9-2.7-1.4c-1.7-1-3.5-1.9-5.3-2.9c-1.2-0.7-2.4-1.4-3.7-2c-1.8-0.9-3.5-2-5.4-2.8
			c-0.2-0.1-0.4-0.3-0.7-0.4c-0.8-0.4-1.6-0.8-2.3-1.2c0-0.1-0.1-0.2-0.1-0.2C69.8,121.3,69.8,121.2,69.9,121z"/>
		<path class="st8" d="M70.2,121.5c0.8,0.4,1.6,0.8,2.3,1.2c0.2,0.1,0.4,0.3,0.7,0.4c1.8,0.9,3.6,1.9,5.4,2.8c1.2,0.6,2.5,1.3,3.7,2
			c1.7,1,3.5,1.9,5.3,2.9c0.9,0.5,1.8,0.9,2.7,1.4c1.1,0.6,2.2,1.2,3.3,1.8c1.5,0.8,3,1.7,4.5,2.5c1.3,0.7,2.7,1.4,4,2.1
			c1.1-0.8,2.4-1.3,3.6-2.1c1-0.6,2-1.1,3-1.7c1.2-0.7,2.4-1.3,3.6-2c1-0.6,2-1.1,3-1.7c1.2-0.7,2.4-1.4,3.6-2.1c1-0.6,2-1.1,3-1.7
			c1.1-0.6,2.1-1.2,3.2-1.9c0.6-0.3,1.2-0.6,1.8-1c1.9-1.1,3.8-2.1,5.7-3.2c1.3-0.8,2.7-1.5,4-2.3c1.8-1,3.6-2,5.4-3
			c1.6-0.9,3.3-1.9,4.9-2.8c1.1-0.6,2.1-1.2,3.2-1.8c0.3,0.1,0.3,0.2,0,0.4c-0.6,0.3-1.2,0.7-1.8,1c-1.1,0.6-2.1,1.2-3.2,1.8
			c-1,0.6-2,1.1-3,1.7c-1.2,0.7-2.4,1.3-3.6,2c-1,0.6-2,1.1-3,1.7c-1.1,0.7-2.2,1.3-3.3,1.9c-1,0.5-1.9,1.1-2.9,1.7
			c-1.1,0.6-2.2,1.3-3.3,1.9c-1,0.5-1.9,1.1-2.9,1.7c-1.5,0.8-2.9,1.7-4.3,2.6c-1,0.6-2,1.1-3,1.7c-1.2,0.8-2.5,1.5-3.8,2.2
			c-0.5,0.3-1,0.6-1.6,0.9c-1,0.6-2.1,1.2-3.1,1.8c-1.1,0.6-2.2,1.3-3.3,1.9c-0.6,0.3-1.2,0.7-1.8,1c-0.4-0.2-0.7-0.4-1-0.6
			c-1.8-1-3.6-1.9-5.4-2.9c-0.7-0.4-1.4-0.7-2.1-1.1c-1.6-1-3.4-1.8-5-2.8c-1-0.6-2.1-1-3.1-1.6c-1.5-0.9-3.1-1.6-4.6-2.5
			c-1-0.6-2.1-1.1-3.1-1.7c-0.8-0.5-1.7-0.8-2.5-1.3c-1.6-0.9-3.3-1.7-4.9-2.7c-0.1-0.1-0.2-0.1-0.3-0.1c-0.1-0.1-0.1-0.2-0.2-0.3
			C70,121.5,70.1,121.5,70.2,121.5z"/>
		<path class="st7" d="M70,121.9c0.1,0,0.2,0,0.3,0.1c1.6,0.9,3.3,1.7,4.9,2.7c0.8,0.5,1.7,0.8,2.5,1.3c1,0.6,2.1,1.1,3.1,1.7
			c1.5,0.9,3.1,1.6,4.6,2.5c1,0.6,2.1,1,3.1,1.6c1.7,1,3.4,1.8,5,2.8c0.7,0.4,1.4,0.7,2.1,1.1c1.8,1,3.6,1.9,5.4,2.9
			c0.3,0.2,0.6,0.4,1,0.6c0.6-0.3,1.2-0.7,1.8-1c1.1-0.6,2.2-1.3,3.3-1.9c1-0.6,2-1.2,3.1-1.8c0.5-0.3,1-0.6,1.6-0.9
			c1.3-0.7,2.5-1.4,3.8-2.2c1-0.6,2-1.1,3-1.7c1.5-0.8,2.9-1.7,4.3-2.6c1-0.6,1.9-1.1,2.9-1.7c1.1-0.6,2.2-1.3,3.3-1.9
			c1-0.6,1.9-1.1,2.9-1.7c1.1-0.6,2.2-1.2,3.3-1.9c1-0.6,2-1.1,3-1.7c1.2-0.7,2.4-1.3,3.6-2c1-0.6,2-1.1,3-1.7
			c1.1-0.6,2.1-1.2,3.2-1.8c0.6-0.3,1.2-0.7,1.8-1c0,0.1,0.1,0.2,0.1,0.3c-0.5,0.4-1,0.6-1.5,0.9c-1.4,0.9-2.9,1.7-4.4,2.5
			c-1.3,0.7-2.5,1.5-3.8,2.3c-1,0.6-2,1.1-3,1.7c-1.1,0.6-2.1,1.2-3.2,1.9c-1,0.6-2,1.1-3,1.7c-1.1,0.6-2.2,1.2-3.2,1.9
			c-0.9,0.5-1.8,1-2.7,1.5c-1.5,0.9-3,1.7-4.5,2.6c-1.4,0.8-2.9,1.7-4.4,2.5c-1.4,0.8-2.8,1.6-4.2,2.4c-1,0.6-2,1.1-3,1.7
			c-0.9,0.5-1.9,1.1-2.8,1.6c-0.5,0.3-0.9,0.6-1.4,0.8c-0.9,0.5-1.9,1.1-2.8,1.6c-1-0.6-2.1-1.1-3.1-1.7c-2-1.1-4-2.1-5.9-3.2
			c-1.8-1-3.6-2-5.4-2.9c-2-1.1-3.9-2.1-5.9-3.2c-1.3-0.7-2.6-1.4-3.8-2.1c-1.9-1-3.8-2-5.6-3.1c-0.6-0.4-1.3-0.7-2-1
			C70.1,122.3,70,122.2,70,121.9z"/>
		<path class="st9" d="M74.4,119.3c-0.3,0-0.5-0.1-0.7-0.3c0.3,0,0.5-0.1,0.7-0.2c0.9-0.5,1.8-0.8,2.7-1.2c1.8-0.7,3.5-1.5,5.2-2.2
			c0.8-0.3,1.6-0.8,2.4-1c1.3-0.4,2.6-0.6,3.9-0.9c1.2-0.3,2.3-0.6,3.5-0.8c1-0.2,2-0.5,3-0.7c1.3-0.2,2.5-0.6,3.7-0.9
			c0.8-0.2,1.6-0.4,2.4-0.6c1.1-0.3,2.3-0.5,3.5-0.8c0.9-0.2,1.8-0.5,2.7-0.6c-0.3,0.3-0.7,0.4-1,0.6c-1.8,0.8-3.6,1.6-5.4,2.4
			c-1.2,0.5-2.5,1.1-3.7,1.7c-1.8,0.8-3.6,1.6-5.4,2.4c-1.3,0.6-2.6,1.2-3.9,1.8c-1.7,0.7-3.4,1.5-5.1,2.2c-0.9,0.4-1.9,0.8-2.8,1.3
			c0,0.1,0,0.2,0.1,0.3c-0.4,0.3-0.8,0.4-1.2,0.1c-1.2-0.7-2.6-1.2-3.8-2c-0.1-0.1-0.3-0.2-0.3-0.3c0.2,0,0.3,0,0.5-0.1
			c0.4-0.2,0.8-0.4,1.2-0.6c0.6-0.3,1.3-0.4,1.8-0.9c-0.2-0.1-0.4-0.2-0.5-0.3c-0.5,0.1-0.9,0.4-1.3,0.5
			C75.9,118.6,75.1,118.8,74.4,119.3z M97.2,112.4c-0.3-0.3-0.7-0.4-1-0.3c-1.5,0.4-3,0.8-4.5,1.1c-1.9,0.4-3.7,0.9-5.6,1.4
			c-0.6,0.2-1.3,0.2-1.8,0.6c0.2,0.3,0.5,0.3,0.6,0.2c0.7-0.3,1.4-0.4,2.1-0.6c0.9-0.2,1.7-0.4,2.6-0.6c1.1-0.3,2.3-0.5,3.4-0.8
			C94.3,113,95.8,112.6,97.2,112.4z"/>
		<path class="st9" d="M88.4,123.9c-0.2-0.3-0.6-0.2-0.7-0.5c0.2-0.3,0.4-0.2,0.6-0.1c0.7,0.4,1.4,0.8,2.2,1.2
			c0.2-0.3,0.6-0.2,0.9-0.4c2.7-1.3,5.4-2.6,8.1-3.9c0.9-0.4,1.8-0.9,2.8-1.4c-0.1-0.1-0.1-0.2-0.2-0.3c0-0.1,0.1-0.1,0.2-0.3
			c-0.7-0.4-1.4-0.8-2.2-1c0-0.2,0.3-0.1,0.3-0.3c-0.1-0.1-0.2-0.2-0.3-0.2c0-0.2,0.2-0.1,0.3-0.2c0-0.1-0.2-0.1-0.3-0.2
			c0,0,0-0.1,0-0.1c0.5-0.4,1.2-0.6,1.7-0.9c0.7-0.3,1.3-0.6,2-0.9c0.2-0.1,0.5-0.1,0.7-0.2c0.1,0.1,0.3,0.1,0.4,0.2
			c0,0,0,0.1-0.1,0.1c-0.4,0.2-0.8,0.5-1.2,0.6c-0.8,0.2-1.5,0.7-2.4,1.1c1.5,0.7,2.8,1.3,4.3,1.9c-0.7,0.6-1.5,0.7-2.2,1.1
			c-0.7,0.4-1.5,0.7-2.2,1.1c-0.7,0.4-1.5,0.7-2.2,1c-0.7,0.4-1.5,0.7-2.2,1.1c-0.7,0.4-1.5,0.7-2.2,1c-0.8,0.3-1.5,0.7-2.2,1.1
			c-0.1,0.2,0.1,0.3,0.1,0.4c-1.2,0.3-2.4,0.3-3.7,0c0.2-0.4,0.6-0.5,0.9-0.8C89.1,124.2,88.8,123.9,88.4,123.9z"/>
		<path class="st8" d="M72.7,118.7c0-0.2,0-0.3,0-0.4c1.1-0.7,2.3-1,3.4-1.5c0.9-0.4,1.7-0.7,2.6-1.1c0.8-0.4,1.6-0.6,2.4-1
			c0.8-0.4,1.7-0.6,2.5-1c0.8-0.4,1.6-0.6,2.4-0.8c1.6-0.4,3.3-0.8,5-1.2c1.4-0.3,2.8-0.7,4.1-1c1.4-0.3,2.7-0.7,4.1-1
			c1.2-0.2,2.4-0.6,3.6-0.8c0.8-0.1,1.5-0.4,2.3-0.6c1.2-0.3,2.5-0.6,3.7-0.9c1-0.2,2-0.5,3-0.7c0.4-0.1,0.7-0.1,1.2-0.2
			c-0.2,0.4-0.5,0.5-0.8,0.5c-1.5,0.2-2.9,0.7-4.4,1c-1.4,0.3-2.8,0.8-4.3,1c-0.8,0.1-1.6,0.5-2.5,0.6c-1.5,0.2-2.9,0.7-4.3,1
			c-1.3,0.2-2.6,0.5-3.8,0.9c-1.4,0.4-2.8,0.7-4.2,1c-1.4,0.4-2.8,0.6-4.2,1.1c-0.9,0.3-1.8,0.7-2.7,1.1c-1.3,0.5-2.6,1.1-3.9,1.6
			c-0.9,0.4-1.8,0.7-2.7,1.2C74.4,118,73.5,118.2,72.7,118.7z"/>
		<path class="st8" d="M117.8,114.5c0.9,0.5,1.9,0.7,2.8,1.2c0.9-0.5,1.9-0.8,2.7-1.4c0.8-0.5,1.5-0.4,2.3-0.1
			c0.9,0.4,1.9,0.8,3,1.2c1.1-0.4,2-1.2,3.2-1.6c0.1,0.1,0.2,0.2,0.3,0.3c-1,0.4-1.9,1-2.7,1.5c-0.5,0.3-0.9,0.3-1.4,0.1
			c-1.1-0.5-2.3-0.9-3.5-1.4c-1,0.5-2,1-3.1,1.6c-0.5,0.2-0.9,0.2-1.4,0c-0.7-0.3-1.4-0.6-2.2-0.9c-1.3,0.7-2.7,1.4-4.1,2
			c-3.8,1.9-7.7,3.9-11.6,5.8c-2,1-4,2-6.1,3c-0.4,0.2-0.7,0.4-1.1,0c-0.1-0.1-0.3,0-0.5,0c-0.1-0.3,0.1-0.4,0.2-0.5
			c0.3-0.1,0.5,0.2,0.9,0.3C102.9,121.9,110.4,118.3,117.8,114.5z"/>
		<path class="st8" d="M96.2,126.7c-0.1,0-0.2,0-0.3,0c0,0-0.1-0.1-0.1-0.2c7.4-3.7,14.7-7.3,22-11c1,0.4,1.9,0.8,2.9,1.2
			c1-0.5,2-0.9,2.9-1.5c0.5-0.3,1-0.4,1.5-0.1c1.1,0.5,2.3,1,3.5,1.4c1.1-0.4,2-1.3,3.2-1.6c0,0,0.1,0.1,0.1,0.1
			c0.1,0.3-0.3,0.2-0.3,0.4c-1,0.3-1.8,0.9-2.6,1.4c-0.1,0-0.1,0-0.2,0c-0.2,0-0.5,0-0.7-0.1c-1.2-0.5-2.5-1-3.7-1.5
			c-1.1,0.6-2.2,1.1-3.3,1.6c-0.4,0.2-0.7,0.2-1.1,0c-0.7-0.3-1.5-0.6-2.2-0.9c-4.9,2.4-9.7,4.9-14.6,7.2
			C101,124.3,98.6,125.5,96.2,126.7z"/>
		<path class="st8" d="M107.5,109.1c-0.9,0.1-1.8,0.3-2.7,0.6c-1.1,0.3-2.3,0.5-3.5,0.8c-0.8,0.2-1.6,0.4-2.4,0.6
			c-1.2,0.3-2.5,0.6-3.7,0.9c-1,0.2-2,0.5-3,0.7c-1.2,0.2-2.3,0.6-3.5,0.9c-1.3,0.3-2.6,0.5-3.9,0.9c-0.8,0.2-1.6,0.7-2.4,1
			c-1.8,0.7-3.5,1.5-5.2,2.2c-0.9,0.4-1.9,0.7-2.7,1.2c-0.2,0.1-0.5,0.2-0.7,0.2c-0.1,0-0.2,0-0.3-0.1c0.6-0.5,1.3-0.7,2-1
			c0.9-0.4,1.8-0.7,2.7-1.1c1-0.4,2-0.8,3-1.2c0.7-0.3,1.5-0.6,2.3-1c1.1-0.6,2.3-0.8,3.5-1.1c1.4-0.3,2.8-0.7,4.2-1
			c1.4-0.3,2.8-0.8,4.3-1c0.8-0.1,1.5-0.4,2.3-0.6c1.2-0.2,2.4-0.6,3.6-0.8c1-0.2,2-0.5,3.1-0.8c1.5-0.3,2.9-0.8,4.4-1
			c0.3,0,0.6-0.3,1-0.1C108.8,108.4,108.3,109,107.5,109.1z"/>
		<path class="st9" d="M113.7,110.4c0.1-0.1,0.1-0.2,0.2-0.3c-0.1,0-0.2-0.1-0.4-0.2c1.1-0.5,2.2-1,3.3-1.6c0.3-0.2,0.7-0.2,0.9,0.1
			c-0.9,0.4-1.8,0.8-2.8,1.3c1.4,0.7,2.8,1.1,4,1.7c0,0.3-0.2,0.3-0.3,0.3c-0.8,0.3-1.4,0.7-2.1,1c-1.9,1-3.9,1.8-5.8,2.8
			c-0.5,0.3-1,0.3-1.5-0.2c0.3-0.4,0.8-0.4,1.3-0.6c1.8-0.9,3.6-1.8,5.5-2.7c-0.1-0.1-0.3,0-0.3-0.3c0,0,0.1-0.1,0.2-0.1
			c-0.7-0.5-1.5-0.7-2.3-0.9c0-0.2,0.2-0.1,0.3-0.2C113.8,110.6,113.7,110.5,113.7,110.4z"/>
		<path class="st9" d="M96.2,126.7c2.4-1.2,4.8-2.4,7.2-3.6c4.9-2.3,9.7-4.8,14.6-7.2c0.7,0.3,1.5,0.6,2.2,0.9
			c0.4,0.2,0.7,0.2,1.1,0c1.1-0.6,2.1-1.1,3.3-1.6c1.2,0.5,2.5,1,3.7,1.5c0.2,0.1,0.5,0,0.7,0.1c0,0.1-0.1,0.2-0.2,0.2
			c-0.2,0-0.4,0-0.7,0c-1-0.4-2-0.7-2.9-1.1c-0.3-0.1-0.6-0.2-0.9-0.1c-1.1,0.6-2.2,1-3.3,1.7c-0.7-0.3-1.4-0.5-2-0.8
			c-0.6-0.3-1.1-0.3-1.7,0c-5.6,2.8-11.2,5.6-16.8,8.4c-1.2,0.6-2.5,1.2-3.7,1.9C96.5,127,96.3,127,96.2,126.7z"/>
		<path class="st8" d="M96.7,127.1c1.2-0.8,2.5-1.3,3.7-1.9c5.6-2.8,11.2-5.6,16.8-8.4c0.6-0.3,1.1-0.3,1.7,0c0.6,0.4,1.4,0.6,2,0.8
			c1.1-0.7,2.2-1.2,3.3-1.7c0.3-0.1,0.6-0.1,0.9,0.1c1,0.4,1.9,0.8,2.9,1.1c-0.3,0.3-0.7,0.2-1,0.1c-0.8-0.3-1.6-0.6-2.4-1
			c-1.3,0.6-2.5,1.2-3.7,2c-0.9-0.4-1.9-0.7-2.8-1.3c-7,3.5-14,6.9-20.9,10.5C97,127.3,96.9,127.1,96.7,127.1z"/>
		<path class="st8" d="M99.9,116.8c0.1,0,0.2,0.1,0.3,0.2c0,0.2-0.3,0-0.3,0.3c-0.2,0-0.4,0-0.6,0.1c-1.3,0.7-2.7,1.3-4,1.9
			c-1.8,0.8-3.6,1.6-5.3,2.5c-0.2,0.1-0.4,0-0.6,0.2c-0.7,0.6-1.5,0.4-2.2-0.1c-0.5-0.3-1-0.5-1.6-0.8c-1,0.4-1.9,0.9-2.9,1.3
			c-0.4,0.2-0.7,0.4-1.1,0.2c-0.2-0.1-0.6,0.3-0.9-0.1c0.4-0.3,0.7-0.5,1.2-0.2c1.2-0.5,2.5-1.1,3.7-1.7c0.9,0.4,1.8,0.9,2.7,1.3
			c0.6-0.2,1.2-0.5,1.8-0.8c1.7-0.8,3.4-1.6,5.1-2.4c1.4-0.7,2.9-1.3,4.3-2C99.7,116.8,99.8,116.8,99.9,116.8z"/>
		<path class="st8" d="M129.3,104.8c-0.4,0-0.7-0.2-1.1-0.3c-0.3-0.1-0.6-0.1-0.8,0c-0.4,0.2-0.9,0.4-1.3,0.6c-2.1,1-4.2,2-6.3,3
			c-0.3,0.1-0.6,0.2-0.8,0.1c-0.5-0.3-1.1-0.4-1.7-0.7c-1.4,0.6-2.9,1.3-4.3,2c-0.3,0.1-0.5,0.2-0.9,0c1.1-0.5,2.1-1,3.1-1.4
			c0.6-0.3,1.2-0.5,1.8-0.8c0.3-0.1,0.5-0.1,0.7,0c0.5,0.2,1.1,0.4,1.7,0.6c1.3-0.6,2.5-1.2,3.8-1.8c1.5-0.7,3.1-1.4,4.7-2.1
			c0.5,0.2,1,0.3,1.5,0.5c0.1,0,0.2-0.2,0.3-0.2c1,0,1.9-0.1,2.9,0.2c0.4,0.1,0.8,0.1,0.8,0.7c-0.5-0.1-1-0.3-1.5-0.4
			C131,104.5,130.1,104.5,129.3,104.8z"/>
		<path class="st9" d="M132.2,105.6c-0.2,0.4-0.5,0-0.7,0c-2.7,1.4-5.6,2.6-8.3,4.1c-0.3-0.1-0.6-0.1-0.9-0.4
			c0.1-0.1,0.1-0.1,0.2-0.2c1.4-0.7,2.7-1.3,4.1-2c1-0.5,2-1.1,3.1-1.5c0.2-0.1,0.3-0.2,0.3-0.5v0
			C130.8,105.2,131.5,105.4,132.2,105.6z"/>
		<path class="st8" d="M113.7,110.4c0.1,0.1,0.1,0.2,0.2,0.3c-0.1,0.1-0.3,0-0.3,0.2c-1.1,0.4-2.2,1-3.3,1.5
			c-1.2,0.5-2.3,1.2-3.5,1.6c-0.3,0.1-0.6,0.1-0.9,0c-0.5-0.3-1-0.4-1.6-0.7c-1.8,0.8-3.7,1.7-5.5,2.5c-0.1-0.1-0.2-0.1-0.5-0.2
			c2-0.9,4-1.8,6-2.7c0.6,0.3,1.4,0.5,2,0.9c1.8-0.8,3.5-1.7,5.3-2.5C112.2,111,113,110.7,113.7,110.4z"/>
		<path class="st8" d="M102,118.6c0.1,0.1,0.1,0.2,0.2,0.3c-0.9,0.5-1.8,0.9-2.8,1.4c-2.7,1.3-5.4,2.6-8.1,3.9
			c-0.3,0.1-0.6,0.1-0.9,0.4c-0.8-0.4-1.5-0.8-2.2-1.2c-0.2-0.1-0.4-0.2-0.6,0.1c-0.1,0-0.2,0-0.3,0l0,0c0.1-0.4,0.1-0.4,0.5-0.7
			c0.8,0.5,1.7,1,2.6,1.4c2-1,3.9-1.9,5.9-2.8c0.8-0.4,1.6-0.8,2.4-1.1C99.8,119.5,100.9,119.1,102,118.6z"/>
		<path class="st8" d="M127.2,111.8c-0.1-0.1-0.3-0.1-0.4-0.2c1.1-0.6,2.2-1.1,3.3-1.7c1.8,0.7,3.7,1.3,5.6,2c0.9-0.5,1.8-1,2.8-1.5
			c0.1,0.1,0.3,0.2,0.4,0.2c-1.1,0.6-2.2,1-3.2,1.7c-1.5-0.6-3.1-1.1-4.6-1.7c-0.7-0.3-1.3-0.4-1.9,0.1
			C128.6,111.2,127.9,111.4,127.2,111.8z"/>
		<path class="st8" d="M128.4,112.2c-0.2,0.1-0.4,0-0.5-0.3c0.8-0.4,1.5-0.8,2.3-1.2c1,0.4,2.1,0.8,3.1,1.2c0.6,0.2,1.3,0.5,1.9,0.7
			c0.3,0.1,0.6,0.1,0.9-0.1c0.8-0.4,1.6-0.8,2.5-1.2c0,0.1,0.1,0.1,0.2,0.2c-0.1,0.2-0.3,0.1-0.3,0.3c-1,0.5-1.9,1-2.8,1.4
			c-1.9-0.7-3.7-1.4-5.5-2C129.6,111.5,128.9,111.7,128.4,112.2z"/>
		<path class="st9" d="M128.4,112.2c0.5-0.5,1.2-0.6,1.8-1c1.8,0.7,3.6,1.3,5.5,2c0.9-0.4,1.8-0.9,2.8-1.4c0.2,0,0.3,0,0.5,0.1
			c0,0.2-0.3,0.1-0.3,0.3c-0.3,0-0.5,0.1-0.6,0.2c-0.4,0.3-0.8,0.4-1.2,0.7c-0.7,0.5-1.3,0.6-2.1,0.2c-1.3-0.6-2.6-1-4-1.5
			c-0.3-0.1-0.5-0.2-0.8,0c-0.3,0.2-0.7,0.3-1,0.6C128.7,112.4,128.6,112.2,128.4,112.2z"/>
		<path class="st8" d="M137.8,107.9c-0.1-0.3-0.4-0.2-0.6-0.1c-0.6,0.3-1.2,0.6-1.8,0.9c-0.2,0.1-0.4,0.2-0.6-0.1
			c0.7-0.5,1.5-0.9,2.3-1.2c0.5-0.2,1,0.1,1.5,0.3c1.7,0.5,3.4,1.2,5.1,1.7c0.5,0.2,1,0.3,1.6,0.5c-0.2,0.1-0.4,0.2-0.5,0.3
			c-0.1,0-0.1-0.1-0.2-0.1c-1.8-0.6-3.6-1.2-5.4-1.8C138.7,108.1,138.3,107.9,137.8,107.9z"/>
		<path class="st8" d="M128.9,112.4c0.3-0.3,0.7-0.4,1-0.6c0.3-0.2,0.5-0.1,0.8,0c1.3,0.5,2.7,0.9,4,1.5c0.8,0.4,1.4,0.3,2.1-0.2
			c0.4-0.2,0.8-0.4,1.2-0.7c0.2-0.1,0.4-0.3,0.6-0.2c0.1,0,0.2,0.1,0.2,0.2c-1,0.6-2.1,1.1-3.1,1.7c-1.8-0.7-3.6-1.4-5.5-2.1
			c-0.2,0.1-0.6,0.3-0.9,0.5C129.2,112.6,129,112.6,128.9,112.4z"/>
		<path class="st8" d="M124.3,102.3c0.3-0.2,0.6-0.2,0.9-0.1c1.1,0.4,2.3,0.8,3.4,1.2c0.4,0.2,0.8,0.2,1.2,0.1
			c1.1-0.4,2.1,0,3.2,0.3c0.3,0.1,0.5,0.3,0.7,0.6c-0.2,0.1-0.4,0-0.5-0.1c-0.6-0.3-1.2-0.5-1.9-0.5c-1.5,0.1-3-0.1-4.4-0.7
			C126.1,102.8,125.2,102.5,124.3,102.3z"/>
		<path class="st8" d="M145.9,109.7c-2.9-0.9-5.6-2-8.6-2.8c0.7-0.3,1.2-0.1,1.7,0.1c2.2,0.7,4.3,1.5,6.5,2.2
			C145.7,109.2,145.9,109.3,145.9,109.7z"/>
		<path class="st8" d="M144.3,110.5c-0.1,0.1-0.3,0.1-0.4,0.2c-1.8-0.6-3.5-1.2-5.2-1.8c-0.3-0.1-0.6-0.1-0.8-0.2
			c0-0.1-0.1-0.2-0.2-0.2c-0.6,0-1,0.2-1.4,0.5c-0.1,0-0.3,0-0.5,0c0.2-0.4,0.6-0.4,0.8-0.6c0.3-0.2,0.6-0.3,0.9-0.4
			c0.1,0.4,0.5,0.2,0.7,0.3c1.5,0.6,3.1,1.1,4.6,1.6C143.4,110.1,143.9,110.2,144.3,110.5z"/>
		<path class="st8" d="M130,105.3c0,0.2-0.1,0.4-0.3,0.5c-1.1,0.3-2,1-3.1,1.5c-1.4,0.6-2.8,1.3-4.1,2c-0.1,0-0.1,0.1-0.2,0.2
			c-0.2,0-0.3-0.1-0.5-0.3c1-0.4,1.9-1,2.9-1.4c0.9-0.3,1.6-0.8,2.5-1.2c0.8-0.4,1.7-0.7,2.5-1.2C129.8,105.3,129.9,105.3,130,105.3
			z"/>
		<path class="st8" d="M115.7,112c0,0.2,0.2,0.1,0.3,0.3c-1.8,0.9-3.6,1.8-5.5,2.7c-0.4,0.2-0.9,0.3-1.3,0.6c-0.2,0-0.4,0.1-0.5-0.2
			c1.1-0.8,2.3-1.1,3.4-1.7C113.3,113.1,114.5,112.6,115.7,112z"/>
		<path class="st9" d="M144.3,110.5c-0.4-0.4-0.9-0.4-1.4-0.6c-1.5-0.5-3.1-1-4.6-1.6c-0.2-0.1-0.6,0.1-0.7-0.3
			c0.1,0,0.2-0.1,0.2-0.2c0.5-0.1,0.9,0.2,1.4,0.3c1.8,0.6,3.6,1.2,5.4,1.8c0.1,0,0.1,0.1,0.2,0.1
			C144.7,110.4,144.5,110.4,144.3,110.5z"/>
		<path class="st8" d="M74.4,119.3c0.7-0.4,1.5-0.7,2.3-1c0.4-0.2,0.8-0.4,1.3-0.5c0.1,0.1,0.3,0.2,0.5,0.3
			c-0.5,0.5-1.2,0.6-1.8,0.9c-0.4,0.2-0.8,0.3-1.2,0.6c-0.2,0.1-0.3,0-0.5,0.1C74.8,119.4,74.5,119.6,74.4,119.3z"/>
		<path class="st8" d="M138.8,109.7c0.2-0.3,0.5-0.3,0.6-0.2c1.3,0.5,2.6,1,4,1.4c0,0.2-0.3,0.1-0.3,0.2
			C141.6,110.8,140.2,110.2,138.8,109.7z"/>
		<path class="st9" d="M129.3,104.8c0.9-0.2,1.7-0.2,2.6-0.1c0.5,0.1,1,0.3,1.5,0.4l0,0c0.1,0.1,0.1,0.2,0.2,0.4c-0.2,0-0.3,0-0.5,0
			c-0.1-0.1-0.1-0.1-0.2-0.2c-0.6-0.2-1.2-0.2-1.7-0.3c-0.3-0.1-0.8-0.2-1.1,0.1C129.7,105.1,129.4,105,129.3,104.8z"/>
		<path class="st9" d="M129.1,116.8c0.9-0.5,1.7-1.1,2.6-1.4c0.2,0,0.3,0,0.5,0.1c0,0.2-0.3,0.1-0.3,0.3c-0.6,0.2-1.2,0.5-1.8,0.9
			C129.8,116.9,129.5,116.8,129.1,116.8z"/>
		<path class="st8" d="M129.9,105.1c0.3-0.4,0.8-0.2,1.1-0.1c0.6,0.1,1.2,0.1,1.7,0.3c0.1,0,0.1,0.1,0.2,0.2c-0.3,0-0.5,0.2-0.7,0.2
			c-0.7-0.3-1.5-0.4-2.3-0.3C130,105.2,130,105.2,129.9,105.1z"/>
		<path class="st8" d="M130.2,116.6c0.5-0.4,1.1-0.7,1.8-0.9c0.1,0,0.1,0.1,0.2,0.2C131.5,116.3,130.9,116.7,130.2,116.6z"/>
		<path class="st9" d="M136.3,109.2c0.4-0.4,0.9-0.6,1.4-0.5c0.1,0,0.2,0.1,0.2,0.2c-0.1,0-0.2,0.1-0.4,0.2
			C137.1,109.4,136.9,109.4,136.3,109.2z"/>
		<path class="st8" d="M133.5,105.4c-0.1-0.1-0.1-0.2-0.2-0.4c0.2,0,0.3,0,0.5,0.1c0.1,0.2-0.1,0.3-0.2,0.4
			C133.5,105.5,133.5,105.5,133.5,105.4z"/>
		<path class="st8" d="M87.4,123.4c0,0.2,0,0.3,0,0.5C87.2,123.7,87.1,123.5,87.4,123.4L87.4,123.4z"/>
		<path class="st8" d="M97.2,112.4c-1.5,0.2-2.9,0.6-4.3,1c-1.1,0.3-2.3,0.5-3.4,0.8c-0.8,0.2-1.7,0.4-2.6,0.6
			c-0.7,0.2-1.5,0.2-2.1,0.6c-0.2,0.1-0.5,0.1-0.6-0.2c0.5-0.4,1.2-0.5,1.8-0.6c1.9-0.5,3.7-0.9,5.6-1.4c1.5-0.4,3-0.7,4.5-1.1
			C96.6,112,96.9,112.1,97.2,112.4z"/>
	</g>
	<g class="st6">
		<text transform="matrix(1 0 0 1 2.0903 27.0835)" class="st10 st11 st12">Structural</text>
	</g>
	<g class="st6">
		<text transform="matrix(1 0 0 1 2.0903 40.2764)" class="st10 st11 st12">Structural</text>
	</g>
	<g class="st6">
		<text transform="matrix(1 0 0 1 2.0903 66.667)" class="st10 st11 st12">Structural</text>
	</g>
	<g class="st6">
		<text transform="matrix(1 0 0 1 2.0903 33.6816)" class="st13 st11 st12">Adhesive</text>
	</g>
	<g class="st6">
		<text transform="matrix(1 0 0 1 2.0903 46.8765)" class="st13 st11 st12">Adhesive</text>
	</g>
	<g class="st6">
		<text transform="matrix(1 0 0 1 2.0903 60.0703)" class="st13 st11 st12">Adhesive</text>
	</g>
	<g class="st6">
		<text transform="matrix(1 0 0 1 2.0903 53.4722)" class="st14 st11 st12">Flexure</text>
	</g>
	<g class="st6">
		<text transform="matrix(1 0 0 1 2.0903 73.2651)" class="st13 st11 st12">Adhesive</text>
	</g>
	<g class="st6">
		<text transform="matrix(1 0 0 1 2.0903 79.8633)" class="st10 st11 st12">Structural</text>
	</g>
	<g class="st6">
		<line class="st10" x1="33.4" y1="25.5" x2="44.1" y2="25.5"/>
		<g>
			<line class="st15" x1="33.4" y1="25.5" x2="42.8" y2="25.5"/>
			<g>
				<polygon class="st10" points="44.1,25.5 42.3,26.2 42.7,25.5 42.3,24.8 				"/>
			</g>
		</g>
	</g>
	<g class="st6">
		<line class="st13" x1="33.4" y1="32" x2="44.1" y2="32"/>
		<g>
			<line class="st16" x1="33.4" y1="32" x2="42.8" y2="32"/>
			<g>
				<polygon class="st13" points="44.1,32 42.3,32.7 42.7,32 42.3,31.2 				"/>
			</g>
		</g>
	</g>
	<g class="st6">
		<line class="st10" x1="33.4" y1="38.5" x2="44.1" y2="38.5"/>
		<g>
			<line class="st15" x1="33.4" y1="38.5" x2="42.8" y2="38.5"/>
			<g>
				<polygon class="st10" points="44.1,38.5 42.3,39.2 42.7,38.5 42.3,37.7 				"/>
			</g>
		</g>
	</g>
	<g class="st6">
		<line class="st13" x1="33.4" y1="44.9" x2="44.1" y2="44.9"/>
		<g>
			<line class="st16" x1="33.4" y1="44.9" x2="42.8" y2="44.9"/>
			<g>
				<polygon class="st13" points="44.1,44.9 42.3,45.7 42.7,44.9 42.3,44.2 				"/>
			</g>
		</g>
	</g>
	<g class="st6">
		<line class="st14" x1="33.4" y1="51.4" x2="44.1" y2="51.4"/>
		<g>
			<line class="st17" x1="33.4" y1="51.4" x2="42.8" y2="51.4"/>
			<g>
				<polygon class="st14" points="44.1,51.4 42.3,52.2 42.7,51.4 42.3,50.7 				"/>
			</g>
		</g>
	</g>
	<g class="st6">
		<line class="st13" x1="33.4" y1="57.9" x2="44.1" y2="57.9"/>
		<g>
			<line class="st16" x1="33.4" y1="57.9" x2="42.8" y2="57.9"/>
			<g>
				<polygon class="st13" points="44.1,57.9 42.3,58.6 42.7,57.9 42.3,57.2 				"/>
			</g>
		</g>
	</g>
	<g class="st6">
		<line class="st10" x1="33.4" y1="64.4" x2="44.1" y2="64.4"/>
		<g>
			<line class="st15" x1="33.4" y1="64.4" x2="42.8" y2="64.4"/>
			<g>
				<polygon class="st10" points="44.1,64.4 42.3,65.1 42.7,64.4 42.3,63.6 				"/>
			</g>
		</g>
	</g>
	<g class="st6">
		<line class="st13" x1="33.4" y1="70.9" x2="44.1" y2="70.9"/>
		<g>
			<line class="st16" x1="33.4" y1="70.9" x2="42.8" y2="70.9"/>
			<g>
				<polygon class="st13" points="44.1,70.9 42.3,71.6 42.7,70.9 42.3,70.1 				"/>
			</g>
		</g>
	</g>
	<g class="st6">
		<line class="st10" x1="33.4" y1="77.3" x2="44.1" y2="77.3"/>
		<g>
			<line class="st15" x1="33.4" y1="77.3" x2="42.8" y2="77.3"/>
			<g>
				<polygon class="st10" points="44.1,77.3 42.3,78.1 42.7,77.3 42.3,76.6 				"/>
			</g>
		</g>
	</g>
	<g class="st6">
		<linearGradient id="SVGID_8_" gradientUnits="userSpaceOnUse" x1="117.1528" y1="87.8524" x2="120.1584" y2="87.8524">
			<stop  offset="0" style="stop-color:#000000"/>
			<stop  offset="0.4773" style="stop-color:#9D9D9D"/>
			<stop  offset="1" style="stop-color:#000000"/>
		</linearGradient>
		<rect x="117.2" y="74.5" class="st18" width="3" height="26.7"/>
		<line class="st19" x1="118.7" y1="101.2" x2="118.7" y2="74.5"/>
	</g>
	<line class="st20" x1="118.7" y1="103.7" x2="127.3" y2="94.3"/>
	<line class="st20" x1="118.7" y1="103.7" x2="121.9" y2="95.6"/>
	<line class="st20" x1="118.7" y1="103.7" x2="115.5" y2="97.8"/>
	<line class="st20" x1="118.7" y1="103.7" x2="111.1" y2="96.8"/>
	<g class="st6">
		<path class="st7" d="M112.5,56.2c0,0.3,0.4,0,0.5,0.3c0.4,0,0.8,0.2,1.2,0.3c0.8,0.2,1.7,0.5,2.5,0.7c1,0.3,1.9,0.6,2.9,0.9
			c-1.4,0.7-2.7,1.4-4,2c-0.8,0.4-1.6,0.8-2.4,1.2c0,0,0,0.1-0.1,0.1c-0.2-0.1-0.3,0.1-0.4,0.2c-0.5,0.3-1.1,0.5-1.6,0.9
			c-0.1,0-0.2,0-0.2,0c-1.2,0.7-2.4,1.2-3.6,1.8c-0.1,0.1-0.4,0-0.4,0.4c0.3,0.1,0.6,0.2,0.9,0.3c1.1,0.3,2.2,0.8,3.2,1.1
			c0.3,0.1,0.8,0.1,1,0.4c0,0.1,0,0.1-0.1,0.1c-0.6,0.3-1.2,0.6-1.8,0.9c-0.7-0.1-1.3-0.5-1.9-0.7c-0.6-0.2-1.2-0.5-1.9-0.3
			c0.2,0.1,0.4,0.1,0.5,0.3c-0.1,0-0.2,0.1-0.3,0.2c-1.8,0.9-3.7,1.7-5.4,2.8c-0.5,0.3-1,0.4-1.5,0.8c0,0.1-0.1,0.1-0.2,0.1
			c-0.6,0-1.2,0.2-1.7,0.4c-0.9,0.3-1.9,0.6-2.8,1c-0.9,0.3-1.8,0.5-2.7,1c-0.4,0-0.8,0.4-1.3,0.3c0,0,0-0.1,0.1-0.1
			c3.6-1.8,7.3-3.6,10.9-5.4c0.1,0,0.2,0,0.2-0.2c-0.6-0.3-0.8-0.4-1.3-0.1c-3.9,2-7.8,4-11.7,5.8c-0.7,0.4-1.5,0.7-2.2,1.1
			c-0.5,0.3-1.1,0.5-1.6,0.9c0,0.1,0,0.1-0.1,0.1c-0.4,0-0.7,0.2-1,0.3c-1.3,0.6-2.6,1.3-3.9,2c-0.7,0.3-1.3,0.7-1.9,1
			c-0.4-0.1-0.7-0.5-1.1-0.5c-0.6-0.5-1.3-0.7-2-1c-0.4,0.2-0.8,0.2-1.1,0.5C73.8,78,73.6,78,73.3,78c-0.2,0.1-0.4-0.2-0.6-0.2
			c-0.1-0.2,0-0.4,0.3-0.5c0.2,0.1,0.4,0.2,0.7,0.3c0.1-0.2,0.3-0.1,0.3-0.2c0.1-0.1,0.4,0,0.3-0.3c-0.9-0.5-1.9-0.9-2.8-1.4
			C71.3,75.9,71,76,70.7,76c0.3,0.4,0.9,0.4,1.2,0.8c-0.2,0.2-0.5,0.2-0.7,0.4c-0.3-0.2-0.6,0.1-0.9,0.1c-0.6,0-1.3,0-1.9,0
			c-0.2,0-0.3-0.1-0.5-0.2c0-0.1,0-0.1,0.1-0.1c1-0.4,1.9-0.9,2.9-1.3c0.1,0,0.1-0.1,0.1-0.2c0,0,0-0.1-0.1-0.1
			c-1.3-0.6-2.6-1.2-3.9-1.9c-0.1,0-0.2,0-0.3,0c-0.6-0.5-1.3-0.7-1.9-1c-0.1,0-0.2,0-0.3,0c0-0.1,0-0.1-0.1-0.1
			c-1.5-0.7-2.8-1.5-4.3-2.1c-0.4-0.2-0.8-0.5-1.3-0.6c-0.3-0.2-0.5-0.4-0.9-0.4c0-0.2-0.2-0.1-0.3-0.2c-1.1-0.4-2.1-1-3.1-1.5
			c-1.2-0.5-2.4-1.2-3.7-1.8c0.1-0.3,0.3-0.2,0.5-0.3c0.9-0.4,1.9-0.7,2.9-1.1c1.1-0.4,2.2-0.8,3.4-1.2c0,0,0.1,0,0.1,0
			c0.1,0,0.3,0,0.4,0c0.9,0.5,1.8,0.8,2.7,1.2c0.9,0.4,1.8,0.8,2.7,1.2c0.9,0.4,1.7,0.8,2.6,1.2c0.2,0.1,0.5,0.1,0.6,0.4
			c-0.3,0.2-0.7,0.3-1,0.4c-0.2,0.1-0.6,0.4-0.9,0c-0.1-0.1-0.3,0-0.4,0c-0.5,0.3-1.1,0.4-1.6,0.7c-0.4,0.2-0.8,0.4-1.2,0.4
			c-0.4,0-0.7,0.1-1.1,0.2c0.1,0.1,0.2,0.1,0.2,0.2c0.7,0.1,1.3,0,1.9-0.4c0.1,0,0.1,0,0.2,0c0.6-0.2,1.2-0.5,1.7-0.7
			c0.6,0.3,1.3,0.7,2.1,0.9c-0.7,0.1-0.6,0.7-0.9,0.9c0.2,0.2,0.2,0.5,0.4,0.6c0.6,0.4,1.2,0.5,2,0.3c0,0.2,0.3,0.1,0.3,0.2
			c0.5-0.2,1,0,1.4-0.1c0.4-0.2,1-0.1,1.3-0.5c-0.3,0-0.5-0.1-0.7-0.2c-0.2-0.1-0.3-0.1-0.5-0.1c0-0.1-0.1-0.1-0.2-0.3
			c0.3,0.1,0.5-0.1,0.8-0.2c0.2-0.2,0.6-0.1,0.7-0.4c0,0,0.1,0,0.1,0c0.8,0.3,1.5,0.7,2.3,1c1,0.5,2.1,0.9,3.2,1.4
			c0.4,0.2,0.9,0.4,1.4,0c0.3-0.2,0.7-0.3,1.1-0.5c1.1-0.5,2.3-1,3.4-1.5c1.1-0.5,2.2-1,3.3-1.5c1-0.5,2.1-0.9,3.1-1.4
			c1.1-0.5,2.3-1,3.4-1.6c1.1-0.5,2.3-1.1,3.4-1.5c1.1-0.5,2.2-1,3.3-1.5c1-0.5,2.1-0.9,3.1-1.4c0.9-0.4,1.8-0.8,2.6-1.2
			c1.1-0.5,2.2-1,3.3-1.5c0.5-0.2,0.9-0.4,1.4-0.6c0.1,0,0.2,0.1,0.4,0.2c0.7,0.2,1.4,0.4,2.1,0.6c0.9,0.3,1.9,0.6,2.8,0.9
			c-0.9,0.4-1.8,0.9-2.7,1.3c-0.5,0.3-1,0.4-1.5,0.8c-0.1,0-0.2,0-0.3,0c-0.3,0.2-0.6,0.3-1,0.4c-0.3,0.1-0.7,0.2-1,0.5
			c0,0-0.1,0-0.1,0c-0.8,0.4-1.7,0.8-2.5,1.2c0.2,0.3,0.5,0.3,0.7,0.2c0.3-0.1,0.6-0.3,0.9-0.4c0.6-0.2,1.2-0.5,1.6-0.9
			c0.2,0.1,0.3-0.1,0.4-0.2c0.5-0.3,1.1-0.5,1.6-0.9c0.1,0,0.2,0,0.3,0c1.4-0.7,2.7-1.4,4.1-2.1c0-0.1,0-0.2,0-0.3
			c-0.3-0.1-0.7-0.3-1-0.3c-0.6-0.1-1.1-0.3-1.6-0.5c-0.6-0.2-1.1-0.3-1.7-0.5c-0.4-0.2-0.9-0.4-1.4-0.3c0-0.1,0-0.1,0.1-0.1
			c0.6-0.2,1.2-0.5,1.8-0.8C112.2,56.2,112.3,56.2,112.5,56.2z M53.6,65.7c0.3,0.4,0.7,0.4,1,0.6c0.9,0.4,1.9,0.9,2.8,1.3
			c0.7,0.3,1.3,0.6,2,0.9c0.2,0,0.2-0.2,0.3-0.2c0.1,0,0.3,0.1,0.3-0.2c-0.9-0.3-1.7-0.9-2.7-1.2c-1-0.4-1.8-1-2.9-1.2
			c0.7-0.2,1.2-0.5,1.8-0.7c0.7-0.2,1.3-0.5,2-0.7c0.2-0.1,0.1-0.1,0.1-0.3c-0.2,0-0.4,0-0.5,0c-0.8,0.3-1.4,0.6-2.1,0.8
			C55,65.1,54.2,65.2,53.6,65.7z M104.1,66.1c0.4,0.1,0.7,0.3,1,0.4c0.2-0.2,0.4-0.4,0.5-0.5c0-0.2,0-0.3,0-0.5c0,0,0,0-0.1,0
			C105,65.6,104.6,65.8,104.1,66.1z"/>
		<path class="st8" d="M109.3,38.3c0,0.1,0,0.1,0.1,0.1c0.4,0,0.9,0.2,1.3,0.3c0.4,0.1,0.9,0.2,1.3,0.3c0.6,0.1,1.1,0.3,1.7,0.3
			c0.3,0,0.5,0.2,0.7,0.2c0.3,0.3,0.6,0.1,0.9,0.2c0.3,0.1,0.6,0.2,0.9,0.2c0.3,0.1,0.6,0.2,0.9,0.1c0.2,0.3,0.6,0,0.8,0.3
			c0.3-0.1,0.6,0.1,0.9,0.1c0.3,0,0.6,0.2,0.9,0.2c0.1,0,0.3,0.1,0.4,0.2c-0.4,0.3-0.8,0.4-1.3,0.5c-0.5,0.2-1,0.4-1.5,0.5
			c-0.4,0.1-0.8,0.3-1.2,0.4c-0.4,0.2-0.8,0.3-1.1,0.4c-0.8,0.3-1.6,0.6-2.4,0.9c-0.7,0.3-1.4,0.5-2,0.7c0,0,0,0,0,0.1
			c-0.7,0.1-1.2,0.4-1.9,0.6c-0.6,0.2-1.1,0.4-1.7,0.6c-0.7,0.3-1.4,0.5-2.2,0.8c-0.7,0.2-1.3,0.5-2,0.7c-0.7,0.2-1.3,0.5-2,0.7
			c-0.6,0.2-1.2,0.4-1.8,0.7c-0.7,0.3-1.4,0.5-2.2,0.8c-0.6,0.2-1.3,0.5-1.9,0.7c-0.7,0.3-1.5,0.5-2.3,0.8c0.4,0.3,0.9,0.3,1.3,0.5
			c0,0,0.1,0,0.1,0c0.7-0.4,1.5-0.6,2.3-0.9c0,0.1,0,0.1,0.1,0.1c0.6,0.1,1.1,0.2,1.6,0.5c-0.3,0.2-0.6,0.2-0.9,0.4
			c-0.1,0-0.2,0-0.3,0c-0.4,0.3-0.9,0.4-1.4,0.6c-0.9,0.3-1.7,0.7-2.6,1c-0.8,0.3-1.6,0.6-2.3,0.9c-0.4,0.2-0.8,0.4-1.3,0.4
			c-0.3,0.3-0.8,0.2-1.1,0.6c0,0,0,0.1,0,0.1c-0.3,0-0.6,0.1-0.9,0.2c-0.3,0.1-0.7,0-0.9,0.3c-0.7,0-1.3,0.4-1.9,0.5
			c-0.8,0.1-1.6,0.5-2.4,0.7c-0.6,0.1-1.1,0.4-1.7,0.5c-0.5,0.1-0.9,0.2-1.3,0.3c-0.5,0.2-0.9,0.3-1.4,0.4c-0.6,0.1-1.3,0.4-1.9,0.5
			c-0.7,0.1-1.3,0.3-2,0.5c-0.3,0.1-0.6,0.1-0.9,0c-0.6-0.2-1.2-0.5-1.9-0.7c-0.3-0.1-0.4-0.3-0.3-0.6c0.2,0,0.4-0.1,0.5,0
			c0.2,0.1,0.4,0.1,0.7,0c1.1-0.3,2.1-0.8,3.2-1.1c-0.1-0.1-0.2-0.2-0.3-0.2c-0.4-0.1-0.8-0.2-1.2-0.4c-0.7-0.3-1.4-0.5-2.2-0.8
			c-0.7-0.3-1.5-0.5-2.2-0.8c-0.7-0.3-1.4-0.6-2.2-0.8c-0.9-0.3-1.7-0.7-2.6-0.9c-0.4-0.1-0.8-0.3-1.1-0.4c-0.4-0.1-0.8-0.3-1.2-0.5
			c-1-0.4-2-0.7-2.9-1.1c-0.4-0.2-0.8-0.4-1.3-0.3c-0.2-0.3-0.6-0.3-0.9-0.4c-0.4-0.2-0.7-0.3-1.1-0.4c-0.4-0.1-0.7-0.2-1.1-0.4
			c-0.9-0.3-1.8-0.6-2.7-1c-0.7-0.3-1.4-0.5-2.2-0.8c-0.8-0.3-1.7-0.6-2.5-0.9c1.1-0.3,2.2-0.6,3.3-0.9c0.9-0.2,1.7-0.5,2.6-0.7
			c0.6-0.1,1.1-0.3,1.7-0.5c0.8-0.2,1.6-0.4,2.4-0.7c0.3-0.1,0.6-0.1,0.9-0.3c0.3,0,0.6,0.1,0.8,0.3c0.1,0.1,0.3-0.1,0.4,0.2
			c-0.7,0-1.4,0.4-2.1,0.5c-0.6,0.1-1.2,0.3-1.8,0.5c-0.7,0.2-1.3,0.3-2,0.5c-0.8,0.2-1.5,0.5-2.3,0.6c-0.3,0.1-0.6,0.1-0.8,0.4
			c0.5,0.3,1,0.4,1.5,0.6c0.5,0.2,1,0.3,1.5,0.5c0.5,0.2,1,0.4,1.5,0.6c0.7,0.3,1.4,0.6,2.2,0.5c0,0,0.1,0,0.1-0.1
			c0-0.1-0.2-0.2-0.1-0.3c0.7-0.2,1.4-0.4,2.1-0.6c0.4-0.1,0.8-0.3,1.3-0.4c0.4-0.1,0.9-0.3,1.3-0.4c0.7-0.2,1.5-0.5,2.2-0.6
			c0.5-0.1,0.9-0.3,1.4-0.4c0.1,0,0.2,0,0.3,0c0.5,0.2,1,0.3,1.5,0.4c0.5,0.2,1,0.4,1.5,0.5c0.9,0.3,1.8,0.7,2.7,0.8
			c0,0,0,0.1,0.1,0.1c-0.3,0-0.6,0.1-0.8,0.3c-0.1,0.1-0.3-0.1-0.4,0.2c-0.1,0-0.2,0.1-0.2,0.1c-0.3-0.1-0.6,0.1-1,0.2
			c-0.4,0.1-0.8,0.2-1.2,0.4c0,0,0,0,0,0.1c-0.1,0-0.2,0.2-0.4,0.2c-0.5-0.1-0.9,0.2-1.2,0.3c-0.2,0-0.2-0.2-0.3-0.1
			c-0.2-0.1-0.4-0.2-0.6-0.1c0-0.3-0.3-0.2-0.5-0.2c-0.4-0.2-0.8-0.4-1.3-0.4c0-0.1,0-0.1-0.1-0.1c-0.5-0.1-0.9-0.3-1.3-0.4
			c-0.3,0.1-0.5,0.2-0.8,0.3c-0.8,0.1-1.5,0.4-2.3,0.7C59,49,58.8,49,58.6,48.9c-0.4,0.2-0.5,0.2-0.6,0.4c0.8,0.1,1.5,0,2.3-0.3
			c0.2-0.1,0.3-0.1,0.5-0.2c0.5-0.1,1-0.3,1.4-0.4c0.4,0.1,0.8,0.3,1.2,0.4c0.3,0.1,0.5,0.2,0.7,0.4c0,0.1-0.1,0.1-0.1,0.2
			c-0.1,0-0.2,0-0.3,0c0,0.1,0,0.2,0,0.3c0,0.1-0.1,0.1-0.1,0.2c0.2,0.2,0.3,0.4,0.5,0.5c1.7,0.5,3.4,0.4,5.1,0
			c-0.3-0.4-0.8-0.2-1.1-0.6c1.2-0.4,2.4-0.7,3.5-1.1c0.4-0.1,0.8-0.2,1.1-0.4c0.1,0,0.2,0,0.3,0c0.1,0,0.3,0,0.4,0
			c0.7,0.4,1.5,0.5,2.3,0.8c0.2,0.1,0.3,0,0.5,0c0.8-0.3,1.6-0.5,2.4-0.8c1.2-0.4,2.3-0.8,3.5-1.1c0.8-0.3,1.6-0.5,2.4-0.8
			c1.3-0.4,2.6-0.9,3.9-1.3c0.8-0.3,1.6-0.5,2.4-0.8c0.6-0.2,1.3-0.4,1.9-0.6c0.7-0.2,1.3-0.5,2-0.7c1.1-0.3,2.2-0.7,3.3-1.1
			c1-0.3,2-0.7,3-1c1.2-0.4,2.5-0.8,3.7-1.2c1.2-0.4,2.4-0.7,3.6-1.2C108.4,38.5,108.8,38.2,109.3,38.3z M109,44.2
			c0.2-0.2,0.4-0.1,0.6-0.2c0.7-0.3,1.4-0.5,2.1-0.8c1-0.4,2.1-0.7,3.1-1.1c0.4-0.2,0.9-0.4,1.3-0.5c0.2,0,0.3-0.1,0.4-0.2
			c-0.6-0.3-1.3-0.3-1.9-0.5c-0.2,0-0.3-0.2-0.5-0.2c-0.2,0-0.4,0.1-0.6-0.1c-0.4,0-0.8-0.2-1.3-0.3c-0.6-0.1-1.2-0.3-1.7-0.4
			c-0.5-0.1-1-0.3-1.6-0.2c0,0.2,0.2,0.1,0.3,0.2c-0.8,0.4-1.7,0.5-2.6,1c1.3,0.3,2.5,0.6,3.8,0.9c-0.9,0.3-1.8,0.5-2.6,0.8
			c-0.3,0.1-0.6,0.1-0.8,0.1c-0.4-0.1-0.8-0.2-1.2-0.3c-0.4-0.1-0.8-0.2-1.3-0.3c-0.4-0.2-0.9-0.2-1.3-0.4c-0.4-0.2-0.9-0.2-1.2,0
			c-0.3,0.2-0.8,0.1-1,0.4c-0.5,0-0.9,0.3-1.3,0.3c0,0.1,0,0.1,0,0.2c0.6,0.1,1.3,0.3,1.9,0.5c0.5,0.1,1,0.4,1.6,0.3
			c0.2,0.2,0.5,0.3,0.8,0.3c0.1,0,0.2,0,0.2,0.1c-0.2,0-0.3,0.1-0.4,0.1c-0.8,0.2-1.7,0.5-2.4,0.8c-0.2,0.1-0.4,0.1-0.5,0
			c-0.4-0.2-0.8-0.2-1.2-0.3c-0.5-0.1-0.9-0.3-1.3-0.4c-0.3-0.1-0.7-0.1-0.9-0.3c-1.1,0.4-2.1,0.7-3.1,1.1c-0.1,0-0.2,0-0.3,0
			c-0.6-0.2-1.2-0.3-1.8-0.5c-0.4,0.1-0.7-0.4-1-0.1c-1.3,0.4-2.5,0.8-3.8,1.2c-1.3,0.4-2.5,0.9-3.8,1.2c-0.8,0.2-1.6,0.6-2.4,0.8
			c-1.8,0.5-3.5,1.2-5.2,1.7c-1.5,0.4-2.9,1-4.3,1.4c-0.3,0.1-0.6,0.2-0.9,0c-0.3-0.1-0.3-0.1-0.6,0.3c0.5,0.2,1.1,0.3,1.5,0.5
			c0.5,0.2,0.9,0.3,1.4,0.3c0.4,0,0.8-0.2,1.2-0.2c0.6-0.1,1.1-0.3,1.7-0.4c0.7-0.1,1.3-0.3,2-0.5c0.4-0.1,0.9-0.2,1.3-0.3
			c0.5-0.1,1-0.2,1.5-0.4c0.5-0.2,1.1-0.2,1.7-0.4c0.6-0.2,1.3-0.4,1.9-0.5c0.6-0.1,1.1-0.3,1.7-0.4c0.5-0.1,1-0.3,1.5-0.3
			c0.3-0.1,0.7-0.2,1-0.2c0.8-0.2,1.5-0.4,2.3-0.5c0.3,0,0.5-0.1,0.8-0.2c0.7-0.2,1.3-0.4,2-0.5c0.8-0.1,1.5-0.3,2.2-0.5
			c0.8-0.2,1.6-0.3,2.3-0.5c0.4-0.1,0.8,0,1.2-0.1c0.4-0.1,0.8-0.1,1.2-0.1c0.6,0,1.2-0.3,1.8-0.2c0,0,0.1,0,0.1,0
			c0.3-0.2,0.7,0,1-0.2c0.3-0.1,0.6-0.1,1-0.1c0.1,0,0.2,0,0.3,0c0.3-0.3,0.7,0,1-0.2c0.3-0.1,0.7-0.1,1-0.1
			c0.7-0.4,1.5-0.5,2.2-0.9C108.9,44.1,108.9,44.2,109,44.2z"/>
		<path class="st7" d="M61.9,29.3c-0.1-0.3-0.4-0.1-0.6-0.2c-0.3-0.1-0.6-0.2-1-0.2c-0.5,0-0.9-0.2-1.4-0.3
			c-0.6-0.1-1.1-0.2-1.7-0.4c-0.9-0.3-1.9-0.4-2.9-0.7c-0.5-0.1-1-0.2-1.5-0.3c-0.8-0.2-1.5-0.3-2.3-0.5c-0.5-0.1-1-0.2-1.5-0.3
			c-1-0.3-2-0.4-2.9-0.7c-0.6,0-1.2-0.3-1.8-0.4c0.3-0.2,0.7,0,1.1-0.2c0.8,0,1.5-0.2,2.2-0.3c0.7-0.1,1.4-0.1,2.1-0.4
			c0.4,0.1,0.8-0.1,1.2-0.2c0.5-0.1,1-0.1,1.4-0.3c0.2-0.1,0.4,0,0.6,0c0.2,0,0.3-0.2,0.5-0.2c0.5,0.1,0.9-0.2,1.4-0.1
			c0.7-0.3,1.4-0.1,2.1-0.4c0.5,0.1,0.9-0.2,1.3-0.1c0.3,0,0.4-0.2,0.7-0.2c0.2,0,0.4,0,0.6-0.1c0.3-0.1,0.6-0.1,1-0.1
			c0.4,0,0.9-0.2,1.3-0.2c0.2,0,0.4-0.2,0.7-0.1c0.3,0.1,0.5-0.2,0.7-0.2c0.2,0,0.4,0,0.7-0.1c0.3-0.1,0.7,0,1-0.2
			c0.4,0.1,0.8-0.2,1.3-0.2c0.4,0,0.7-0.2,1.1-0.1c0.3-0.3,0.7,0,1.1-0.3c0.2-0.2,0.7,0.1,0.9-0.2c0.5,0.1,0.9-0.1,1.3-0.2
			c0.8-0.1,1.6-0.1,2.3-0.4c0.5,0.1,0.9-0.2,1.3-0.1c0.3,0,0.4-0.2,0.7-0.2c0.2,0,0.4,0,0.6-0.1c0.3-0.1,0.6-0.1,1-0.1
			c0.4,0,0.9-0.3,1.3-0.2c0.2,0,0.4-0.2,0.7-0.1c0.3,0.1,0.5-0.2,0.7-0.2c0.2,0,0.4,0,0.7-0.1c0.3-0.1,0.7,0,1-0.2
			c0.4,0.1,0.8-0.2,1.3-0.2c0.4,0,0.7-0.2,1.1-0.1c0.3-0.3,0.7,0,1.1-0.3c0.2-0.2,0.7,0.1,0.9-0.2c0.5,0.1,0.9-0.2,1.3-0.1
			c0.2,0,0.4-0.2,0.7-0.2c0.2,0,0.4-0.1,0.6-0.1c0.4-0.1,0.7-0.1,1.1-0.1c0.7-0.1,1.5-0.3,2.2-0.3c0.3,0,0.6-0.2,1,0
			c0.3,0.1,0.6,0,1,0.1c0.3,0.1,0.8,0.1,1.2,0.1c0.6,0,1.1,0.3,1.7,0.2c0.2,0,0.4,0.2,0.7,0.2c0.2,0,0.5-0.1,0.7,0.1
			c0,0,0.2,0,0.3,0c0.3,0,0.6,0.1,0.9,0.1c0.3,0.1,0.6-0.1,0.9,0.1c0,0,0.1,0,0.2,0c0.4,0,0.7,0,1,0.1c0.3,0.1,0.7-0.1,1,0.2
			c0.5-0.1,1,0.2,1.5,0.1c0.3,0,0.6,0.2,0.9,0.2c0.3,0,0.5,0,0.8,0.1c0.3,0.1,0.8,0,1.1,0.2c0.5-0.1,1,0.2,1.6,0.1
			c0.3,0,0.5,0.2,0.8,0.2c0.3,0,0.6-0.1,0.8,0.1c0.5-0.1,1,0.2,1.5,0.1c0.3,0,0.5,0.2,0.8,0.2c0.2,0,0.5-0.1,0.7,0.1
			c0,0,0.1,0,0.2,0c0.4,0,0.7,0,1,0.1c0.3,0.1,0.7-0.1,1,0.2c0.5-0.1,1,0.2,1.5,0.1c0.3,0,0.6,0.2,0.9,0.2c0.3,0,0.5,0,0.8,0.1
			c0.4,0.1,0.8,0.1,1.2,0.1c0.6,0,1.2,0.3,1.7,0.2c0.1,0.1,0.1,0.2,0.1,0.2c-0.9,0.2-1.7,0.4-2.6,0.6c-0.8,0.2-1.5,0.3-2.3,0.5
			c-0.9,0.2-1.9,0.3-2.8,0.7c-0.8,0-1.6,0.4-2.4,0.5c-0.4,0-0.9,0.2-1.3,0.3c-0.5,0.2-1.1,0.2-1.7,0.4c-0.8,0.2-1.6,0.3-2.3,0.6
			c-0.4-0.1-0.7,0.2-1.1,0.2c-0.1,0-0.2,0.1-0.2,0.1c-0.4,0-0.7,0.2-1.1,0.2c-0.1,0-0.1,0.1-0.1,0.1c-0.6,0-1.2,0.2-1.8,0.3
			c-0.8,0.1-1.6,0.3-2.3,0.6c-0.5,0.2-1.1,0.2-1.7,0.4c-0.4,0.1-0.8,0.3-1.3,0.3c-0.8,0.1-1.6,0.4-2.4,0.5c-0.6,0.1-1.2,0.3-1.8,0.4
			c-0.6,0.1-1.2,0.3-1.8,0.4c-0.5,0.1-1,0.2-1.5,0.4c-0.8,0.2-1.5,0.4-2.3,0.5c-0.5,0.1-1,0.2-1.5,0.3c-0.8,0.2-1.6,0.3-2.3,0.6
			c-0.5,0.2-1.1,0.2-1.7,0.4c-0.4,0.1-0.8,0.3-1.3,0.3c-0.8,0.1-1.5,0.5-2.4,0.5c-0.7,0.3-1.4,0.3-2.1,0.6c-0.2,0.1-0.4,0.1-0.6,0
			c-0.2-0.2-0.4,0-0.6-0.1c0,0,0-0.1-0.1-0.1c-0.5-0.1-1.1-0.2-1.6-0.3c-0.5-0.2-1.1-0.3-1.6-0.4c-0.3-0.1-0.7-0.3-1.1-0.2
			c0-0.1,0-0.1-0.1-0.1c-0.2,0-0.4,0.1-0.5,0c-0.7-0.3-1.4-0.4-2.2-0.6c-0.9-0.2-1.8-0.4-2.7-0.6C63,29.5,62.5,29.3,61.9,29.3z
			 M95.3,23.8c-0.5-0.1-0.9,0.1-1.3,0.2c-0.3,0.1-0.7,0.1-1,0.1c-0.8,0-1.5-0.4-2.3-0.3c-0.1,0-0.1-0.2-0.2-0.1
			c-0.2,0.2-0.6,0.1-0.8,0.2c-1,0.4-2.1,0.5-3.1,0.7c-0.6,0.1-1.2,0.2-1.8,0.4c-0.6,0.1-1.2,0.3-1.8,0.4c-0.6,0.1-1.2,0.2-1.8,0.3
			c-0.7,0.1-1.4,0.3-2.1,0.4c-0.3,0.1-0.6,0.1-0.9,0.2c-0.4,0.1-0.8,0.2-1.2,0.3c-0.4,0.1-0.9,0.2-1.3,0.3c-0.8,0.1-1.6,0.5-2.5,0.5
			c-0.3,0.3-0.8,0-1.1,0.3c-0.4-0.1-0.7,0.1-1.1,0.2c-0.3,0-0.5,0.1-0.8,0.1C70,28,69.6,27.8,69.3,28c-0.3,0.1-0.7,0-1,0.1
			c-0.2,0-0.4-0.1-0.6,0.1c0.2,0.1,0.4,0.2,0.6,0.2c0.5,0,0.9,0.2,1.4,0.3c0.2,0,0.3,0.1,0.5,0.1c0.6,0.1,1.2-0.2,1.8-0.2
			c0.2-0.2,0.5-0.2,0.7-0.1c0.3,0,0.5-0.2,0.7-0.2c0.5,0.1,1-0.3,1.6-0.1c0.3-0.2,0.7,0,1-0.2c0.2-0.1,0.5-0.1,0.7-0.1
			c0.3,0,0.5-0.2,0.7-0.2c0.5,0.1,1-0.3,1.6-0.1c0.3-0.2,0.8,0,1.1-0.2c0.3-0.1,0.6,0,0.8-0.1c0.3-0.1,0.5-0.1,0.8-0.1
			c0.1,0,0.2,0,0.3,0c0.2-0.2,0.5-0.1,0.8-0.1c0.3,0,0.5-0.2,0.7-0.2c0.5,0.1,0.9-0.2,1.4-0.1c0.2-0.2,0.5-0.2,0.7-0.1
			c0.3,0,0.5-0.2,0.8-0.2c0.5,0.1,1-0.3,1.5-0.1c0.7-0.3,1.6-0.2,2.3-0.4c0.3-0.1,0.6,0,1-0.1c0.3-0.1,0.7,0.1,1-0.2
			c0.8,0.1,1.6-0.3,2.4-0.3c0.4,0,0.9-0.1,1.3-0.2c0.3-0.1,0.5-0.1,0.8-0.1c0.3,0,0.5-0.2,0.8-0.2c0.3,0,0.7,0,1,0
			c0.4,0.1,0.7-0.2,1-0.2c0.6,0,1.1,0,1.7-0.1c0.6-0.1,1.2,0.1,1.8-0.2c0.9,0.1,1.7-0.2,2.6-0.1c0.8,0,1.5-0.3,2.2-0.4
			c0.5-0.1,0.9-0.3,1.4-0.3c0.3,0,0.6-0.2,1-0.2c0.2-0.3,0.6-0.1,0.9-0.2c0.4-0.2,0.8-0.3,1.3-0.3c0.8-0.1,1.6-0.5,2.4-0.5
			c0.6-0.3,1.3-0.3,2.1-0.5c-0.1-0.1-0.2-0.2-0.3-0.2c-0.6,0.1-1.2-0.3-1.8-0.1c-0.3-0.2-0.8-0.1-1.1-0.2c-0.3-0.1-0.5-0.1-0.8-0.1
			c-0.3,0-0.5-0.2-0.7-0.2c-0.3,0.1-0.6,0-0.9-0.1c-0.3-0.1-0.6,0-0.9-0.1c-0.3-0.1-0.8-0.1-1.1,0c-0.6,0.2-1.2,0.3-1.8,0.4
			c-0.2,0.3-0.6,0.1-1,0.3c1.3,0.2,2.5,0.4,3.7,0.5c-0.2,0.1-0.3,0.2-0.4,0.3c-0.4,0.1-0.8,0.1-1.1,0.2c-0.6,0.1-1.3,0.3-2,0.2
			c-0.2,0-0.4-0.2-0.7-0.1c-0.5,0.1-0.9-0.2-1.3-0.1c-0.3-0.4-0.8,0-1.2-0.2c-0.3-0.2-0.8-0.1-1.2-0.2c-0.2-0.1-0.4,0-0.5,0
			c-0.6,0.2-1.2,0.3-1.9,0.4c-0.3,0.1-0.6,0.1-1,0.2c0.4,0,0.8,0.1,1.3,0.2c0.4,0,0.8,0.3,1.2,0.2c0.4,0.3,0.8,0,1.2,0.2
			c0.4,0.2,0.8-0.1,1.2,0.3c-0.2,0.1-0.4,0-0.6,0.1c-0.2,0.1-0.3,0.2-0.5,0.1c-0.2-0.1-0.3,0.1-0.5,0.1c-0.4,0.1-0.9,0.2-1.3,0.3
			c-0.3,0.1-0.7-0.1-1-0.1c-0.5,0-0.9-0.3-1.4-0.2c-0.3-0.2-0.7,0-1-0.2c-0.4-0.2-0.8-0.1-1.1-0.1C96.1,23.5,95.7,23.6,95.3,23.8
			C95.3,23.7,95.3,23.7,95.3,23.8z M74.8,24.3c0.4-0.1,0.7,0,0.9-0.2c0.4,0.1,0.7-0.2,1-0.2c0.4,0,0.8-0.2,1.2-0.2
			c0.2-0.3,0.6,0,0.7-0.2c0.3-0.3,0.5,0,0.7,0c0.7,0,1.4,0.3,2.1,0.3c0.2,0,0.4,0.2,0.6,0.2c0.2,0,0.4-0.1,0.6,0.1
			c0.3-0.1,0.6,0.1,1,0.1c0.3-0.3,0.7,0,1-0.3c0.5,0,0.9-0.1,1.3-0.2c0.4-0.1,0.9-0.2,1.3-0.3c0.3-0.1,0.6,0,0.9-0.1
			c0.6-0.2,1.2-0.3,1.7-0.4c0.7-0.1,1.4-0.4,2.2-0.3c-0.2-0.1-0.2-0.2-0.4-0.3c-0.2-0.1-0.5,0.1-0.8-0.1c-0.2-0.2-0.6,0.1-0.9-0.1
			c-0.2-0.2-0.6,0.1-0.9-0.1c-0.3-0.2-0.6,0-0.9-0.1c0-0.1,0-0.1,0-0.2c0.6-0.1,1.2-0.2,1.7-0.3c0.5-0.1,1-0.1,1.5-0.3
			c0.1,0,0.3-0.1,0.4,0c0.2,0.2,0.5,0.1,0.7,0.1c0.2,0,0.4,0.2,0.7,0.2c0.5-0.1,0.9,0.2,1.4,0.1c0.4,0.3,0.8,0.1,1.2,0.3
			c0.5,0.2,1-0.1,1.5-0.2c0.6-0.1,1.2-0.3,1.8-0.4c0.6-0.1,1.2-0.3,1.8-0.3c0.2-0.3,0.7,0,0.9-0.3c0.3,0.1,0.6-0.1,1-0.1
			c0.4-0.1,0.8-0.1,1.2-0.3c0.2-0.1,0.5,0.1,0.8-0.1c0.2-0.2,0.5,0.1,0.8,0.1c0,0,0.1,0,0.2-0.1c-0.3-0.1-0.1-0.3-0.2-0.5
			c-0.5-0.1-1-0.3-1.5-0.3c-1.3-0.1-2.7,0.1-4-0.1c-0.5-0.1-1.1-0.3-1.6-0.2c-0.1,0-0.1-0.1-0.2-0.1c-0.3-0.1-0.8-0.1-1.2,0.1
			c1.1,0,2.1,0.3,3.2,0.3c-0.4,0.4-0.9,0.3-1.3,0.4c-0.7,0.1-1.3,0.2-2,0.4c-0.6,0.1-1.3,0.2-2,0.4c-0.2,0.1-0.5,0.1-0.7,0.2
			c-0.2,0.1-0.5-0.1-0.7,0.2c-0.5-0.1-1,0.2-1.5,0.2c-0.5,0-1-0.3-1.6-0.2c-0.1,0-0.2-0.2-0.3-0.1c-1.6,0.3-3.2,0.6-5,0.9
			c0.4,0.1,0.6,0,0.8,0.2c0.2,0.1,0.5,0,0.8,0c-0.1,0.1-0.2,0.2-0.3,0.3c-0.2,0-0.5-0.1-0.7,0c-0.6,0.3-1.2,0.3-1.7,0.4
			c-0.6,0.1-1.3,0.3-1.9,0.3c-0.2,0-0.3,0.2-0.5,0.2c-0.2,0-0.4-0.1-0.6,0c-0.2,0.1-0.4,0.1-0.5,0.1c-0.2,0-0.3,0.1-0.5,0.2
			c-0.6,0.1-1.1-0.3-1.7-0.2c0,0,0,0-0.1,0c-0.2-0.2-0.5-0.1-0.8-0.1c-0.5,0.2-1,0.1-1.5,0.3c-0.3,0.1-0.7,0.1-1,0.2
			c-0.7,0.2-1.4,0.3-2.2,0.4c-0.2,0-0.2,0-0.6,0.3c0.5-0.1,1,0.2,1.5,0.2c-0.3,0-0.5,0.2-0.7,0.2c-0.4,0-0.8,0.3-1.2,0.1
			c-0.9,0.3-1.8,0.4-2.7,0.6c-0.6,0.1-1.2,0.3-1.9,0.3c-0.3,0.2-0.7,0-0.9,0.2c-0.3,0.2-0.7,0-1,0.3c-0.4-0.1-0.7,0.2-1.1,0.1
			c-0.2-0.1-0.3,0.2-0.5,0.2c-0.2,0-0.4-0.1-0.6,0.1c-0.2,0.2-0.6-0.1-0.8,0.2c-0.2-0.3-0.5-0.1-0.8-0.2c-0.5-0.2-1-0.3-1.5-0.4
			c-0.3-0.1-0.6,0.1-0.9,0.1c-0.4,0-0.8,0.3-1.3,0.2c-0.7,0.3-1.4,0.3-2.1,0.3c-0.3,0-0.5,0.1-0.7,0.3c0.6,0,1.2,0.2,1.8-0.1
			c0.4,0.1,0.8-0.1,1.2-0.2c0.4-0.1,0.8-0.1,1.1-0.2c0.2-0.1,0.5-0.1,0.6,0c0.3,0.2,0.6,0,0.7,0.1c0.3,0.2,0.6,0,0.8,0.2
			c0.1,0.1,0.1,0.1,0.2,0.2c-0.2,0.1-0.4,0.2-0.5,0.4c0.1,0.1,0.2,0.3,0.3,0.4c0.4-0.1,0.6,0.1,1,0.1c1.6,0,3.2,0,4.8,0
			c0.1,0,0.2,0,0.3-0.1c-0.1-0.2-0.3,0-0.5-0.2c0.4,0.1,0.7-0.1,1.1-0.2c0.3,0,0.6,0,0.9-0.1c0.7-0.3,1.4-0.3,2-0.4
			c0.6-0.1,1.2-0.2,1.8-0.3c0.6-0.1,1.2-0.3,1.8-0.4c0.6-0.1,1.2-0.4,1.9-0.3c0.3-0.3,0.7,0,1-0.3c0.4,0.1,0.7-0.2,1-0.1
			c0.2,0,0.4-0.2,0.7-0.2c0,0,0,0,0-0.1c0-0.1-0.1,0-0.1,0C77.6,24.8,76.3,24.7,74.8,24.3z M54.2,26.2c0.7,0,1.2-0.1,1.8-0.3
			c0.3-0.1,0.6,0,0.9-0.1c0.3-0.1,0.6-0.1,0.9-0.1c0.3-0.1,0.6-0.2,1-0.2c0.3,0.1,0.6-0.1,1-0.2c0.3,0,0.7,0,1-0.1
			c0.6-0.2,1.3-0.2,2-0.4c0.4,0.1,0.8-0.2,1.3-0.1c0.3-0.3,0.8,0,1.1-0.3c0.4,0.1,0.8-0.2,1.3-0.2c0.3,0,0.7,0,1-0.1
			c0.4-0.1,0.8-0.2,1.3-0.3c0.5-0.1,0.9-0.2,1.3-0.3c0.3-0.1,0.5,0,0.8-0.1c0.3-0.1,0.6-0.1,0.9-0.1c0.3-0.1,0.6-0.2,1-0.2
			c0.4,0.1,0.6-0.1,1-0.2c0.3-0.1,0.7,0,1-0.1c0.6-0.2,1.3-0.3,2-0.4c0.4-0.1,0.8-0.3,1.3-0.2c0.3-0.3,0.8,0,1.1-0.3
			c0.4,0.1,0.8-0.2,1.3-0.2c0.3,0,0.7-0.1,1-0.1c0.3-0.3,0.7,0,1-0.3c0.4,0.1,0.7-0.1,1.1-0.2c0.4,0,0.8-0.1,1.2-0.2
			c0.5-0.1,0.9-0.2,1.4-0.3c0.1,0,0.2,0.1,0.3-0.1c-0.3,0-0.6,0-0.9,0c-0.2,0-0.3,0.1-0.4,0.1c-0.6,0-1.1,0-1.7,0.1
			c-0.5,0.1-1,0-1.6,0.1c-0.5,0.1-1,0-1.5,0.1c-0.5,0.1-1.1,0-1.6,0.2c-0.8-0.1-1.6,0.2-2.4,0.1c0,0-0.1,0-0.1,0
			c-0.3,0.2-0.7,0.2-1,0.1c-0.4,0-0.7,0.2-1.1,0.2c-0.8-0.1-1.6,0.3-2.4,0.1c0,0-0.1,0-0.1,0c-0.3,0.3-0.7,0.1-1,0.1
			c-0.4,0-0.7,0.2-1,0.2c-0.4,0-0.9-0.1-1.3,0.1c-0.7-0.1-1.4,0.2-2.1,0.1c-0.7,0-1.4,0.3-2.1,0.2c0,0-0.1,0-0.1,0
			c-0.3,0.3-0.7,0.2-1,0.1c-0.4,0-0.6,0.2-1,0.2c-0.5,0-1,0-1.5,0.1c-0.5,0.1-1,0.1-1.6,0.1c-0.4,0.1-0.9,0.3-1.3,0.2
			c-0.7,0.3-1.4,0.3-2.1,0.4c-0.7,0.1-1.5,0.3-2.2,0.3c-0.3,0.2-0.7,0.1-1,0.2c-0.7,0.2-1.5,0.3-2.2,0.4c-0.4,0.1-0.8,0.3-1.3,0.2
			c-0.3,0.3-0.8,0.1-1.2,0.4c0.4-0.1,0.6,0.2,0.9,0.2c0.3,0.3,0.6,0.1,0.9,0.2c0.5,0.2,1,0.3,1.5,0.4c0.6,0.1,1.1,0.3,1.7,0.4
			c0.4,0,0.7,0.2,1.1,0.2c0.4,0,0.8,0,1.2,0C54.6,26.3,54.4,26.5,54.2,26.2z"/>
		<path class="st8" d="M112.5,56.2c-0.2,0-0.3,0-0.5,0.1c-0.6,0.3-1.1,0.6-1.8,0.8c-0.1,0-0.1,0.1-0.1,0.1c-0.1,0-0.3-0.1-0.3,0.1
			c-0.5,0.1-1,0.4-1.4,0.6c-1.1,0.5-2.2,0.9-3.3,1.5c-0.9,0.4-1.8,0.8-2.6,1.2c-1,0.5-2.1,0.9-3.1,1.4c-1.1,0.5-2.2,1-3.3,1.5
			c-1.1,0.5-2.3,1-3.4,1.5c-1.1,0.5-2.3,1-3.4,1.6c-1,0.5-2.1,0.9-3.1,1.4c-1.1,0.5-2.2,1-3.3,1.5c-1.1,0.5-2.3,1-3.4,1.5
			c-0.4,0.2-0.8,0.2-1.1,0.5c-0.5,0.4-0.9,0.3-1.4,0c-1-0.5-2.1-0.9-3.2-1.4c-0.8-0.4-1.5-0.7-2.3-1c0,0-0.1,0-0.1,0
			c0-0.2-0.2-0.1-0.2-0.2c-0.8-0.3-1.5-0.6-2.3-1c-0.6-0.3-1.2-0.4-1.8-0.8c-0.1-0.1-0.3,0-0.4,0c-0.1-0.3-0.4-0.3-0.6-0.4
			c-0.9-0.4-1.7-0.8-2.6-1.2c-0.9-0.4-1.8-0.8-2.7-1.2c-0.9-0.4-1.8-0.7-2.7-1.2c-0.1-0.1-0.3,0-0.4,0c-0.1-0.3-0.4-0.3-0.6-0.4
			c-0.9-0.4-1.7-0.8-2.6-1.1c-1.3-0.6-2.7-1.1-4-1.8c-0.2-0.1-0.5-0.2-0.7-0.2c0.1-0.4,0.5-0.3,0.7-0.4c2.3-0.7,4.5-1.6,6.8-2.2
			c0.1,0,0.2-0.2,0.4-0.1c1,0.3,2,0.7,3,1.1c0.7,0.3,1.4,0.6,2.1,0.9c0.5,0.2,1,0.4,1.6,0.6c0.6,0.2,1.1,0.5,1.6,0.6
			c0.2,0.3,0.6,0.2,0.8,0.4c-0.5,0.2-1,0.4-1.6,0.6c-0.2,0.1-0.4,0.1-0.5,0.3c-0.2,0-0.4,0.1-0.6-0.1c-0.1-0.1-0.4-0.1-0.5,0
			c-0.8,0.4-1.6,0.5-2.4,0.9c-0.5,0.2-0.6,0.2-1,0c-0.2,0.1-0.4,0.1-0.5,0.4c1.2,0.1,1.2,0.1,2.3-0.3c0.6-0.2,1.2-0.5,1.9-0.7
			c0,0.2,0.3,0.1,0.4,0.3c0.4,0.2,1,0.3,1.4,0.8c-0.2,0.2-0.5,0.4-0.7,0.5c0,0.4,0.2,0.7,0.6,0.9c0.4,0.1,0.8,0.3,1.2,0.3
			c1,0.1,1.9,0,2.9-0.1c0.2-0.2,0.6,0,0.7-0.4c-0.4-0.2-0.8-0.3-1.2-0.5c0.3-0.2,0.7-0.3,1-0.4c0.4-0.2,0.9-0.3,1.3-0.6
			c0.6,0.1,1.1,0.4,1.6,0.6c0.4,0.2,0.9,0.4,1.3,0.6c0.9,0.3,1.7,0.7,2.7,1c0.1-0.2,0.3,0,0.4-0.1c0.4-0.3,0.9-0.4,1.4-0.6
			c0.5-0.2,1-0.4,1.4-0.6c1-0.4,1.9-0.8,2.9-1.2c0.4-0.2,0.7-0.4,1.1-0.5c0.6-0.2,1.3-0.5,1.9-0.7c0.8-0.3,1.5-0.7,2.3-1
			c1.1-0.4,2.1-0.9,3.2-1.3c0.4-0.2,0.8-0.4,1.3-0.5c0.6-0.2,1.3-0.4,1.9-0.8c0.7-0.4,1.5-0.6,2.2-1c0.7-0.3,1.5-0.6,2.3-0.9
			c0.4-0.2,0.7-0.3,1.1-0.4c0,0,0,0.1,0.1,0.1c0.5,0.2,1.1,0.3,1.6,0.5c0.3,0.1,0.6,0.3,1,0.3c0.4,0.2,0.7,0.3,1.2,0.4
			c-1,0.4-2,0.9-2.9,1.3c-0.7,0-1.1-0.4-1.7-0.3c-0.1-0.3-0.4,0-0.6-0.3c-0.2,0.1-0.4-0.2-0.7-0.1c0,0-0.1,0.1-0.2,0.2
			c0.4,0.1,0.7,0.3,1,0.4c-0.2,0.2-0.4,0.2-0.6,0.3c-0.2,0.1-0.5,0.2-0.7,0.3c-0.8,0.4-1.7,0.7-2.5,1.1c-0.4,0.2-0.9,0.4-1.4,0.6
			c-0.6,0.2-1.1,0.4-1.7,0.7c-0.6,0.3-1.2,0.5-1.8,0.7c0.1,0.1,0.2,0.1,0.3,0.1c0.5-0.3,1.1-0.3,1.7-0.5c0.2-0.1,0.4-0.1,0.7-0.2
			c0.8-0.2,1.6-0.5,2.4-0.7c0.6-0.2,1.3-0.3,1.9-0.6c0.3-0.1,0.6-0.1,0.9-0.1c0.3-0.1,0.6-0.1,0.9-0.1c0.6,0,1.2-0.3,1.9-0.3
			c0.9,0,1.7-0.3,2.5-0.3c0.3,0,0.7,0,1-0.1c0.3-0.2,0.6,0,0.9-0.1c0.3-0.1,0.6-0.1,0.8-0.1c0.7-0.4,1.5-0.7,2.2-1
			c0.7-0.3,1.5-0.7,2.2-1c0,0,0,0,0-0.1c0,0,0.1,0,0.1,0c1.1-0.5,2.3-1,3.4-1.5c0.5-0.3,1.1-0.4,1.6-0.8c-0.1-0.4-0.5-0.4-0.8-0.5
			c-0.9-0.3-1.9-0.5-2.8-0.8c-1-0.3-2-0.6-3-0.8c0.3-0.3,0.8-0.4,1.2-0.6c0.3-0.1,0.6-0.4,1-0.3c2.7,0.8,5.5,1.5,8.2,2.3
			c-0.8,0.3-1.5,0.7-2.2,1c-1.2,0.5-2.3,1.1-3.5,1.6c-0.5,0.2-1,0.5-1.5,0.7C112.5,56.1,112.5,56.1,112.5,56.2z M52.8,59.5
			c0.1,0.4,0.4,0.3,0.6,0.4c0.6,0.3,1.2,0.6,1.9,0.9c1.1,0.4,2.1,1,3.2,1.4c0.1-0.3,0.5,0,0.6-0.4c-0.9-0.5-1.8-0.8-2.7-1.2
			c-0.9-0.4-1.8-0.8-2.9-1.2c0.8-0.3,1.4-0.4,2.1-0.7c0.7-0.3,1.4-0.3,2-0.8c-0.6-0.1-0.6,0-1,0.1c-1,0.3-1.9,0.6-2.9,0.9
			C53.5,59.1,53,59.1,52.8,59.5z"/>
		<path class="st9" d="M66.9,60.6c-0.2-0.3-0.6-0.2-0.8-0.4c-0.6-0.1-1.1-0.4-1.6-0.6c-0.5-0.2-1.1-0.4-1.6-0.6
			c-0.7-0.3-1.4-0.6-2.1-0.9c-1-0.4-1.9-0.9-3-1.1c-0.2-0.2-0.4-0.2-0.6-0.3c-1.5-0.6-2.9-1.2-4.4-1.8c-0.9-0.3-1.7-0.7-2.6-1
			c-0.5-0.2-0.9-0.4-1.4-0.6c1.1-0.3,2.2-0.6,3.2-1c0.9-0.3,1.7-0.5,2.6-0.8c0.5-0.2,1-0.3,1.5-0.5c0.5-0.1,1-0.3,1.5-0.5
			c0.1-0.1,0.3,0,0.5,0c0.5,0,0.9,0.2,1.3,0.3c1,0.4,2,0.7,2.9,1.1c0.4,0.2,0.8,0.3,1.2,0.5c0.4,0.1,0.8,0.3,1.1,0.4
			c0.9,0.3,1.7,0.6,2.6,0.9c0.7,0.2,1.4,0.5,2.2,0.8c0.7,0.3,1.5,0.5,2.2,0.8c0.7,0.3,1.4,0.5,2.2,0.8c0.4,0.1,0.8,0.3,1.2,0.4
			c0.1,0,0.2,0.2,0.3,0.2c-1.1,0.3-2.1,0.8-3.2,1.1c-0.2,0.1-0.4,0.2-0.7,0c-0.2-0.1-0.4-0.1-0.5,0c-0.1,0.3,0,0.5,0.3,0.6
			c0.7,0.1,1.2,0.5,1.9,0.7c0.3,0.1,0.6,0.1,0.9,0c0.7-0.2,1.3-0.4,2-0.5c0.7-0.1,1.3-0.3,1.9-0.5c0.5-0.1,0.9-0.2,1.4-0.4
			c0.4-0.2,0.9-0.3,1.3-0.3c0.6-0.1,1.1-0.3,1.7-0.5c0.8-0.2,1.6-0.5,2.4-0.7c0.7-0.1,1.3-0.5,1.9-0.5c0.3-0.2,0.6-0.2,0.9-0.3
			c0.3-0.1,0.6-0.2,0.9-0.2c0,0,0-0.1,0-0.1c0.3,0.1,0.4-0.1,0.7-0.2c0.9-0.1,1.7-0.4,2.6-0.7c0.6-0.2,1.2-0.4,1.8-0.5
			c0.9-0.2,1.7-0.5,2.6-0.7c0,0,0,0,0-0.1c0.2,0,0.4,0,0.6-0.1c0.4-0.2,0.9-0.3,1.4-0.3c0.3-0.1,0.6,0,1-0.1c0.3-0.1,0.6,0,1-0.1
			c0.3-0.1,0.7-0.1,1.1-0.1c0.4-0.1,0.7-0.1,1.1-0.2c0.6,0,1.1-0.3,1.7-0.2c0,0,0.1,0,0.1,0c0.2-0.2,0.5-0.1,0.8-0.1
			c0.3,0,0.5-0.2,0.7-0.2c0.5,0,1-0.1,1.5-0.3c0.6-0.2,1.2-0.5,1.8-0.7c0.2-0.1,0.5-0.1,0.6-0.3c0.2-0.2,0.5,0,0.6-0.3
			c0,0,0.1,0,0.1,0c1-0.4,2.1-0.9,3.1-1.3c0.8-0.3,1.5-0.7,2.3-0.9c0.2-0.1,0.6-0.1,0.5-0.5c-0.7-0.2-1.4-0.3-2-0.5
			c-0.7-0.2-1.5-0.4-2.2-0.6c-0.7-0.2-1.4-0.3-2-0.5c-0.4-0.1-0.8-0.1-1.3,0c0.1,0.2,0.3,0,0.5,0.2c-0.9,0.3-1.8,0.7-2.7,1
			c1.2,0.3,2.5,0.7,3.7,1c-0.1,0.1-0.3,0-0.4,0.1c-0.6,0.4-1.3,0.5-1.9,0.8c-0.3,0.1-0.6,0.3-1,0.1c-0.3-0.1-0.7-0.2-1-0.3
			c-1-0.2-2.1-0.5-3.1-0.8c-0.2-0.1-0.4-0.2-0.5,0.1c-0.2,0-0.3,0-0.5,0.1c-0.2,0.1-0.4,0.2-0.6,0.2c-0.4,0.2-0.9,0.3-1.3,0.6
			c-0.1,0-0.3,0-0.5,0.1c0.8,0.3,1.5,0.4,2.3,0.6c0.8,0.2,1.6,0.5,2.4,0.7c0,0,0,0,0,0.1c-0.2,0.1-0.4,0.2-0.7,0.3
			c-0.5,0.1-1,0.4-1.5,0.6c-0.7,0.3-0.7,0.3-1.5,0.1c-0.1,0-0.2-0.1-0.4-0.2c-0.7-0.2-1.4-0.3-2-0.6c-0.6-0.2-1.1-0.1-1.6,0.2
			c-0.8,0.3-1.5,0.5-2.3,0.9c0,0-0.1,0-0.1,0c-0.4-0.2-0.9-0.2-1.3-0.5c0.8-0.3,1.5-0.5,2.3-0.8c0.6-0.2,1.3-0.5,1.9-0.7
			c0.7-0.3,1.4-0.5,2.2-0.8c0.6-0.2,1.2-0.4,1.8-0.7c0.7-0.2,1.3-0.5,2-0.7c0.7-0.2,1.3-0.5,2-0.7c0.7-0.3,1.4-0.6,2.2-0.8
			c0.6-0.2,1.1-0.4,1.7-0.6c0.6-0.2,1.2-0.5,1.9-0.6c0.3,0.2,0.6,0.2,0.9,0.3c0.6,0.2,1.1,0.3,1.7,0.5c0.6,0.1,1.1,0.3,1.7,0.4
			c1.1,0.2,2.2,0.6,3.3,0.8c0.6,0.1,1.3,0.3,1.9,0.5c-0.7,0.3-1.5,0.6-2.2,0.9c-1,0.4-2,0.9-3.1,1.2c-0.3,0.1-0.5,0.4-0.8,0.3
			c-0.7,0.5-1.5,0.6-2.3,1c-0.1,0-0.1,0.1-0.1,0.1c-0.4-0.1-0.6,0.2-1,0.3c-0.4,0.2-0.9,0.2-1.2,0.6c-0.1,0-0.3-0.1-0.3,0.1
			c-0.1,0-0.3,0-0.4,0c-0.9,0.5-1.8,0.8-2.8,1.2c-0.5,0.2-0.9,0.5-1.4,0.6c-0.3,0.3-0.8,0.2-1.1,0.6c-0.5,0.1-1,0.4-1.5,0.5
			c0,0,0,0,0,0.1c0,0,0,0.1,0,0.1c-0.5-0.1-1,0.2-1.4,0.5c-0.4,0.1-0.8,0.3-1.1,0.4c-0.8,0.3-1.5,0.6-2.3,0.9
			c-0.7,0.3-1.5,0.6-2.2,1c-0.6,0.3-1.2,0.6-1.9,0.8c-0.4,0.1-0.8,0.4-1.3,0.5c-1.1,0.4-2.1,0.9-3.2,1.3c-0.8,0.3-1.5,0.6-2.3,1
			c-0.6,0.3-1.2,0.5-1.9,0.7c-0.4,0.1-0.7,0.3-1.1,0.5c-0.9,0.4-1.9,0.8-2.9,1.2c-0.5,0.2-0.9,0.4-1.4,0.6c-0.5,0.2-1,0.3-1.4,0.6
			c-0.1,0.1-0.4-0.1-0.4,0.1c-0.9-0.3-1.8-0.7-2.7-1c-0.4-0.2-0.9-0.4-1.3-0.6c-0.5-0.2-1-0.5-1.6-0.6c0-0.2-0.2-0.1-0.3-0.2
			c-0.6-0.3-1.2-0.5-1.8-0.8c-0.4-0.1-0.7-0.4-1.2-0.4c-0.1-0.2-0.3-0.3-0.6-0.3C67.5,60.8,67.1,60.6,66.9,60.6z M64.1,55.6
			c0.1,0.1,0.5,0.3,0.7,0.3c0,0.1,0.1,0.1,0.1,0.3c-0.3,0-0.4,0.2-0.6,0.4c0,0.2,0,0.3,0,0.4c0.2,0.3,0.5,0.5,0.9,0.6
			c0.4,0.1,0.8,0.2,1.2,0.2c0.4,0,0.9,0,1.3,0c0.4,0,0.8-0.2,1.3-0.2c0.3,0,0.6-0.1,0.8-0.3c-0.1-0.1-0.3-0.1-0.4-0.2
			c-0.7,0.4-1.4,0.2-2.2,0.4c0,0-0.1,0-0.1,0c-0.3-0.3-0.7-0.1-1-0.1c-0.3-0.1-0.5-0.3-0.7-0.4c0.1-0.1-0.1-0.2-0.1-0.3
			c0.3-0.4,0.6-0.6,1-0.7c-0.1-0.1-0.3-0.1-0.4-0.2c-0.1-0.1-0.3,0-0.4-0.1c-0.2-0.3-0.4-0.3-0.7-0.3C64.5,55.3,64,55,63.7,55
			c0,0,0,0-0.1,0c-0.2-0.1-0.5-0.2-0.6-0.2c-1.1,0.4-2.2,0.7-3.3,1.1c-0.3-0.4-0.6,0.1-0.9,0c0.1,0.1,0.1,0.2,0.2,0.3
			c0.4-0.1,0.8,0,1.3-0.1c0.4-0.1,0.7-0.3,1.1-0.4c0.4-0.1,0.8-0.4,1.3-0.4c0.2,0,0.5-0.1,0.7,0.1C63.7,55.3,63.8,55.7,64.1,55.6z
			 M52.8,53c0.2-0.2,0.4-0.1,0.6-0.2c1-0.4,2-0.6,3.1-0.9c0.2-0.1,0.2-0.1,0.1-0.3c-0.4-0.2-0.7,0.2-1.1,0.1
			c-0.9,0.4-1.8,0.6-2.7,0.9c-0.3,0.1-0.8,0.1-1,0.6c2,0.8,4,1.6,5.9,2.4c0.1-0.3,0.4-0.1,0.6-0.3c-0.6-0.3-1.3-0.5-1.9-0.8
			c-0.6-0.2-1.2-0.5-1.8-0.7C54,53.5,53.3,53.5,52.8,53z"/>
		<path class="st7" d="M59.7,44c0-0.3-0.3-0.1-0.4-0.2c-0.2-0.2-0.5-0.3-0.8-0.3c-0.5-0.3-1.2-0.4-1.7-0.6c-1.4-0.4-2.8-1-4.2-1.3
			c-0.5-0.1-0.9-0.3-1.4-0.4c-0.4-0.2-0.9-0.3-1.3-0.4c-0.5-0.2-0.9-0.3-1.4-0.4c-0.6-0.3-1.3-0.3-2-0.7c1-0.1,2-0.4,2.9-0.6
			c0.9-0.2,1.9-0.4,2.8-0.7c0.5-0.1,1-0.2,1.5-0.3c0.9-0.2,1.9-0.4,2.9-0.7c0.5-0.2,1-0.2,1.6-0.3c0.5-0.1,1-0.2,1.5-0.4
			c0,0,0,0,0-0.1c0.2,0.1,0.4,0.1,0.6,0.2c0.2,0.1,0.4,0.1,0.6,0.1c0,0.1-0.1,0.1-0.2,0.1c-0.2,0-0.3,0-0.5,0
			c-0.7,0.2-1.5,0.3-2.2,0.6c-0.5,0.2-1.1,0.3-1.7,0.4c-0.5,0.1-1,0.3-1.5,0.3c-0.5,0.1-1,0.2-1.4,0.3c-0.5,0.1-1,0.3-1.4,0.4
			c-0.5,0.1-1,0.4-1.6,0.3c-0.2,0.2-0.6,0.1-0.7,0.4c0.1,0.1,0.1,0.2,0.2,0.2c0.6,0,1,0.3,1.6,0.5c1.3,0.4,2.6,0.7,3.8,1.2
			c0.5,0.2,0.8,0.1,1.1-0.1c-0.1-0.1-0.1-0.1-0.1-0.2c0.8-0.2,1.6-0.4,2.3-0.6c0.6-0.2,1.3-0.3,1.9-0.5c0.7-0.2,1.3-0.3,2-0.5
			c0.9-0.3,1.8-0.5,2.7-0.7c0.5-0.1,1-0.2,1.4-0.4c0.2,0,0.4,0,0.7,0.1c0.2,0.1,0.5,0.3,0.7,0.2c0.6,0.3,1.3,0.4,1.9,0.6
			c0.6,0.2,1.2,0.4,1.8,0.5c0.4,0.1,0.8,0.1,1.1,0.4c-2.4,0.7-4.8,1.3-7.2,1.9c-0.4-0.1-0.8-0.3-1.2-0.3c0-0.1,0-0.1-0.1-0.1
			c-0.8-0.1-1.6-0.4-2.4-0.7c-0.4-0.1-0.8-0.1-1.2,0c-0.1,0-0.1,0-0.2,0.1c-0.7,0.2-1.4,0.3-2,0.5c-0.2,0.1-0.5-0.1-0.6,0.2
			c-0.4-0.4-0.7,0.1-1.1,0.2c0.6,0,1.2,0,1.8,0c0.7-0.4,1.6-0.4,2.3-0.7c0.2-0.1,0.4,0,0.5,0c0.6,0.2,1.2,0.4,1.7,0.6
			c-0.2,0.1-0.4,0.1-0.4,0.4c0,0.2-0.4,0.1-0.2,0.2c0.1,0.2,0.2,0.3,0.3,0.5c0.1,0,0.2,0,0.3,0c0.2,0.1,0.8,0.3,1,0.3
			c0.9,0,1.7,0,2.6,0c0.5,0,1-0.1,1.4-0.4c-0.4-0.2-0.9-0.2-1.2-0.5c0.6,0.1,1.1-0.2,1.6-0.4c0.7-0.2,1.5-0.4,2.2-0.6
			c0.4-0.1,0.8-0.3,1.3-0.4c0.4-0.1,0.8-0.2,1.2-0.3c0.4-0.1,0.8-0.5,1.2-0.1c0.3,0,0.5,0,0.8-0.1c0.5-0.2,1.1-0.3,1.6-0.5
			c0.7-0.2,1.4-0.4,2-0.6c0.5-0.2,1.1-0.3,1.6-0.5c0.7-0.1,1.3-0.4,2-0.5c0.6-0.1,1.2-0.4,1.8-0.5c0.6-0.1,1.2-0.4,1.8-0.5
			c0.8-0.2,1.6-0.4,2.4-0.6c0.6-0.2,1.3-0.4,1.9-0.5c0.6-0.2,1.2-0.3,1.8-0.5c0.6-0.2,1.3-0.4,1.9-0.5c0.6-0.1,1.2-0.4,1.9-0.5
			c0.6-0.1,1.2-0.3,1.8-0.5c0.7-0.2,1.5-0.4,2.2-0.6c0.8-0.2,1.6-0.5,2.4-0.7c0.4-0.1,0.8-0.3,1.2-0.4c0.5-0.1,0.9-0.2,1.4-0.2
			c0-0.1,0.1-0.2,0.1-0.3c0.2-0.1,0.4,0,0.6-0.1c0.3-0.1,0.6-0.3,1-0.2c0.3,0,0.5,0.1,0.8,0.1c0.2,0.1,0.5-0.1,0.7,0.2
			c0.6,0,1.2,0.2,1.9,0.3c0.6,0.1,1.2,0.2,1.8,0.4c0.6,0.1,1.2,0.2,1.8,0.3c0.7,0.1,1.4,0.1,2,0.4c0.3,0.1,0.6,0.1,0.9,0.1
			c0.3,0,0.6,0.2,1,0.2c0.3,0,0.6,0.2,1,0.1c0.2,0.3,0.6,0,0.9,0.3c0.1,0.1,0.4,0,0.7,0c-0.4,0.4-1,0.3-1.3,0.6
			c-1,0.1-1.8,0.5-2.7,0.8c-1.2,0.4-2.4,0.8-3.6,1.2c-1.2,0.3-2.4,0.8-3.6,1.1c0,0,0,0,0,0.1c-0.4-0.1-0.8,0.2-1.2,0.3
			c-1.2,0.4-2.4,0.7-3.6,1.2c-1.2,0.4-2.4,0.8-3.7,1.2c-1,0.3-2,0.7-3,1c-1.1,0.3-2.2,0.8-3.3,1.1c-0.7,0.2-1.3,0.4-2,0.7
			c-0.6,0.2-1.3,0.4-1.9,0.6c-0.8,0.3-1.6,0.5-2.4,0.8c-1.3,0.4-2.6,0.9-3.9,1.3c-0.8,0.3-1.6,0.5-2.4,0.8c-1.2,0.4-2.3,0.8-3.5,1.1
			c-0.8,0.3-1.6,0.5-2.4,0.8c-0.2,0.1-0.3,0.1-0.5,0c-0.7-0.3-1.6-0.5-2.3-0.8c-0.1,0-0.2,0-0.4,0c-0.1-0.1-0.5-0.3-0.7-0.3
			c-0.2-0.1-0.4-0.2-0.6-0.1c0,0,0-0.1-0.1-0.1c-1-0.1-1.8-0.6-2.7-0.8c-0.5-0.1-1-0.4-1.5-0.5c-0.5-0.1-1-0.3-1.5-0.4
			c-0.1,0-0.2,0-0.3,0c0,0,0-0.1,0-0.1c-0.7-0.2-1.3-0.4-2-0.7c-0.9-0.3-1.8-0.5-2.6-0.8C60.5,44.2,60.1,43.9,59.7,44z M89.5,40.9
			c0.4,0.1,0.8-0.2,1.2-0.1c0.2-0.3,0.6,0,0.8-0.2c0.2-0.2,0.4,0,0.6-0.1c0.2-0.1,0.4-0.2,0.6-0.1c0.3-0.2,0.8-0.2,1.1-0.3
			c0.3-0.1,0.7-0.3,1-0.2c0.3-0.3,0.8,0,1-0.3c0.3,0.1,0.6-0.1,1-0.2c0.4-0.1,0.9,0,1.3-0.1c0.3-0.1,0.6-0.2,1-0.1
			c0.4,0.1,0.6-0.2,1-0.2c0.2,0,0.4,0,0.6,0c0.2,0,0.4-0.2,0.6-0.2c0.4,0,0.7,0.1,1.1-0.1c0.3-0.2,0.7,0,1.1-0.1
			c0.3-0.1,0.7,0,1.1,0c0.4,0,0.7-0.2,1.1-0.1c0.4,0.1,0.8-0.2,1.3-0.2c0.1-0.3,0.4,0,0.5-0.3c0.1,0,0.2,0,0.3,0c1-0.4,2-0.7,3-1
			c1.7-0.5,3.5-1.1,5.2-1.7c0.3-0.1,0.6-0.1,0.8-0.4c-1.2-0.3-2.5-0.5-3.7-0.8c-1.2-0.3-2.5-0.5-3.7-0.7c-0.1,0.1-0.1,0.4-0.3,0.4
			c-0.2,0-0.4,0.1-0.6,0.2c-0.6,0.1-1.2,0.3-1.8,0.5c0.3,0,0.6,0.2,0.8,0.2c0.6,0,1.2,0.3,1.9,0.3c0.2,0.3,0.7,0,0.9,0.4
			c-0.6,0.2-1.3,0.3-1.9,0.6c-0.4,0.2-1.1,0.3-1.3,0.2c-0.3-0.2-0.7-0.1-1-0.2c-0.3-0.1-0.7-0.3-1.1-0.2c-0.7-0.4-1.6-0.3-2.3-0.6
			c-0.1,0-0.3,0-0.4,0c-0.3,0.2-0.7,0.2-1,0.3c-0.3,0.1-0.7,0.3-1.1,0.3c-0.1,0.3-0.6,0-0.6,0.4c0.7,0,1.3,0.3,2,0.4
			c0.5,0.1,1,0.3,1.6,0.4c0.3,0,0.6,0.1,0.9,0.3c-0.2,0-0.2,0.2-0.4,0.2c-0.1,0-0.6,0.2-0.7,0.3c-0.2,0-0.3,0-0.5,0.1
			c-0.3,0.1-0.5,0.3-0.8,0.2c-0.3,0.2-0.8,0.2-1.1,0.1c-0.8-0.3-1.6-0.3-2.3-0.6c-0.3-0.1-0.7-0.1-1-0.3c0,0-0.1,0.1-0.2,0.1
			c-1,0.3-2,0.5-3,0.9c-0.1,0.1-0.4,0.1-0.5,0c-0.4-0.2-0.9-0.2-1.3-0.4c-0.5-0.1-0.9-0.3-1.5-0.1c-0.3,0.1-0.7,0.3-1,0.3
			c-0.5,0-0.8,0.2-1.3,0.3c-0.4,0.1-0.9,0.2-1.3,0.4c-0.5,0.2-1,0.3-1.5,0.4c-0.8,0.2-1.7,0.5-2.5,0.7c0,0,0,0,0,0.1
			c-0.2,0-0.3,0.2-0.5,0.2c-0.1,0-0.3-0.1-0.4,0c-0.7,0.3-1.5,0.4-2.2,0.7c-0.5,0.2-1.1,0.3-1.6,0.5c-0.8,0.2-1.6,0.5-2.4,0.7
			c-0.7,0.2-1.4,0.3-2,0.7c-0.5-0.1-0.9,0.2-1.4,0.3c-0.5,0.1-1,0.2-1.4,0.4c-0.5,0.2-0.9,0.2-1.4,0c-0.1,0.1-0.2,0.2-0.2,0.4
			c0.3,0.2,0.6,0.2,1,0.3c0.3,0.1,0.6,0.3,1,0.2c0.2,0.1,0.9,0.4,0.9,0.3c0.2-0.2,0.4-0.2,0.6-0.1c0.2,0.1,0.4-0.2,0.6-0.2
			c0.6,0,1.2-0.3,1.9-0.3c0.2-0.3,0.7,0,0.9-0.3c0.3,0.1,0.6-0.2,0.9-0.2c0.3,0,0.6-0.2,1-0.1c0.2-0.3,0.6-0.1,0.9-0.2
			c0.5-0.2,1.1-0.3,1.6-0.3c0.6-0.1,1.2-0.3,1.8-0.3c0.7-0.4,1.5-0.4,2.3-0.6c0.7-0.2,1.4-0.3,2.2-0.5c0.2,0,0.4,0.1,0.5-0.1
			C88.1,41.4,88.7,41.1,89.5,40.9z"/>
		<path class="st8" d="M63.3,43.1c-0.1,0-0.2,0-0.3,0c-0.1-0.1-0.2-0.3-0.3-0.5c-0.1-0.2,0.3,0,0.2-0.2c0.6,0,1.1-0.3,1.6-0.4
			c0,0,0,0,0-0.1c0.4,0,0.8,0.2,1.2,0.3c2.4-0.6,4.8-1.3,7.2-1.9c-0.3-0.3-0.7-0.3-1.1-0.4c-0.6-0.1-1.2-0.3-1.8-0.5
			c-0.6-0.2-1.3-0.3-1.9-0.6c-0.3,0.1-0.5-0.1-0.7-0.2c-0.2-0.1-0.5-0.1-0.7-0.1c0,0,0-0.1-0.1-0.1c-0.7-0.2-1.4-0.4-2.2-0.6
			c-0.8-0.2-1.5-0.4-2.3-0.6c-0.5-0.1-0.9-0.2-1.4-0.4c-0.2,0-0.4-0.1-0.6-0.1c-0.2-0.1-0.4,0-0.6-0.2c-0.8-0.2-1.6-0.4-2.4-0.7
			c-0.6-0.2-1.2-0.3-1.8-0.5c-0.8-0.2-1.6-0.4-2.4-0.6c-0.6-0.2-1.2-0.4-1.8-0.5c-0.6-0.1-1.2-0.4-1.8-0.5c-0.7-0.2-1.3-0.4-2-0.5
			c-0.6-0.1-1.1-0.3-1.7-0.5c0-0.1,0-0.1,0-0.2c0,0,0.1-0.1,0.1-0.1c0.5,0,1-0.1,1.4-0.3c0.3-0.1,0.6-0.1,0.9-0.2
			c0.7-0.2,1.4-0.3,2.1-0.4c0.6-0.1,1.2-0.2,1.8-0.3c0.8-0.2,1.7-0.3,2.6-0.5c0.6-0.1,1.2-0.2,1.8-0.4c0.8-0.2,1.7-0.3,2.6-0.5
			c0.6-0.1,1.2-0.3,1.8-0.4c0.3,0,0.6-0.1,1-0.1c0.6-0.1,1.1,0.2,1.6,0.3c0,0.1-0.1,0.1-0.2,0.1c-0.3,0-0.7-0.1-1,0
			c-0.3,0.1-0.6,0.1-0.8,0.1c-0.3,0-0.5,0.2-0.8,0.2c-0.3,0-0.7-0.1-1,0.1c-0.9,0-1.7,0.4-2.5,0.4c-0.2,0.3-0.7,0-0.9,0.3
			c-0.3,0-0.6,0.1-1,0.1c-0.3,0-0.6,0.2-1,0.2c-0.3,0-0.6,0-0.9,0.1c-0.8,0.3-1.7,0.4-2.5,0.5c-0.8,0.2-1.5,0.3-2.3,0.5
			c0,0.1,0,0.1,0,0.2c2,0.5,4,1.1,6.1,1.7c0.2-0.2,0.6,0,0.8-0.2c0-0.2-0.2,0-0.3-0.2c0.2,0,0.5,0,0.7-0.1c0.5-0.2,1.1-0.3,1.7-0.4
			c0.6-0.1,1.1-0.2,1.7-0.4c0.5-0.1,1.1-0.3,1.6-0.4c0.6-0.1,1.2-0.3,1.8-0.4c0.6-0.1,1.3-0.3,1.9-0.4c0.5-0.1,1.1-0.3,1.6-0.4
			c0.8-0.2,1.6-0.4,2.4-0.5c0.2,0,0.2-0.2,0.4-0.2c0.4-0.1,0.8,0.1,1.1,0.2c0.5,0.1,1.1,0.2,1.6,0.4c0.5,0.2,1.1,0.2,1.6,0.3
			c0,0,0,0.1,0.1,0.1c-0.2-0.1-0.3,0.1-0.5,0.1c-0.8,0-1.6,0.5-2.4,0.4c-0.3,0.3-0.6,0.2-0.9,0.3c-0.3,0.1-0.6,0.1-0.9,0.2
			c-0.3,0.1-0.6,0.2-0.9,0.2c-0.3,0.1-0.6,0.1-1,0.2c-0.5,0.1-1,0.2-1.5,0.3c-0.7,0.1-1.4,0.4-2.1,0.5c-0.1,0-0.3,0-0.4-0.1
			c-0.6-0.2-1.3-0.4-2-0.5c-0.7-0.1-1.4,0.3-2.1,0.4c-0.7,0.1-1.3,0.4-2,0.4c-0.2,0-0.4-0.1-0.6,0c0.2,0.2,0.5,0.3,0.8,0.2
			c0.6,0,1.2-0.2,1.8-0.3c0.4-0.1,0.8-0.2,1.2-0.3c0.3-0.1,0.5-0.2,0.7-0.1c0.4,0.1,0.8,0.3,1.3,0.3c0.1,0.2,0.5,0,0.5,0.3
			c-0.2,0.1-0.5,0.2-0.6,0.5c0.5,0.5,1.1,0.7,1.7,0.6c0.4,0,0.7,0,1.1,0c0.4,0,0.8,0,1.2,0c0.3,0,0.7,0.1,1-0.1
			c0.3,0.3,0.7,0.1,1.1,0.1c0.1-0.2,0-0.3,0.1-0.4c0.2-0.1,0.5,0.1,0.7-0.2c0.7-0.1,1.3-0.3,2-0.5c0.6-0.2,1.1-0.3,1.7-0.4
			c0.7-0.2,1.3-0.3,2-0.5c0.6-0.1,1.1-0.3,1.7-0.4c0.7-0.1,1.4-0.3,2.1-0.5c0.5-0.1,1.1-0.2,1.6-0.4c0.9-0.2,1.7-0.4,2.6-0.6
			c0.5-0.2,1.1-0.2,1.7-0.4c0.6-0.2,1.3-0.4,1.9-0.5c0.6-0.1,1.1-0.3,1.7-0.4c0.7-0.1,1.3-0.4,2-0.5c0.8-0.1,1.5-0.4,2.3-0.5
			c0.5-0.1,1-0.3,1.6-0.4c0.8-0.2,1.6-0.4,2.5-0.6c0.5-0.1,1-0.2,1.5-0.3c0.7-0.1,1.4-0.4,2.1-0.5c0.5-0.1,1.1-0.2,1.6-0.4
			c0.7-0.1,1.4-0.4,2-0.5c0.5-0.1,1-0.4,1.6-0.3c0.2-0.3,0.5-0.1,0.7,0c0.1,0,0.2,0,0.3-0.1c-0.2-0.3-0.1-0.8-0.7-0.8
			c-0.7-0.1-1.5-0.3-2.3-0.2c0-0.1,0-0.2,0.1-0.1c0.4,0.1,0.7-0.2,1.1-0.2c0.1,0,0.1-0.2,0.2-0.1c0,0,0,0.1,0,0.1
			c0.5-0.1,0.9,0.2,1.4,0.2c0.3,0,0.4,0.2,0.7,0.2c0.2,0,0.4,0,0.6,0.1c0.3,0.1,0.7,0,1,0.2c0.4-0.1,0.8,0.2,1.3,0.2
			c0.4,0,0.7,0.2,1.1,0.1c0.3,0.3,0.7,0,1.1,0.3c0.3,0.2,0.7,0.1,1,0.1c0.4,0,0.9,0.3,1.3,0.2c0.7,0.3,1.4,0.1,2.1,0.4
			c0.5-0.1,0.9,0.1,1.4,0.2c0.6,0.1,1.3,0.1,1.9,0.4c0.6-0.1,1.1,0.2,1.7,0.2c-0.7,0.2-1.4,0.4-2.1,0.6c-0.6,0.2-1.3,0.3-1.9,0.5
			c-0.6,0.1-1.1,0.3-1.6,0.5c-0.6,0.2-1.3,0.3-1.9,0.6c-0.8,0.3-1.5,0.4-2.3,0.6c-0.9,0.3-1.7,0.5-2.6,0.8c-0.4,0.1-0.9,0.1-1.2,0.4
			c-0.3-0.1-0.7,0.1-1,0.2c-0.2,0.1-0.4,0.1-0.6,0.1c0,0.1-0.1,0.2-0.1,0.3c-0.5,0-0.9,0.2-1.4,0.2c-0.4,0-0.8,0.3-1.2,0.4
			c-0.8,0.2-1.6,0.4-2.4,0.7c-0.7,0.2-1.5,0.4-2.2,0.6c-0.6,0.2-1.2,0.4-1.8,0.5c-0.6,0.1-1.2,0.4-1.9,0.5c-0.6,0.1-1.3,0.4-1.9,0.5
			c-0.6,0.2-1.2,0.3-1.8,0.5c-0.6,0.2-1.3,0.4-1.9,0.5c-0.8,0.2-1.6,0.4-2.4,0.6c-0.6,0.2-1.2,0.4-1.8,0.5c-0.6,0.1-1.2,0.4-1.8,0.5
			c-0.7,0.2-1.3,0.4-2,0.5c-0.6,0.1-1.1,0.3-1.6,0.5c-0.7,0.2-1.4,0.4-2,0.6c-0.5,0.2-1.1,0.3-1.6,0.5c-0.3,0.1-0.6,0.1-0.8,0.1
			c-0.4-0.4-0.9,0-1.2,0.1c-0.4,0.1-0.8,0.3-1.2,0.3c-0.4,0.1-0.9,0.2-1.3,0.4c-0.7,0.2-1.5,0.4-2.2,0.6c-0.5,0.2-1,0.4-1.6,0.4
			c-0.2-0.1-0.3,0.1-0.4,0.1c-0.2,0-0.4,0-0.6,0c-0.2,0-0.3,0.2-0.5,0.2c-0.2,0-0.5-0.1-0.6,0c-0.3,0.2-0.6,0.1-0.8,0.1
			C63.9,43,63.7,43.2,63.3,43.1z M102.4,31c-0.2,0-0.4,0-0.6,0.1c-0.4,0.1-0.9,0.4-1.3,0.2c-0.4-0.2-0.8,0-1.1-0.3
			c-0.4,0.1-0.7-0.2-1.1-0.1c-0.3-0.3-0.7,0-1-0.3c-0.1-0.1-0.5-0.1-0.7,0c-0.4,0.1-0.7,0.2-1.1,0.3c-0.4,0.1-0.8,0.2-1.1,0.3
			c-0.3,0.1-0.6,0.1-0.9,0.3c-0.1,0-0.2-0.1-0.3-0.2c-0.7,0-1.3-0.2-2-0.4c-0.2-0.1-0.4-0.1-0.6,0c-0.5,0.2-1,0.3-1.5,0.4
			c-0.5,0.1-1,0.2-1.5,0.3c-0.9,0.2-1.8,0.5-2.7,0.7c-0.7,0.2-1.4,0.4-2,0.5c-0.6,0.2-1.3,0.4-1.9,0.5c-0.8,0.1-1.5,0.3-2.2,0.5
			c-0.7,0.1-1.5,0.4-2.2,0.5c-0.6,0.2-1.3,0.4-1.9,0.5c-0.1,0.3-0.5-0.1-0.6,0.3c0,0.1,0,0.2-0.1,0.1c-0.5-0.1-1,0.1-1.5,0.2
			c-0.7,0.1-1.3,0.3-2,0.5c-0.4,0.1-0.8,0.1-1.2-0.1c-0.1,0.1-0.3,0.2-0.4,0.2c0.1,0.1,0.1,0.2,0.3,0.2c0.6,0.1,1.1,0.3,1.6,0.4
			c0.4,0.1,0.8,0.2,1.3,0.2c0.4-0.1,0.7-0.2,1.1-0.1c0.6-0.3,1.3-0.2,1.9-0.4c0.4,0.1,0.8-0.2,1.3-0.1c0.3-0.3,0.8,0,1.1-0.3
			c0.4,0.1,0.8-0.2,1.3-0.2c0.3,0,0.7-0.1,1-0.2c0.4-0.1,0.8-0.1,1.2-0.2c0.3,0.1,0.6-0.2,0.9-0.1c0.4,0,0.8-0.3,1.2-0.1
			c0.6-0.3,1.3-0.3,1.9-0.4c0.7-0.1,1.4-0.4,2.1-0.3c0.6-0.3,1.3-0.2,1.9-0.4c0.4,0.1,0.8-0.2,1.3-0.1c0.3-0.3,0.8,0,1.2-0.3
			c0.9-0.1,1.8-0.2,2.7-0.4c0.5-0.1,1-0.1,1.4-0.3c0.3-0.1,0.6-0.2,0.9-0.2c0.4,0,0.6-0.2,1-0.2c0.3,0,0.6,0,0.9-0.1
			c0.8,0.1,1.6-0.2,2.4-0.1c0.1,0,0.3,0,0.4,0c0.1,0,0.2,0,0.2-0.1c0.5-0.1,1.1,0.1,1.6-0.1c0.3-0.1,0.7,0,1.1,0
			c0.4,0,0.7-0.2,1.1-0.1c0.3,0,0.6-0.1,0.9-0.1c0.6-0.1,1.2-0.1,1.8-0.3c1-0.3,2-0.6,3-0.8c0.8-0.2,1.7-0.5,2.5-0.7
			c1.3-0.4,2.5-0.7,3.8-1.1c-0.1-0.1-0.2-0.1-0.3-0.2c-0.1,0-0.4,0.1-0.5,0c-0.3-0.2-0.5-0.1-0.8-0.1c-0.2-0.1-0.5-0.1-0.7-0.2
			c-0.6-0.1-1.3-0.3-1.9-0.3c-0.1-0.2-0.3-0.1-0.5-0.1c-0.4,0-0.8-0.2-1.2-0.1c-0.3-0.3-0.7,0-0.9-0.2c-0.3-0.2-0.7,0-1-0.1
			c0,0,0,0.1-0.1,0.1c0.1,0.1,0.3,0,0.4,0.1c-1,0.1-1.8,0.5-2.9,0.7c1.4,0.2,2.7,0.4,4.1,0.7c-1.2,0.2-2.1,0.5-3,0.8
			c-1.8-0.3-3.5-0.7-5.2-1c-1.1,0.3-2.1,0.5-3.1,0.8c1.6,0.4,3.3,0.6,4.9,1.1c-0.4-0.1-0.7,0.3-1,0.2
			C102.8,30.9,102.5,30.7,102.4,31z"/>
		<path class="st8" d="M57.9,69.2c0.4,0,0.6,0.2,0.9,0.4c0,0,0,0.1-0.1,0.1c-0.6,0.3-1.3,0.5-1.9,0.8c-0.6,0.2-1.2,0.5-1.7,0.7
			c-0.3,0.1-0.4,0.3-0.5,0.5c1.6,0.8,3.2,1.6,4.7,2.4c0.2,0.1,0.3,0.3,0.6,0.2c0,0.3,0.3,0.1,0.4,0.3c0.2-0.3,0.6,0,0.8-0.2
			c0-0.2-0.4-0.1-0.4-0.4c0,0,0.1,0,0.1,0c0.9-0.4,1.7-0.8,2.6-1.2c0.4-0.2,0.8-0.4,1.2-0.4c0.1,0,0.2,0,0.3,0
			c0.6,0.3,1.3,0.6,1.9,1c-0.6,0.3-0.6,0.4-1,0.2c-0.1-0.1-0.3-0.1-0.4,0c-0.3,0.2-0.6,0.2-0.9,0.4c-0.6,0.3-1.2,0.5-1.7,0.8
			c-0.3,0.1-0.5,0.1-0.7,0c-0.2,0.1-0.4,0.2-0.7,0.3c0.5,0.2,0.9,0.3,1.4,0.1c0.9-0.3,1.7-0.8,2.5-1c0.7,0.3,1.4,0.6,2.1,0.9
			c-0.6,0.1-0.5,0.7-0.8,0.9c0.2,0.7,0.8,0.9,1.3,1c0.2,0,0.3,0.2,0.5,0.2c0.6,0,1.3,0,1.9,0c0.3,0,0.6-0.4,0.9-0.1
			c0.2-0.2,0.5-0.3,0.7-0.4c-0.3-0.4-0.9-0.4-1.2-0.8c0.3,0,0.6-0.2,0.9-0.3c0.9,0.5,1.9,0.9,2.8,1.4c0.1,0.3-0.2,0.2-0.3,0.3
			c-0.1,0.1-0.3,0-0.3,0.2c-0.2-0.1-0.5-0.2-0.7-0.3c-0.2,0.1-0.3,0.3-0.3,0.5c0.2,0,0.3,0.3,0.6,0.2c0.3,0.3,0.8,0.4,1.2,0.7
			c0.4,0.2,0.9,0.3,1.4,0.1c0.4-0.1,0.8-0.4,1.2-0.3c0.4,0,0.7,0.4,1.1,0.5c0.6-0.3,1.3-0.6,1.9-1c1.3-0.7,2.6-1.3,3.9-2
			c0.3-0.1,0.6-0.3,1-0.3c0.1,0,0.1-0.1,0.1-0.1c0.1,0,0.3,0,0.4,0c0.5-0.2,0.9-0.4,1.4-0.5c0.5-0.1,0.9-0.3,1.4-0.5
			c0.8-0.3,1.6-0.6,2.3-0.9c0.5,0,0.8-0.3,1.3-0.3c0.8-0.5,1.8-0.7,2.7-1c0.9-0.3,1.9-0.6,2.8-1c0.6-0.2,1.1-0.3,1.7-0.4
			c0.1,0,0.2,0,0.2-0.1c0.5,0.1,1-0.2,1.5-0.1c0.3-0.2,0.7-0.1,1-0.2c0.7-0.2,1.4-0.2,2-0.4c0.4-0.1,0.8-0.1,1.2-0.2
			c0.5-0.1,1-0.2,1.5-0.3c0.8-0.3,1.5-0.8,2.2-1.2c0.4-0.2,0.9-0.3,1.2-0.7c0.6-0.3,1.2-0.6,1.8-0.9c0.1,0,0.1-0.1,0.1-0.1
			c0.1,0,0.2,0,0.3-0.1c0.5-0.3,1.1-0.6,1.6-0.9c0.6-0.3,1.1-0.6,1.7-0.9c0.1,0,0.2,0,0.2-0.1c0-0.1,0-0.2,0-0.3
			c-1.2-0.4-2.4-0.8-3.6-1.2c-0.4-0.1-0.8-0.2-1.1-0.4c0.5-0.4,1.1-0.6,1.6-0.9c0.1-0.1,0.3-0.2,0.4-0.2c0.3,0.3,0.7,0.3,1,0.4
			c1.1,0.4,2.2,0.7,3.4,1.1c0.6,0.2,1.3,0.4,1.9,0.6c0,0.3-0.3,0.3-0.4,0.4c-1.1,0.6-2.2,1.1-3.3,1.8c-0.4,0.2-0.8,0.4-1.2,0.6
			c-0.3,0.1-0.6,0.3-0.9,0.6c-0.6,0.1-1.5,0.7-2.2,1.2c-0.1,0-0.2,0-0.3,0c-0.5,0.3-1,0.5-1.5,0.8c-0.7,0.4-1.5,0.8-2.3,1.2
			c-1.4,0.7-2.7,1.5-4.1,2.2c-1.4,0.7-2.8,1.5-4.1,2.2c-0.7,0.4-1.4,0.8-2.2,1.2c-1,0.5-1.9,1-2.9,1.5c-0.3,0.1-0.6,0.2-0.8,0.4
			c-0.9,0.6-2,1-2.9,1.6c-0.4,0.3-0.9,0.4-1.3,0.7c-0.2,0.3-0.5,0.2-0.8,0.4c-0.6,0.4-1.3,0.7-1.9,1c-1.3,0.7-2.6,1.4-3.9,2.1
			c-1,0.5-2,1.1-3,1.6c-0.2,0.1-0.4,0.2-0.6,0.3c-0.4-0.2-0.8-0.4-1.2-0.6c-0.2-0.1-0.4-0.3-0.7-0.3c0-0.1,0-0.1-0.1-0.1
			c-0.5-0.3-1.1-0.4-1.6-0.9c-0.3,0-0.5-0.3-0.8-0.3c0,0,0-0.1-0.1-0.1c-0.6-0.3-1.3-0.6-1.9-0.9c-0.9-0.5-1.9-0.9-2.8-1.4
			c-0.3-0.2-0.6-0.5-1-0.5c0-0.2-0.2-0.2-0.3-0.2c-0.5-0.2-0.9-0.6-1.5-0.7c-0.2-0.3-0.6-0.4-1-0.6c-0.5-0.2-0.9-0.5-1.4-0.6
			c-0.1-0.2-0.2-0.2-0.3-0.3c-1.8-0.9-3.5-1.7-5.2-2.6c-0.3-0.2-0.5-0.4-0.9-0.4c-0.4-0.4-0.9-0.5-1.4-0.8c-1-0.5-2-1-2.9-1.5
			c-0.7-0.4-1.3-0.8-2-1.1c0-0.3,0.3-0.3,0.4-0.4c0.9-0.3,1.7-0.7,2.5-1c1-0.4,1.9-0.8,2.9-1.1C57.8,69.3,57.8,69.2,57.9,69.2z"/>
		<path class="st7" d="M68.8,80.5c0.4,0,0.7,0.3,1,0.5c0.9,0.6,1.8,0.9,2.8,1.4c0.6,0.3,1.2,0.6,1.9,0.9c0,0,0,0.1,0.1,0.1
			c-0.1,0-0.2,0.2-0.4,0.1c-0.1-0.2-0.3-0.1-0.5-0.3c-0.1,0.2-0.3,0.2-0.4,0.5c0.7,0.5,1.6,0.8,2.3,1.2c0.2,0,0.5,0,0.8-0.1
			c0.2-0.1,0.4-0.2,0.6-0.2c0.3,0,0.5,0.2,0.7,0.3c0.4,0.2,0.8,0.4,1.2,0.6c0.2-0.1,0.4-0.2,0.6-0.3c1-0.5,2-1.1,3-1.6
			c1.3-0.7,2.6-1.4,3.9-2.1c0.6-0.3,1.3-0.7,1.9-1c0.2-0.1,0.6-0.1,0.8-0.4c0.1,0,0.3,0,0.4,0c0.3-0.2,0.7-0.3,1-0.4
			c0.8-0.3,1.7-0.6,2.5-1c0.9-0.3,1.7-0.7,2.5-0.9c0.8-0.2,1.5-0.6,2.2-0.8c0.1,0,0.3-0.1,0.4-0.2c0.2,0,0.5,0.1,0.6,0
			c0.3-0.2,0.6,0,0.8-0.2c0.3-0.2,0.6,0,0.9-0.2c0.2-0.1,0.5-0.1,0.8-0.1c0.4,0,0.8-0.1,1.2-0.2c0.4-0.1,0.8-0.2,1.1-0.2
			c0.4-0.1,0.9-0.2,1.3-0.2c0.4-0.1,0.8-0.2,1.3-0.3c0.3,0,0.6-0.1,0.9-0.3c0.8-0.5,1.6-0.9,2.4-1.4c1-0.6,2-1.1,2.9-1.6
			c0.4-0.2,0.8-0.4,1.1-0.6c0.7-0.4,1.4-0.8,2.1-1.2c0-0.4-0.1-0.5-0.6-0.7c-0.8-0.2-1.6-0.6-2.4-0.8c-0.4-0.1-0.8-0.4-1.3-0.3
			c0.7-0.5,1.6-1,2.2-1.2c0.3,0.3,0.7,0.3,1,0.4c0.7,0.2,1.3,0.5,2,0.7c0.7,0.2,1.4,0.4,2,0.7c0.2,0.1,0.4-0.1,0.5,0.3
			c0,0.1-0.1,0.1-0.3,0.2c-1,0.5-2,1.1-3,1.7c-0.4,0.2-0.8,0.4-1.2,0.6c-1.1,0.6-2.3,1.3-3.4,1.9c-1,0.6-2,1.1-3,1.7
			c-0.8,0.5-1.7,0.9-2.5,1.5c-0.5,0.1-1,0.5-1.4,0.8c-0.9,0.5-1.7,1-2.6,1.5c-0.4,0.2-0.8,0.4-1.2,0.7c-0.9,0.5-1.8,1.1-2.7,1.6
			c-0.9,0.5-1.7,1-2.6,1.5c-0.8,0.5-1.7,0.9-2.5,1.4c-0.5,0.3-1,0.6-1.5,0.9c-0.8,0.5-1.7,0.9-2.5,1.5c-0.4,0.2-0.8,0.4-1.2,0.6
			c-0.9,0.5-1.8,1-2.6,1.5c-1,0.6-2.2,1.1-3.1,1.9c-0.6,0.1-1,0.6-1.5,0.8c-0.3,0.1-0.5,0.3-0.8,0.5c-0.9-0.5-1.7-0.9-2.6-1.4
			c-1.1-0.6-2.2-1.2-3.4-1.8c-1-0.5-1.9-1.1-2.9-1.6c-1.1-0.6-2.2-1.2-3.3-1.8c-1.1-0.6-2.1-1.2-3.2-1.8c-1.1-0.6-2.2-1.1-3.3-1.8
			c-1-0.6-2.1-1.1-3.1-1.7c-1-0.6-2.1-1.1-3-1.7c-0.5-0.3-1.1-0.6-1.6-0.9c-0.2-0.1-0.3-0.2-0.3-0.4c0.6-0.1,1-0.4,1.5-0.6
			c0.5-0.2,0.9-0.4,1.4-0.6c0.5-0.2,0.9-0.4,1.3-0.5c0.4-0.1,0.8-0.4,1.2-0.5c0.4,0,0.6,0.2,0.9,0.4c0,0.1,0,0.1-0.1,0.1
			c-0.4,0.1-0.8,0.3-1.1,0.4c-0.6,0.3-1.1,0.5-1.7,0.7c-0.3,0.1-0.6,0.2-0.7,0.7c1.9,1,3.7,2,5.6,3c0.3-0.1,0.6-0.2,0.9-0.2
			c-0.2-0.2-0.4-0.1-0.5-0.4c0.4-0.2,0.8-0.3,1.2-0.5c0.5-0.3,1.1-0.6,1.7-0.8c0.1,0,0.3,0,0.3-0.2c0.5,0.1,0.9,0.4,1.4,0.6
			c0.3,0.2,0.7,0.2,1,0.6c-0.2,0-0.3,0-0.4,0.1c-0.2-0.1-0.4-0.2-0.5-0.3c-1.1,0.4-2.1,0.9-3,1.4c-0.4-0.3-0.6,0-1.1,0.1
			c0.4,0.3,0.7,0.4,1.2,0.2c0.9-0.4,1.9-0.8,2.8-1.3c0.6,0.4,1.3,0.5,1.9,1.1c-0.3,0.3-0.7,0.7-0.6,1.2c0.1,0.1,0.1,0.1,0.2,0.2
			c0.5,0.6,1.1,0.8,1.9,0.8c0.4,0,0.9,0,1.3,0c0.4,0,0.8-0.3,1.2-0.1c0.2-0.2,0.5-0.2,0.7-0.4c-1.4-0.6-2.7-1.4-4.1-2.2
			C68.6,80.5,68.7,80.5,68.8,80.5z"/>
		<path class="st8" d="M68.2,70.8c0.5-0.3,1.1-0.4,1.6-0.7c0.1-0.1,0.2,0,0.3,0c0.2,0,0.3,0,0.5,0.1c0.2,0.1,0.4,0.2,0.7,0.2
			c-0.4,0.5-0.9,0.4-1.3,0.5c-0.4,0.2-1-0.1-1.4,0.1C68.5,70.9,68.2,71.1,68.2,70.8z"/>
		<path class="st8" d="M109.4,62.3c-0.2-0.1-0.4-0.2-0.6-0.1c0.2-0.3,0.6-0.4,1-0.5c0.3-0.1,0.7-0.3,1-0.4c0.1-0.1,0.2,0,0.3,0
			c0.2,0,0.3,0.2,0.4,0.1c-0.5,0.4-1.1,0.6-1.6,0.9C109.7,62.3,109.6,62.4,109.4,62.3z"/>
		<path class="st9" d="M103.1,43.4c-0.6,0.1-1.1-0.2-1.6-0.3c-0.6-0.1-1.3-0.3-1.9-0.5c0-0.1,0-0.1,0-0.2c0.5,0,0.8-0.4,1.3-0.3
			c0.2-0.1,0.4,0.1,0.7,0.2c0.7,0.1,1.4,0.3,2.1,0.5c0.9,0.2,1.8,0.5,2.6,0.7c0.7,0.2,1.4,0.4,2.1,0.5c0.1,0.3,0.5-0.1,0.6,0.3
			c0,0-0.1,0-0.1,0c-0.7,0.4-1.5,0.4-2.2,0.9c-0.3,0-0.7,0-1,0.1c-0.3,0.1-0.7-0.1-1,0.2c-0.1,0-0.2,0-0.3,0c-0.3,0-0.6,0-1,0.1
			c-0.3,0.1-0.7-0.1-1,0.2c0,0-0.1,0-0.1,0c-0.6-0.1-1.2,0.2-1.8,0.2c-0.4,0-0.8,0-1.2,0.1c-0.4,0.1-0.8,0-1.2,0.1
			c-0.8,0.2-1.6,0.3-2.3,0.5c-0.7,0.2-1.5,0.4-2.2,0.5c-0.7,0.1-1.3,0.3-2,0.5c-0.3,0.1-0.5,0.1-0.8,0.2c-0.8,0.1-1.5,0.4-2.3,0.5
			c-0.3,0.1-0.7,0.2-1,0.2c-0.5,0.1-1,0.2-1.5,0.3c-0.6,0.1-1.1,0.3-1.7,0.4c-0.7,0.1-1.3,0.3-1.9,0.5c-0.6,0.2-1.1,0.2-1.7,0.4
			c-0.5,0.2-1,0.3-1.5,0.4c-0.4,0.1-0.9,0.2-1.3,0.3c-0.7,0.2-1.3,0.4-2,0.5c-0.6,0.1-1.1,0.3-1.7,0.4c-0.4,0.1-0.7,0.2-1.2,0.2
			c-0.5,0-1-0.1-1.4-0.3c-0.5-0.2-1-0.3-1.5-0.5c0.3-0.4,0.3-0.5,0.6-0.3c0.3,0.1,0.5,0.1,0.9,0c1.5-0.4,2.9-1,4.3-1.4
			c1.8-0.5,3.5-1.2,5.2-1.7c0.8-0.2,1.6-0.6,2.4-0.8c1.3-0.4,2.5-0.8,3.8-1.2c1.2-0.4,2.5-0.8,3.8-1.2c0.4-0.4,0.7,0.2,1,0.1
			c0.6,0.2,1.2,0.3,1.8,0.5c0.1,0,0.2,0,0.3,0c1-0.4,2.1-0.8,3.1-1.1c0.3,0.2,0.6,0.2,0.9,0.3c0.4,0.1,0.9,0.3,1.3,0.4
			c0.4,0.1,0.9,0.2,1.2,0.3c0.2,0.1,0.4,0.1,0.5,0c0.8-0.4,1.6-0.6,2.4-0.8c0.1,0,0.2-0.2,0.4-0.1c0.2,0,0.3,0,0.5,0.1
			c0.2,0.1,0.1,0.3,0.1,0.5c-0.1,0-0.2,0.1-0.3,0.1c0.2,0,0.3,0.2,0.5,0.2c0.1-0.2,0.4-0.1,0.6-0.2c-0.1-0.2,0.2-0.2,0.1-0.5
			c-0.1,0-0.1-0.2-0.3-0.2C104.8,43.7,103.8,43.4,103.1,43.4z"/>
		<path class="st9" d="M72.6,48.3c-0.3,0.3-0.7,0.3-1.1,0.4c-1.2,0.4-2.3,0.7-3.5,1.1c0.3,0.4,0.9,0.2,1.1,0.6
			c-1.7,0.4-3.4,0.5-5.1,0c-0.1-0.1-0.3-0.3-0.5-0.5c0-0.1,0.2-0.1,0.1-0.2c0.4,0,0.7-0.1,1.1-0.1c0.5-0.1,0.9-0.2,1.4-0.2
			c0,0,0-0.1,0-0.1c0.1,0,0.1,0.1,0.3,0.1c0.4-0.1,0.8-0.4,1.2-0.3c0.2,0,0.2-0.2,0.4-0.2c0.3,0,0.5,0,0.7-0.1
			c0.8,0,1.5-0.3,2.3-0.3c0.1,0,0.1,0,0.2,0C71.7,48.4,72.1,48.2,72.6,48.3z"/>
		<path class="st21" d="M96.1,53.1C96.1,53.1,96.1,53.2,96.1,53.1c-0.9,0.3-1.7,0.5-2.6,0.7c-0.6,0.1-1.2,0.3-1.8,0.5
			c-0.9,0.2-1.7,0.5-2.6,0.7c-0.2,0-0.4,0.2-0.7,0.2c0.3-0.4,0.8-0.2,1.1-0.6c0.5,0,0.9-0.3,1.3-0.4c0.8-0.3,1.6-0.6,2.3-0.9
			c0.9-0.3,1.7-0.7,2.6-1c0.5-0.2,0.9-0.3,1.4-0.6c0.1-0.1,0.2,0,0.3,0c0.2,0.2,0.5,0.3,0.8,0.3c0.1,0,0.2,0,0.2,0.1
			c-0.4,0.2-0.8,0.3-1.1,0.4C96.9,52.7,96.4,52.8,96.1,53.1z"/>
		<path class="st9" d="M63.3,48.8c0-0.2,0.1-0.1,0.3-0.1c0.1,0,0.2,0,0.2-0.1c0.5,0,0.9,0.2,1.3,0.4c0.1,0.1,0.4-0.1,0.5,0.2
			c-0.1,0-0.2,0.2-0.2,0.1c-0.5-0.1-0.9,0.2-1.4,0.2c0-0.1,0.1-0.1,0.1-0.2C63.9,49,63.7,48.9,63.3,48.8z"/>
		<path class="st9" d="M72.1,48c0,0,0,0.1,0,0.1c-0.6,0-1.1,0.3-1.7,0.2c0-0.3,0.3-0.1,0.4-0.2c0.2-0.2,0.5-0.3,0.8-0.3
			C71.8,47.8,72,47.8,72.1,48z"/>
		<path class="st8" d="M99.7,24.6c-0.4-0.1-0.7,0.2-1,0.2c-0.3-0.1-0.7,0-1,0c-0.3,0-0.5,0.2-0.8,0.2c-0.2,0-0.5,0-0.8,0.1
			c-0.4,0.1-0.8,0.1-1.3,0.2c-0.8,0.1-1.6,0.4-2.4,0.3c-0.3,0.2-0.7,0.1-1,0.2c-0.3,0.1-0.7,0.1-1,0.1c-0.8,0.2-1.6,0.1-2.3,0.4
			c-0.5-0.1-1,0.2-1.5,0.1c-0.3,0-0.5,0.2-0.8,0.2c-0.2,0-0.5-0.1-0.7,0.1c-0.5-0.1-0.9,0.2-1.4,0.1c-0.3-0.1-0.5,0.2-0.7,0.2
			c-0.2,0-0.5-0.1-0.8,0.1c0,0-0.2,0-0.3,0c-0.3,0-0.5,0-0.8,0.1c-0.2,0.1-0.5,0-0.8,0.1c-0.3,0.1-0.8,0-1.1,0.2
			c-0.5-0.1-1,0.2-1.6,0.1c-0.3,0-0.5,0.2-0.7,0.2c-0.2,0-0.4,0-0.7,0.1c-0.3,0.1-0.7,0-1,0.2c-0.5-0.1-1,0.2-1.6,0.1
			c-0.3,0-0.5,0.2-0.7,0.2c-0.2,0-0.5-0.1-0.7,0.1c-0.6,0-1.2,0.2-1.8,0.2c-0.2,0-0.4-0.1-0.5-0.1c-0.5,0-0.9-0.2-1.4-0.3
			c-0.2,0-0.4-0.2-0.6-0.2c0.2-0.1,0.4-0.1,0.6-0.1c0.3,0,0.7,0.1,1-0.1c0.3-0.2,0.7,0.1,0.9-0.2c0.3,0,0.6-0.1,0.8-0.1
			c0.4,0,0.7-0.3,1.1-0.2c0.3-0.3,0.8,0,1.1-0.3c0.8,0,1.6-0.4,2.5-0.5c0.4,0,0.9-0.1,1.3-0.3c0.4-0.1,0.8-0.1,1.2-0.3
			C78.4,26,78.7,26,79,26c0.7-0.2,1.4-0.3,2.1-0.4c0.6-0.1,1.2-0.2,1.8-0.3c0.6-0.1,1.2-0.3,1.8-0.4c0.6-0.1,1.2-0.2,1.8-0.4
			c1-0.2,2.1-0.3,3.1-0.7c0.3-0.1,0.6,0.1,0.8-0.2c0.1,0,0.2,0.1,0.2,0.1c0.8-0.1,1.5,0.3,2.3,0.3c0.3,0,0.8,0,1-0.1
			c0.4-0.1,0.8-0.3,1.3-0.2c0,0.2,0.2,0.2,0.3,0.1c0.5-0.1,0.9,0.3,1.4,0.2c0.2,0.2,0.4,0.2,0.6,0.1c0.3-0.1,0.4,0.2,0.7,0.2
			c0.5,0,1,0.2,1.4,0.2C99.7,24.5,99.7,24.6,99.7,24.6z"/>
		<path class="st7" d="M101.9,54.4C101.9,54.4,101.9,54.3,101.9,54.4c0.5-0.2,0.9-0.5,1.5-0.6c0.1,0,0.1,0.1,0.2,0.1
			c0.8,0.1,1.6,0.5,2.4,0.7c0.3,0.1,0.6,0.2,0.9,0.3c0.4,0.2,0.6-0.2,0.9-0.1c0,0,0,0,0.1,0c0.4,0.2,0.8,0.3,1.2,0.4
			c0.6,0.2,1.1,0.3,1.7,0.5c0,0,0,0.1,0,0.1c-0.8,0.3-1.5,0.7-2.2,1c-0.7,0.3-1.4,0.6-2.2,1c-0.2,0-0.5,0-0.8,0.1
			c-0.3,0.1-0.6,0-0.9,0.1c-0.3,0.1-0.7,0.1-1,0.1c-0.9,0-1.7,0.3-2.5,0.3c-0.6,0-1.2,0.2-1.9,0.3c-0.3,0-0.6,0.1-0.9,0.1
			c-0.3,0.1-0.6,0-0.9,0.1c-0.6,0.3-1.3,0.4-1.9,0.6c-0.8,0.3-1.6,0.5-2.4,0.7c-0.2,0.1-0.5,0.1-0.7,0.2c-0.5,0.3-1.1,0.3-1.7,0.5
			c-0.1,0-0.2,0-0.3-0.1c0.6-0.2,1.2-0.4,1.8-0.7c0.6-0.3,1.1-0.5,1.7-0.7c0.5-0.2,0.9-0.4,1.4-0.6c0.8-0.4,1.7-0.7,2.5-1.1
			c0.2-0.1,0.5-0.2,0.7-0.3c0.2-0.1,0.5-0.1,0.6-0.3c0.2,0.1,0.3-0.1,0.4-0.1c0.6-0.1,1,0.3,1.7,0.3c0.9-0.4,1.9-0.8,2.9-1.3
			c-0.4-0.1-0.8-0.2-1.2-0.4c0.1-0.3,0.5-0.2,0.6-0.4c0.4,0.1,0.8,0.2,1.2,0.4c0.3-0.1,0.5-0.2,0.7-0.4c0.1-0.3-0.1-0.4-0.2-0.6
			c-0.7-0.4-1.5-0.5-2.2-0.5C102.7,54.4,102.3,54.4,101.9,54.4z"/>
		<path class="st7" d="M68.2,61.2c0.5,0,0.8,0.3,1.2,0.4c0.6,0.2,1.3,0.4,1.8,0.8c0.1,0.1,0.3-0.1,0.3,0.2c-0.4,0.3-0.8,0.4-1.3,0.6
			c-0.3,0.1-0.7,0.2-1,0.4c0.4,0.2,0.8,0.4,1.2,0.5c-0.1,0.4-0.5,0.2-0.7,0.4c-1,0.1-1.9,0.2-2.9,0.1c-0.4,0-0.8-0.2-1.2-0.3
			c-0.4-0.1-0.6-0.4-0.6-0.9c0.2-0.2,0.4-0.3,0.7-0.5c-0.5-0.5-1-0.5-1.4-0.8c0,0,0-0.1,0-0.1c0.5-0.1,1.1-0.3,1.6-0.4
			C66.7,61.4,67.4,61.3,68.2,61.2z"/>
		<path class="st7" d="M63.9,61.7c-0.7,0.1-1.3,0.4-1.9,0.7c-1.1,0.4-1.1,0.4-2.3,0.3c0.1-0.2,0.4-0.2,0.5-0.4c0.4,0.2,0.5,0.2,1,0
			c0.8-0.4,1.6-0.6,2.4-0.9c0.2-0.1,0.4-0.1,0.5,0c0.2,0.2,0.4,0,0.6,0.1c0,0.2-0.1,0.2-0.2,0.1C64.3,61.6,64.1,61.6,63.9,61.7z"/>
		<path class="st7" d="M67.6,60.9c0,0.1,0,0.2-0.1,0.1c-0.6-0.1-1.2,0.4-1.9,0.3c-0.2,0.3-0.5,0.1-0.8,0.1c0.1-0.2,0.3-0.2,0.5-0.3
			c0.5-0.2,1-0.4,1.6-0.6C67.1,60.6,67.5,60.8,67.6,60.9z"/>
		<path class="st8" d="M102.2,47.8c0.4,0.3,0.9,0.3,1.4,0.4c0.6,0.2,1.2,0.3,1.8,0.5c0.2,0.3,0.5,0,0.7,0.2c0.2,0.2,0.5-0.1,0.6,0.2
			c0.3-0.1,0.5,0.1,0.7,0.2c0.8,0.2,1.6,0.4,2.4,0.7c0,0,0.1,0,0.1,0c-0.1,0.3-0.4,0.1-0.6,0.3c-0.1,0.2-0.4,0.2-0.6,0.3
			c-0.6,0.2-1.2,0.4-1.8,0.7c-0.5,0.2-1,0.4-1.5,0.3c-0.3,0-0.5,0.2-0.7,0.2c-0.2,0-0.5-0.1-0.8,0.1c0,0-0.1,0-0.1,0
			c-0.6-0.1-1.1,0.1-1.7,0.2c-0.4,0-0.8,0.1-1.1,0.2c-0.4,0.1-0.8,0-1.1,0.1c-0.3,0.1-0.7,0-1,0.1c-0.3,0.1-0.6,0.1-1,0.1
			c-0.5,0.1-1,0.2-1.4,0.3c-0.2,0.1-0.4,0-0.6,0.1c0.3-0.3,0.8-0.4,1.2-0.6c0.4-0.2,0.8-0.2,1.1-0.4c0.3,0,0.5-0.3,0.9-0.3
			c0.3-0.3,0.9-0.2,1.2-0.6c0.8,0.2,0.8,0.2,1.5-0.1c0.5-0.2,1-0.4,1.5-0.6c0.2-0.1,0.4-0.2,0.7-0.3c0.2-0.1,0.3,0.2,0.5,0.2
			c0.2,0,0.4,0,0.6,0c0.1-0.2,0.3-0.2,0.3-0.4c-0.2-0.2-0.4-0.4-0.6-0.6c-0.2-0.2-0.6-0.1-1-0.3c-0.7,0.1-1.4-0.2-2.1,0.1
			c-0.1,0-0.2,0-0.2,0c-0.2-0.3-0.5-0.1-0.8-0.2c-0.2-0.1-0.6-0.3-0.9-0.2c0.4-0.3,0.9-0.4,1.3-0.6c0.2-0.1,0.4-0.1,0.6-0.2
			C101.9,47.8,102.1,47.8,102.2,47.8z"/>
		<path class="st8" d="M109.1,51.5c0,0.2-0.1,0.3-0.3,0.3c-0.8,0.2-1.6,0.7-2.4,1c0.7,0.2,1.3,0.3,1.8,0.5c0.6,0.2,1.1,0.4,1.8,0.5
			c0,0.1,0,0.1,0,0.2c-0.7,0.4-1.4,0.5-2,1c0,0,0,0-0.1,0c-0.3-0.1-0.6,0.3-0.9,0.1c-0.3-0.1-0.6-0.2-0.9-0.3
			c-0.8-0.2-1.6-0.6-2.4-0.7c-0.1,0-0.1-0.2-0.2-0.1c0.3-0.4,0.8-0.2,1.1-0.6c0.5-0.1,1-0.4,1.4-0.6c1-0.3,1.9-0.7,2.8-1.2
			C108.8,51.4,109,51.5,109.1,51.5z"/>
		<path class="st8" d="M65.5,55.7c0.1,0,0.3-0.1,0.4,0.1c0.1,0.1,0.2,0.1,0.4,0.2c-0.4,0.1-0.8,0.4-1,0.7c0,0.1,0.2,0.1,0.1,0.3
			c0.2,0.1,0.4,0.2,0.7,0.4c0.3,0.1,0.7-0.1,1,0.1c0,0,0,0,0.1,0c0.7-0.2,1.5,0,2.2-0.4c0.1,0.1,0.3,0.1,0.4,0.2
			c-0.2,0.3-0.5,0.3-0.8,0.3c-0.4,0-0.8,0.2-1.3,0.2c-0.4,0-0.9,0-1.3,0c-0.4,0-0.8-0.1-1.2-0.2c-0.4-0.1-0.6-0.3-0.9-0.6
			c0-0.1,0-0.2,0-0.4c0.1-0.2,0.3-0.4,0.6-0.4c0-0.1-0.2-0.2-0.1-0.3C65,55.7,65.3,55.7,65.5,55.7z"/>
		<path class="st8" d="M62.8,55.3c0.2-0.2,0.6-0.3,0.9-0.3c0,0,0,0,0.1,0c0.2,0,0.8,0.2,1.1,0.4c0,0.1-0.1,0.1-0.2,0.1
			c-0.2,0-0.4,0-0.6,0c-0.2,0.1-0.4-0.3-0.7-0.1C63.2,55.2,63,55.3,62.8,55.3z"/>
		<path class="st8" d="M83,40C83,40,83,40,83,40c0.8-0.3,1.7-0.6,2.5-0.8c0.5-0.1,1-0.3,1.5-0.4c0.4-0.2,0.9-0.3,1.3-0.4
			c0.4-0.1,0.8-0.3,1.3-0.3c0.4,0,0.7-0.2,1-0.3c0.6-0.2,1,0,1.5,0.1c0.4,0.1,0.9,0.2,1.3,0.4c0.1,0.1,0.4,0.1,0.5,0
			c1-0.4,2-0.6,3-0.9c0.1,0,0.1-0.1,0.2-0.1c0.3,0.2,0.7,0.2,1,0.3c0.8,0.3,1.6,0.3,2.3,0.6c0.3,0.1,0.8,0.1,1.1-0.1
			c0.1,0.3,0.4,0,0.6,0.2c-0.1,0.1-0.1,0.1-0.2,0.1c-0.6,0.1-1.1,0.5-1.8,0.5c-0.1,0-0.1,0-0.1,0.1c-0.3-0.1-0.6,0.2-1,0.2
			c-0.3,0-0.6,0-1,0.1c-0.4,0.1-0.8,0.1-1.3,0.1c-0.3,0.1-0.6,0.3-1,0.2c-0.3,0.3-0.8,0-1,0.3c-0.4-0.1-0.7,0.1-1,0.2
			c-0.4,0.1-0.8,0-1.1,0.3c0-0.1-0.1-0.2-0.2-0.1c-0.2,0-0.4,0-0.6-0.1c-0.1,0-0.3,0.1-0.4-0.1c-0.2-0.2-0.5,0.1-0.7-0.2
			c-0.1,0.2-0.3,0.1-0.4,0.1c-0.6,0.3-1.2,0.3-1.8,0.6c-0.1,0-0.3,0.2-0.4,0.2c-0.5,0-1,0.2-1.4,0.4c-0.1,0-0.4-0.1-0.4,0.2
			c0,0.1,0.1,0.2,0.2,0.2c0.1,0,0.3-0.1,0.3,0.1c-0.7,0.2-1.4,0.3-2.2,0.5c-0.8,0.2-1.6,0.2-2.3,0.6c-0.6,0-1.2,0.2-1.8,0.3
			c-0.5,0.1-1.1,0.1-1.6,0.3c-0.3,0.1-0.7-0.1-0.9,0.2c-0.3-0.1-0.6,0.2-1,0.1c-0.3,0-0.6,0.2-0.9,0.2c-0.2,0.3-0.7,0-0.9,0.3
			c-0.6,0-1.2,0.3-1.9,0.3c-0.2,0-0.4,0.2-0.6,0.2c-0.2,0-0.4,0-0.6,0.1c-0.1,0.1-0.7-0.2-0.9-0.3c0.1,0,0.2-0.1,0.4-0.2
			c0.6-0.1,1.2-0.3,1.7-0.5c1.2-0.4,2.4-0.7,3.6-1.1c0.6-0.2,1.1-0.4,1.7-0.5c0.6-0.2,1.2-0.4,1.8-0.5c0.4-0.1,0.8-0.3,1.2-0.4
			c0.4-0.1,0.8-0.4,1.3-0.3c0.4-0.3,1-0.3,1.4-0.5c0.5-0.2,1-0.2,1.4-0.4c0.4-0.2,0.8-0.1,1.1-0.4c-0.7-0.2-1.4,0.2-2.1,0.1
			c-0.3,0.3-0.6,0.1-0.9,0.2C83.7,40,83.3,40,83,40z"/>
		<path class="st8" d="M105.6,38.4c-0.1-0.4-0.6-0.5-0.9-0.6c-0.3,0-0.6-0.2-1-0.2c-0.3,0-0.6,0-0.9,0c0.1-0.1,0.6-0.3,0.7-0.3
			c0.2,0,0.3-0.1,0.4-0.2c0.4-0.1,0.8,0,1.2,0.2c0.4,0.1,0.7,0.1,1.1,0.2c0.3,0.1,0.7,0.2,1.1,0.2c0,0,0,0.1,0.1,0.1
			c0,0.3-0.4,0-0.5,0.3C106.4,38.2,106,38.5,105.6,38.4z"/>
		<path class="st9" d="M89.5,40.9c0.1-0.3,0.5,0,0.6-0.3c0.5,0,0.9-0.2,1.3-0.4c0.2-0.1,0.5,0.1,0.6-0.2c0.2,0.1,0.4,0.2,0.6,0.1
			c0.1,0,0.2,0,0.2,0.1c-0.2,0-0.4,0-0.6,0.1c-0.2,0.1-0.4-0.1-0.6,0.1c-0.2,0.2-0.6-0.1-0.8,0.2C90.3,40.7,89.9,41,89.5,40.9z"/>
		<path class="st7" d="M73.8,35.1c0.1-0.4,0.5,0,0.6-0.3c0.7-0.1,1.3-0.3,1.9-0.5c0.7-0.2,1.5-0.4,2.2-0.5c0.7-0.2,1.5-0.4,2.2-0.5
			c0.7-0.1,1.3-0.3,1.9-0.5c0.7-0.2,1.4-0.4,2-0.5c0.9-0.2,1.8-0.5,2.7-0.7c0.5-0.1,1-0.2,1.5-0.3c0.5-0.1,1-0.2,1.5-0.4
			c0.2-0.1,0.4-0.1,0.6,0c0.6,0.2,1.3,0.4,2,0.4c0.1,0,0.2,0.2,0.3,0.2c0.3-0.2,0.6-0.2,0.9-0.3c0.4-0.1,0.7-0.2,1.1-0.3
			c0.4-0.1,0.8-0.2,1.1-0.3c0.2-0.1,0.6-0.1,0.7,0c0.3,0.2,0.7,0,1,0.3c0.4-0.1,0.7,0.2,1.1,0.1c0.3,0.3,0.7,0.1,1.1,0.3
			c0.4,0.2,0.9-0.1,1.3-0.2c0.2-0.1,0.4,0,0.6-0.1c0.1,0,0.2,0.1,0.3,0.1c0.7,0,1.3,0.3,2,0.3c0,0,0,0.1,0.1,0.1
			c-0.4-0.1-0.7,0.1-1.1,0.1c-0.4,0-0.8-0.1-1.1,0c-0.5,0.2-1.1,0.1-1.6,0.1c0-0.1-0.1-0.2-0.2-0.1c-0.4,0-0.8-0.1-1.2-0.2
			c-0.6-0.1-1.2-0.2-1.8-0.4c-0.2,0-0.4-0.1-0.6,0.1c0.9,0.2,1.7,0.4,2.5,0.5c0.2,0,0.2,0.2,0.4,0.2c0.1,0,0.4-0.1,0.4,0.1
			c-0.8-0.1-1.6,0.3-2.4,0.1c-0.3,0.2-0.6,0.2-0.9,0.1c-0.3,0-0.6,0.2-1,0.2c-0.3,0-0.6,0.1-0.9,0.2c-0.5,0.1-1,0.2-1.4,0.3
			c-0.9,0.2-1.8,0.4-2.7,0.4c-0.3,0.3-0.8,0-1.2,0.3c-0.4-0.1-0.8,0.2-1.3,0.1c-0.6,0.3-1.3,0.2-1.9,0.4c-0.7-0.1-1.4,0.2-2.1,0.3
			c-0.6,0.1-1.3,0.1-1.9,0.4c-0.4-0.1-0.8,0.2-1.2,0.1c-0.3,0-0.6,0.2-0.9,0.1c0.2-0.2,0.5-0.2,0.7-0.3c0.7-0.1,1.3-0.3,2-0.5
			c0.7-0.2,1.5-0.4,2.2-0.6c0.2-0.1,0.5-0.2,0.7-0.1c0.1-0.3,0.5,0,0.7-0.2c-0.8-0.2-1.5,0.2-2.2,0.1c-0.2,0.2-0.4,0.2-0.7,0.1
			c-0.3-0.1-0.5,0.2-0.7,0.2c-0.6-0.1-1.1,0.2-1.7,0.1c0,0-0.1,0-0.1,0c-0.2,0.3-0.5,0.1-0.8,0.1c-0.3,0-0.6,0.2-0.9,0.2
			c-0.5-0.1-1,0.2-1.5,0.1c-0.3,0.2-0.7,0-1,0.2c-0.3,0.1-0.6,0.1-1,0.1c-0.1,0-0.2,0-0.3,0c-0.3,0.3-0.7,0-1,0.2
			C74.5,35.1,74.1,35,73.8,35.1z"/>
		<path class="st7" d="M63.5,35.8c0.1-0.4,0.5,0,0.6-0.3c0.6,0,1.1-0.3,1.6-0.3c0.6-0.1,1.3-0.3,1.9-0.4c0.5-0.2,1.1-0.2,1.7-0.4
			c0.5-0.1,1-0.3,1.5-0.3c0.5-0.1,1-0.2,1.4-0.4c0.2-0.1,0.5-0.1,0.7-0.2c0.2,0,0.5-0.1,0.7-0.1c0.5,0,1-0.2,1.5-0.3
			c0.4-0.1,0.8-0.1,1.2-0.3c0.4-0.1,0.8-0.2,1.1-0.3c1.1-0.3,2.3-0.5,3.4-0.8c0.5-0.1,1-0.2,1.5-0.3c1.1-0.3,2.3-0.5,3.5-0.8
			c0.5-0.1,1-0.2,1.5-0.3c0.5-0.1,1-0.2,1.5-0.3c0.5-0.1,1-0.3,1.4-0.4c0.6-0.2,1.3-0.4,2-0.3c0.4,0.1,0.8,0.1,1.2,0.2
			c0,0,0,0,0,0.1c-0.6,0-1.1,0.3-1.6,0.4c-0.8,0.1-1.5,0.4-2.3,0.5c-0.7,0.1-1.3,0.4-2,0.5c-0.6,0.1-1.1,0.3-1.7,0.4
			c-0.7,0.1-1.3,0.3-1.9,0.5c-0.6,0.2-1.1,0.2-1.7,0.4c-0.9,0.2-1.7,0.4-2.6,0.6c-0.5,0.2-1.1,0.3-1.6,0.4c-0.7,0.2-1.4,0.4-2.1,0.5
			c-0.6,0.1-1.1,0.2-1.7,0.4c-0.7,0.2-1.3,0.3-2,0.5c-0.6,0.1-1.1,0.2-1.7,0.4c-0.7,0.2-1.3,0.4-2,0.5c-0.2,0.3-0.5,0-0.7,0.2
			c-0.1,0.1,0,0.2-0.1,0.4c-0.3,0-0.7,0.1-1.1-0.1c-0.3,0.3-0.7,0.1-1,0.1c-0.4,0-0.8,0-1.2,0C64.2,35.8,63.9,35.8,63.5,35.8z"/>
		<path class="st7" d="M59.8,74.4c0.3,0,0.5-0.2,0.7-0.3c0,0.2,0.4,0.1,0.4,0.4c-0.2,0.2-0.6-0.1-0.8,0.2
			C60.2,74.4,59.9,74.6,59.8,74.4z"/>
	</g>
	<use xlink:href="#SVGID_6_"  style="overflow:visible;fill:none;stroke:#202020;stroke-width:0.4799;stroke-miterlimit:10;"/>
</g>
</svg>
