<?xml version="1.0" encoding="utf-8"?>
<!-- Generator: Adobe Illustrator 20.1.0, SVG Export Plug-In . SVG Version: 6.00 Build 0)  -->
<svg version="1.1" id="Layer_1" xmlns="http://www.w3.org/2000/svg" xmlns:xlink="http://www.w3.org/1999/xlink" x="0px" y="0px"
	 viewBox="0 0 149 149" style="enable-background:new 0 0 149 149;" xml:space="preserve">
<style type="text/css">
	
		.st0{clip-path:url(#SVGID_2_);fill:none;stroke:#818181;stroke-width:0.2449;stroke-linecap:round;stroke-linejoin:round;stroke-miterlimit:10;stroke-dasharray:20.7424,1.7285,1.7285,1.7285;stroke-dashoffset:16;}
	
		.st1{clip-path:url(#SVGID_2_);fill:none;stroke:#818181;stroke-width:0.2449;stroke-linecap:round;stroke-linejoin:round;stroke-miterlimit:10;stroke-dasharray:20.7424,1.7285,1.7285,1.7285;stroke-dashoffset:1;}
	
		.st2{clip-path:url(#SVGID_2_);fill:none;stroke:#818181;stroke-width:0.2449;stroke-linecap:round;stroke-linejoin:round;stroke-miterlimit:10;stroke-dasharray:20.7424,1.7285,1.7285,1.7285;stroke-dashoffset:18;}
	
		.st3{clip-path:url(#SVGID_2_);fill:none;stroke:#818181;stroke-width:0.2449;stroke-linecap:round;stroke-linejoin:round;stroke-miterlimit:10;stroke-dasharray:20.7424,1.7285,1.7285,1.7285;stroke-dashoffset:8;}
	
		.st4{clip-path:url(#SVGID_2_);fill:none;stroke:#818181;stroke-width:0.2449;stroke-linecap:round;stroke-linejoin:round;stroke-miterlimit:10;stroke-dasharray:20.7424,1.7285,1.7285,1.7285;stroke-dashoffset:15;}
	
		.st5{clip-path:url(#SVGID_2_);fill:none;stroke:#818181;stroke-width:0.2449;stroke-linecap:round;stroke-linejoin:round;stroke-miterlimit:10;stroke-dasharray:20.7424,1.7285,1.7285,1.7285;stroke-dashoffset:10;}
	
		.st6{clip-path:url(#SVGID_2_);fill:none;stroke:#818181;stroke-width:0.2449;stroke-linecap:round;stroke-linejoin:round;stroke-miterlimit:10;stroke-dasharray:20.7424,1.7285,1.7285,1.7285;stroke-dashoffset:17;}
	
		.st7{clip-path:url(#SVGID_2_);fill:none;stroke:#818181;stroke-width:0.2449;stroke-linecap:round;stroke-linejoin:round;stroke-miterlimit:10;stroke-dasharray:20.7424,1.7285,1.7285,1.7285;stroke-dashoffset:-2;}
	
		.st8{clip-path:url(#SVGID_2_);fill:none;stroke:#010101;stroke-width:0.3404;stroke-linecap:round;stroke-linejoin:round;stroke-miterlimit:10;}
	.st9{clip-path:url(#SVGID_2_);}
	.st10{fill:#010101;}
</style>
<g>
	<defs>
		<circle id="SVGID_1_" cx="74.5" cy="74.5" r="72.6"/>
	</defs>
	<clipPath id="SVGID_2_">
		<use xlink:href="#SVGID_1_"  style="overflow:visible;"/>
	</clipPath>
	<line class="st0" x1="58.1" y1="75" x2="45.4" y2="76.5"/>
	<line class="st0" x1="61.5" y1="82.1" x2="48.8" y2="83.6"/>
	<line class="st0" x1="61.5" y1="82.1" x2="48.8" y2="83.6"/>
	<line class="st0" x1="64.8" y1="86.4" x2="52.1" y2="87.9"/>
	<line class="st0" x1="52.8" y1="101.9" x2="65.5" y2="100.3"/>
	<line class="st0" x1="52.1" y1="87.9" x2="64.8" y2="86.4"/>
	<line class="st0" x1="58.1" y1="75" x2="45.4" y2="76.5"/>
	<line class="st1" x1="94.1" y1="75.3" x2="96.5" y2="119.1"/>
	<line class="st2" x1="89.3" y1="68.6" x2="96.6" y2="62.2"/>
	<line class="st3" x1="76.9" y1="66.8" x2="47.5" y2="70.4"/>
	<line class="st0" x1="94.4" y1="37.9" x2="94" y2="51"/>
	<line class="st0" x1="94" y1="51" x2="94.4" y2="37.9"/>
	<line class="st4" x1="121.6" y1="72" x2="106.5" y2="68.1"/>
	<line class="st4" x1="120.8" y1="78" x2="105.7" y2="74"/>
	<line class="st4" x1="121.6" y1="72" x2="106.5" y2="68.1"/>
	<line class="st2" x1="89.3" y1="68.6" x2="96.6" y2="62.2"/>
	<line class="st5" x1="105.1" y1="43.7" x2="102.4" y2="63.8"/>
	<line class="st6" x1="99.7" y1="95.1" x2="100.3" y2="107.5"/>
	<line class="st7" x1="94.1" y1="75.3" x2="96.9" y2="126.1"/>
	<line class="st3" x1="76.9" y1="66.8" x2="47.5" y2="70.4"/>
	<line class="st6" x1="100.3" y1="107.5" x2="99.7" y2="95.1"/>
	<line class="st6" x1="86.5" y1="106.6" x2="85.8" y2="94.2"/>
	<line class="st6" x1="86.5" y1="106.6" x2="85.8" y2="94.2"/>
	<line class="st6" x1="83.2" y1="102.4" x2="82.5" y2="89.9"/>
	<line class="st6" x1="83.2" y1="102.4" x2="82.5" y2="89.9"/>
	<line class="st6" x1="68.9" y1="104.1" x2="68.2" y2="91.7"/>
	<path class="st8" d="M95.4,120l0.1,0l0.1,0l0.1,0l0.1,0.1l0.1,0.1 M95.3,120L95.3,120 M95.3,107.8L95.3,107.8 M81.7,107.4l4.9-0.6
		 M93.3,82.7h0.2l0.1,0l0.1,0l0.1,0L94,83 M93.3,82.7L93.3,82.7 M77.6,73.2l15.9-1.9 M93.5,71.3l0.8,1.1 M76.7,66.7l0.6,0.7
		 M69.3,68.8l0.7-0.1 M47.4,86l1.7-0.2 M69.2,68.8h0.1 M61.4,80.7l-0.6-10.8 M60.8,69.9l0.7,1 M46,71.7l0.7,0.9 M43.9,71.8l0.7-0.1
		 M43.7,71.8h0.1 M30.4,73.5l0.7-0.1 M30.4,73.5l0.8,1 M33.7,133.2l-3.2-59.7 M33.7,133.2l0.8,1 M34.5,134.2l-3.2-59.7 M34.6,134.2
		L34.6,134.2 M53.9,131.9L40,133.5 M82.6,128.4l-7.2,0.9 M97.2,126.7l-9.2,1.1 M97,121.6l0.2,5 M96.1,121h0.2l0.1,0l0.1,0l0.1,0.1
		l0.1,0.1l0.1,0.1l0,0.1l0,0.1 M95.3,120.3v0.1l0,0.1l0.1,0.1l0.1,0.1l0.1,0.1l0.1,0H96h0.1 M95,114.8l0.3,5.5 M95.7,113.9h-0.1
		l-0.1,0.1l-0.1,0.1l-0.1,0.1l-0.1,0.1l0,0.1l0,0.1v0.1 M96.5,113.1v0.1l0,0.1l0,0.1l-0.1,0.1l-0.1,0.1l-0.1,0.1l-0.1,0l-0.2,0
		 M96.3,109.2l0.2,3.8 M95.5,108.6h0.2h0.1l0.1,0l0.1,0.1l0.1,0.1l0.1,0.1l0,0.1l0,0.1 M94.6,107.9v0.1l0,0.1l0.1,0.1l0.1,0.1
		l0.1,0.1l0.1,0l0.1,0h0.1 M94.6,107.7v0.2 M81.8,108.5l8.5-1 M81,94l0.8,14.5 M93.8,92.5L81,94 M93.7,90l0.1,2.5 M94.4,89.1h-0.1
		l-0.1,0.1L94,89.3l-0.1,0.1l-0.1,0.1l0,0.1l0,0.2V90 M95.2,88.3v0.1l0,0.1l0,0.1L95,88.8l-0.1,0.1L94.7,89l-0.1,0l-0.2,0 M95,84.4
		l0.2,3.8 M94.1,83.7h0.2h0.1l0.1,0l0.1,0.1l0.1,0.1l0.1,0.1l0,0.1l0,0.1 M93.3,83.1v0.1l0,0.1l0.1,0.1l0.1,0.1l0.1,0.1l0.1,0l0.1,0
		h0.1 M93,77.6l0.3,5.5 M93.7,76.7l-0.1,0l-0.1,0l-0.1,0.1L93.2,77l-0.1,0.1l0,0.1l0,0.1v0.1 M94.5,75.8V76l0,0.1l0,0.1l-0.1,0.1
		l-0.1,0.1l-0.1,0.1l-0.1,0.1h-0.2 M94.3,72.4l0.2,3.5 M77.6,74.4l16.7-2 M77.3,67.4l0.4,7 M76.5,68.2v-0.1l0-0.1l0-0.1l0.1-0.1
		l0.1-0.1l0.1-0.1l0.1,0l0.2,0 M75.7,69.2l0.2,0l0.1,0l0.1-0.1l0.1-0.1l0.1-0.1l0-0.1l0-0.1v-0.2 M70.1,69.8l5.6-0.7 M69.3,69.2v0.1
		l0.1,0.1l0,0.1l0.1,0.1l0.1,0.1l0.1,0l0.1,0h0.1 M68.5,68.4h0.1l0.1,0l0.1,0l0.1,0.1l0.1,0.1l0,0.1l0,0.1l0,0.2 M64.5,68.9l3.9-0.5
		 M63.8,69.8v-0.1l0-0.1l0.1-0.1l0-0.1l0.1-0.1l0.1-0.1l0.1,0l0.1,0 M63.1,70.7l0.1,0l0.1,0l0.1-0.1l0.1-0.1l0.1-0.1l0-0.1l0-0.1
		v-0.2 M61.6,70.8l1.5-0.1 M62.1,81.4l-0.6-10.6 M47.5,87.1l2.4-0.3 M46.7,72.6l0.8,14.5 M44.7,72.8l2-0.2 M43.8,72.2l0,0.1l0,0.1
		l0.1,0.1l0.1,0.1l0.1,0.1l0.1,0l0.2,0l0.1,0 M43,71.5h0.1l0.1,0l0.1,0l0.1,0l0.1,0.1l0.1,0.1l0,0.1v0.1 M39.1,72l3.9-0.5
		 M38.4,72.8v-0.1l0-0.1l0-0.1l0.1-0.1l0.1-0.1l0.1-0.1l0.1,0l0.1,0 M37.6,73.7h0.1l0.1-0.1l0.1-0.1l0.1-0.1l0.1-0.1l0.1-0.1V73
		l0-0.1 M31.3,74.5l6.3-0.8 M97.1,124.1l1.9,0.1 M95.5,119.9L95.5,119.9l-0.1-0.2v-0.1 M93.4,94.1l-0.1-1.6 M98.1,62.2l0.3,0
		 M93.4,82.7L93.4,82.7l-0.1-0.2v-0.1 M92.8,71.4l0-1.1 M89.9,68L89.9,68 M87.6,70.3V70 M87.6,70.3l3.4,0.2 M87.6,70l2.3-2 M87.6,70
		l3.4,0.2 M100.8,107.3l0.4,7.7 M98.4,62.2l1.5,27.9 M98.1,63.2v-0.1V63l0-0.2v-0.1l0-0.1l0-0.1l0-0.1l0,0 M97.9,64.3L97.9,64.3
		l0.1-0.1l0-0.1l0-0.1l0-0.1v-0.2v-0.1v-0.1 M96.2,65.7l1.7-1.5 M95.8,65.3v0.1l0,0.1v0.1l0,0l0,0.1h0h0.1l0,0 M95.5,64.7L95.5,64.7
		L95.5,64.7l0.2,0l0,0.1v0l0,0.1l0,0.1v0.2 M93.8,66.2l1.7-1.5 M93.5,67.2v-0.1v-0.1v-0.2l0-0.1l0-0.1l0-0.1l0-0.1l0,0 M93.3,68.3
		L93.3,68.3l0.1-0.2l0-0.1l0-0.1v-0.1l0-0.1v-0.2v-0.1 M91,70.3l2.3-2 M91,70.5v-0.3 M96.1,69.9L91,70.5 M96.4,75.3l-0.3-5.4
		 M96.1,76.4L96.1,76.4l0.1-0.1l0-0.1l0-0.1l0-0.1v-0.2v-0.1v-0.1 M95.9,77.4v-0.2v-0.1v-0.1l0-0.1l0-0.1l0-0.1l0,0l0-0.1 M96.1,82
		l-0.2-4.6 M96.5,82.5L96.5,82.5L96.5,82.5l-0.2,0l0-0.1v0l0-0.1l0-0.1V82 M96.8,83.1v-0.1l0-0.1l0-0.1l0-0.1l0,0h0h0h0 M97,87.7
		l-0.2-4.7 M96.8,88.8L96.8,88.8l0.1-0.2l0-0.1l0-0.1l0-0.1v-0.1v-0.1v-0.2 M96.6,89.8v-0.1v-0.2v-0.1l0-0.1l0-0.1l0-0.1l0-0.1l0,0
		 M96.8,94.3l-0.2-4.5 M98.4,112.6l-0.2-4.6 M98.1,113.6L98.1,113.6l0.1-0.2l0-0.1l0-0.1l0-0.1v-0.1v-0.1v-0.2 M97.9,114.6v-0.1
		v-0.2v-0.1l0-0.1l0-0.1l0-0.1l0-0.1l0,0 M98.1,119.3l-0.2-4.7 M98.5,119.8L98.5,119.8L98.5,119.8h-0.2l0,0v-0.1l0-0.1l0-0.1v-0.1
		 M98.8,120.3v-0.1l0-0.1l0-0.1l0-0.1l0,0l0,0h0l0,0 M99,124.2l-0.2-3.9 M101.2,115l-2.2,9.3 M64.1,60.3l11.4-10.5 M30.4,71.4l0.2-7
		 M30.4,71.4l0.8,2.1 M30.5,64.4l33.5-4 M64.1,60.3l0.8,2.1 M30.5,64.4l0.8,2.1 M93.1,20.7l7.7-0.9 M100.8,19.8l0.8,2.1 M75.5,49.8
		l4.9-26.7 M80.9,23.2l0.4,1.1 M75.5,49.8l0.8,2.1 M37.9,72l0,0.1l0,0.1l0,0.1l-0.1,0.1l-0.1,0.1l-0.1,0l-0.1,0l-0.1,0 M38.7,71.3
		h-0.1l-0.1,0l-0.1,0.1l-0.1,0.1l-0.1,0.1L38,71.7l0,0.1V72 M43.5,70.7l-4.8,0.6 M44.3,71.2L44.3,71.2l0-0.2l-0.1-0.1L44,70.8
		l-0.1,0l-0.1,0h-0.1h-0.1 M45,71.8h-0.1h-0.1l-0.1,0l-0.1-0.1l-0.1,0l0-0.1l0-0.1v-0.1 M49.8,71.2L45,71.8 M50.6,70.4v0.1l0,0.1
		l-0.1,0.1L50.4,71l-0.1,0.1l-0.1,0l-0.1,0l-0.2,0 M51.4,69.7h-0.1l-0.1,0.1l-0.1,0L50.9,70l-0.1,0.1l0,0.1l0,0.1l0,0.1 M56.2,69.2
		l-4.8,0.6 M57,69.7L57,69.7l0-0.2l-0.1-0.1l-0.1-0.1l-0.1,0l-0.1,0h-0.1h-0.1 M57.8,70.3h-0.1h-0.1l-0.1,0l-0.1,0l-0.1-0.1l0-0.1
		l0-0.1v-0.1 M62.5,69.7l-4.8,0.6 M63.3,69L63.3,69l0,0.2l-0.1,0.1l-0.1,0.1L63,69.5l-0.1,0l-0.2,0.1h-0.1 M64.2,68.2l-0.1,0l-0.1,0
		l-0.1,0l-0.1,0.1l-0.1,0.1l0,0.1l0,0.1l0,0.1 M68.9,67.6l-4.8,0.6 M69.7,68.2l0-0.1l0-0.1l0-0.1l-0.1,0l-0.1-0.1l-0.1,0h-0.1h-0.2
		 M70.5,68.7h-0.2h-0.1l-0.1,0l-0.1,0l-0.1-0.1l0-0.1l0-0.1v-0.1 M75.2,68.1l-4.8,0.6 M76.1,67.4L76.1,67.4L76,67.7l0,0.1l-0.1,0.1
		L75.7,68l-0.1,0.1l-0.1,0h-0.1 M76.9,66.7l-0.1,0l-0.1,0l-0.1,0l-0.1,0.1L76.2,67l-0.1,0.1l0,0.1v0.1 M77.3,66.6l-0.4,0 M82.7,56.4
		l-5.4,10.2 M91.9,51.1l-9.2,5.3 M92.2,38l-0.4,13.1 M93.1,37.9L92.2,38 M93.3,30l-0.2,7.9 M96.8,29.6L93.3,30 M101.2,36.9l-3.3,0.4
		 M101.6,21.9l-0.4,15 M81.3,24.3l20.3-2.4 M76.3,51.9l5-27.6 M64.9,62.4l11.4-10.5 M31.4,66.5l33.5-4 M31.2,73.5l0.2-7 M37.1,72.8
		l-6,0.7 M93.1,21.8l-12.6,1.5 M93.1,21.8l0.1-2.9 M79.7,21.4l0-2.9 M80.4,23.2l-0.7-1.9 M80.4,23.2l0.1-2.9 M86.8,11.2l3.2-0.4
		 M79.8,18.5l7.1-7.3 M80.5,20.4l-0.8-1.9 M93.2,18.8l-12.6,1.5 M90,10.8l3.2,8 M92,50.8l2.9-0.3 M96.2,20.3l-2.8-7.1 M91.1,13.6
		l2.3-0.3 M93.1,20.7l3.1-0.4 M97.8,40.7l0.2-7.9 M94.3,41.1l3.5-0.4 M98.1,32.8l-1.2-3.2 M94.5,33.2l3.5-0.4 M92.3,40.3l0-2.4
		 M93.1,37.9l1.2,3.2 M94.3,41.1l0.2-7.9 M94.5,33.2L93.3,30 M91.9,50.5l0.1,0.3 M92,50.8l0.1-3.9 M92.1,46.9v-0.1v-0.1l0-0.1v-0.2
		l0-0.1V46l0-0.1 M92.2,40.6L92.2,40.6L92.2,40.6L92.2,40.6L92.2,40.6l0.1-0.1v-0.1 M122.3,69.7l0.4-12.6 M121,71.7l1.3-2 M99.6,38
		l-1.7-0.4 M97.9,53.1l8.2,6.1 M106.1,59.3l-0.2,8.5 M105.8,67.8l15.1,3.9 M121,71.7l0.4-12.7 M98.3,40l-0.4-0.1 M95.2,41l0,1.2
		 M95.2,42.2L95.2,42.2l-0.1,0.2l0,0.1l-0.1,0.1l-0.1,0l-0.1,0h-0.1l-0.1,0 M94.4,42.6h-0.1h-0.1H94l-0.1,0l-0.1,0.1l0,0.1l0,0.1
		l0,0.1 M93.6,43.1l-0.1,3.2 M93.5,46.3l0,0.1v0.1l0.1,0.1l0.1,0.1l0.1,0.1l0.1,0.1l0.1,0.1l0.1,0 M94.3,47.2l0.1,0l0.1,0.1l0.1,0.1
		l0.1,0.1l0.1,0.1l0,0.1l0,0.1v0.1 M95,48.1l-0.1,4.3 M94.8,52.3l3,0.8 M122.7,57.1L99.6,38 M98.3,40l1.3-2 M121.3,59l-23-19
		 M121.3,59l1.3-1.9 M122.2,72.2l-15.1-3.9 M105.7,69.5l1.4-1.2 M120.8,73.4l-15.1-3.9 M105.7,69.5l-0.6,4.4 M105.1,73.9l15.2,3.9
		 M121.6,76.6l0.6-4.5 M120.8,73.4l1.4-1.2 M120.2,77.8l0.6-4.5 M120.2,77.8l1.4-1.2 M105.8,69.3l-7.2-1.8 M122.3,77.8l-1.2,1
		 M122.3,77.8l0.5-3.6 M106,74.9l0.1-0.7 M121.2,78.8L106,74.9 M121.2,78.8l0.2-2 M122.1,72.9l0.7,1.3 M121.3,71.3l0.4,0.8
		 M103.7,61.2l2.4,0.6 M101.9,62.7l1.7-1.5 M105.9,65.6l-7.4-1.9 M109.3,68.9l0.1-0.1 M122.8,74.2l-1,0.9 M98.7,68l2.4,0.6
		 M98.5,63.7l1.7,0.4 M107.2,44.3l1.2,0.3 M88.2,67.6L88.2,67.6L88.2,67.6l-0.1-0.1v-0.1v-0.1l0-0.1 M88.1,67v-0.1v-0.1 M87.8,66.7
		l0.7-5.1 M87.8,66.7l3.3,0.9 M88.5,61.5l6.7-9.1 M88.5,61.5l3.4,0.9 M96.2,64.4L96.2,64.4L96.2,64.4h-0.1l0,0v-0.1v-0.1v-0.1v-0.1
		 M97.7,63.1l-1.4,1.2 M98.1,62.1l0,0.2v0.1l0,0.1l0,0.1l-0.1,0.1l0,0.1l0,0.1l0,0 M98.4,61.2L98.4,61.2l-0.1,0.1l0,0.1l0,0.1l0,0.1
		l0,0.1l0,0.1v0.1 M99.2,60.6l-0.7,0.6 M100.2,64.2l-1.1-3.6 M101.9,62.7l-1.7,1.5 M101.1,68.7l0-0.5 M101.6,68.2l-0.5,0.4
		 M108.4,44.6l-0.1,0.6 M108,45l0.4-0.3 M91.8,62.4l6.5-8.9 M91.1,67.5l0.7-5.1 M91.2,67.4l-0.1,0.1 M91.4,67.9v-0.1v-0.1v-0.1v-0.1
		l0,0h0h0h0 M91.6,68.4L91.6,68.4L91.6,68.4l-0.1,0l0-0.1v0v-0.1V68v-0.1 M93.1,67.2l-1.4,1.2 M93.4,66.2l0,0.1l0,0.1v0.1l-0.1,0.1
		l0,0.1l0,0.1l0,0.1l0,0.1 M93.8,65.2L93.8,65.2l-0.1,0.1l0,0.1l0,0.1l0,0.1l0,0.1l0,0.2v0.1 M95.8,63.4l-2,1.8 M96,63.9v-0.1l0-0.1
		l0-0.1v-0.1l0,0l0,0h0l0,0 M173.4-15.6l2.6-0.6 M179.4-15.4l-3.4-0.9 M172.1-15.3l0.2-0.6 M176.1-14.9l-3.7-1 M175.8-14.2l-0.2,0
		 M169.4-14.7l3-0.7 M172.3-15.4l3.4,0.9 M164.4,12.2l-0.2,0 M161.5,19.6l0.2,0 M167.4-2.5l-0.2,0 M164.8,0.2l-0.2,0 M162.9,15
		l0.2,0 M164.7,0.3l-0.2,0 M157.9,28.4l0.2,0 M146,64.4l-3.2-3.8 M149.4,65.3l-3.4-0.9 M163.2,2.5l-0.2,0 M160.8,14.9l-0.2,0
		 M164.6,9.2l-0.1,1.2l-0.3,1.8 M164.3,4.7l0.1,0.9l0.1,1.6l0.1,1.4V9v0.1v0 M164.2,2.8l0.1,1.3l0,0.6 M160.6,14.9l-2.5-0.5
		 M162.9,15l-2.3-0.1 M164.2,12.2l-1.3,2.8 M157.5,13.7l-0.2,0 M158.6,10.3l-0.2,0 M160.9,4.1l-0.2,0 M155.3,32.3l0.2,0 M157.9-7.1
		l11.4-7.6 M172.7-13.9l-3.4-0.9 M157.3,14.8l-0.2,0 M142.9,60.6l-2.4-3.7 M146.2,61.4l-3.4-0.9 M155.4,16.3l-0.2,0 M158.6,7.4
		l-0.2,0 M151.1,34.5l0.2,0 M140.5,56.8l-0.8-1 M143.8,57.7l-3.4-0.9 M151.9,19l0.2,0 M155.7,6.5l-0.2,0 M151,20.8l-0.2,0
		 M154.8,3.9l-0.2,0 M142.5,49.1L142.5,49.1 M141,55.5l-0.5-0.1 M158.8,5.2l1.9-1.2 M160.7,4l2.3-1.6 M163,2.5l1.6-2.2 M164.6,0.2
		L164.6,0.2 M167.2-2.6l-2.6,2.7 M170.5-6.7l-0.6,0.8L169-4.8l-1.8,2.3 M173.8-11l-0.7,0.9L172-8.7l-0.9,1.2l-0.7,0.9 M175.6-14.3
		l-0.8,1.5l-0.6,1.1l-0.3,0.6l0,0.1h0 M175.7-14.5l-0.1,0.2 M172.7-13.9l3-0.7 M161.3-6.3l11.4-7.6 M152.1-2.1l5.8-5 M154.9-0.7
		l6.4-5.6 M161.3-6.3l-3.4-0.9 M151.1,18.7l-0.2,0 M154.6,2.8l-0.2,0 M149.3,24.4l-0.2,0 M141.8,49l-0.2,0 M151.6,12.7l-0.2,0
		 M141.8,45.3l0.2,0 M142.9,40.8l-0.2,0 M143.3,38.1l-0.2,0 M144.2,33.9l-0.2,0 M150.9-2.4l-1.3,2.5 M154.7-1.4l-3.7-1 M146.5,27.6
		l-0.2,0 M144.5,40.1l-0.8,1.1l-0.3,0.4 M146.9,36.9l-1.3,1.6l-0.5,0.7l-0.5,0.8 M151.1,34.5L150,35l-1.2,0.6l-1.1,0.6l-0.4,0.3
		l-0.5,0.4 M155.3,32.3l-2.4,1.2l-1,0.5l-0.9,0.4 M157.9,28.4l-1.4,2.2l-1.2,1.7 M160,24l-1.2,2.5l-0.9,2 M161.5,19.6l-0.8,2.5
		l-0.4,1.1l-0.2,0.5L160,24 M162.2,17.1l-0.7,2.4 M150,13.1l-0.2,0 M140.8,48.9l-0.2,0 M151.9,3.6l-0.2,0 M157.1,14.7l0.3-1.1
		 M157.4,13.6l1.1-3.4 M158.5,10.3l0.4-3.1 M155.5,6.4l2.8,0.9 M154.6,3.9l1,2.5 M154.4,2.8l0.2,1.1 M154,1.5l0.4,1.3 M147.5,12.7
		l2.3,0.3 M149.8,13l1.6-0.4 M155.2,16.2l-2.1,0.9 M157.1,14.7l-1.8,1.5 M143.8,57.7l-2.3-2.7 M146.2,61.4l-2.4-3.7 M149.4,65.3
		l-3.2-3.8 M155.3,60.1l-5.9,5.1 M158.4,55.4l-0.5,0.8l-0.8,1.2l-0.9,1.2l-1,1.5 M162.8,48.1l-0.6,1.1l-0.9,1.5l-1,1.7l-1.1,1.8
		l-0.7,1.2 M167.1,41.8l-0.6,0.9l-0.9,1.2l-1,1.3l-1.2,1.7l-0.6,1 M172.3,32L172.3,32l-0.1,0.2l-0.1,0.2l-0.3,0.6l-0.7,1.4l-1.7,3.1
		l-1,1.8l-0.9,1.5l-0.5,0.9 M178.4,19.5l-0.2,0.5l-0.4,0.8l-0.9,1.9l-2.1,4.2l-1,2l-0.9,1.7l-0.5,1l-0.1,0.3l0,0.1v0 M182.1,8.8
		L182,9.4l-0.2,0.8l-0.6,1.7l-1.2,3.4l-0.7,1.9l-0.6,1.5l-0.3,0.8 M184.1-2.2l0,0.4L184-1.1l-0.2,1.5l-0.6,3.5L182.7,6l-0.3,1.7
		l-0.2,1.2 M185.2-10l-0.5,3.4l-0.3,2.4l-0.1,1.3l0,0.6 M182-13.1l3.1,3.2 M179.4-15.4l2.6,2.2 M176.2-14.6l3.2-0.7 M145.2,3.9
		l4.8-4.1 M153.3,0.6L150-0.3 M148.7,9.4l-0.2,0 M144.6,30.5l-0.2,0 M138.3,48.6l-0.2,0 M146.2,12.9l0.2,0 M134.5,50.2l-0.2,0
		 M140.8,33.1l-0.2,0 M142,18.4l-0.2,0 M137.1,12.6l8.1-8.7 M148.6,4.7l-3.4-0.9 M133,45.9l-0.2,0 M135.3,36.6l-0.2,0 M130.1,48.2
		l-0.2,0 M132.5,37.3l-0.2,0 M144.1,33.9l-0.9,4.2 M144.1,32.7v1.2 M132.8,45.8l-2.1,0.2 M138.1,48.6l-3-0.5 M140.6,48.8l-2.5-0.2
		 M141.6,49l-1-0.1 M141.6,49l0.4-3.6 M142.8,40.8l-0.9,4.6 M143.1,38l-0.4,2.7 M138,24.3l-0.2,0 M130.3,41.7l-0.2,0 M130.7,38.7
		l-0.2,0 M130.8,38.3l0.2,0 M130.8,38l-0.2,0 M151.9,19l-1.1,1.7 M150.9,18.7l1,0.3 M150.6,14.9l0.3,3.7 M132.3,37.3l-0.6,0.3
		 M135.1,36.5l-0.1,0.1l-0.2,0l-0.6,0.2l-0.8,0.2l-1,0.2 M140.5,33l-1.7,1.1l-1.4,0.9l-1.1,0.7l-0.8,0.6l-0.4,0.2 M144.4,30.5
		l-3.9,2.6 M146.3,27.5l-1.8,2.9 M149.1,24.3l-2.8,3.2 M150.8,20.7l-1.7,3.6 M124.2,57.1l-2.4-2.2 M127.5,57.9l-3.4-0.9 M129.4,45.7
		l-0.2,0 M127.6,22.6l9.5-10 M140.5,13.5l-3.4-0.9 M121.7,54.8l-2.2-0.7 M125,55.7l-3.3-0.9 M120.5,30.3l7.1-7.7 M131,23.5l-3.4-0.9
		 M120.6,46.3l0.2,0 M116,32.7l4.5-2.4 M123.9,31.2l-3.4-0.9 M109.8,38l6.2-5.4 M119.4,33.5l-3.4-0.9 M107.2,41.6l2.6-3.6
		 M113.2,38.9l-3.4-0.9 M163.2,16.5l-1,3.5 M163.2,16.5l1.8-3.8 M165,12.7l0.4-3l0.1-1.5 M165.6,8.1V6.7L165.5,5l-0.1-1.3l0-0.5
		 M165.3,3.2l0-0.7l-0.1-1 M165.2,1.5l2.1-2.2 M167.3-0.6l1.2-1.5l1-1.2l1.1-1.3 M170.5-4.7l1-1.2l1.1-1.5l0.8-1.1l0.3-0.4 M173.8-9
		l0.5-0.7l0.6-1l1.3-2.5 M176.1-13.1l0.3-1 M176.1-14.9l0.4,0.8 M175.8-14.2l0.2-0.7 M174-10.9L174-10.9l0.1-0.1l0.1-0.3l0.4-0.7
		l1.2-2.2 M170.7-6.6l0.9-1.2l1.1-1.5l0.8-1l0.5-0.6 M167.4-2.5l1.2-1.5l1-1.2l1.1-1.3 M164.8,0.2l2.6-2.7 M164.7,1.2l0.1-1
		 M164.7,0.3l0,0.9 M164.7,0.3l-1.6,2.2 M163.2,2.5l-2.3,1.6 M160.9,4.1l-1.1,0.7 M159.8,4.8L159,5.2 M159,5.2l-2.6-0.8 M156.4,4.4
		l-0.9-2.3 M155.5,2.1l-0.2-1.1 M155.3,1.1l-0.7-2.5 M154.7-1.4l-2.7,5 M151.9,3.6l-1.3,2.3l-1,1.7l-0.5,1l-0.4,0.9 M148.7,9.4
		l-0.1,0.3l-0.2,0.3l-0.5,0.9l-1.4,2.1 M146.4,13l-2,2.4l-1.4,1.7l-0.7,0.9l-0.3,0.3 M142,18.4l-0.1,0.1l-0.1,0.2l-0.2,0.3l-0.8,1.2
		l-1.2,1.7l-1.4,2.2 M138,24.3l-2.2,3.4l-1.5,2.4l-0.8,1.2l-0.2,0.3l0,0.1 M133.2,31.6l-0.2,0.5l-0.2,0.5l-0.2,0.7l-0.3,0.8
		l-0.6,1.7l-0.8,2.2 M131,38.4l-0.2-0.4 M130.7,38.7l0.4-0.3 M130.7,38.7l-0.4,3 M130.3,41.7l-0.9,4 M129.4,45.7l-2,0.8l-1.4,0.5
		l-0.7,0.3l-0.3,0.1 M124.9,47.3l-0.3-0.1l-0.7-0.2l-1.3-0.4l-0.6-0.1l-0.6-0.1h-0.2H121l-0.2,0.2 M120.8,46.4l-0.2,0l-0.3,0
		l-0.7,0.1h-1.4h-0.6H117l-0.3,0h-0.1 M116.5,46.5h-0.2l-0.3,0l-0.6,0.1l-0.7,0.1l-1.6,0.3l-1.9,0.4 M116,48.6h-0.2l-0.4,0.1
		l-1.2,0.2l-1.1,0.2 M120.6,48.3l-0.3,0.2l-0.4,0.1l-0.5,0l-1.5,0h-0.9h-0.6l-0.3,0 M124.4,49.4L124.4,49.4l-0.4-0.1l-0.4-0.1
		l-1.2-0.4l-1.2-0.3l-0.3,0h-0.2 M129.4,47.6l-1.6,0.6l-1.2,0.4l-1,0.4l-0.8,0.2l-0.1,0l-0.1,0 M129.4,47.4l0,0.2 M129.4,47.4
		l0.7,0.8 M130.1,48.2l2.3-0.2 M132.4,48l2.1,2.2 M134.5,50.2l3.2,0.6 M137.8,50.8l2.5,0.2 M140.3,51l1.2,0.2 M141.6,51.2l-0.6,4.3
		 M141.7,54.8l-0.8,0.7 M142.5,49.1l-0.8,5.7 M142.5,49.1L142.5,49.1 M143,44.2l-0.5,4.9 M144.8,41.6l-0.5,0.8l-0.5,0.7l-0.8,1.1
		 M147,38.8l-1.2,1.5l-0.5,0.6l-0.5,0.7 M150.8,36.6l-1.1,0.5l-1.1,0.6l-0.9,0.5l-0.9,0.6 M155.3,34.4l-2.5,1.3l-1,0.5l-1,0.4
		 M158.2,30.1l-1.6,2.4l-1.2,1.9 M160.3,25.5l-1.2,2.6l-0.5,1.1l-0.5,1 M162.2,20l-1,3.2l-0.4,1.2l-0.5,1.1 M160.2,17.1l2.2,0
		 M162.4,17.1l-0.7,2.5 M161.7,19.6l-0.8,2.5l-0.4,1.1l-0.1,0.5l-0.1,0.3 M160.2,24l-1.2,2.5l-0.9,2 M158.1,28.5l-1.4,2.2l-1.2,1.7
		 M155.5,32.4l-2.4,1.2l-1,0.5l-0.9,0.4 M151.3,34.5l-1.2,0.5l-1.2,0.6l-1.1,0.6l-0.4,0.2l-0.4,0.4 M147.1,37l-1.3,1.6l-0.5,0.7
		l-0.5,0.8 M144.7,40.1l-0.8,1.1l-0.6,0.8 M143.4,42l0.3-1.7 M143.7,40.3l0.4-2.6 M144.1,37.7l1-4.6 M145.1,33.1v-1.7 M145.1,31.5
		l1.3-2.1 M146.4,29.4l2.9-3.3 M149.3,26.1l1.8-3.8 M151.1,22.3l1.9-3 M153,19.3l2.1-1 M155.1,18.4l2.3-1.9 M157.4,16.5l2.9,0.6
		 M142.2,45.2L142.2,45.2l-0.1,0.2 M142.2,45.2l-0.4,3.8 M140.8,48.9l1,0.1 M138.3,48.6l2.5,0.2 M135.2,48.1l3.1,0.6 M133,45.9
		l2.2,2.2 M130.7,46.1l2.3-0.2 M130.1,45.4l0.6,0.6 M131,41.3l-0.9,4.2 M131.2,39.8l-0.2,1.4 M131.2,39.8l0.9-0.4 M132,39.4l1.3-0.3
		l0.9-0.2l0.4-0.1l0.3-0.1 M135,38.6L135,38.6l0.2-0.1l0.4-0.3l1.2-0.8l1.6-1l2-1.2 M140.5,35.2l3.8-2.6 M144.2,33.9v-1.3
		 M143.3,38.1l0.9-4.2 M142.9,40.8l0.4-2.7 M142,45.4l0.9-4.6 M163.1,15l1.3-2.8 M160.8,14.9l2.3,0.1 M158,14.4l2.7,0.6 M158.1,14.1
		l0,0.2 M159.4,10.3l-1.3,3.8 M159.8,6.5l-0.5,3.8 M160.5,6.2l-0.7,0.4 M163,4.5l-2.4,1.7 M164.4,2.5l-1.4,2 M164.5,4.7l0-0.9
		l-0.1-1.3 M164.8,9.2L164.8,9.2L164.8,9.2V9l0-0.3V8l-0.1-1.5l0-1.2l-0.1-0.6 M164.4,12.2l0.3-2.2l0.1-0.8 M157.5,13.7l-0.3,1.1
		 M155.4,16.3l1.8-1.5 M153.4,17.2l2.1-1 M153.4,17.2l-1.5-0.5 M151.9,16.7l-0.3-4 M151.6,12.7l-1.6,0.4 M150,13.1l-2.4-0.3
		 M149.1,10.1l-0.3,0.7l-0.3,0.6l-0.8,1.2 M152,5.1l-1.2,2.1l-0.9,1.5l-0.5,1l-0.2,0.4 M154.1,1.2L152,5.1 M154.6,2.8l-0.4-1.6
		 M154.8,3.9l-0.2-1.1 M155.7,6.5l-0.9-2.5 M158.6,7.4l-2.8-0.9 M159.1,7l-0.6,0.3 M159.1,7l-0.5,3.3 M158.6,10.3l-1.1,3.4
		 M152.1,19.1l-1-0.3 M151,20.8l1.1-1.7 M149.3,24.4l1.7-3.6 M146.5,27.6l2.8-3.2 M144.6,30.5l1.8-2.9 M140.8,33.1l3.8-2.6
		 M135.3,36.6l0.3-0.2l0.6-0.4l1-0.6l1.5-1l2.1-1.3 M132.5,37.3l1.2-0.2l0.9-0.2l0.5-0.1l0.1-0.1 M131.6,37.7l0.9-0.4 M133.2,33.3
		l-0.2,0.6l-0.4,1.1l-1,2.7 M138,25.9l-2.1,3.3l-1.5,2.3l-0.8,1.2l-0.4,0.6 M141.8,20.3l-0.2,0.2l-0.3,0.5l-0.8,1.2l-1.1,1.6l-1.4,2
		 M146.2,14.9l-2,2.4l-1.4,1.7l-0.7,0.8l-0.3,0.3 M147,14.8l-0.8,0.1 M149.5,15.2l-2.4-0.3 M150.8,14.9l-1.3,0.3 M151.1,18.7
		l-0.3-3.8 M105.1,42.6l1-1.2 M109.3,42.2l-3.3-0.9 M140.8,55.2l-0.5,0.2 M140.8,55.2l0.6-4.1 M134.4,50.1l-2.1-2.2 M129.9,48.1
		l-0.6-0.6 M124.2,49.4L124.2,49.4l-0.4-0.1l-0.4-0.1l-1.2-0.4l-0.8-0.2 M116.3,46.5h-0.1l-0.4,0l-0.5,0.1l-0.7,0.1l-1.6,0.3
		l-1.8,0.4 M120.6,46.3l-0.2,0l-0.3,0l-0.7,0.1H118h-0.7h-0.5l-0.3,0h-0.1 M121.9,46.3L121.9,46.3l-0.7-0.1H121h-0.2l-0.2,0.2
		 M129.2,45.6l-2,0.8l-1.4,0.5l-0.7,0.3l-0.3,0.1 M129.2,45.6l0.8-4 M130,41.6l0.4-3 M130.8,38.3l-0.4,0.3 M130.6,37.9l0.2,0.4
		 M130.6,37.9l1-2.7l0.7-1.9l0.2-0.7l0.2-0.5l0.3-0.5 M133.1,31.6L133.1,31.6l0.2-0.3l0.4-0.6l1.1-1.6l1.3-2.2l1.8-2.7 M137.9,24.2
		l1.8-2.7l1.2-1.9l0.4-0.6l0.3-0.4l0.2-0.2 M141.8,18.3l0.2-0.2l0.4-0.4l1-1.2l1.2-1.5l1.6-2 M146.2,12.9l1-1.4l0.7-1.1l0.4-0.7
		l0.2-0.3 M148.5,9.3l0.3-0.8l0.4-0.8l0.6-1l0.9-1.4l1.1-1.8 M151.7,3.5l1.6-2.9 M148.6,4.7l4.8-4.1 M140.5,13.5l8.1-8.7 M131,23.5
		l9.5-10 M123.9,31.2l7.1-7.7 M119.4,33.5l4.5-2.4 M113.2,38.9l6.2-5.4 M110,43.2l3.2-4.3 M109.3,42.2l0.6,1 M107.7,44.4l1.7-2.2
		 M120.1,54.2h-1 M125,55.7l-4.9-1.5 M127.5,57.9l-2.5-2.2 M136.7,57.3l-9.2,0.6 M140.3,55.4l-3.6,1.9 M46.2,62.5l0.1-2.2 M59,58.7
		l0.8,2.1 M46.3,60.3L59,58.7 M46.3,60.3l0.8,2.1 M47.1,62.4l12.7-1.5 M99.9,90.1l-3.2,2.8 M103.2,90.4l-3.4-0.2 M103.2,90.4
		l-3.2,2.7 M96.7,92.9l0.1,1.4 M100.1,93.1l-3.4-0.2 M107.3,103l-5,4.4 M106.6,90.6l0.7,12.4 M101.6,94.9l5-4.3 M103.2,90.4l3.4,0.2
		 M98.2,94.7l5-4.3 M102.3,107.4l-0.7-12.4 M98.2,94.7l3.4,0.2 M99.8,107.2l2.4,0.2 M84.6,106.6l-2.7-3.5l-0.4,0 M83.9,94.2
		l0.7,12.4 M86.6,106.4l-2.1,0.2 M83.5,93.7l0.4,0.5 M87.4,93.8l-3.5,0.4 M87,93.3l0.4,0.5 M58.5,74.4l2.7,5.8 M61.3,80.2l-12.7,1.5
		 M49,84.8l-0.4,0 M61.3,80.7v-0.5 M48.6,81.7l-1.5-3.2 M48.6,84.8l-1.3-2.7 M48.6,84.8v-3.1 M48.8,82.2l12.7-1.5 M61.6,80.7
		l2.9,3.8 M64.5,84.5L51.8,86 M64.6,86.9l-0.1-2.4 M51.8,86l-2.9-3.8 M49,85.6l-0.2-3.4 M52,89.4L49,85.6 M52,89.4L51.8,86
		 M56.7,101.2l-3.6,0.4 M65.2,87.7l0,0.7 M53.2,101.7l-0.7-12.4 M52.3,100.6l-0.7-12.4 M52.3,100.6l0.8,1.1 M52.5,89.2l12.7-1.5
		 M64.6,86.9l0.6,0.8 M51.7,88.2l0.8,1.1 M99.8,107.2L99,108 M98.3,95.6L99,108 M86.7,107.2L86,94.8 M99,108l-12.3-0.8 M86,94.8
		l12.3,0.7 M99.5,94.5l-1.2,1.1 M87.2,93.7l12.3,0.7 M87.2,93.7L86,94.8 M45.5,58.2l-0.1,4.4 M58.5,74.4l0.1-4.3 M46.3,60.3
		l-0.1,2.2 M58.2,56.7l-12.7,1.5 M46.3,60.3l-0.8-2.1 M59,58.7l-12.7,1.5 M59,58.7l-0.8-2.1 M59.6,386.6l23.2-2.8 M82.9,383.8
		l1.2-0.1h1.1l1,0.1 M85,388.7l4.1,1.2 M85,388.7l-0.2-3.4 M62.2,392.8l1.2-1.5 M63.5,391.3l-0.1-3.4 M46,396.9l-4.9-6.3
		 M41.1,390.6l-0.2-3.5 M51,396.3l-5,0.6 M46,396.9l-0.2-3.4 M101.7,394l-41.3,5 M101.7,394l-0.2-3.4 M91.2,377.3l2.7,3.5
		 M59.4,381.2l31.8-3.8 M40.9,387.2l5-0.6 M45.8,393.5l-4.9-6.3 M50.8,392.9l-5,0.6 M101.5,390.6l-41.3,5 M98.8,387.1l2.7,3.5
		 M92.3,387.6l0.6,0.2l0.4,0.3l0,0.4l-0.2,0.3l-0.5,0.3l-0.7,0.3l-0.9,0.2l-1.1,0.2 M90,389.9l-24.6,2.9 M65.5,392.8l-1.1,0.1h-1.1
		l-1-0.1l-0.9-0.1l-0.7-0.2l-0.4-0.3l-0.1-0.3l0.1-0.3 M60.3,391.4l3-3.5 M63.3,387.9l-3.7-1.1 M59.4,383.2l23.2-2.8 M82.7,380.4
		l1.2-0.1h1.1l1,0.1l0.9,0.1l0.7,0.3l0.4,0.3l0.1,0.3l-0.1,0.3 M87.9,381.8l-3,3.5 M84.8,385.3l7.5,2.3 M41.8,375l-1-17.7 M41.8,375
		l0.8,1.1 M78,328.8l2.4,3.7 M36.2,271.5l5-0.6 M37.3,292.2l-1.1-20.7 M36.2,271.5l0.8,1.1 M37.3,292.2l0.8,1.1 M94.5,222.8l0.9-0.1
		 M95.4,222.8l0.8,1.1 M33.9,230.1l5-0.6 M35.1,250.8l-1.2-20.7 M33.9,230.1l0.8,1.1 M35.1,250.8l0.8,1.1 M90.9,181.7l2.2-0.2
		 M93.1,181.4l0.8,1 M48.4,190l0.2,0.4 M48.4,190l0.2,0.3 M31.7,188.8l4.9-0.6 M32.8,209.5l-1.1-20.7 M31.7,188.8l0.8,1 M32.8,209.5
		l0.8,1 M30.5,168.1l-1.1-20.7 M30.5,168.1l0.8,1.1 M90.9,140l0.8,1.1 M88.7,140.3l2.2-0.2 M77.9,141.6l5.4-0.6 M40.7,146.1
		l12.1-1.5 M29.4,147.4l5.9-0.7 M29.4,147.4l0.8,1.1 M78.2,328.8l2.3,3.5 M91.7,141.1l1.1,20.6 M88.7,141.4l3-0.3 M78.2,142.7
		l5.2-0.7 M40.8,147.2l11.9-1.4 M30.3,148.5l5.1-0.6 M31.4,169.2l-1.1-20.7 M36.5,168.5l-5.1,0.6 M32.5,189.8l5-0.6 M33.6,210.5
		l-1.2-20.7 M38.7,209.9l-5.1,0.6 M34.7,231.2l5-0.6 M35.8,251.9l-1.1-20.7 M40.9,251.3l-5.1,0.6 M37,272.6l4.3-0.5 M38.1,293.3
		L37,272.6 M39.3,293.1l-1.2,0.2 M42.5,376l-1-18.9 M47.6,375.4l-5.1,0.6 M96.2,223.8l0.5,9.7 M94.7,224l1.4-0.2 M95.1,203.1l-3,0.4
		 M93.9,182.4l1.2,20.7 M91,182.8l2.9-0.4 M84.3,162.8l0.8,13.9 M84.5,162.7l-0.2,0 M92.8,161.7l-2.9,0.4 M46.4,214.6l-1.2-22.2
		 M45.2,192.5l-0.1-0.8l0.2-0.8l0.5-0.6l0.7-0.4l0.8-0.1l0.8,0.1l0.5,0.3 M49,167l1.8-0.2 M49.6,179.7l-4-6.1 M45.6,173.6l-0.4-1
		l-0.2-1l0.1-1.1l0.4-1l0.6-1l0.9-0.7l1-0.5L49,167 M41.6,375.1l-1.3,0.1 M47.8,377.4l-0.9,0.1 M60.6,404.2v0.8v0.7l0,0.6l-0.1,0.4
		l-0.1,0.3l-0.1,0.2h-0.1 M55.1,392.5l-1.3,0.1 M58.9,373.6l1.7,30.6 M41.1,253.2l-0.9,0.1 M55.7,334.2l0.5,0.9 M55.7,334.2
		l-3.5,0.4 M57.2,341l0.1,3.9l0.1,3.9l0.1,4l0.2,4.1L58,361l0.3,4.2l0.3,4.2l0.3,4.3 M58.9,373.6l-3.5,0.4 M56.2,335.1l0.2,0.5
		l0.2,0.6l0.2,0.7l0.1,0.8l0.1,0.8l0.1,0.9l0.1,0.8v0.8 M38.8,211.9l-0.9,0.1 M36.7,172.2l-1,0.1 M31.2,88.1l-1.9,0.2 M37.9,94.5
		l7.3,134.2 M35.8,91.8l2.1,2.7 M37.9,94.5l-3.5,0.4 M35.8,91.8l-3.5,0.4 M46.9,377.5l-0.1-2 M46.6,356.5l1.2,22.1 M47.8,378.7
		l-0.9-1.2 M41.2,271l0.1,0.2 M37.9,212l-0.1-2 M36.6,188.2l1,1.2 M37.6,189.4l1.2,23.8 M38.9,213.2l-0.9-1.2 M33.7,133.2l0.1,0.8
		l0.1,0.8l0.1,0.6l0.2,0.4l0.2,0.1l0.1-0.2l0.1-0.5l0-0.7 M31.4,91l2.3,42.2 M29.3,88.3l2.1,2.7 M32.5,147l-3.2-58.7 M34.7,188.4
		l-1.1-19.5 M37,229.8l-1.1-19.6 M39,266.9l-0.9-15.3 M38.9,271.2l0-4.3 M38.8,299l0-5.8 M41.7,377.1l-1.1-19.8 M40.3,375.2l1.4,1.8
		 M39.5,361.4l0.8,13.9 M37.6,351l0-3.9l-0.1-4l-0.2-4l0-0.6 M39.3,381.7L37.6,351 M40.5,387.1l-0.2-0.3l-0.2-0.4l-0.2-0.6l-0.2-0.7
		l-0.1-0.8l-0.1-0.8l-0.1-0.9l0-0.8 M41,387.7l-0.5-0.6 M56.3,407.5l-8.4-10.8 M57.1,404.6l0,0.8l0,0.7l0,0.5l-0.1,0.5l-0.1,0.3
		l-0.1,0.1h-0.2l-0.2-0.1 M55.4,374l1.7,30.6 M53.7,341.4l0.1,3.8l0.1,4l0.1,4l0.2,4.1l0.2,4.1l0.3,4.2l0.3,4.2l0.3,4.2 M52.7,335.5
		l0.2,0.4l0.2,0.6l0.2,0.7l0.1,0.8l0.1,0.9l0.1,0.9l0.1,0.8v0.8 M52.2,334.7l0.4,0.9 M52.3,340.9l0-1.9v-4.3 M53.9,371.5l-0.4-4.8
		l-0.3-4.8l-0.3-4.7l-0.1-1.4 M54.2,375.3l0-0.5v-0.4l0-0.5v-0.5l0-0.5l0-0.5V372l0-0.5 M55.2,394.5l-1-19.2 M53.8,392.7l1.4,1.8
		 M51.8,355.9l2,36.8 M34.4,94.9L43,253 M32.3,92.2l2.1,2.7 M34.6,134.4l-2.3-42.2 M44.5,375.8l-0.3,3.7 M44.1,379.5l0,0.4l-0.1,0.2
		h-0.1l-0.1-0.3l-0.1-0.4l-0.1-0.6l-0.1-0.7l0-0.7 M43.2,377.3l-0.1-1.3 M50,380.6L50,380.6l0-0.2v-0.1v-0.1l0-0.1v-0.1v-0.1v-0.1
		 M49.9,379.6l-1.1-19.4 M48.8,360.2L48.8,360.2v-0.2v-0.1v-0.1v-0.1v-0.1v-0.1v-0.1 M48.8,359.3l0.3-3 M50.3,356.1l1.8,32.7
		 M52.1,388.8l0,0.6l0,0.5l-0.1,0.3l-0.1,0.1l-0.1-0.2l-0.2-0.3l-0.1-0.6l-0.1-0.6 M51.2,388.6l-1.2-8 M34.2,144.9l1.1,1.4
		 M35.3,146.3l1.5,27.4 M36.8,173.7l-1.1-1.4 M34.3,146.8l-0.1-1.9 M35.7,172.3l-0.2-3.6 M40.2,253.3l-0.1-2 M38.9,229.6l0.9,1.2
		 M39.8,230.8l1.3,23.8 M41.1,254.5l-0.9-1.2 M45.2,385.6l5.6,7.3 M50.8,392.9l0.2,3.9 M51,396.8l-0.3-0.5 M45.2,386.7l0-1.1
		 M108.6,398.4l0,0.8v0.7l0,0.6l-0.1,0.5l-0.1,0.3l-0.1,0.1l0,0 M103.1,386.8l-1.3,0.1 M106.9,367.8l1.6,30.6 M103.7,328.5l0.5,0.9
		 M103.7,328.5l-3.5,0.4 M105.3,335.2l0,3.8l0.1,4l0.1,4l0.2,4.1l0.2,4.1l0.2,4.1l0.3,4.2l0.3,4.2 M106.9,367.8l-3.5,0.4
		 M104.2,329.3l0.2,0.4l0.2,0.6l0.2,0.7l0.1,0.8l0.1,0.9l0.1,0.9l0,0.8l0,0.8 M84.7,166.4l-0.2,0 M85.3,113.8l2.1,2.7 M85.3,113.8
		l-3.5,0.4 M87.4,116.5l5.3,97.4 M87.4,116.5l-3.5,0.4 M81.8,128.5l0.1,0.4l0.2,0.6l0.2,0.4l0.1,0l0.1-0.2l0-0.5v-0.7 M80.5,141.3
		l-0.7-12.5 M87.3,375.9l0-0.3 M87.5,377.8l0-0.2l-0.1-0.8l0-0.9 M104.3,401.7l-5.7-7.3 M105.1,398.9v0.8v0.7l0,0.6l-0.1,0.5
		l-0.1,0.3l-0.1,0.1h-0.1l-0.2-0.2 M103.4,368.2l1.7,30.6 M101.8,335.6l0.1,3.8l0.1,3.9l0.1,4l0.2,4.1l0.2,4.1l0.2,4.2l0.3,4.2
		l0.3,4.2 M100.7,329.8l0.2,0.4l0.2,0.6l0.2,0.7l0.1,0.8l0.1,0.8l0.1,0.9l0,0.9l0,0.8 M100.2,328.9l0.5,0.9 M100.3,335.1l0-1.9
		l0-4.3 M102.2,369.6l0-0.5v-0.5l0-0.4v-0.2 M103.2,388.7l-1-19.1 M101.8,386.9l1.4,1.8 M101.1,373.9l0.7,13.1 M83.9,116.9l4,73.5
		 M81.8,114.2l2.1,2.7 M82.6,128.6l-0.8-14.4 M98,374.9l0-0.1v-0.1v-0.1l0-0.1v-0.1 M99.6,374l0.5,9 M100.1,383v0.7l0,0.5l-0.1,0.3
		l-0.1,0l-0.2-0.1l-0.1-0.3l-0.1-0.6l-0.1-0.7 M99.3,382.8l-1.2-8 M82.3,139.2l1.1,1.4 M83.3,140.5l1.5,27.4 M84.8,167.9l-0.2-0.3
		 M82.4,141l-0.1-1.9 M93.2,379.9l5.6,7.3 M53.1,377.8l-1.2-21.9 M53.1,377.8l1.3,1.7 M80.7,337l-9.4,1.2 M80.2,328.5l0.5,8.5
		 M80.7,337l1.3,1.7 M39,355.6l-2-37.2 M39,355.6l1.3,1.7 M56.4,89.5l11-1.3 M67.5,88.1l1.3,1.7 M57,98.8l-0.5-9.3 M56.4,89.5
		l1.3,1.7 M57,98.8l1.3,1.7 M37,318.3L57,98.8 M37,318.3l1.3,1.7 M40.4,357.3l-2-37.3 M53.1,355.8l-12.7,1.5 M54.4,379.5l-1.3-23.7
		 M102.4,373.7l-43.2,5.2 M114.6,348.4l-8.9,1.1 M112.6,311.1l2,37.3 M69.3,99.2l43.3,211.9 M68.8,89.8l0.5,9.3 M57.8,91.2l11-1.3
		 M58.2,100.5l-0.5-9.3 M38.4,320l19.9-219.6 M71.5,340l-0.6-10.3 M70.9,329.7l10.6-1.3 M81.5,328.4l0.5,10.4 M82,338.8L71.5,340
		 M38.8,360.4l-1.2-21.9 M38.8,360.4l1.3,1.7 M24.7,338.1l-2-37.2 M24.7,338.1l1.3,1.7 M43.7,71.8l0.9-0.1 M32.9,188.7l1.2-12.8
		 M22.7,300.9L32.1,197 M22.7,300.9l1.3,1.7 M26,339.9l-2-37.3 M38.1,338.4L26,339.9 M40.1,362l-0.3-5.6 M40.9,361.9l-0.8,0.1
		 M34.4,188.5l0.2-2.4 M24,302.6l8.6-95.4 M96.9,121.2l-0.8-1.1 M96.2,108.8l-0.8-1 M94.8,84L94,83 M69.1,68.7l-0.8-1.1 M43.7,71.8
		l-0.8-1.1 M95.3,119.6l3.1,0.2 M93.3,82.4l3.1,0.2 M95.6,64.7l-1.2-0.1 M69.5,67.8l0.2,0.6 M56.8,69.2l0.2,0.7 M44,70.8l0.3,0.7
		 M92.2,40.6l1.8-0.2 M94.9,41.1l-1.2,1.8 M95,64.2l1.2,0.3 M88.2,67.6l3.4,0.9 M124.2,49.4l0.2,0 M122.2,46.3l-0.2,0 M116,48.6
		L116,48.6 M116.5,46.5l-0.2,0 M56.6,407.7l3.5-0.4 M104.6,401.9l3.5-0.4"/>
	<g class="st9">
		<text transform="matrix(1 0 0 1 21.9336 374.9835)" class="st10" style="font-family:'Arial,Bold'; font-size:6.7855px;">SolidWorks Educational Edition.</text>
	</g>
	<g class="st9">
		<text transform="matrix(1 0 0 1 21.9336 382.3937)" class="st10" style="font-family:'Arial,Bold'; font-size:6.7855px;"> For Instructional Use Only.</text>
	</g>
	<use xlink:href="#SVGID_1_"  style="overflow:visible;fill:none;stroke:#231F20;stroke-miterlimit:10;"/>
</g>
</svg>
