<?xml version="1.0" encoding="utf-8"?>
<!-- Generator: Adobe Illustrator 20.1.0, SVG Export Plug-In . SVG Version: 6.00 Build 0)  -->
<svg version="1.1" id="Layer_1" xmlns="http://www.w3.org/2000/svg" xmlns:xlink="http://www.w3.org/1999/xlink" x="0px" y="0px"
	 viewBox="0 0 149 149" style="enable-background:new 0 0 149 149;" xml:space="preserve">
<style type="text/css">
	
		.st0{clip-path:url(#SVGID_2_);fill:none;stroke:#818181;stroke-width:0.2511;stroke-linecap:round;stroke-linejoin:round;stroke-miterlimit:10;stroke-dasharray:21.2672,1.7723,1.7723,1.7723;stroke-dashoffset:17;}
	
		.st1{clip-path:url(#SVGID_2_);fill:none;stroke:#818181;stroke-width:0.2511;stroke-linecap:round;stroke-linejoin:round;stroke-miterlimit:10;stroke-dasharray:21.2672,1.7723,1.7723,1.7723;stroke-dashoffset:1;}
	
		.st2{clip-path:url(#SVGID_2_);fill:none;stroke:#818181;stroke-width:0.2511;stroke-linecap:round;stroke-linejoin:round;stroke-miterlimit:10;stroke-dasharray:21.2672,1.7723,1.7723,1.7723;stroke-dashoffset:18;}
	
		.st3{clip-path:url(#SVGID_2_);fill:none;stroke:#818181;stroke-width:0.2511;stroke-linecap:round;stroke-linejoin:round;stroke-miterlimit:10;stroke-dasharray:21.2672,1.7723,1.7723,1.7723;stroke-dashoffset:8;}
	
		.st4{clip-path:url(#SVGID_2_);fill:none;stroke:#818181;stroke-width:0.2511;stroke-linecap:round;stroke-linejoin:round;stroke-miterlimit:10;stroke-dasharray:21.2672,1.7723,1.7723,1.7723;stroke-dashoffset:15;}
	
		.st5{clip-path:url(#SVGID_2_);fill:none;stroke:#818181;stroke-width:0.2511;stroke-linecap:round;stroke-linejoin:round;stroke-miterlimit:10;stroke-dasharray:21.2672,1.7723,1.7723,1.7723;stroke-dashoffset:10;}
	
		.st6{clip-path:url(#SVGID_2_);fill:none;stroke:#818181;stroke-width:0.2511;stroke-linecap:round;stroke-linejoin:round;stroke-miterlimit:10;stroke-dasharray:21.2672,1.7723,1.7723,1.7723;stroke-dashoffset:-2;}
	
		.st7{clip-path:url(#SVGID_2_);fill:none;stroke:#010101;stroke-width:0.349;stroke-linecap:round;stroke-linejoin:round;stroke-miterlimit:10;}
	.st8{clip-path:url(#SVGID_2_);}
	.st9{fill:#010101;}
</style>
<g>
	<defs>
		<circle id="SVGID_1_" cx="74.5" cy="74.5" r="74.5"/>
	</defs>
	<clipPath id="SVGID_2_">
		<use xlink:href="#SVGID_1_"  style="overflow:visible;"/>
	</clipPath>
	<line class="st0" x1="57.7" y1="75" x2="44.6" y2="76.6"/>
	<line class="st0" x1="61.1" y1="82.3" x2="48.1" y2="83.9"/>
	<line class="st0" x1="61.1" y1="82.3" x2="48.1" y2="83.9"/>
	<line class="st0" x1="64.5" y1="86.7" x2="51.5" y2="88.2"/>
	<line class="st0" x1="52.3" y1="102.6" x2="65.3" y2="101"/>
	<line class="st0" x1="51.5" y1="88.2" x2="64.5" y2="86.7"/>
	<line class="st0" x1="57.7" y1="75" x2="44.6" y2="76.6"/>
	<line class="st1" x1="94.6" y1="75.3" x2="97.1" y2="120.3"/>
	<line class="st2" x1="89.6" y1="68.4" x2="97.1" y2="61.9"/>
	<line class="st3" x1="76.9" y1="66.7" x2="46.8" y2="70.3"/>
	<line class="st0" x1="94.9" y1="37" x2="94.5" y2="50.5"/>
	<line class="st0" x1="94.5" y1="50.5" x2="94.9" y2="37"/>
	<line class="st4" x1="122.8" y1="71.9" x2="107.3" y2="67.9"/>
	<line class="st4" x1="122" y1="78" x2="106.5" y2="74"/>
	<line class="st4" x1="122.8" y1="71.9" x2="107.3" y2="67.9"/>
	<line class="st2" x1="89.6" y1="68.4" x2="97.1" y2="61.9"/>
	<line class="st5" x1="105.9" y1="43" x2="103.1" y2="63.5"/>
	<line class="st0" x1="100.3" y1="95.6" x2="101" y2="108.3"/>
	<line class="st6" x1="94.6" y1="75.3" x2="97.4" y2="127.4"/>
	<line class="st3" x1="76.9" y1="66.7" x2="46.8" y2="70.3"/>
	<line class="st0" x1="101" y1="108.3" x2="100.3" y2="95.6"/>
	<line class="st0" x1="86.8" y1="107.4" x2="86.1" y2="94.7"/>
	<line class="st0" x1="86.8" y1="107.4" x2="86.1" y2="94.7"/>
	<line class="st0" x1="83.4" y1="103.1" x2="82.7" y2="90.3"/>
	<line class="st0" x1="83.4" y1="103.1" x2="82.7" y2="90.3"/>
	<line class="st0" x1="68.8" y1="104.8" x2="68.1" y2="92.1"/>
	<path class="st7" d="M95.9,121.1l0.1,0l0.1,0l0.1,0l0.1,0.1l0.1,0.1 M95.8,121.1L95.8,121.1 M95.8,108.6L95.8,108.6 M81.9,108.2
		l5-0.6 M93.8,82.9H94l0.1,0l0.1,0l0.1,0l0.1,0.1 M93.7,82.9L93.7,82.9 M77.6,73.2l16.3-2 M94,71.2l0.8,1.1 M76.7,66.5l0.6,0.7
		 M69.2,68.6l0.7-0.1 M46.8,86.2l1.7-0.2 M69.1,68.6h0.1 M61,80.8l-0.6-11 M60.5,69.8l0.7,1 M45.3,71.6l0.7,0.9 M43.1,71.8l0.7-0.1
		 M43,71.8h0.1 M29.3,73.4l0.7-0.1 M29.3,73.4l0.8,1 M32.6,134.7l-3.3-61.2 M32.6,134.7l0.8,1 M33.5,135.7l-3.3-61.2 M33.6,135.7
		L33.6,135.7 M53.4,133.3L39.1,135 M82.8,129.8l-7.3,0.9 M97.8,128l-9.5,1.1 M97.6,122.8l0.2,5.2 M96.7,122.1h0.2l0.1,0l0.1,0
		l0.1,0.1l0.1,0.1l0.1,0.1l0,0.1l0,0.1 M95.8,121.4v0.1l0,0.1l0.1,0.1l0.1,0.1l0.1,0.1l0.1,0h0.1h0.1 M95.5,115.8l0.3,5.6
		 M96.3,114.9h-0.1L96,115l-0.1,0.1l-0.1,0.1l-0.1,0.1l0,0.1l0,0.1v0.1 M97.1,114.1v0.1l0,0.1l0,0.1l-0.1,0.1l-0.1,0.1l-0.1,0.1
		l-0.1,0l-0.2,0 M96.9,110.1l0.2,3.9 M96,109.4h0.2h0.1l0.1,0l0.1,0.1l0.1,0.1l0.1,0.1l0,0.1l0,0.1 M95.2,108.7v0.1l0,0.1l0.1,0.1
		l0.1,0.1l0.1,0.1l0.1,0l0.1,0H96 M95.2,108.5v0.2 M82,109.3l8.8-1 M81.2,94.5l0.8,14.8 M94.3,92.9l-13.1,1.6 M94.2,90.4l0.1,2.6
		 M94.9,89.5h-0.1l-0.1,0.1l-0.1,0.1l-0.1,0.1l-0.1,0.1l0,0.1l0,0.2v0.1 M95.7,88.6v0.1l0,0.1l0,0.1l-0.1,0.1l-0.1,0.1l-0.1,0.1
		l-0.1,0l-0.2,0 M95.5,84.7l0.2,3.9 M94.6,84h0.2H95l0.1,0l0.1,0.1l0.1,0.1l0.1,0.1l0,0.1l0,0.1 M93.8,83.3v0.1l0,0.1l0.1,0.1
		l0.1,0.1l0.1,0.1l0.1,0l0.1,0h0.1 M93.5,77.6l0.3,5.7 M94.2,76.7l-0.1,0l-0.1,0l-0.1,0.1L93.7,77l-0.1,0.1l0,0.1l0,0.1v0.1
		 M95,75.9V76l0,0.1l0,0.1l-0.1,0.1l-0.1,0.1l-0.1,0.1l-0.1,0.1h-0.2 M94.8,72.3l0.2,3.5 M77.7,74.4l17.1-2.1 M77.3,67.2l0.4,7.2
		 M76.5,68.1v-0.1l0-0.1l0-0.1l0.1-0.1l0.1-0.1l0.1-0.1l0.1,0l0.2,0 M75.8,69l0.2,0l0.1,0l0.1-0.1l0.1-0.1l0.1-0.1l0-0.1l0-0.1v-0.2
		 M70,69.7l5.8-0.7 M69.2,69v0.1l0.1,0.1l0,0.1l0.1,0.1l0.1,0.1l0.1,0l0.1,0H70 M68.3,68.3h0.1l0.1,0l0.1,0l0.1,0.1l0.1,0.1l0,0.1
		l0,0.1l0,0.2 M64.3,68.8l4-0.5 M63.5,69.7v-0.1l0-0.1l0.1-0.1l0-0.1l0.1-0.1l0.1-0.1l0.1,0l0.1,0 M62.8,70.6l0.1,0l0.1,0l0.1-0.1
		l0.1-0.1l0.1-0.1l0-0.1l0-0.1v-0.2 M61.2,70.7l1.5-0.1 M61.8,81.6l-0.6-10.9 M46.9,87.4l2.5-0.3 M46,72.6l0.8,14.9 M44,72.8
		l2.1-0.2 M43.1,72.1l0,0.1l0,0.1l0.1,0.1l0.1,0.1l0.1,0.1l0.1,0l0.2,0l0.1,0 M42.2,71.4h0.1l0.1,0l0.1,0l0.1,0l0.1,0.1l0.1,0.1
		l0,0.1v0.1 M38.2,71.9l4-0.5 M37.5,72.8v-0.1l0-0.1l0-0.1l0.1-0.1l0.1-0.1l0.1-0.1l0.1,0l0.1,0 M36.7,73.7h0.1l0.1-0.1l0.1-0.1
		l0.1-0.1l0.1-0.1l0.1-0.1V73l0-0.1 M30.2,74.5l6.5-0.8 M97.7,125.3l2,0.1 M96,121.1L96,121.1l-0.1-0.2v-0.1 M93.9,94.6L93.8,93
		 M98.6,61.9l0.3,0 M93.9,82.9L93.9,82.9l-0.1-0.2v-0.1 M93.3,71.3l0-1.1 M90.3,67.9L90.3,67.9 M88,70.2v-0.3 M88,70.2l3.4,0.2
		 M88,69.9l2.4-2 M88,69.9l3.4,0.2 M101.5,108.1l0.4,7.9 M99,61.9l1.5,28.6 M98.7,63v-0.1v-0.1l0-0.2v-0.1l0-0.1l0-0.1l0-0.1l0,0
		 M98.5,64L98.5,64l0.1-0.1l0-0.1l0-0.1l0-0.1v-0.2v-0.1V63 M96.7,65.5l1.8-1.5 M96.4,65v0.1l0,0.1v0.1l0,0l0,0.1h0h0.1l0,0
		 M96,64.5L96,64.5L96,64.5l0.2,0l0,0.1v0l0,0.1l0,0.1V65 M94.3,66l1.8-1.5 M94,67v-0.1v-0.1v-0.2l0-0.1l0-0.1l0-0.1l0-0.1l0,0
		 M93.8,68.1L93.8,68.1l0.1-0.2l0-0.1l0-0.1v-0.1l0-0.1v-0.2V67 M91.4,70.1l2.4-2 M91.4,70.4v-0.3 M96.6,69.8l-5.2,0.6 M96.9,75.4
		l-0.3-5.6 M96.7,76.4L96.7,76.4l0.1-0.1l0-0.1l0-0.1l0-0.1v-0.2v-0.1v-0.1 M96.4,77.5v-0.2v-0.1V77l0-0.1l0-0.1l0-0.1l0,0l0-0.1
		 M96.7,82.2l-0.2-4.7 M97,82.8L97,82.8L97,82.8l-0.2,0l0-0.1v0l0-0.1l0-0.1v-0.2 M97.4,83.3v-0.1l0-0.1l0-0.1l0-0.1l0,0h0h0h0
		 M97.6,88.1l-0.2-4.8 M97.4,89.2L97.4,89.2l0.1-0.2l0-0.1l0-0.1l0-0.1v-0.1v-0.1v-0.2 M97.1,90.2V90v-0.2v-0.1l0-0.1l0-0.1l0-0.1
		l0-0.1l0,0 M97.4,94.8l-0.2-4.6 M99,113.5l-0.2-4.7 M98.7,114.6L98.7,114.6l0.1-0.2l0-0.1l0-0.1l0-0.1v-0.1v-0.1v-0.2 M98.5,115.6
		v-0.1v-0.2v-0.1l0-0.1l0-0.1l0-0.1l0-0.1l0,0 M98.7,120.4l-0.2-4.8 M99.1,121L99.1,121L99.1,121h-0.2l0,0v-0.1l0-0.1l0-0.1v-0.1
		 M99.4,121.5v-0.1l0-0.1l0-0.1l0-0.1l0,0l0,0h0l0,0 M99.6,125.5l-0.2-4 M101.9,116l-2.3,9.5 M63.8,60l11.7-10.8 M29.2,71.3l0.2-7.2
		 M29.2,71.3l0.8,2.2 M29.4,64.1L63.8,60 M63.8,60l0.8,2.2 M29.4,64.1l0.8,2.2 M93.6,19.3l7.9-0.9 M101.5,18.4l0.8,2.1 M75.5,49.2
		l5-27.4 M81.1,21.9l0.4,1.1 M75.5,49.2l0.8,2.2 M37,71.9l0,0.1l0,0.1l0,0.1l-0.1,0.1l-0.1,0.1l-0.1,0l-0.1,0l-0.1,0 M37.8,71.2
		h-0.1l-0.1,0l-0.1,0.1l-0.1,0.1l-0.1,0.1l-0.1,0.1l0,0.1v0.1 M42.7,70.6l-4.9,0.6 M43.5,71.1L43.5,71.1l0-0.2l-0.1-0.1l-0.1-0.1
		l-0.1,0l-0.1,0h-0.1h-0.1 M44.3,71.7h-0.1H44l-0.1,0l-0.1-0.1l-0.1,0l0-0.1l0-0.1v-0.1 M49.2,71.1l-4.9,0.6 M50,70.3v0.1l0,0.1
		l-0.1,0.1l-0.1,0.1L49.7,71l-0.1,0l-0.1,0l-0.2,0 M50.8,69.6h-0.1l-0.1,0.1l-0.1,0l-0.1,0.1L50.2,70l0,0.1l0,0.1l0,0.1 M55.8,69
		l-4.9,0.6 M56.6,69.6L56.6,69.6l0-0.2l-0.1-0.1l-0.1-0.1l-0.1,0l-0.1,0h-0.1h-0.1 M57.3,70.1h-0.1h-0.1l-0.1,0l-0.1,0L56.7,70
		l0-0.1l0-0.1v-0.1 M62.2,69.6l-4.9,0.6 M63.1,68.8L63.1,68.8l0,0.2l-0.1,0.1l-0.1,0.1l-0.1,0.1l-0.1,0l-0.2,0.1h-0.1 M63.9,68
		l-0.1,0l-0.1,0l-0.1,0l-0.1,0.1l-0.1,0.1l0,0.1l0,0.1l0,0.1 M68.8,67.4L63.9,68 M69.6,68l0-0.1l0-0.1l0-0.1l-0.1,0l-0.1-0.1l-0.1,0
		H69h-0.2 M70.4,68.6h-0.2H70l-0.1,0l-0.1,0l-0.1-0.1l0-0.1l0-0.1V68 M75.3,68l-4.9,0.6 M76.1,67.2L76.1,67.2L76,67.5l0,0.1
		l-0.1,0.1l-0.1,0.1l-0.1,0.1l-0.1,0h-0.1 M76.9,66.5l-0.1,0l-0.1,0l-0.1,0l-0.1,0.1l-0.1,0.1l-0.1,0.1l0,0.1v0.1 M77.4,66.4l-0.4,0
		 M82.9,56l-5.5,10.4 M92.3,50.5L82.9,56 M92.7,37.1l-0.4,13.4 M93.5,37l-0.8,0.1 M93.8,28.9L93.5,37 M97.4,28.5l-3.6,0.4
		 M101.8,35.9l-3.3,0.4 M102.3,20.5l-0.4,15.4 M81.5,23l20.8-2.5 M76.3,51.3L81.5,23 M64.6,62.1l11.7-10.8 M30.3,66.3l34.4-4.1
		 M30.1,73.4l0.2-7.2 M36.2,72.7l-6.1,0.7 M93.5,20.4L80.6,22 M93.5,20.4l0.1-3 M79.8,20l0-3 M80.6,22L79.8,20 M80.6,22l0.1-3
		 M87.1,9.6l3.2-0.4 M79.9,17.1l7.2-7.5 M80.7,19l-0.8-1.9 M93.6,17.4L80.7,19 M90.4,9.2l3.2,8.2 M92.4,50.2l3-0.3 M96.7,19
		l-2.9-7.2 M91.5,12l2.4-0.3 M93.6,19.3l3.2-0.4 M98.4,39.8l0.2-8.1 M94.8,40.3l3.6-0.4 M98.6,31.8l-1.3-3.3 M95.1,32.2l3.6-0.4
		 M92.8,39.4l0-2.4 M93.5,37l1.3,3.3 M94.8,40.3l0.2-8.1 M95.1,32.2l-1.3-3.3 M92.3,49.9l0.1,0.3 M92.4,50.2l0.1-4 M92.6,46.2V46
		v-0.1l0-0.1v-0.2l0-0.1v-0.1l0-0.1 M92.6,39.7L92.6,39.7L92.6,39.7L92.6,39.7L92.6,39.7l0.1-0.1v-0.1 M123.5,69.6l0.4-12.9
		 M122.1,71.6l1.4-2 M100.3,37.1l-1.8-0.4 M98.5,52.6l8.4,6.3 M106.9,58.9l-0.2,8.7 M106.6,67.6l15.5,4 M122.1,71.6l0.4-13
		 M98.9,39.1L98.5,39 M95.7,40.2l0,1.2 M95.7,41.4L95.7,41.4l-0.1,0.2l0,0.1l-0.1,0.1l-0.1,0l-0.1,0h-0.1l-0.1,0 M94.9,41.8h-0.1
		h-0.1h-0.1l-0.1,0L94.2,42l0,0.1l0,0.1l0,0.1 M94.1,42.3L94,45.6 M94,45.6l0,0.1v0.1l0.1,0.1l0.1,0.1l0.1,0.1l0.1,0.1l0.1,0.1
		l0.1,0 M94.8,46.5l0.1,0l0.1,0.1l0.1,0.1l0.1,0.1l0.1,0.1l0,0.1l0,0.1v0.1 M95.5,47.4l-0.1,4.4 M95.4,51.8l3.1,0.8 M123.9,56.7
		l-23.6-19.5 M98.9,39.1l1.4-2 M122.5,58.6L98.9,39.1 M122.5,58.6l1.4-2 M123.4,72.1l-15.5-4 M106.5,69.4l1.4-1.2 M122,73.3l-15.5-4
		 M106.5,69.4l-0.6,4.5 M105.8,73.9l15.6,4 M122.8,76.7l0.6-4.6 M122,73.3l1.4-1.2 M121.4,77.9l0.6-4.6 M121.4,77.9l1.4-1.2
		 M106.6,69.2l-7.3-1.9 M123.6,77.9l-1.2,1 M123.6,77.9l0.5-3.7 M106.8,74.9l0.1-0.7 M122.4,78.9l-15.6-4 M122.4,78.9l0.2-2.1
		 M123.3,72.9l0.7,1.3 M122.5,71.2l0.4,0.8 M104.4,60.8l2.4,0.6 M102.6,62.4l1.8-1.5 M106.7,65.4l-7.6-2 M110.2,68.7l0.1-0.1
		 M124.1,74.2l-1,0.9 M99.3,67.9l2.5,0.6 M99.1,63.5l1.8,0.4 M108.1,43.5l1.2,0.3 M88.5,67.4L88.5,67.4L88.5,67.4l-0.1-0.1v-0.1V67
		l0-0.1 M88.5,66.9v-0.1v-0.1 M88.1,66.5l0.7-5.3 M88.1,66.5l3.4,0.9 M88.8,61.2l6.9-9.3 M88.8,61.2l3.4,0.9 M96.8,64.1L96.8,64.1
		L96.8,64.1h-0.1l0,0V64v-0.1v-0.1v-0.1 M98.3,62.9l-1.5,1.3 M98.6,61.8l0,0.2v0.1l0,0.1l0,0.1l-0.1,0.1l0,0.1l0,0.1l0,0 M99,60.8
		L99,60.8L98.9,61l0,0.1l0,0.1l0,0.1l0,0.1l0,0.1v0.1 M99.8,60.2L99,60.8 M100.9,63.9l-1.1-3.7 M102.6,62.4l-1.8,1.5 M101.8,68.5
		l0-0.5 M102.3,68.1l-0.5,0.4 M109.3,43.9l-0.1,0.6 M108.9,44.2l0.4-0.3 M92.3,62.1l6.7-9.1 M91.5,67.3l0.7-5.3 M91.7,67.2l-0.1,0.1
		 M91.9,67.7v-0.1v-0.1v-0.1v-0.1l0,0h0h0h0 M92.1,68.2L92.1,68.2L92.1,68.2l-0.1,0l0-0.1v0V68v-0.1v-0.1 M93.5,67l-1.5,1.2
		 M93.9,66l0,0.1l0,0.1v0.1l-0.1,0.1l0,0.1l0,0.1l0,0.1l0,0.1 M94.3,64.9L94.3,64.9l-0.1,0.1l0,0.1l0,0.1l0,0.1l0,0.1l0,0.2V66
		 M96.4,63.1l-2.1,1.8 M96.6,63.7v-0.1l0-0.1l0-0.1v-0.1l0,0l0,0h0l0,0 M175.9-17.9l2.7-0.6 M182.1-17.6l-3.4-0.9 M174.6-17.6
		l0.2-0.6 M178.6-17.2l-3.8-1 M178.4-16.5l-0.2,0 M171.8-17l3.1-0.7 M174.8-17.7l3.4,0.9 M166.7,10.6l-0.2,0 M163.7,18.2l0.2,0
		 M169.8-4.5l-0.2,0 M167.1-1.7l-0.2,0 M165.1,13.5l0.2,0 M167-1.6l-0.2,0 M160,27.3l0.2,0 M147.8,64.1l-3.2-3.9 M151.3,65l-3.4-0.9
		 M165.4,0.7l-0.2,0 M162.9,13.4l-0.2,0 M166.9,7.5l-0.1,1.2l-0.3,1.8 M166.6,2.9l0.1,0.9l0.1,1.6l0.1,1.4v0.5v0.1v0 M166.4,1
		l0.1,1.3l0,0.6 M162.7,13.4l-2.6-0.5 M165.1,13.5l-2.4-0.1 M166.5,10.6l-1.4,2.9 M159.6,12.2l-0.2,0 M160.8,8.7l-0.2,0 M163,2.3
		l-0.2,0 M157.4,31.3l0.2,0 M160-9.2l11.7-7.8 M175.2-16.1l-3.4-0.9 M159.4,13.2l-0.2,0 M144.6,60.2l-2.5-3.8 M148,61.1l-3.4-0.9
		 M157.5,14.8l-0.2,0 M160.7,5.7l-0.2,0 M153,33.5l0.2,0 M142.1,56.4l-0.8-1 M145.6,57.3l-3.4-0.9 M153.8,17.6l0.2,0 M157.8,4.8
		l-0.2,0 M153,19.4l-0.2,0 M156.8,2.2l-0.2,0 M144.2,48.5L144.2,48.5 M142.7,55l-0.5-0.1 M160.9,3.4l1.9-1.2 M162.8,2.3l2.4-1.6
		 M165.2,0.6l1.6-2.3 M166.9-1.7L166.9-1.7 M169.6-4.5l-2.7,2.8 M172.9-8.7l-0.6,0.8l-0.9,1.1l-1.8,2.3 M176.3-13.1l-0.7,0.9
		l-1.1,1.4l-0.9,1.2l-0.7,0.9 M178.2-16.5l-0.8,1.6l-0.6,1.1l-0.3,0.6l0,0.1h0 M178.3-16.8l-0.1,0.2 M175.2-16.1l3.1-0.7 M163.5-8.3
		l11.7-7.8 M154.1-4l6-5.2 M156.9-2.6l6.6-5.7 M163.5-8.3L160-9.2 M153,17.3l-0.2,0 M156.6,1l-0.2,0 M151.2,23.1l-0.2,0 M143.5,48.4
		l-0.2,0 M153.5,11.1l-0.2,0 M143.5,44.6l0.2,0 M144.7,40l-0.2,0 M145.1,37.2l-0.2,0 M146,32.9l-0.2,0 M152.9-4.3l-1.4,2.6
		 M156.7-3.4l-3.8-1 M148.3,26.4l-0.2,0 M146.3,39.2l-0.8,1.1l-0.3,0.4 M148.7,36l-1.3,1.7l-0.5,0.7l-0.5,0.8 M153,33.5l-1.2,0.5
		l-1.2,0.6l-1.1,0.6l-0.4,0.3l-0.5,0.4 M157.4,31.3l-2.4,1.3l-1,0.5l-0.9,0.4 M160,27.3l-1.5,2.2l-1.2,1.8 M162.2,22.7l-1.2,2.6
		l-0.9,2 M163.7,18.2l-0.8,2.6l-0.4,1.1l-0.2,0.5l-0.1,0.3 M164.4,15.7l-0.7,2.5 M151.9,11.5l-0.2,0 M142.5,48.2l-0.2,0 M153.9,1.8
		l-0.2,0 M159.2,13.2l0.3-1.1 M159.4,12.1l1.1-3.4 M160.6,8.7l0.4-3.2 M157.6,4.7l2.9,0.9 M156.6,2.1l1,2.6 M156.4,1l0.2,1.1
		 M156-0.4l0.4,1.4 M149.3,11.1l2.4,0.3 M151.7,11.5l1.7-0.4 M157.3,14.8l-2.1,0.9 M159.2,13.2l-1.9,1.6 M145.6,57.3l-2.3-2.8
		 M148,61.1l-2.5-3.8 M151.3,65l-3.2-3.9 M157.3,59.8l-6.1,5.3 M160.5,54.9l-0.5,0.8l-0.8,1.2l-0.9,1.3l-1,1.5 M165,47.4l-0.6,1.1
		l-0.9,1.6l-1,1.7l-1.1,1.8l-0.7,1.2 M169.4,41l-0.6,0.9l-0.9,1.3l-1,1.4l-1.2,1.8l-0.6,1 M174.8,31L174.8,31l-0.1,0.2l-0.1,0.2
		l-0.3,0.6l-0.7,1.4l-1.7,3.2l-1,1.9l-0.9,1.6l-0.5,0.9 M181,18.1l-0.2,0.5l-0.4,0.8l-0.9,1.9l-2.1,4.3l-1,2.1l-0.9,1.8l-0.5,1
		l-0.1,0.3l0,0.1v0 M184.9,7.2l-0.1,0.6l-0.2,0.8l-0.6,1.7l-1.3,3.5l-0.7,1.9l-0.6,1.5l-0.3,0.8 M186.9-4.1l0,0.4l-0.1,0.6l-0.2,1.6
		l-0.6,3.5l-0.4,2.2L185.1,6l-0.2,1.2 M188-12.1l-0.5,3.5l-0.3,2.5l-0.1,1.4l0,0.6 M184.8-15.4l3.2,3.2 M182.1-17.6l2.7,2.3
		 M178.8-16.9l3.3-0.7 M147,2.1l4.9-4.2 M155.3-1.3l-3.4-0.9 M150.5,7.7l-0.2,0 M146.4,29.4l-0.2,0 M139.9,48l-0.2,0 M148,11.4
		l0.2,0 M136.1,49.6l-0.2,0 M142.5,32l-0.2,0 M143.7,16.9l-0.2,0 M138.7,11l8.3-9 M150.4,3L147,2.1 M134.4,45.1l-0.2,0 M136.9,35.6
		l-0.2,0 M131.5,47.5l-0.2,0 M133.9,36.4l-0.2,0 M145.8,32.8l-0.9,4.3 M145.8,31.7v1.2 M134.2,45.1l-2.2,0.2 M139.7,47.9l-3.1-0.5
		 M142.3,48.2l-2.6-0.2 M143.3,48.3l-1-0.1 M143.3,48.3l0.4-3.7 M144.5,39.9l-0.9,4.7 M144.9,37.1l-0.4,2.8 M139.7,23l-0.2,0
		 M131.7,40.9l-0.2,0 M132.1,37.8l-0.2,0 M132.3,37.4l0.2,0 M132.3,37.1l-0.2,0 M153.8,17.6l-1.1,1.7 M152.9,17.3l1,0.3 M152.6,13.4
		l0.3,3.8 M133.8,36.3l-0.6,0.3 M136.7,35.6l-0.1,0.1l-0.2,0l-0.6,0.2l-0.8,0.2l-1,0.2 M142.2,32l-1.8,1.1l-1.4,0.9l-1.1,0.7
		l-0.8,0.6l-0.4,0.2 M146.2,29.3l-4,2.7 M148.1,26.3l-1.9,3 M151,23l-2.9,3.3 M152.8,19.3L151,23 M125.4,56.6l-2.5-2.3 M128.9,57.5
		l-3.4-0.9 M130.8,44.9l-0.2,0 M129,21.3l9.7-10.3 M142.2,11.9l-3.4-0.9 M122.9,54.3l-2.3-0.7 M126.3,55.2l-3.4-0.9 M121.7,29.2
		l7.3-7.9 M132.4,22.2l-3.4-0.9 M121.7,45.6l0.2,0 M117.1,31.6l4.6-2.4 M125.1,30.1l-3.4-0.9 M110.7,37.1l6.4-5.5 M120.5,32.5
		l-3.4-0.9 M108,40.8l2.7-3.7 M114.2,38l-3.4-0.9 M165.5,15.1l-1,3.5 M165.5,15.1l1.9-3.9 M167.3,11.1l0.4-3.1l0.1-1.6 M167.9,6.4V5
		l-0.1-1.7l-0.1-1.3l0-0.5 M167.6,1.4l0-0.7l-0.1-1 M167.5-0.3l2.2-2.2 M169.6-2.5l1.2-1.6l1-1.3l1.1-1.3 M172.9-6.7l1-1.3l1.1-1.5
		l0.8-1.1l0.3-0.4 M176.3-11.1l0.5-0.7l0.6-1l1.3-2.6 M178.7-15.4l0.3-1 M178.6-17.2l0.4,0.8 M178.4-16.5l0.2-0.7 M176.5-13
		L176.5-13l0.1-0.1l0.1-0.3l0.4-0.7l1.2-2.3 M173.1-8.7l0.9-1.2l1.1-1.5l0.8-1l0.5-0.6 M169.8-4.5L171-6l1-1.3l1.1-1.4 M167.1-1.7
		l2.7-2.8 M167-0.7l0.1-1 M167-1.6l0,0.9 M167-1.6l-1.6,2.3 M165.4,0.7L163,2.3 M163,2.3L162,3 M162,3l-0.8,0.5 M161.1,3.5l-2.7-0.8
		 M158.5,2.7l-0.9-2.4 M157.6,0.3l-0.2-1.1 M157.4-0.8l-0.7-2.6 M156.7-3.4l-2.8,5.1 M153.9,1.8l-1.4,2.3l-1,1.7l-0.5,1l-0.4,0.9
		 M150.5,7.7L150.4,8l-0.2,0.3l-0.5,0.9l-1.4,2.2 M148.2,11.4l-2.1,2.5l-1.4,1.8l-0.7,0.9l-0.3,0.3 M143.7,16.9l-0.1,0.1l-0.1,0.2
		l-0.2,0.3l-0.8,1.3l-1.2,1.8l-1.5,2.3 M139.7,23l-2.3,3.5l-1.6,2.4l-0.8,1.2l-0.2,0.3l0,0.1 M134.7,30.5l-0.2,0.5l-0.2,0.5
		l-0.2,0.7l-0.3,0.8l-0.6,1.8l-0.8,2.3 M132.5,37.5l-0.2-0.4 M132.1,37.8l0.4-0.3 M132.1,37.8l-0.4,3.1 M131.7,40.9l-0.9,4.1
		 M130.8,44.9l-2.1,0.8l-1.4,0.5l-0.7,0.3l-0.3,0.1 M126.2,46.6l-0.3-0.1l-0.7-0.2l-1.3-0.4l-0.6-0.1l-0.6-0.1h-0.2h-0.2l-0.2,0.2
		 M122,45.7l-0.2,0l-0.3,0l-0.7,0.1h-1.5h-0.6H118l-0.3,0h-0.1 M117.6,45.8h-0.2l-0.3,0l-0.6,0.1l-0.7,0.1l-1.6,0.3l-2,0.4 M117,48
		h-0.2l-0.4,0.1l-1.2,0.2l-1.1,0.2 M121.7,47.7l-0.3,0.2l-0.4,0.1l-0.5,0l-1.5,0H118h-0.6l-0.3,0 M125.7,48.8L125.7,48.8l-0.4-0.1
		l-0.4-0.1l-1.3-0.4l-1.2-0.3l-0.3,0h-0.2 M130.7,47l-1.7,0.6l-1.3,0.4l-1,0.4l-0.8,0.2l-0.1,0l-0.1,0 M130.8,46.7l0,0.2
		 M130.8,46.7l0.7,0.8 M131.5,47.5l2.4-0.2 M133.9,47.3l2.2,2.3 M136.1,49.6l3.3,0.6 M139.4,50.2l2.6,0.2 M142,50.4l1.3,0.2
		 M143.3,50.6l-0.6,4.4 M143.4,54.3l-0.8,0.7 M144.2,48.5l-0.8,5.8 M144.2,48.5L144.2,48.5 M144.7,43.4l-0.5,5.1 M146.6,40.8
		l-0.5,0.8l-0.5,0.7l-0.8,1.1 M148.8,37.9l-1.2,1.5l-0.5,0.6l-0.5,0.7 M152.8,35.7l-1.1,0.5l-1.1,0.6l-0.9,0.5l-0.9,0.6 M157.4,33.4
		l-2.6,1.3l-1,0.5l-1,0.4 M160.3,28.9l-1.6,2.5l-1.3,1.9 M162.5,24.2l-1.2,2.7l-0.5,1.1l-0.5,1 M164.5,18.6l-1,3.2l-0.4,1.2
		l-0.5,1.1 M162.4,15.6l2.2,0 M164.6,15.7l-0.7,2.6 M163.9,18.2l-0.8,2.6l-0.4,1.1l-0.1,0.5l-0.1,0.3 M162.4,22.7l-1.2,2.6l-0.9,2
		 M160.2,27.3l-1.5,2.2l-1.2,1.8 M157.6,31.3l-2.4,1.3l-1,0.5l-0.9,0.4 M153.2,33.5l-1.2,0.5l-1.2,0.6l-1.1,0.6l-0.4,0.2L149,36
		 M149,36l-1.4,1.7l-0.5,0.7l-0.5,0.8 M146.5,39.2l-0.8,1.1l-0.6,0.8 M145.1,41.2l0.3-1.7 M145.4,39.5l0.4-2.7 M145.8,36.8l1-4.7
		 M146.8,32.1v-1.7 M146.8,30.4l1.3-2.1 M148.2,28.3l3-3.4 M151.2,24.9L153,21 M153,21l1.9-3.1 M155,17.9l2.2-1 M157.1,16.9l2.3-1.9
		 M159.4,15l3,0.6 M143.9,44.5L143.9,44.5l-0.1,0.2 M143.9,44.5l-0.4,3.9 M142.5,48.2l1,0.1 M139.9,48l2.6,0.2 M136.7,47.4l3.2,0.6
		 M134.4,45.1l2.3,2.3 M132.1,45.3l2.3-0.2 M131.5,44.7l0.6,0.6 M132.4,40.4l-0.9,4.3 M132.6,38.9l-0.2,1.5 M132.6,38.9l0.9-0.4
		 M133.5,38.5l1.4-0.3l0.9-0.2l0.4-0.1l0.3-0.1 M136.6,37.7L136.6,37.7l0.2-0.1l0.4-0.3l1.2-0.8l1.6-1l2.1-1.3 M142.1,34.2l3.9-2.7
		 M146,32.9v-1.4 M145.1,37.2l0.9-4.3 M144.7,40l0.4-2.8 M143.7,44.6l0.9-4.7 M165.3,13.5l1.4-2.9 M162.9,13.4l2.4,0.1 M160.1,12.8
		l2.8,0.6 M160.2,12.6l0,0.2 M161.5,8.7l-1.3,3.9 M162,4.8l-0.5,3.9 M162.7,4.4L162,4.8 M165.2,2.7l-2.5,1.7 M166.6,0.7l-1.4,2
		 M166.8,3l0-0.9l-0.1-1.4 M167.1,7.6L167.1,7.6L167.1,7.6V7.4l0-0.3V6.3l-0.1-1.5l0-1.2L166.8,3 M166.7,10.6l0.3-2.2l0.1-0.8
		 M159.6,12.2l-0.3,1.1 M157.5,14.8l1.9-1.6 M155.4,15.8l2.1-1 M155.4,15.8l-1.5-0.5 M153.8,15.3l-0.3-4.1 M153.5,11.1l-1.6,0.4
		 M151.9,11.5l-2.4-0.3 M151,8.5l-0.3,0.7l-0.3,0.6l-0.8,1.3 M153.9,3.4l-1.3,2.1l-0.9,1.6l-0.5,1L151,8.5 M156.2-0.6l-2.2,4
		 M156.6,1l-0.4-1.7 M156.8,2.2L156.6,1 M157.8,4.8l-0.9-2.6 M160.7,5.7l-2.9-0.9 M161.3,5.3l-0.6,0.3 M161.3,5.3l-0.5,3.4
		 M160.8,8.7l-1.1,3.4 M154,17.7l-1-0.3 M153,19.4l1.1-1.7 M151.2,23.1l1.8-3.7 M148.3,26.4l2.9-3.3 M146.4,29.4l1.9-3 M142.5,32
		l3.9-2.7 M136.9,35.6l0.3-0.2l0.6-0.4l1-0.6l1.6-1l2.1-1.3 M133.9,36.4l1.3-0.2l0.9-0.2l0.5-0.1l0.1-0.1 M133.1,36.8l0.9-0.4
		 M134.7,32.2l-0.2,0.6L134,34l-1,2.8 M139.6,24.7l-2.1,3.3l-1.6,2.4l-0.8,1.2l-0.4,0.6 M143.5,18.9l-0.2,0.2l-0.3,0.5l-0.8,1.3
		l-1.1,1.7l-1.4,2.1 M148,13.4l-2.1,2.5l-1.4,1.8l-0.7,0.8l-0.3,0.3 M148.9,13.3l-0.8,0.1 M151.4,13.7l-2.5-0.3 M152.8,13.4
		l-1.4,0.3 M153,17.3l-0.3-3.9 M105.8,41.7l1-1.2 M110.2,41.4l-3.4-0.9 M142.5,54.7l-0.5,0.2 M142.5,54.7l0.6-4.2 M135.9,49.5
		l-2.1-2.2 M131.3,47.5l-0.6-0.6 M125.5,48.7L125.5,48.7l-0.4-0.1l-0.4-0.1l-1.3-0.4l-0.8-0.2 M117.4,45.8h-0.1l-0.4,0l-0.5,0.1
		l-0.7,0.1l-1.6,0.3l-1.9,0.4 M121.7,45.6l-0.2,0l-0.3,0l-0.7,0.1h-1.4h-0.7h-0.5l-0.3,0h-0.1 M123.1,45.6L123.1,45.6l-0.7-0.1h-0.2
		H122l-0.2,0.2 M130.6,44.9l-2.1,0.8l-1.5,0.5l-0.7,0.3l-0.3,0.1 M130.6,44.9l0.8-4.1 M131.4,40.8l0.4-3.1 M132.3,37.4l-0.4,0.3
		 M132,37l0.2,0.4 M132,37l1-2.8l0.7-2l0.2-0.7l0.2-0.5l0.3-0.5 M134.5,30.5L134.5,30.5l0.2-0.3l0.4-0.6l1.1-1.6l1.4-2.2l1.9-2.8
		 M139.5,22.9l1.8-2.8l1.3-1.9l0.4-0.6l0.3-0.4l0.2-0.2 M143.5,16.9l0.2-0.2l0.4-0.4l1-1.2l1.3-1.6l1.7-2 M148,11.4l1-1.5l0.7-1.1
		l0.4-0.7l0.2-0.3 M150.3,7.7l0.3-0.8l0.4-0.8l0.6-1l0.9-1.5l1.1-1.9 M153.7,1.7l1.6-3 M150.4,3l4.9-4.2 M142.2,11.9l8.3-9
		 M132.4,22.2l9.7-10.3 M125.1,30.1l7.3-7.9 M120.5,32.5l4.6-2.4 M114.2,38l6.4-5.5 M110.9,42.4l3.3-4.4 M110.2,41.4l0.6,1
		 M108.5,43.7l1.7-2.3 M121.2,53.7h-1 M126.3,55.2l-5.1-1.6 M128.9,57.5l-2.6-2.3 M138.3,56.9l-9.4,0.6 M142,54.9l-3.7,2 M45.5,62.2
		l0.1-2.3 M58.6,58.3l0.8,2.2 M45.6,59.9l13-1.6 M45.6,59.9l0.8,2.2 M46.4,62.1l13-1.6 M100.5,90.5l-3.2,2.9 M104,90.8l-3.4-0.2
		 M104,90.8l-3.2,2.8 M97.3,93.4l0.1,1.4 M100.7,93.6l-3.4-0.2 M108.1,103.7l-5.1,4.5 M107.4,91l0.7,12.7 M102.3,95.5l5.1-4.4
		 M104,90.8l3.4,0.2 M98.8,95.2l5.1-4.4 M103,108.2l-0.7-12.8 M98.8,95.2l3.4,0.2 M100.5,108l2.5,0.2 M84.8,107.4l-2.8-3.6l-0.4,0
		 M84.1,94.7l0.7,12.7 M86.9,107.2l-2.1,0.2 M83.7,94.2l0.4,0.5 M87.7,94.3l-3.6,0.4 M87.3,93.8l0.4,0.5 M58.1,74.4l2.8,5.9
		 M60.9,80.3l-13,1.6 M48.3,85l-0.4,0 M60.9,80.9v-0.5 M47.9,81.9l-1.5-3.2 M47.9,85.1l-1.3-2.8 M47.9,85.1v-3.2 M48.2,82.4l13-1.6
		 M61.2,80.8l3,3.9 M64.2,84.7l-13,1.6 M64.4,87.2l-0.1-2.5 M51.2,86.3l-3-3.9 M48.4,85.9l-0.2-3.5 M51.4,89.8l-3-3.9 M51.4,89.8
		l-0.2-3.5 M56.3,101.9l-3.6,0.4 M65,88l0,0.7 M52.6,102.3l-0.7-12.8 M51.8,101.3l-0.7-12.8 M51.8,101.3l0.8,1.1 M51.9,89.6L65,88
		 M64.4,87.2L65,88 M51.1,88.5l0.8,1.1 M100.5,108l-0.9,0.8 M98.9,96.1l0.7,12.8 M87,108.1l-0.7-12.7 M99.6,108.8L87,108.1
		 M86.3,95.4l12.6,0.7 M100.1,95l-1.2,1.1 M87.5,94.2l12.6,0.7 M87.5,94.2l-1.2,1.1 M44.7,57.8l-0.1,4.5 M58.1,74.4l0.1-4.4
		 M45.6,59.9l-0.1,2.3 M57.8,56.2l-13,1.6 M45.6,59.9l-0.8-2.1 M58.6,58.3l-13,1.6 M58.6,58.3l-0.8-2.1 M59.3,394.5l23.8-2.9
		 M83.1,391.7l1.2-0.1h1.1l1,0.1 M85.3,396.7l4.2,1.3 M85.3,396.7l-0.2-3.5 M61.9,400.9l1.3-1.5 M63.2,399.3l-0.1-3.5 M45.3,405.1
		l-5-6.4 M40.3,398.6l-0.2-3.5 M50.4,404.4l-5.1,0.6 M45.3,405.1l-0.2-3.5 M102.3,402.1L60,407.2 M102.3,402.1l-0.2-3.5 M91.6,385
		l2.8,3.6 M59,388.9l32.6-3.9 M40.1,395.1l5.1-0.6 M45.1,401.6l-5-6.5 M50.2,400.9l-5.1,0.6 M102.1,398.6l-42.4,5.1 M99.4,395
		l2.8,3.5 M92.8,395.5l0.6,0.2l0.4,0.3l0,0.4l-0.2,0.3l-0.5,0.3l-0.7,0.3l-0.9,0.2l-1.1,0.2 M90.4,397.9l-25.2,3 M65.2,400.9
		l-1.1,0.1H63l-1-0.1l-0.9-0.1l-0.7-0.2l-0.4-0.3l-0.1-0.3l0.1-0.3 M60,399.4l3.1-3.6 M63.1,395.9l-3.8-1.1 M59.1,391l23.8-2.9
		 M82.9,388.2l1.2-0.1h1.1l1,0.1l0.9,0.1l0.7,0.3l0.4,0.3l0.1,0.3l-0.1,0.3 M88.2,389.6l-3.1,3.6 M85.1,393.2l7.7,2.3 M41,382.6
		l-1-18.2 M41,382.6l0.8,1.1 M78.1,335.3l2.5,3.8 M35.2,276.5l5.1-0.6 M36.3,297.7l-1.1-21.2 M35.2,276.5l0.8,1.1 M36.3,297.7
		l0.8,1.1 M95,226.6l0.9-0.1 M95.9,226.5l0.8,1.1 M32.9,234.1l5.1-0.6 M34.1,255.3l-1.2-21.2 M32.9,234.1l0.8,1.1 M34.1,255.3
		l0.8,1.1 M91.4,184.4l2.2-0.2 M93.6,184.1l0.8,1 M47.7,192.9l0.2,0.4 M47.7,192.9l0.2,0.3 M30.6,191.7l5.1-0.6 M31.7,212.9
		l-1.1-21.2 M30.6,191.7l0.8,1 M31.7,212.9l0.8,1 M29.4,170.5l-1.1-21.2 M29.4,170.5l0.8,1.1 M91.3,141.7l0.8,1.1 M89.1,141.9
		l2.3-0.2 M78,143.3l5.5-0.6 M39.8,147.9l12.4-1.5 M28.3,149.3l6.1-0.7 M28.3,149.3l0.8,1.1 M78.3,335.2l2.4,3.6 M92.2,142.8
		l1.1,21.2 M89.1,143.1l3.1-0.3 M78.3,144.4l5.4-0.7 M39.9,149l12.2-1.5 M29.1,150.3l5.3-0.6 M30.3,171.6l-1.1-21.2 M35.5,170.9
		l-5.3,0.6 M31.4,192.7l5.1-0.6 M32.6,213.9l-1.2-21.2 M37.8,213.3l-5.2,0.6 M33.7,235.2l5.1-0.6 M34.8,256.4l-1.1-21.2 M40.1,255.7
		l-5.2,0.6 M36,277.6l4.4-0.5 M37.2,298.8L36,277.6 M38.4,298.6l-1.3,0.2 M41.7,383.6l-1-19.3 M47,383l-5.2,0.6 M96.7,227.6l0.5,10
		 M95.3,227.8l1.5-0.2 M95.6,206.4l-3.1,0.4 M94.4,185.1l1.2,21.2 M91.4,185.5l3-0.4 M84.6,165l0.8,14.2 M84.8,165l-0.2,0
		 M93.3,163.9l-3,0.4 M45.7,218.2l-1.2-22.7 M44.5,195.4l-0.1-0.8l0.2-0.8l0.5-0.6l0.7-0.4l0.8-0.1l0.8,0.1l0.5,0.3 M48.3,169.3
		l1.8-0.2 M49,182.4l-4.1-6.3 M44.8,176.1l-0.4-1l-0.2-1l0.1-1.1l0.4-1l0.6-1l0.9-0.7l1-0.5l1.1-0.3 M40.8,382.7l-1.3,0.1 M47.1,385
		l-0.9,0.1 M60.3,412.5v0.8v0.7l0,0.6l-0.1,0.4l-0.1,0.3l-0.1,0.2h-0.1 M54.6,400.6l-1.3,0.1 M58.5,381.2l1.7,31.4 M40.2,257.8
		l-0.9,0.1 M55.2,340.8l0.5,0.9 M55.2,340.8l-3.5,0.4 M56.8,347.7l0.1,4l0.1,4l0.1,4.1l0.2,4.2l0.2,4.2l0.3,4.3l0.3,4.3l0.3,4.4
		 M58.5,381.2l-3.6,0.4 M55.7,341.7l0.2,0.5l0.2,0.6l0.2,0.7l0.1,0.8l0.1,0.8l0.1,0.9l0.1,0.8v0.8 M37.9,215.4l-0.9,0.1 M35.8,174.7
		l-1,0.1 M30.1,88.4l-2,0.2 M37,95l7.5,137.5 M34.8,92.2L37,95 M37,95l-3.6,0.4 M34.8,92.2l-3.6,0.4 M46.2,385.1l-0.1-2 M45.9,363.7
		l1.2,22.7 M47.2,386.4l-0.9-1.2 M40.3,275.9l0.1,0.2 M37,215.5l-0.1-2 M35.7,191.1l1,1.2 M36.7,192.3l1.3,24.4 M37.9,216.7
		l-0.9-1.2 M32.6,134.7l0.1,0.8l0.1,0.8l0.1,0.6l0.2,0.4l0.2,0.1l0.1-0.2l0.1-0.5l0-0.7 M30.3,91.4l2.3,43.3 M28.2,88.7l2.2,2.8
		 M31.4,148.9l-3.2-60.2 M33.7,191.3l-1.1-20 M36,233.7l-1.1-20.1 M38.1,271.8l-0.9-15.7 M38,276.2l0-4.4 M37.9,304.6l0-5.9
		 M40.9,384.7l-1.1-20.3 M39.4,382.9l1.4,1.9 M38.6,368.6l0.8,14.2 M36.7,358l0-4l-0.1-4.1l-0.2-4.1l0-0.6 M38.4,389.5L36.7,358
		 M39.6,395l-0.2-0.3l-0.2-0.4l-0.2-0.6l-0.2-0.7l-0.1-0.8l-0.1-0.8l-0.1-0.9l0-0.8 M40.1,395.6l-0.5-0.6 M55.9,415.9l-8.6-11.1
		 M56.7,413l0,0.8l0,0.7l0,0.5l-0.1,0.5l-0.1,0.3l-0.1,0.1h-0.2l-0.2-0.1 M54.9,381.6l1.7,31.4 M53.2,348.1l0.1,3.9l0.1,4.1l0.1,4.1
		l0.2,4.2l0.2,4.2l0.3,4.3l0.3,4.3l0.3,4.3 M52.1,342.1l0.2,0.4l0.2,0.6l0.2,0.7l0.1,0.8l0.1,0.9l0.1,0.9l0.1,0.8v0.8 M51.7,341.3
		l0.4,0.9 M51.7,347.6l0-1.9v-4.4 M53.4,379.1l-0.4-4.9l-0.3-4.9l-0.3-4.8l-0.1-1.5 M53.7,383l0-0.5V382l0-0.5V381l0-0.5l0-0.5v-0.5
		l0-0.5 M54.7,402.6l-1-19.6 M53.3,400.7l1.4,1.9 M51.2,363l2,37.7 M33.4,95.4l8.8,162.1 M31.3,92.6l2.1,2.8 M33.6,135.9l-2.3-43.3
		 M43.7,383.4l-0.3,3.8 M43.4,387.2l0,0.4l-0.1,0.2H43l-0.1-0.3l-0.1-0.4l-0.1-0.6l-0.1-0.7l0-0.7 M42.4,385l-0.1-1.4 M49.4,388.4
		L49.4,388.4l0-0.2V388v-0.1l0-0.1v-0.1v-0.1v-0.1 M49.3,387.3l-1.1-19.9 M48.2,367.4L48.2,367.4v-0.2V367v-0.1v-0.1v-0.1v-0.1v-0.1
		 M48.2,366.5l0.3-3.1 M49.7,363.2l1.8,33.6 M51.5,396.8l0,0.6l0,0.5l-0.1,0.3l-0.1,0.1l-0.1-0.2l-0.2-0.3l-0.1-0.6l-0.1-0.6
		 M50.7,396.6l-1.3-8.2 M33.2,146.7l1.1,1.4 M34.3,148.1l1.5,28.1 M35.8,176.2l-1.1-1.4 M33.3,148.7l-0.1-2 M34.7,174.8l-0.2-3.7
		 M39.3,257.9l-0.1-2 M38,233.5l0.9,1.2 M38.9,234.7l1.3,24.4 M40.3,259.1l-0.9-1.2 M44.4,393.5l5.8,7.4 M50.2,400.9l0.2,4
		 M50.4,405l-0.3-0.5 M44.5,394.6l0-1.1 M109.4,406.6l0,0.8v0.7l0,0.6l-0.1,0.5l-0.1,0.3l-0.1,0.1l0,0 M103.8,394.7l-1.3,0.1
		 M107.8,375.2l1.7,31.4 M104.5,334.9l0.5,0.9 M104.5,334.9l-3.6,0.4 M106,341.8l0,3.9l0.1,4.1l0.1,4.1l0.2,4.2l0.2,4.2l0.2,4.2
		l0.3,4.3l0.3,4.3 M107.8,375.2l-3.6,0.4 M105,335.8l0.2,0.4l0.2,0.6l0.2,0.7l0.1,0.8l0.1,0.9l0.1,0.9l0,0.8l0,0.8 M85,168.7l-0.2,0
		 M85.6,114.8l2.1,2.8 M85.6,114.8l-3.6,0.4 M87.7,117.6l5.4,99.8 M87.7,117.6l-3.6,0.4 M82,129.9l0.1,0.4l0.2,0.6l0.2,0.4l0.1,0
		l0.1-0.2l0-0.5V130 M80.6,143l-0.7-12.8 M87.6,383.5l0-0.3 M87.8,385.5l0-0.2l-0.1-0.8l0-0.9 M105.1,410l-5.9-7.5 M105.9,407.1v0.8
		v0.7l0,0.6l-0.1,0.5l-0.1,0.3l-0.1,0.1h-0.1l-0.2-0.2 M104.2,375.7l1.7,31.4 M102.4,342.2l0.1,3.9l0.1,4l0.1,4.1l0.2,4.2l0.2,4.2
		l0.2,4.3l0.3,4.3l0.3,4.3 M101.4,336.2l0.2,0.4l0.2,0.6l0.2,0.7l0.1,0.8l0.1,0.8l0.1,0.9l0,0.9l0,0.8 M100.9,335.3l0.5,0.9
		 M101,341.7l0-1.9l0-4.4 M102.9,377l0-0.5v-0.5l0-0.4v-0.2 M103.9,396.6l-1-19.6 M102.5,394.8l1.4,1.8 M101.8,381.4l0.7,13.4
		 M84.1,118l4.1,75.3 M82,115.2l2.1,2.8 M82.8,130L82,115.2 M98.6,382.5l0-0.1v-0.1v-0.1l0-0.1v-0.1 M100.3,381.6l0.5,9.2
		 M100.8,390.8v0.7l0,0.5l-0.1,0.3l-0.1,0l-0.2-0.1l-0.1-0.3l-0.1-0.6l-0.1-0.7 M99.9,390.6l-1.3-8.2 M82.5,140.8l1.1,1.4
		 M83.5,142.2l1.5,28.1 M85.1,170.3l-0.2-0.3 M82.6,142.7l-0.1-1.9 M93.6,387.6l5.8,7.4 M52.5,385.5L51.3,363 M52.5,385.5l1.4,1.7
		 M80.9,343.7l-9.6,1.2 M80.4,335l0.5,8.7 M80.9,343.7l1.3,1.8 M38.1,362.7l-2.1-38.2 M38.1,362.7l1.4,1.8 M56,89.8l11.3-1.4
		 M67.3,88.5l1.3,1.8 M56.5,99.4L56,89.8 M56,89.8l1.4,1.8 M56.5,99.4l1.3,1.7 M36.1,324.5L56.5,99.4 M36.1,324.5l1.4,1.7
		 M39.5,364.4l-2.1-38.2 M52.6,362.9l-13,1.6 M53.9,387.2l-1.3-24.3 M103.1,381.3l-44.3,5.3 M115.6,355.3l-9.1,1.1 M113.5,317.1
		l2.1,38.2 M69.2,99.8l44.4,217.3 M68.6,90.2l0.5,9.6 M57.3,91.6l11.3-1.4 M57.8,101.1l-0.5-9.5 M37.5,326.2l20.4-225.1 M71.4,346.7
		l-0.6-10.6 M70.8,336.1l10.9-1.3 M81.7,334.8l0.5,10.6 M82.2,345.4l-10.8,1.3 M37.9,367.6l-1.2-22.4 M37.9,367.6l1.3,1.7
		 M23.5,344.8l-2.1-38.2 M23.5,344.8l1.3,1.8 M43,71.8l0.9-0.1 M31.8,191.5l1.2-13.1 M21.4,306.6l9.6-106.5 M21.4,306.6l1.3,1.7
		 M24.8,346.6l-2.1-38.2 M37.2,345.1l-12.4,1.5 M39.2,369.3l-0.3-5.7 M40,369.2l-0.8,0.1 M33.4,191.4l0.2-2.5 M22.7,308.4l8.9-97.8
		 M97.4,122.4l-0.8-1.1 M96.7,109.7l-0.8-1 M95.4,84.2l-0.8-1 M69,68.6l-0.8-1.1 M42.9,71.7l-0.8-1.1 M95.8,120.8L99,121 M93.7,82.6
		l3.2,0.2 M96.1,64.4L95,64.3 M69.4,67.6l0.2,0.6 M56.3,69.1l0.2,0.7 M43.3,70.7l0.3,0.7 M92.7,39.8l1.9-0.2 M95.5,40.2L94.2,42
		 M95.5,63.9l1.2,0.3 M88.5,67.4l3.4,0.9 M125.5,48.7l0.2,0 M123.4,45.6l-0.2,0 M117,48L117,48 M117.6,45.8l-0.2,0 M56.2,416.1
		l3.6-0.4 M105.4,410.2l3.6-0.4"/>
	<g class="st8">
		<text transform="matrix(1 0 0 1 20.6043 382.5877)" class="st9" style="font-family:'Arial,Bold'; font-size:6.9572px;">SolidWorks Educational Edition.</text>
	</g>
	<g class="st8">
		<text transform="matrix(1 0 0 1 20.6043 390.1853)" class="st9" style="font-family:'Arial,Bold'; font-size:6.9572px;"> For Instructional Use Only.</text>
	</g>
	<use xlink:href="#SVGID_1_"  style="overflow:visible;fill:none;stroke:#231F20;stroke-width:0.4923;stroke-miterlimit:10;"/>
</g>
</svg>
