<?xml version="1.0" encoding="utf-8"?>
<!-- Generator: Adobe Illustrator 20.1.0, SVG Export Plug-In . SVG Version: 6.00 Build 0)  -->
<svg version="1.1" id="Layer_1" xmlns="http://www.w3.org/2000/svg" xmlns:xlink="http://www.w3.org/1999/xlink" x="0px" y="0px"
	 viewBox="0 0 149 149" style="enable-background:new 0 0 149 149;" xml:space="preserve">
<style type="text/css">
	.st0{clip-path:url(#SVGID_2_);}
	.st1{enable-background:new    ;}
	.st2{fill:#010101;}
	.st3{clip-path:url(#SVGID_4_);}
	.st4{fill:none;stroke:#202020;stroke-miterlimit:10;}
	.st5{clip-path:url(#SVGID_7_);fill-rule:evenodd;clip-rule:evenodd;fill:#C9C9C9;}
	.st6{clip-path:url(#SVGID_7_);}
	.st7{fill-rule:evenodd;clip-rule:evenodd;fill:#C9C9C9;}
	.st8{fill-rule:evenodd;clip-rule:evenodd;fill:#5D5D5D;}
	.st9{fill-rule:evenodd;clip-rule:evenodd;fill:#6F6F6F;}
	.st10{fill:#E8E8E8;}
	.st11{fill:#5D5D5D;}
	.st12{fill:#6F6F6F;}
	.st13{fill:none;stroke:#E8E8E8;stroke-width:0.4539;stroke-miterlimit:10;}
	.st14{fill:none;stroke:#5D5D5D;stroke-width:0.4539;stroke-miterlimit:10;}
	.st15{fill:none;stroke:#6F6F6F;stroke-width:0.4539;stroke-miterlimit:10;}
	.st16{fill:url(#SVGID_8_);}
	.st17{fill:none;stroke:#9D9D9D;stroke-width:0.8413;stroke-miterlimit:10;}
	.st18{clip-path:url(#SVGID_7_);fill:none;stroke:#9D9D9D;stroke-width:1.4147;stroke-linecap:round;stroke-miterlimit:10;}
	.st19{fill-rule:evenodd;clip-rule:evenodd;fill:#C8C8C8;}
</style>
<g>
	<g>
		<defs>
			<circle id="SVGID_1_" cx="74.5" cy="74.5" r="72.6"/>
		</defs>
		<clipPath id="SVGID_2_">
			<use xlink:href="#SVGID_1_"  style="overflow:visible;"/>
		</clipPath>
		<g class="st0">
			<text transform="matrix(1 0 0 1 21.9336 374.9835)" class="st2" style="font-family:'ArialMT'; font-size:6.7855px;">SolidWorks Educational Edition.</text>
		</g>
	</g>
</g>
<g>
	<g>
		<defs>
			<circle id="SVGID_3_" cx="74.5" cy="74.5" r="72.6"/>
		</defs>
		<clipPath id="SVGID_4_">
			<use xlink:href="#SVGID_3_"  style="overflow:visible;"/>
		</clipPath>
		<g class="st3">
			<text transform="matrix(1 0 0 1 21.9336 382.3937)" class="st2" style="font-family:'ArialMT'; font-size:6.7855px;"> For Instructional Use Only.</text>
		</g>
	</g>
</g>
<g>
	<g>
		<circle id="SVGID_6_" class="st4" cx="74.5" cy="74.5" r="72.6"/>
	</g>
	<g>
		<defs>
			<circle id="SVGID_5_" cx="74.5" cy="74.5" r="72.6"/>
		</defs>
		<clipPath id="SVGID_7_">
			<use xlink:href="#SVGID_5_"  style="overflow:visible;"/>
		</clipPath>
		<path class="st5" d="M-40,128.9c1.3-0.4,2.4-1,3.6-1.5c2.1-0.7,4.1-1.6,6.1-2.5c2-0.8,3.9-1.6,5.9-2.4c2.4-1,4.9-2,7.3-3
			c2-0.8,4-1.7,6.1-2.5c2-0.8,3.9-1.6,5.9-2.4c1.6-0.7,3.3-1.3,4.9-2c2.3-1,4.7-1.8,7-2.9c1.6-0.7,3.2-1.3,4.8-2
			c1.9-0.9,3.9-1.6,5.9-2.4c1.5-0.6,3-1.2,4.5-1.9c1-0.4,2.1-0.8,3.1-1.3c0.4-0.2,0.7-0.1,1.1,0c4.3,1.5,8.6,2.9,13,4.4
			c3.9,1.3,7.8,2.6,11.7,3.9c5.1,1.8,10.2,3.4,15.3,5.2c0.3,0.1,0.6,0.3,1,0.5c-0.4,0.5-0.9,0.8-1.5,1.1c-2,1.1-4,2.2-6,3.3
			c-1.6,0.9-3.3,1.8-5,2.7c-2,1.1-4,2.3-6.1,3.4c-0.9,0.5-1.9,1-2.8,1.5c-1.9,1-3.7,2.2-5.6,3.2c-0.9,0.5-1.9,1-2.8,1.5
			c-2.5,1.4-5,2.8-7.5,4.2c-2.3,1.3-4.6,2.5-6.9,3.8c-2.1,1.2-4.2,2.3-6.4,3.5c-2.3,1.2-4.5,2.5-6.8,3.8c-1.9,1-3.8,2.1-5.7,3.1
			c-0.4,0.2-0.9,0.3-1.4,0.6c-0.8-0.6-1.8-1-2.7-1.4c-3-1.6-6.1-3.2-9.1-4.8c-2.7-1.4-5.3-2.9-8-4.2c-2.8-1.5-5.6-3-8.4-4.5
			c-2.4-1.3-4.9-2.6-7.3-3.9c-2.3-1.2-4.7-2.5-7-3.7C-39.9,129.2-39.9,129.1-40,128.9z M-6.7,138.7c0.2,0.4,0.5,0.6,0.9,0.8
			c0.7,0.3,1.4,0.7,2,1c0.7,0.4,1.4,0.4,2.2,0.1c1.6-0.5,3.1-1.1,4.6-1.6c3.1-1.1,6.1-2.2,9.2-3.3c2.2-0.8,4.5-1.6,6.7-2.4
			c3.8-1.3,7.5-2.7,11.3-4c2.4-0.9,4.9-1.6,7.5-1.9c1-0.1,2.1-0.4,3.1-0.6c1-0.2,2.1-0.5,3.1-0.6c1-0.1,2.1-0.4,3.1-0.7
			c0.8-0.2,1.5-0.8,2.2-1.2c1.3-0.6,2.5-1.3,3.7-2c2.2-1.2,4.4-2.5,6.7-3.7c0.8-0.4,1.5-0.8,2.2-1.4c-0.1-0.3-0.3-0.5-0.6-0.5
			c-2.4-0.8-4.8-1.7-7.2-2.4c-1.1-0.3-2.1-1-3.3-0.8c-0.1,0-0.1,0.1-0.2,0.1c0.1,0.2,0.2,0.3,0.4,0.5c-1.3,0.6-2.5,1.3-4,2
			c2,0.7,3.7,1.4,5.6,2c-1.6,0.8-2.9,1.6-4.2,2.3c-2.6-0.9-5-1.8-7.5-2.7c-1.5,0.7-2.9,1.5-4.5,2.3c2.5,1,4.9,1.9,7.3,2.8
			c-1.7,0.7-3.2,1.8-4.8,2.4c-1.7-0.7-3.3-1.2-4.9-1.9c-0.6-0.3-1.1-0.2-1.6,0.1c-1.4,0.7-2.8,1.4-4.2,2.1c-1.2-0.8-2.5-1-3.7-1.7
			c-9.8,5-19.8,9.7-29.4,14.6c-0.6,0-0.8-0.4-1.2-0.4C-6.4,138.3-6.5,138.5-6.7,138.7z M16.6,117.1c1,0.4,1.8,0.7,2.7,1.1
			c-3.5,1.6-6.9,3.2-10.3,4.7c-0.9-0.6-1.9-0.8-2.7-1.2c-2.6,1.3-5.3,2.3-7.9,3.6c1,0.4,1.8,0.8,2.7,1.2c-2.2,1.1-4.4,2.1-6.6,3.1
			c-2.5,1.1-4.9,2.3-7.4,3.4c-0.6,0.3-1.2,0.7-1.9,0.8c-1.2-0.6-2.3-1.2-3.5-1.7c-1.6,0.7-3.3,1.5-5,2.2c-0.6-0.4-1.1-0.1-1.7,0.5
			c0.6-0.1,0.9,0.2,1.2,0.3c1.9-0.4,3.5-1.4,5.3-2c0.9,0.5,1.9,1,2.9,1.5c-0.1,0.2-0.1,0.2-0.1,0.3c-1.1,1.4-0.8,2.4,1,2.9
			c1.8,0.6,3.7,0.5,5.5-0.1c0.6,0.2,1.2,0.4,1.7-0.1c0-0.3-0.3-0.3-0.3-0.6c5.5-2.7,11-5.2,16.5-8c-2.2-1.1-4.3-1.8-6.4-2.9
			c2.1-1,4-1.9,5.9-2.7c2.2,0.9,4.4,1.9,6.6,2.8c3.8-2.1,7.9-3.7,11.9-5.9c-2.1-0.8-4-1.6-6.2-2.5c1.4-0.8,2.7-1.3,4-1.9
			c0.9-0.4,1.7-0.4,2.6,0c1.7,0.7,3.4,1.3,5.2,2c4-2.1,8.1-3.9,12.1-5.9c0.4-0.1,0.9,0.1,1.3-0.1c0.1-0.4-0.3-0.3-0.4-0.5
			c0.3-0.2,0.2-0.6,0.2-0.9c-0.9-0.9-3.3-1.7-4.7-1.3c-0.9,0.3-1.7,0.1-2.6-0.1c-0.5-0.1-1-0.6-1.6-0.3c0.2,0.5,0.9,0.4,1.2,1
			c-3.9,1.8-7.7,3.5-11.5,5.3c-0.7-0.3-1.5-0.5-2.2-0.8c-0.3-0.1-0.6-0.2-1,0c-0.8,0.4-1.7,0.8-2.6,1.2
			C19.3,115.9,18.1,116.5,16.6,117.1z M-25.7,132.9c1.4-0.6,2.8-1.2,4.3-1.8c2.7-1.2,5.4-2.4,8.1-3.6c2.1-0.9,4.2-1.9,6.3-2.8
			c2.7-1.2,5.3-2.3,8-3.5c2.5-1.1,5-2.2,7.6-3.4c0.8-0.4,1.6-0.8,2.4-1.1c2.3-0.8,4.4-2,6.6-2.9c0.2-0.1,0.4-0.2,0.5-0.5
			c-0.4,0-0.8-0.1-1.2,0c-1.6,0.5-3.3,0.8-5,1.2c-1.9,0.4-3.7,0.9-5.6,1.3c-2.1,0.5-4.3,1-6.4,1.5c-1.8,0.4-3.7,0.9-5.5,1.3
			c-1.9,0.5-3.9,1-5.8,1.4c-1,0.2-2.1,0.5-3.1,0.7c-1.6,0.3-3.2,0.7-4.7,1.1c-1.3,0.4-2.6,0.9-3.8,1.5c-1.6,0.8-3.2,1.3-4.8,2
			c-2.5,1.1-5,2-7.4,3.1c-0.1,0-0.1,0.1-0.2,0.2c0,0.1,0,0.3,0,0.4c2.6,1.4,5.2,2.7,7.8,4.1c0.8,0.4,1.6,0.7,2.4,0.2
			C-25.4,133.3-25.7,133.3-25.7,132.9z"/>
		<g class="st6">
			<path class="st7" d="M70.2,115c-0.2-0.1-0.3-0.2-0.4-0.4c0.7-0.3,1.4-0.5,2.1-0.8c1-0.4,2-0.9,3-1.3c1.5-0.6,3-1.2,4.5-1.8
				c1-0.4,2-0.8,3-1.3c1.5-0.6,3.1-1.3,4.6-1.9c1.3-0.6,2.7-1.1,4-1.6c1.5-0.6,3-1.1,4.4-1.8c1-0.5,2-0.8,3-1.3
				c1.5-0.7,3.1-1.3,4.7-2c0.9-0.4,1.8-0.7,2.8-1.1c1.1-0.5,2.3-0.9,3.4-1.4c2.7-1.1,5.4-2.3,8.1-3.4c1.5-0.6,3.1-1.3,4.6-1.9
				c2.2-1,4.4-1.8,6.6-2.7c0.7-0.3,1.4-0.6,2-0.9c0.4-0.2,0.7-0.2,1.2,0c4.6,1.6,9.1,3.1,13.7,4.6c3.2,1.1,6.3,2.1,9.5,3.1
				c5.1,1.7,10.3,3.4,15.4,5.1c0.1,0,0.2,0.1,0.2,0.2c0.1,0.3-0.4,0.1-0.4,0.4c-1,0.5-1.9,1.1-2.8,1.5c-1.2,0.6-2.3,1.2-3.4,1.8
				c-2.3,1.2-4.5,2.5-6.7,3.8c-1.8,1-3.7,2-5.5,3.1c-0.7,0.4-1.5,0.8-2.3,1.2c-1.7,1-3.5,2-5.2,2.9c-1,0.6-2.1,1.1-3.1,1.7
				c-2.2,1.3-4.5,2.5-6.7,3.8c-1.8,1-3.7,2-5.5,3.1c-0.7,0.4-1.5,0.8-2.3,1.2c-1.6,0.9-3.3,1.9-4.9,2.8c-1.8,0.9-3.6,2-5.3,2.9
				c-2.1,1.2-4.2,2.4-6.4,3.6c-0.3-0.2-0.6-0.4-0.9-0.6c-2.5-1.3-4.9-2.6-7.4-3.9c-2.6-1.3-5.1-2.7-7.7-4.1
				c-1.4-0.7-2.8-1.4-4.2-2.2c-2.5-1.4-5-2.6-7.5-3.9c-1.7-0.9-3.5-1.8-5.2-2.7c-0.5-0.3-1.1-0.5-1.6-0.8
				C74.1,116.9,72.1,116,70.2,115z M148.2,111.2c0-0.3,0.4-0.1,0.4-0.4c-0.2,0-0.4,0-0.6-0.1c0-0.3,0.5-0.1,0.4-0.5
				c-0.1,0-0.1-0.1-0.2-0.1c-1.5,0.4-2.6,1.4-4,2c-1.5-0.5-3-1-4.4-1.7c-0.6-0.3-1.3-0.3-1.9,0.1c-1.2,0.7-2.5,1.3-3.7,1.9
				c-1.3-0.5-2.5-1-3.7-1.5c-9.2,4.6-18.4,9.2-27.6,13.9c0.1,0.2,0.1,0.3,0.2,0.3c0.1,0,0.2,0,0.3,0c0.1,0.3,0.4,0.3,0.6,0.4
				c0.2,0,0.3,0.3,0.6,0.3c8.6-4.6,17.4-8.8,26.1-13.2c1.1,0.7,2.4,1,3.6,1.6c1.5-1,3.1-1.7,4.7-2.5c1,0.6,2,0.9,3,1.3
				c0.4,0.2,0.9,0.3,1.3-0.1c0.3,0,0.5,0,0.8,0c0.2,0,0.3-0.1,0.3-0.2c0.1,0,0.2,0,0.2,0c0.4,0,0.9,0.1,1.3-0.2
				c1,0.1,1.7-0.4,2.5-0.8C148.4,111.3,148.4,111.2,148.2,111.2z M150,97.9L150,97.9c0-0.7-0.6-0.7-1-0.9c-1.2-0.4-2.4-0.2-3.6-0.2
				c-0.2,0-0.3,0.1-0.4,0.2c-0.7-0.2-1.3-0.4-1.9-0.6c-2,0.9-3.9,1.8-5.9,2.7c-1.6,0.7-3.2,1.5-4.7,2.2c-0.7-0.3-1.4-0.5-2.1-0.8
				c-0.3-0.1-0.6-0.2-0.9,0c-0.7,0.3-1.5,0.7-2.2,1c-1.2,0.6-2.5,1.1-3.8,1.8c0.5,0.3,0.8,0.2,1.2,0c1.8-0.9,3.6-1.7,5.4-2.5
				c0.7,0.4,1.5,0.5,2.1,0.8c0.3,0.2,0.7,0.1,1-0.1c2.6-1.3,5.2-2.5,7.8-3.7c0.5-0.3,1.1-0.5,1.7-0.7c0.3-0.1,0.7-0.1,1.1,0
				c0.4,0.2,0.8,0.4,1.3,0.4c0.2,0.3,0.5,0.4,0.9,0.4c0,0.1,0,0.2,0,0.3v0c-0.1,0-0.3-0.1-0.3,0c-1,0.6-2.1,1-3.2,1.5
				c-1,0.5-2,1.1-3.1,1.5c-1.3,0.5-2.4,1.2-3.6,1.7c0.2,0.3,0.4,0.4,0.6,0.4c0.3,0.3,0.7,0.3,1.1,0.5c3.4-1.9,7-3.3,10.4-5.1
				c0.3,0,0.6,0.5,0.9,0c0.3,0.1,0.6-0.3,0.9-0.3c0.2,0,0.4,0,0.6,0c0,0.1,0.1,0.1,0.1,0.2c0.2-0.1,0.4-0.2,0.3-0.5
				C150.4,97.9,150.2,97.9,150,97.9z M155.3,101.7c-0.4,0.2-0.8,0.3-1.1,0.5c-0.3,0.2-0.9,0.2-1.1,0.7c0.2,0,0.4,0,0.6,0
				c0.7,0.3,1.1,0.3,1.6-0.2c0.1-0.2,0.3-0.2,0.4-0.2c0.3,0.1,0.7,0.1,1,0.2c2.1,0.8,4.3,1.5,6.5,2.2c0.1-0.1,0.3-0.2,0.4-0.2
				c0.2-0.1,0.5-0.1,0.6-0.4c0.2-0.1,0.4-0.2,0.7-0.4c-0.7-0.2-1.3-0.4-1.9-0.6c-2.1-0.7-4.2-1.6-6.4-2.2c-0.6-0.2-1.3-0.6-1.9-0.3
				c-1,0.4-2,0.9-2.9,1.5c0.2,0.4,0.4,0.3,0.7,0.1c0.7-0.4,1.5-0.7,2.2-1.1c0.3-0.1,0.5-0.3,0.7,0.1
				C155.5,101.6,155.5,101.7,155.3,101.7z M144.5,107c0.1,0.4,0.4,0.3,0.6,0.2c0.4-0.2,0.8-0.4,1.1-0.6c2.4,0.9,4.6,1.7,6.8,2.6
				c1.3-0.7,2.6-1.4,3.9-2.1c-0.1-0.2-0.1-0.3-0.3-0.3c0-0.3,0.4-0.1,0.4-0.4c-0.2,0-0.4,0-0.6-0.1c0-0.3,0.3-0.1,0.4-0.4
				c-0.1-0.1-0.2-0.2-0.3-0.3c-1.1,0.5-2.1,1-3.1,1.5c-0.4,0.2-0.7,0.2-1.1,0.1c-0.8-0.2-1.6-0.6-2.4-0.9c-1.3-0.5-2.6-1-3.9-1.4
				c-1,0.5-1.9,1-2.9,1.5c0.2,0.3,0.4,0.4,0.6,0.3C144,106.9,144.2,107.1,144.5,107z M92.4,120.9c0.1,0,0.3,0,0.4,0
				c0.2,0.4,0.7,0.3,0.9,0.6c-0.3,0.3-0.7,0.2-1.1,0.3c-0.1,0.6,0.3,0.9,0.7,1c0.2,0,0.4,0.2,0.6,0.2c1.5,0.4,3.1,0.4,4.6-0.1
				c0-0.2-0.2-0.3-0.1-0.5c0.9-0.5,1.8-1,2.7-1.4c1-0.4,1.9-0.8,2.8-1.3c0.9-0.5,1.8-0.9,2.8-1.4c0.9-0.4,1.9-0.8,2.8-1.3
				c0.9-0.5,1.9-0.9,2.8-1.4c0.9-0.5,1.9-0.6,2.8-1.4c-1.8-0.8-3.5-1.6-5.4-2.4c1.1-0.5,2-1.1,3-1.4c0.5-0.2,1-0.5,1.5-0.8
				c0,0,0.1-0.1,0.1-0.2c-0.2-0.1-0.3-0.2-0.5-0.2c-0.2,0.2-0.6,0.2-0.9,0.3c-0.8,0.4-1.7,0.8-2.5,1.2c-0.7,0.3-1.5,0.7-2.2,1.1
				c0,0,0,0.1,0,0.2c0.1,0.1,0.3,0,0.3,0.2c-0.1,0.1-0.4,0-0.4,0.3c-0.1,0-0.3,0-0.4,0.1c-1.8,0.8-3.6,1.7-5.4,2.5
				c-2.1,1-4.3,2-6.4,3c-0.8,0.4-1.5,0.8-2.3,1c-1.1-0.6-2.2-1.1-3.3-1.6c-1.6,0.7-3.1,1.4-4.7,2.1c-0.6-0.3-1-0.1-1.4,0.3
				c0.4,0.5,0.8,0,1.1,0.1c0.6,0.3,1,0,1.4-0.2c1.2-0.6,2.4-1.1,3.7-1.7c0.7,0.3,1.4,0.6,2,1c0.9,0.6,1.8,0.8,2.7,0.1
				c0.2-0.2,0.5-0.1,0.7-0.2c2.2-1.1,4.4-2.1,6.7-3.2c1.7-0.8,3.4-1.6,5-2.4c0.3-0.1,0.5-0.1,0.7-0.2c1,0.2,1.9,0.8,2.8,1.2
				c-0.1,0.2-0.1,0.2-0.2,0.3c-1.4,0.6-2.7,1.2-4.1,1.8c-1,0.5-2,1-3,1.4c-2.5,1.1-4.9,2.4-7.4,3.6c-1.1-0.5-2.2-1.1-3.3-1.7
				C92.6,120.4,92.6,120.4,92.4,120.9c-0.4,0.1-0.2,0.4,0,0.6C92.4,121.3,92.4,121.1,92.4,120.9z M127.9,106.6
				c-1.5,0.7-3,1.3-4.4,2.1c-1.4,0.8-3,1.2-4.3,2.1c0.2,0.3,0.5,0.2,0.7,0.2c0.6,0.6,1.2,0.6,1.9,0.2c2.4-1.3,4.9-2.3,7.3-3.6
				c0.9-0.5,1.8-0.9,2.7-1.3c0.2-0.1,0.4-0.1,0.4-0.4c-1.6-0.8-3.3-1.2-5-2.1c1.3-0.6,2.3-1.2,3.5-1.7c-0.3-0.5-0.7-0.4-1.1-0.2
				c-1.4,0.7-2.8,1.3-4.2,2c0.2,0.1,0.3,0.1,0.5,0.2c-0.1,0.1-0.1,0.2-0.2,0.4c-0.9,0.4-1.8,0.7-2.6,1.1c-2.2,1-4.4,2.1-6.6,3.1
				c-0.8-0.5-1.7-0.7-2.5-1.1c-2.5,1.1-5,2.3-7.5,3.4c0.3,0.2,0.5,0.2,0.6,0.3c2.3-1.1,4.6-2.1,6.9-3.2c0.6,0.3,1.3,0.5,2,0.8
				c0.4,0.2,0.7,0.2,1.1,0c1.5-0.5,2.9-1.4,4.4-2c1.4-0.6,2.8-1.3,4.2-1.9c1,0.3,2,0.6,2.9,1.2C128,106.6,127.9,106.6,127.9,106.6z
				 M117.6,102.9c1-0.1,1.7-0.8,2.7-1c-0.5-0.3-0.9,0-1.3,0.1c-1.9,0.3-3.7,0.9-5.5,1.3c-1.3,0.3-2.5,0.7-3.8,0.9
				c-1.5,0.3-3,0.7-4.6,1.1c-1,0.2-1.9,0.6-2.9,0.7c-1.8,0.2-3.6,0.9-5.4,1.2c-1.8,0.4-3.5,0.9-5.3,1.3c-1.5,0.4-3,0.7-4.3,1.4
				c-0.9,0.5-1.9,0.8-2.8,1.2c-1.2,0.6-2.5,1-3.7,1.6c-1.1,0.5-2.2,0.9-3.3,1.4c-0.8,0.4-1.8,0.5-2.5,1.2c0.1,0.2,0.3,0.1,0.4,0.1
				c0.2,0.3,0.5,0.4,0.9,0.4c0.1,0.4,0.5,0.2,0.7,0.2c0,0.2,0.2,0.3,0.3,0.4c1.5,0.9,3.2,1.6,4.7,2.5c0.6,0.3,1.1,0.3,1.5-0.2
				c-0.1-0.1-0.2-0.2-0.2-0.4c1.1-0.7,2.3-1.1,3.5-1.6c2.2-0.9,4.3-1.9,6.4-2.8c1.7-0.7,3.3-1.5,4.9-2.3c2.3-1,4.5-2,6.8-3
				c1.6-0.7,3.1-1.4,4.7-2.1c2.2-1,4.5-2,6.7-3C116.8,103.4,117.3,103.3,117.6,102.9z M74,114.9c1-0.6,2.1-0.9,3.1-1.4
				c1.1-0.6,2.3-1,3.4-1.5c1.6-0.7,3.3-1.4,4.9-2c1.1-0.5,2.2-0.9,3.4-1.3c1.7-0.6,3.5-0.9,5.2-1.3c1.7-0.5,3.5-0.8,5.3-1.3
				c1.6-0.4,3.2-0.8,4.8-1.1c1.8-0.4,3.6-1,5.4-1.2c1-0.2,2-0.6,3.1-0.8c1.8-0.3,3.6-0.9,5.4-1.2c1.8-0.4,3.6-0.9,5.5-1.2
				c0.4-0.1,0.7-0.2,1-0.7c-0.5,0.1-1,0.1-1.5,0.2c-1.2,0.3-2.5,0.7-3.7,0.9c-1.6,0.3-3.1,0.7-4.7,1.1c-1,0.2-1.9,0.6-2.9,0.7
				c-1.5,0.2-3,0.7-4.5,1c-1.7,0.3-3.4,0.9-5.2,1.2c-1.7,0.4-3.5,0.8-5.2,1.2c-2.1,0.5-4.1,1-6.2,1.5c-1,0.3-2.1,0.5-3,1
				c-1,0.5-2.1,0.8-3.2,1.3c-1,0.5-2,0.8-3,1.3c-1,0.5-2.2,0.9-3.2,1.4c-1.4,0.6-2.9,1.1-4.3,1.9C74,114.6,74,114.7,74,114.9z
				 M130.6,109.8c-9.3,4.8-18.7,9.2-27.8,13.9c-0.4-0.2-0.7-0.5-1.1-0.4c-0.2,0.1-0.5,0.2-0.3,0.7c0.2,0,0.5-0.1,0.6,0
				c0.5,0.4,1,0.2,1.4-0.1c2.5-1.3,5-2.5,7.6-3.8c4.9-2.4,9.7-4.8,14.5-7.3c1.7-0.9,3.4-1.7,5.1-2.6c1,0.4,1.8,0.7,2.7,1.1
				c0.6,0.3,1.2,0.3,1.7,0c1.3-0.7,2.6-1.3,3.9-2c1.5,0.6,3,1.2,4.4,1.8c0.6,0.3,1.2,0.3,1.7-0.1c1.1-0.6,2.2-1.3,3.4-1.8
				c-0.2-0.2-0.3-0.3-0.4-0.4c-1.5,0.5-2.6,1.5-4,2c-1.3-0.5-2.5-0.9-3.7-1.5c-1-0.5-1.9-0.6-2.9,0.1c-1.1,0.7-2.3,1.2-3.4,1.7
				C133,110.6,131.8,110.4,130.6,109.8z M142.3,106.3c0.9-0.4,1.8-0.8,2.6-1.3c0.8-0.5,1.6-0.4,2.4-0.1c1.9,0.7,3.8,1.4,5.7,2.1
				c1.3-0.8,2.6-1.5,4-2.1c-0.2-0.1-0.4-0.2-0.5-0.3c-1.2,0.6-2.4,1.3-3.5,1.9c-2.4-0.9-4.8-1.7-7.1-2.6c-1.4,0.7-2.8,1.4-4.1,2.1
				C142,106.2,142.2,106.2,142.3,106.3z M138.7,94.4c1.1,0.3,2.2,0.7,3.3,1.1c1.8,0.7,3.6,1,5.5,0.8c0.9-0.1,1.6,0.2,2.4,0.6
				c0.2,0.1,0.4,0.3,0.7,0.1c-0.2-0.4-0.5-0.7-0.9-0.8c-1.3-0.4-2.6-0.9-4-0.4c-0.4,0.1-1,0.1-1.5-0.1c-1.4-0.5-2.9-1-4.3-1.5
				C139.4,94.2,139.1,94.2,138.7,94.4z M165.7,103.7c0-0.5-0.3-0.6-0.6-0.7c-2.7-0.9-5.4-1.9-8.1-2.8c-0.6-0.2-1.2-0.5-2.1-0.1
				C158.6,101.2,162.1,102.6,165.7,103.7z M156.8,103.8c1.8,0.6,3.5,1.3,5.4,1.8c0-0.2,0.3-0.1,0.4-0.3c-1.7-0.6-3.3-1.2-5-1.8
				C157.4,103.4,157,103.3,156.8,103.8z"/>
			<path class="st7" d="M70.5,116.3c0-0.2-0.2-0.3-0.3-0.4c-0.1-0.1-0.1-0.2,0.1-0.3c0.2,0,0.3,0.1,0.5,0.2c2,1.1,4,2.1,6.1,3.2
				c2.4,1.3,4.8,2.6,7.2,3.8c2.3,1.2,4.7,2.5,7,3.7c2.4,1.3,4.8,2.6,7.2,3.8c2.3,1.2,4.7,2.5,7,3.7c1.8,0.9,3.5,1.9,5.3,2.8
				c0.8-0.4,1.6-0.8,2.4-1.3c1.8-1.1,3.7-2.1,5.5-3.1c2-1.1,4-2.2,6-3.3c2-1.1,4-2.2,6-3.3c2.4-1.3,4.8-2.6,7.1-4
				c0.7-0.4,1.5-0.8,2.3-1.2c1.7-1.1,3.6-2,5.3-3c0.9-0.5,1.8-0.9,2.6-1.4c1.6-1,3.2-1.8,4.9-2.7c1.7-0.9,3.4-1.9,5.1-2.8
				c2.2-1.3,4.5-2.5,6.7-3.8c1.7-1,3.4-1.9,5.2-2.8c0.4-0.2,0.7-0.7,1.3-0.7c0.1,0.1,0.1,0.2,0.2,0.3c-0.1,0.1-0.4,0-0.4,0.3
				c-0.1,0-0.3,0-0.4,0.1c-1.6,0.9-3.2,1.8-4.7,2.7c-1.6,0.9-3.3,1.9-5,2.8c-0.9,0.5-1.8,0.9-2.6,1.4c-1.4,0.9-2.9,1.7-4.4,2.5
				c-1.7,0.9-3.4,1.8-5.1,2.8c-2.1,1.2-4.2,2.3-6.2,3.5c-1.8,1-3.6,2.1-5.4,3.1c-2.6,1.4-5.1,2.8-7.7,4.3c-2,1.1-3.9,2.2-5.9,3.3
				c-2.5,1.4-5,2.8-7.6,4.2c-1.7,1-3.4,1.9-5.2,2.9c-0.2-0.1-0.3-0.3-0.5-0.4c-2.5-1.2-4.9-2.6-7.4-3.9c-2-1.1-4-2.1-6-3.2
				c-2.5-1.3-5-2.6-7.5-4c-0.8-0.4-1.6-0.9-2.5-1.3c-2.4-1.2-4.8-2.5-7.2-3.8c-1.8-0.9-3.6-1.9-5.4-2.8c-0.2-0.1-0.3-0.2-0.5-0.3
				C72.6,117.3,71.6,116.6,70.5,116.3z"/>
			<path class="st8" d="M170.8,103.2c-0.6-0.1-0.9,0.4-1.3,0.7c-1.7,0.9-3.5,1.9-5.2,2.8c-2.2,1.3-4.5,2.5-6.7,3.8
				c-1.7,0.9-3.4,1.9-5.1,2.8c-1.6,0.9-3.3,1.8-4.9,2.7c-0.8,0.5-1.8,0.9-2.6,1.4c-1.8,1-3.6,1.9-5.3,3c-0.7,0.4-1.5,0.8-2.3,1.2
				c-2.4,1.3-4.8,2.6-7.1,4c-2,1.1-4,2.2-6,3.3c-2,1.1-4,2.2-6,3.3c-1.8,1-3.7,2.1-5.5,3.1c-0.8,0.5-1.6,0.9-2.4,1.3
				c-1.7-0.9-3.5-1.8-5.3-2.8c-2.3-1.2-4.7-2.5-7-3.7c-2.4-1.3-4.8-2.6-7.2-3.8c-2.3-1.2-4.7-2.5-7-3.7c-2.4-1.3-4.8-2.5-7.2-3.8
				c-2-1.1-4-2.1-6.1-3.2c-0.2-0.1-0.3-0.1-0.5-0.2c0-0.3-0.3-0.2-0.4-0.3c0-0.3,0.4-0.1,0.4-0.4c1.9,1,3.8,1.9,5.7,3
				c0.5,0.3,1.1,0.5,1.6,0.8c1.7,0.9,3.5,1.8,5.2,2.7c2.5,1.3,5,2.6,7.5,3.9c1.4,0.8,2.8,1.4,4.2,2.2c2.6,1.3,5.1,2.7,7.7,4.1
				c2.5,1.3,4.9,2.6,7.4,3.9c0.3,0.2,0.6,0.4,0.9,0.6c2.1-1.2,4.2-2.4,6.4-3.6c1.8-1,3.5-2,5.3-2.9c1.7-0.9,3.3-1.9,4.9-2.8
				c0.7-0.4,1.5-0.8,2.3-1.2c1.8-1,3.7-2,5.5-3.1c2.2-1.3,4.5-2.5,6.7-3.8c1-0.6,2.1-1.1,3.1-1.7c1.8-0.9,3.5-1.9,5.2-2.9
				c0.7-0.4,1.5-0.8,2.3-1.2c1.8-1,3.7-2,5.5-3.1c2.2-1.3,4.4-2.6,6.7-3.8c1.1-0.6,2.2-1.3,3.4-1.8c1-0.5,1.9-1.1,2.8-1.5
				c0.1,0,0.3,0,0.4,0.1C170.9,103,170.9,103.1,170.8,103.2z"/>
			<path class="st8" d="M70.5,116.3c1.1,0.4,2.1,1,3.2,1.5c0.2,0.1,0.3,0.2,0.5,0.3c1.8,0.9,3.6,1.9,5.4,2.8
				c2.4,1.3,4.8,2.6,7.2,3.8c0.8,0.4,1.6,0.9,2.5,1.3c2.5,1.4,5,2.7,7.5,4c2,1.1,4,2.1,6,3.2c2.5,1.3,4.9,2.7,7.4,3.9
				c0.2,0.1,0.3,0.3,0.5,0.4c1.7-1,3.4-1.9,5.2-2.9c2.5-1.4,5.1-2.8,7.6-4.2c2-1.1,3.9-2.2,5.9-3.3c2.6-1.4,5.1-2.9,7.7-4.3
				c1.8-1,3.6-2,5.4-3.1c2.1-1.2,4.2-2.4,6.2-3.5c1.7-1,3.4-1.9,5.1-2.8c1.5-0.8,2.9-1.6,4.4-2.5c0.8-0.5,1.7-1,2.6-1.4
				c1.7-0.9,3.3-1.8,5-2.8c1.6-0.9,3.2-1.8,4.7-2.7c0.1-0.1,0.3-0.1,0.4-0.1c0.1,0,0.3,0,0.4,0c0,0.3-0.4,0.1-0.4,0.4
				c-2,1.1-4.1,2.2-6.1,3.4c-2.3,1.3-4.6,2.7-7,4c-2.5,1.4-5,2.8-7.6,4.2c-2.4,1.3-4.7,2.7-7.1,4c-1.8,1-3.7,2-5.5,3.1
				c-2.5,1.5-5,2.8-7.6,4.2c-2.4,1.3-4.7,2.7-7.1,4c-2.2,1.3-4.5,2.5-6.7,3.8c-0.7,0.4-1.4,0.8-2.1,1.2c-0.9,0.6-1.8,1-2.7,1.5
				c-0.4,0.2-0.7,0.2-1.1,0c-0.6-0.3-1.1-0.6-1.7-0.9c-2.2-1.1-4.3-2.3-6.4-3.4c-2-1.1-4-2.1-6-3.2c-2.1-1.1-4.3-2.3-6.4-3.4
				c-2-1-4-2.1-6-3.2c-2.3-1.2-4.6-2.4-6.9-3.7c-1.6-0.8-3.1-1.7-4.7-2.5c-0.5-0.2-0.8-0.7-1.4-0.7c0-0.3-0.4-0.1-0.4-0.3
				C70.2,116.2,70.3,116.3,70.5,116.3z"/>
			<path class="st9" d="M70.5,116.7c0.6,0,0.9,0.5,1.4,0.7c1.6,0.8,3.2,1.6,4.7,2.5c2.3,1.2,4.6,2.5,6.9,3.7c2,1,4,2.1,6,3.2
				c2.2,1.1,4.3,2.3,6.4,3.4c2,1.1,4,2.1,6,3.2c2.1,1.2,4.3,2.3,6.4,3.4c0.6,0.3,1.1,0.6,1.7,0.9c0.4,0.2,0.7,0.2,1.1,0
				c0.9-0.5,1.9-0.9,2.7-1.5c0.7-0.4,1.4-0.8,2.1-1.2c2.2-1.3,4.5-2.5,6.7-3.8c2.4-1.3,4.7-2.7,7.1-4c2.5-1.4,5.1-2.8,7.6-4.2
				c1.8-1.1,3.7-2.1,5.5-3.1c2.4-1.3,4.7-2.7,7.1-4c2.5-1.4,5-2.8,7.6-4.2c2.3-1.3,4.6-2.7,7-4c2-1.1,4.1-2.3,6.1-3.4
				c0.1,0,0.3,0,0.4,0.1c-0.1,0.2-0.2,0.3-0.2,0.4c-0.9,0.2-1.6,0.8-2.4,1.2c-1.7,0.9-3.3,1.9-4.9,2.8c-0.7,0.4-1.4,0.8-2.1,1.2
				c-1.7,0.9-3.3,1.9-4.9,2.8c-0.7,0.4-1.5,0.8-2.1,1.2c-1.4,0.9-2.9,1.6-4.4,2.5c-1.4,0.8-2.8,1.5-4.2,2.3
				c-2.1,1.2-4.2,2.4-6.3,3.6c-1.4,0.8-2.9,1.6-4.3,2.4c-2,1.1-3.9,2.3-5.8,3.4c-2.1,1.2-4.2,2.3-6.3,3.5c-0.7,0.4-1.5,0.7-2.2,1.2
				c-1.4,0.9-3,1.7-4.4,2.6c-0.9,0.6-1.9,1.2-2.9,1.6c-1,0.5-1.8,1.2-2.9,1.5c-2.6-1.4-5.2-2.7-7.8-4.1c-0.4-0.2-0.9-0.4-1.2-0.6
				c-2.2-1.4-4.5-2.5-6.8-3.7c-1.6-0.8-3.2-1.7-4.7-2.5c-2.3-1.2-4.6-2.5-6.9-3.7c-1.5-0.8-3.1-1.6-4.6-2.5
				c-2.5-1.4-5.1-2.6-7.5-4.1c-0.1-0.1-0.3-0.1-0.4-0.1c0-0.3-0.4-0.1-0.4-0.2C70.2,116.8,70.3,116.8,70.5,116.7z"/>
			<path class="st8" d="M70.7,117.4c0.1,0,0.3,0,0.4,0.1c2.5,1.4,5,2.7,7.5,4.1c1.5,0.8,3.1,1.6,4.6,2.5c2.3,1.2,4.6,2.5,6.9,3.7
				c1.6,0.8,3.2,1.7,4.7,2.5c2.3,1.2,4.6,2.3,6.8,3.7c0.4,0.2,0.8,0.4,1.2,0.6c2.6,1.4,5.2,2.7,7.8,4.1c1.1-0.4,1.9-1,2.9-1.5
				c1-0.5,1.9-1.1,2.9-1.6c1.5-0.9,3-1.6,4.4-2.6c0.7-0.4,1.4-0.8,2.2-1.2c2.1-1.2,4.2-2.3,6.3-3.5c2-1.1,3.9-2.3,5.8-3.4
				c1.4-0.8,2.9-1.6,4.3-2.4c2.1-1.2,4.2-2.4,6.3-3.6c1.4-0.8,2.8-1.5,4.2-2.3c1.4-0.9,2.9-1.6,4.4-2.5c0.7-0.4,1.4-0.8,2.1-1.2
				c1.6-0.9,3.3-1.9,4.9-2.8c0.7-0.4,1.4-0.8,2.1-1.2c1.6-0.9,3.3-1.9,4.9-2.8c0.8-0.4,1.5-1,2.4-1.2c0.1,0.1,0.1,0.2,0.2,0.4
				c-0.1,0.1-0.4,0-0.4,0.3c-0.1,0-0.3,0-0.4,0.1c-1,0.6-1.9,1.1-2.9,1.7c-2.2,1.3-4.5,2.5-6.7,3.8c-2.3,1.4-4.7,2.7-7.1,4
				c-2.2,1.3-4.4,2.5-6.6,3.8c-2.5,1.4-5,2.8-7.5,4.2c-0.7,0.4-1.5,0.8-2.3,1.2c-1.5,0.9-3,1.7-4.5,2.6c-1.2,0.7-2.5,1.3-3.7,2.1
				c-1.4,0.9-2.9,1.7-4.4,2.5c-1.4,0.8-2.8,1.6-4.2,2.4c-1.6,0.9-3.1,1.8-4.7,2.7c-0.8,0.4-1.4,0.9-2.2,1.3c-1,0.5-1.8,1.2-2.8,1.5
				c-1-0.3-1.7-1-2.6-1.4c-1.4-0.7-2.8-1.5-4.2-2.2c-2.3-1.2-4.5-2.5-6.8-3.7c-1.5-0.7-2.9-1.5-4.4-2.3c-2.1-1.2-4.2-2.3-6.3-3.4
				c-1.8-1-3.6-2-5.4-2.9c-2.3-1.1-4.4-2.5-6.7-3.6c-0.4-0.2-0.9-0.5-1.3-0.7c-0.8-0.5-1.7-1-2.6-1.2c-0.1-0.1-0.1-0.2-0.2-0.4
				C70.4,117.4,70.6,117.4,70.7,117.4z"/>
			<path class="st7" d="M70.5,117.9c1,0.2,1.8,0.8,2.6,1.2c0.4,0.2,0.9,0.5,1.3,0.7c2.3,1.1,4.5,2.4,6.7,3.6
				c1.8,0.9,3.6,1.9,5.4,2.9c2.1,1.2,4.2,2.3,6.3,3.4c1.4,0.8,2.9,1.5,4.4,2.3c2.3,1.2,4.5,2.5,6.8,3.7c1.4,0.7,2.7,1.5,4.2,2.2
				c0.9,0.4,1.6,1,2.6,1.4c1-0.3,1.8-1,2.8-1.5c0.8-0.4,1.5-0.9,2.2-1.3c1.6-0.9,3.1-1.8,4.7-2.7c1.4-0.8,2.8-1.6,4.2-2.4
				c1.5-0.8,3-1.6,4.4-2.5c1.2-0.8,2.5-1.4,3.7-2.1c1.5-0.8,3-1.7,4.5-2.6c0.7-0.5,1.5-0.8,2.3-1.2c2.5-1.4,5-2.8,7.5-4.2
				c2.2-1.3,4.4-2.5,6.6-3.8c2.4-1.3,4.7-2.7,7.1-4c2.2-1.3,4.5-2.6,6.7-3.8c1-0.5,1.9-1.1,2.9-1.7c0.1-0.1,0.3-0.1,0.4-0.1
				c0.1,0,0.3,0,0.4,0.1c0,0.2-0.4,0-0.4,0.3c-1.3,0.7-2.7,1.5-4,2.2c-2,1.2-4.1,2.4-6.1,3.5c-2.2,1.3-4.5,2.5-6.7,3.8
				c-1.7,1-3.3,1.9-5,2.9c-2.4,1.3-4.7,2.6-7.1,4c-0.7,0.4-1.5,0.8-2.3,1.2c-1.3,0.8-2.6,1.6-4,2.3c-1.2,0.7-2.5,1.4-3.7,2.1
				c-1.5,0.9-3,1.7-4.5,2.6c-1.2,0.7-2.5,1.4-3.7,2.1c-1.5,0.9-3,1.7-4.5,2.6c-1.2,0.7-2.5,1.3-3.7,2.1c-1.4,0.9-3,1.6-4.4,2.6
				c-1.7-0.9-3.4-1.8-5-2.7c-1.9-1-3.7-2.1-5.6-3.1c-1.4-0.7-2.8-1.5-4.2-2.2c-1.1-0.6-2.3-1.2-3.4-1.8c-2.2-1.3-4.4-2.3-6.6-3.6
				c-1.5-0.9-3.1-1.7-4.6-2.5c-2.3-1.2-4.4-2.5-6.7-3.6c-0.3-0.1-0.6-0.3-0.8-0.5c-1-0.5-2-1-2.9-1.5c0-0.1-0.1-0.2-0.2-0.2
				C70.4,118.3,70.5,118.1,70.5,117.9z"/>
			<path class="st8" d="M70.9,118.5c1,0.5,2,1,2.9,1.5c0.3,0.2,0.5,0.3,0.8,0.5c2.3,1.1,4.5,2.4,6.7,3.6c1.6,0.8,3.1,1.6,4.6,2.5
				c2.2,1.3,4.4,2.3,6.6,3.6c1.1,0.6,2.3,1.2,3.4,1.8c1.4,0.7,2.8,1.5,4.2,2.2c1.9,1,3.7,2.1,5.6,3.1c1.7,0.9,3.3,1.8,5,2.7
				c1.4-1,3-1.7,4.4-2.6c1.2-0.8,2.5-1.4,3.7-2.1c1.5-0.9,3-1.7,4.5-2.6c1.2-0.8,2.5-1.4,3.7-2.1c1.5-0.9,3-1.7,4.5-2.6
				c1.2-0.7,2.5-1.4,3.7-2.1c1.3-0.8,2.6-1.6,4-2.3c0.7-0.4,1.5-0.8,2.3-1.2c2.3-1.4,4.7-2.7,7.1-4c1.7-1,3.3-1.9,5-2.9
				c2.2-1.3,4.5-2.6,6.7-3.8c2.1-1.2,4.1-2.4,6.1-3.5c1.3-0.8,2.7-1.5,4-2.2c0.3,0.2,0.3,0.3,0,0.5c-0.8,0.4-1.5,0.8-2.2,1.2
				c-1.3,0.8-2.7,1.5-4,2.3c-1.2,0.7-2.5,1.4-3.7,2.1c-1.5,0.9-3,1.7-4.5,2.6c-1.2,0.7-2.5,1.4-3.7,2.1c-1.3,0.8-2.7,1.6-4.1,2.4
				c-1.2,0.7-2.4,1.4-3.6,2.1c-1.4,0.8-2.8,1.6-4.2,2.4c-1.2,0.7-2.4,1.4-3.6,2.1c-1.8,1.1-3.6,2.2-5.4,3.2
				c-1.2,0.7-2.5,1.3-3.7,2.1c-1.6,0.9-3.1,1.9-4.7,2.7c-0.7,0.4-1.3,0.7-2,1.1c-1.3,0.7-2.6,1.5-3.9,2.3c-1.4,0.8-2.8,1.6-4.2,2.4
				c-0.7,0.4-1.5,0.9-2.2,1.2c-0.5-0.3-0.8-0.5-1.3-0.7c-2.3-1.2-4.5-2.4-6.8-3.6c-0.9-0.5-1.8-0.9-2.6-1.4
				c-2.1-1.2-4.2-2.3-6.3-3.5c-1.3-0.7-2.6-1.3-3.9-2c-1.9-1.1-3.8-2.1-5.7-3.2c-1.3-0.7-2.6-1.4-3.9-2.1c-1-0.6-2.1-1-3.1-1.6
				c-2-1.2-4.1-2.2-6.1-3.4c-0.1-0.1-0.3-0.1-0.4-0.1c-0.1-0.1-0.1-0.2-0.2-0.4C70.6,118.5,70.8,118.5,70.9,118.5z"/>
			<path class="st7" d="M70.7,119c0.1,0,0.3,0,0.4,0.1c2,1.2,4.1,2.2,6.1,3.4c1,0.6,2.1,1.1,3.1,1.6c1.3,0.7,2.6,1.3,3.9,2.1
				c1.9,1.1,3.9,2,5.7,3.2c1.3,0.8,2.6,1.3,3.9,2c2.1,1.2,4.2,2.2,6.3,3.5c0.8,0.5,1.8,0.9,2.6,1.4c2.3,1.2,4.5,2.4,6.8,3.6
				c0.4,0.2,0.8,0.5,1.3,0.7c0.7-0.4,1.5-0.8,2.2-1.2c1.4-0.8,2.8-1.6,4.2-2.4c1.3-0.7,2.6-1.6,3.9-2.3c0.7-0.4,1.3-0.7,2-1.1
				c1.6-0.9,3.2-1.8,4.7-2.7c1.2-0.7,2.5-1.4,3.7-2.1c1.8-1.1,3.6-2.1,5.4-3.2c1.2-0.7,2.4-1.4,3.6-2.1c1.4-0.8,2.8-1.6,4.2-2.4
				c1.2-0.7,2.4-1.4,3.6-2.1c1.4-0.8,2.7-1.5,4.1-2.4c1.2-0.7,2.5-1.4,3.7-2.1c1.5-0.9,3-1.6,4.5-2.6c1.2-0.8,2.5-1.4,3.7-2.1
				c1.3-0.8,2.7-1.5,4-2.3c0.7-0.4,1.5-0.8,2.2-1.2c0.1,0.1,0.1,0.2,0.2,0.4c-0.6,0.5-1.3,0.8-1.9,1.1c-1.8,1.1-3.6,2.1-5.5,3.1
				c-1.6,0.9-3.2,1.9-4.8,2.8c-1.2,0.7-2.5,1.4-3.7,2.1c-1.3,0.8-2.6,1.6-4,2.3c-1.2,0.7-2.5,1.4-3.7,2.1c-1.4,0.8-2.7,1.5-4.1,2.4
				c-1.1,0.7-2.3,1.2-3.3,1.9c-1.9,1.1-3.8,2.2-5.6,3.3c-1.8,1.1-3.6,2.1-5.5,3.1c-1.8,1-3.5,2.1-5.3,3.1c-1.2,0.7-2.5,1.4-3.7,2.1
				c-1.2,0.7-2.3,1.4-3.5,2.1c-0.6,0.4-1.2,0.7-1.8,1c-1.2,0.6-2.3,1.4-3.5,2c-1.3-0.7-2.6-1.4-3.9-2.1c-2.5-1.3-4.9-2.7-7.4-4
				c-2.3-1.2-4.5-2.5-6.8-3.7c-2.5-1.3-4.9-2.7-7.4-4c-1.6-0.9-3.2-1.7-4.8-2.6c-2.3-1.3-4.7-2.5-7-3.8c-0.8-0.5-1.6-0.9-2.4-1.3
				C70.9,119.5,70.6,119.3,70.7,119z"/>
			<path class="st9" d="M76.2,115.7c-0.4,0-0.7-0.1-0.9-0.4c0.3,0.1,0.6-0.1,0.9-0.2c1.1-0.6,2.3-1,3.4-1.5c2.2-0.9,4.4-1.9,6.6-2.7
				c1-0.4,2-1,3-1.3c1.6-0.5,3.2-0.8,4.9-1.1c1.4-0.3,2.9-0.7,4.3-1.1c1.2-0.3,2.5-0.7,3.7-0.9c1.6-0.3,3.1-0.8,4.7-1.1
				c1-0.2,2-0.5,3-0.7c1.4-0.4,2.9-0.6,4.3-1c1.1-0.3,2.3-0.6,3.4-0.7c-0.3,0.4-0.8,0.5-1.3,0.7c-2.2,1-4.5,2-6.7,2.9
				c-1.6,0.7-3.1,1.4-4.7,2.1c-2.3,1-4.6,2-6.8,3c-1.7,0.7-3.3,1.6-4.9,2.2c-2.2,0.9-4.3,1.9-6.4,2.8c-1.2,0.5-2.4,0.9-3.5,1.6
				c0,0.2,0.1,0.3,0.2,0.4c-0.5,0.4-1,0.5-1.5,0.1c-1.6-0.9-3.2-1.5-4.7-2.5c-0.2-0.1-0.3-0.2-0.3-0.4c0.2,0,0.4,0,0.6-0.1
				c0.5-0.3,1.1-0.4,1.6-0.7c0.7-0.4,1.6-0.5,2.2-1.1c-0.2-0.1-0.5-0.2-0.6-0.3c-0.6,0.1-1.1,0.5-1.6,0.7
				C78.1,114.8,77.1,115.2,76.2,115.7z M104.8,107c-0.4-0.4-0.8-0.5-1.3-0.4c-1.9,0.5-3.8,0.9-5.7,1.4c-2.3,0.6-4.7,1.1-7,1.7
				c-0.8,0.2-1.6,0.3-2.3,0.8c0.2,0.4,0.6,0.4,0.8,0.3c0.8-0.4,1.8-0.5,2.7-0.7c1.1-0.2,2.1-0.5,3.2-0.8c1.4-0.4,2.8-0.7,4.2-1
				C101.2,107.8,102.9,107.3,104.8,107z"/>
			<path class="st9" d="M93.7,121.5c-0.2-0.3-0.7-0.2-0.9-0.6c0.2-0.4,0.5-0.2,0.7-0.1c0.9,0.5,1.8,1,2.8,1.5
				c0.3-0.3,0.7-0.3,1.1-0.5c3.4-1.6,6.7-3.2,10.1-4.8c1.2-0.6,2.3-1.1,3.5-1.7c-0.1-0.1-0.1-0.2-0.2-0.4c0.1-0.1,0.1-0.2,0.2-0.3
				c-0.9-0.5-1.8-1-2.8-1.2c0-0.3,0.4-0.1,0.4-0.3c-0.1-0.1-0.2-0.3-0.4-0.3c0-0.3,0.3-0.2,0.4-0.3c0-0.2-0.2-0.1-0.3-0.2
				c0,0,0-0.1,0-0.2c0.7-0.5,1.4-0.8,2.2-1.1c0.8-0.4,1.7-0.8,2.5-1.2c0.3-0.1,0.6-0.1,0.9-0.3c0.2,0.1,0.3,0.2,0.5,0.2
				c0,0.1,0,0.1-0.1,0.2c-0.5,0.3-1,0.6-1.5,0.8c-1,0.3-1.8,0.9-3,1.4c1.8,0.8,3.6,1.6,5.4,2.4c-0.9,0.8-1.9,0.9-2.8,1.4
				c-0.9,0.5-1.9,0.9-2.8,1.4c-0.9,0.5-1.9,0.8-2.8,1.3c-0.9,0.4-1.9,0.9-2.8,1.4c-0.9,0.5-1.8,0.9-2.8,1.3c-1,0.4-1.8,0.9-2.8,1.4
				c-0.1,0.2,0.1,0.3,0.1,0.5c-1.5,0.4-3.1,0.4-4.6,0c0.2-0.5,0.8-0.6,1.1-1C94.6,121.9,94.2,121.5,93.7,121.5z"/>
			<path class="st8" d="M74,114.9c0-0.2,0-0.4,0-0.5c1.3-0.8,2.8-1.3,4.3-1.9c1.1-0.5,2.2-0.8,3.2-1.4c1-0.5,2.1-0.8,3-1.3
				c1-0.5,2.1-0.8,3.2-1.3c1-0.5,2-0.7,3-1c2.1-0.5,4.1-1,6.2-1.5c1.7-0.4,3.5-0.8,5.2-1.2c1.7-0.4,3.4-0.9,5.2-1.2
				c1.5-0.3,3-0.8,4.5-1c1-0.1,1.9-0.5,2.9-0.7c1.6-0.4,3.1-0.8,4.7-1.1c1.2-0.2,2.5-0.6,3.7-0.9c0.5-0.1,0.9-0.1,1.5-0.2
				c-0.2,0.5-0.6,0.6-1,0.7c-1.9,0.3-3.7,0.9-5.5,1.2c-1.8,0.4-3.6,1-5.4,1.2c-1,0.2-2,0.6-3.1,0.8c-1.8,0.3-3.6,0.9-5.4,1.2
				c-1.6,0.3-3.2,0.7-4.8,1.1c-1.7,0.5-3.5,0.8-5.3,1.3c-1.7,0.5-3.5,0.7-5.2,1.3c-1.1,0.4-2.2,0.9-3.4,1.3c-1.6,0.7-3.3,1.3-4.9,2
				c-1.1,0.5-2.3,0.9-3.4,1.5C76.2,114.1,75.1,114.4,74,114.9z"/>
			<path class="st8" d="M130.6,109.8c1.2,0.6,2.4,0.9,3.5,1.6c1.1-0.6,2.3-1.1,3.4-1.7c1-0.6,1.9-0.5,2.9-0.1c1.2,0.6,2.4,1,3.7,1.5
				c1.3-0.5,2.5-1.5,4-2c0.1,0.1,0.2,0.2,0.4,0.4c-1.2,0.5-2.3,1.2-3.4,1.8c-0.6,0.3-1.1,0.3-1.7,0.1c-1.4-0.6-2.9-1.2-4.4-1.8
				c-1.3,0.6-2.6,1.3-3.9,2c-0.6,0.3-1.1,0.3-1.7,0c-0.9-0.4-1.8-0.7-2.7-1.1c-1.7,0.8-3.4,1.7-5.1,2.6c-4.8,2.4-9.6,4.9-14.5,7.3
				c-2.5,1.2-5.1,2.5-7.6,3.8c-0.5,0.2-0.9,0.4-1.4,0.1c-0.1-0.1-0.4,0-0.6,0c-0.2-0.4,0.1-0.5,0.3-0.7c0.4-0.1,0.7,0.2,1.1,0.4
				C111.9,119,121.3,114.5,130.6,109.8z"/>
			<path class="st8" d="M103.5,125c-0.1,0-0.2,0-0.3,0c-0.1,0-0.1-0.1-0.2-0.3c9.2-4.6,18.4-9.2,27.6-13.8c1.2,0.5,2.4,1,3.7,1.5
				c1.2-0.6,2.5-1.2,3.7-1.8c0.7-0.4,1.3-0.4,1.9-0.1c1.4,0.7,2.9,1.2,4.4,1.7c1.4-0.5,2.5-1.6,4-2c0,0,0.1,0.1,0.2,0.1
				c0.1,0.4-0.4,0.2-0.4,0.5c-1.2,0.4-2.2,1.1-3.3,1.8c-0.1,0-0.2,0-0.2,0c-0.3-0.1-0.6,0-0.9-0.1c-1.6-0.7-3.1-1.3-4.6-1.9
				c-1.4,0.7-2.8,1.3-4.1,2c-0.5,0.2-0.9,0.2-1.3,0c-0.9-0.4-1.9-0.8-2.8-1.2c-6.2,3-12.2,6.2-18.3,9
				C109.5,122,106.5,123.6,103.5,125z"/>
			<path class="st8" d="M117.6,102.9c-1.2,0.1-2.3,0.4-3.4,0.7c-1.4,0.4-2.9,0.7-4.3,1c-1,0.3-2,0.5-3,0.7c-1.6,0.3-3.1,0.8-4.7,1.1
				c-1.2,0.2-2.5,0.6-3.7,0.9c-1.5,0.3-2.9,0.7-4.3,1.1c-1.6,0.4-3.3,0.7-4.9,1.1c-1,0.3-2,0.9-3,1.3c-2.2,0.9-4.4,1.9-6.6,2.8
				c-1.1,0.5-2.3,0.9-3.4,1.5c-0.3,0.2-0.6,0.3-0.9,0.2c-0.1,0-0.3,0-0.4-0.1c0.7-0.7,1.6-0.8,2.5-1.2c1.1-0.5,2.2-0.9,3.3-1.4
				c1.2-0.6,2.5-1,3.7-1.6c0.9-0.4,1.9-0.8,2.8-1.2c1.4-0.7,2.9-1.1,4.3-1.4c1.8-0.4,3.5-0.9,5.3-1.3c1.8-0.4,3.6-1,5.4-1.2
				c1-0.1,1.9-0.5,2.9-0.7c1.5-0.3,3-0.8,4.6-1.1c1.3-0.2,2.5-0.7,3.8-0.9c1.8-0.4,3.6-1,5.5-1.3c0.4-0.1,0.7-0.4,1.3-0.1
				C119.3,102.1,118.6,102.8,117.6,102.9z"/>
			<path class="st9" d="M125.4,104.6c0.1-0.1,0.1-0.2,0.2-0.4c-0.1-0.1-0.3-0.1-0.5-0.2c1.4-0.7,2.8-1.3,4.2-2
				c0.4-0.2,0.8-0.3,1.1,0.2c-1.2,0.4-2.2,1.1-3.5,1.7c1.7,0.9,3.5,1.4,5,2.1c0,0.3-0.2,0.3-0.4,0.4c-0.9,0.3-1.8,0.8-2.7,1.3
				c-2.4,1.2-4.9,2.2-7.3,3.6c-0.7,0.4-1.3,0.4-1.9-0.2c0.4-0.5,1-0.5,1.6-0.8c2.3-1.1,4.6-2.2,6.8-3.3c-0.1-0.2-0.4-0.1-0.4-0.3
				c0,0,0.1-0.1,0.2-0.2c-0.9-0.6-1.9-0.9-2.9-1.2c0-0.3,0.3-0.1,0.4-0.3C125.5,104.9,125.4,104.8,125.4,104.6z"/>
			<path class="st9" d="M103.5,125c3-1.5,6-3,9-4.5c6.1-2.9,12.1-6.1,18.3-9c0.9,0.4,1.8,0.7,2.8,1.2c0.5,0.2,0.9,0.2,1.3,0
				c1.3-0.7,2.7-1.3,4.1-2c1.5,0.6,3.1,1.2,4.6,1.9c0.3,0.1,0.6,0,0.9,0.1c0,0.2-0.1,0.2-0.3,0.2c-0.3,0-0.5,0-0.8,0
				c-1.2-0.5-2.5-0.9-3.7-1.4c-0.4-0.2-0.8-0.3-1.1-0.1c-1.4,0.7-2.8,1.3-4.1,2.2c-0.8-0.3-1.7-0.6-2.5-1c-0.8-0.4-1.4-0.4-2.1,0
				c-7,3.5-14,7-21,10.5c-1.6,0.8-3.2,1.5-4.6,2.4C103.9,125.3,103.6,125.3,103.5,125z"/>
			<path class="st8" d="M104.1,125.5c1.5-0.9,3.1-1.6,4.6-2.4c7-3.5,14-7,21-10.5c0.8-0.4,1.4-0.4,2.1,0c0.8,0.4,1.7,0.7,2.5,1
				c1.3-0.9,2.8-1.5,4.1-2.2c0.3-0.2,0.7-0.1,1.1,0.1c1.2,0.5,2.4,0.9,3.7,1.4c-0.4,0.4-0.9,0.2-1.3,0.1c-1-0.4-2-0.7-3-1.3
				c-1.6,0.8-3.2,1.5-4.7,2.4c-1.2-0.6-2.4-0.9-3.6-1.6c-8.7,4.4-17.5,8.6-26.1,13.2C104.5,125.8,104.4,125.5,104.1,125.5z"/>
			<path class="st8" d="M108.2,112.6c0.2,0,0.3,0.2,0.4,0.3c0,0.3-0.4,0.1-0.4,0.3c-0.2,0.1-0.5,0-0.7,0.2c-1.7,0.8-3.3,1.6-5,2.4
				c-2.2,1-4.5,2-6.7,3.1c-0.2,0.1-0.5,0-0.7,0.2c-0.9,0.7-1.8,0.5-2.7-0.1c-0.6-0.4-1.3-0.6-2-1c-1.2,0.6-2.4,1.1-3.7,1.7
				c-0.4,0.2-0.8,0.5-1.4,0.2c-0.3-0.1-0.7,0.3-1.1-0.1c0.5-0.3,0.9-0.6,1.5-0.3c1.5-0.7,3.1-1.4,4.7-2.1c1.1,0.5,2.2,1.1,3.3,1.7
				c0.8-0.2,1.5-0.7,2.3-1c2.1-1,4.3-2,6.4-3c1.8-0.8,3.6-1.7,5.4-2.5C107.9,112.7,108,112.7,108.2,112.6z"/>
			<path class="st8" d="M144.9,97.5c-0.5,0-0.9-0.2-1.3-0.4c-0.4-0.1-0.7-0.2-1.1,0c-0.6,0.2-1.1,0.5-1.7,0.7
				c-2.6,1.2-5.2,2.4-7.8,3.7c-0.4,0.2-0.8,0.3-1,0.1c-0.7-0.4-1.4-0.5-2.1-0.8c-1.8,0.8-3.6,1.6-5.4,2.5c-0.4,0.2-0.7,0.3-1.2,0
				c1.4-0.6,2.6-1.2,3.8-1.8c0.7-0.3,1.5-0.7,2.2-1c0.3-0.2,0.6-0.1,0.9,0c0.7,0.3,1.4,0.5,2.1,0.8c1.6-0.8,3.2-1.5,4.7-2.2
				c1.9-0.9,3.9-1.8,5.9-2.7c0.6,0.2,1.2,0.4,1.9,0.6c0.1-0.1,0.3-0.2,0.4-0.2c1.2,0,2.4-0.2,3.6,0.2c0.5,0.1,1,0.2,1.1,0.9
				c-0.6-0.1-1.2-0.4-1.8-0.5C147,97.2,146,97.2,144.9,97.5z"/>
			<path class="st9" d="M148.6,98.6c-0.3,0.5-0.6,0-0.9,0c-3.4,1.8-7,3.3-10.4,5.1c-0.4-0.1-0.8-0.2-1.1-0.5
				c0.1-0.1,0.1-0.2,0.2-0.2c1.7-0.8,3.4-1.6,5.2-2.5c1.3-0.6,2.5-1.4,3.8-1.8c0.2-0.1,0.4-0.3,0.4-0.6v0
				C146.8,98.1,147.7,98.3,148.6,98.6z"/>
			<path class="st8" d="M125.4,104.6c0.1,0.1,0.1,0.2,0.2,0.4c-0.1,0.1-0.4,0-0.4,0.3c-1.4,0.6-2.8,1.3-4.2,1.9
				c-1.5,0.6-2.8,1.5-4.4,2c-0.4,0.1-0.7,0.2-1.1,0c-0.6-0.3-1.3-0.6-2-0.8c-2.3,1.1-4.6,2.1-6.9,3.2c-0.1-0.1-0.3-0.2-0.6-0.3
				c2.5-1.2,5-2.3,7.5-3.4c0.8,0.4,1.7,0.6,2.5,1.1c2.2-1,4.4-2.1,6.6-3.1C123.6,105.4,124.5,105,125.4,104.6z"/>
			<path class="st8" d="M110.8,114.8c0.1,0.1,0.1,0.2,0.2,0.4c-1.2,0.6-2.3,1.2-3.5,1.7c-3.4,1.6-6.8,3.2-10.1,4.8
				c-0.4,0.2-0.8,0.2-1.1,0.5c-1-0.5-1.9-1-2.8-1.5c-0.3-0.1-0.5-0.3-0.7,0.1c-0.1,0-0.3,0-0.4,0l0,0c0.2-0.5,0.2-0.5,0.6-0.9
				c1.1,0.6,2.1,1.2,3.3,1.7c2.5-1.2,4.9-2.4,7.4-3.6c1-0.5,2-1,3-1.4C108,116,109.4,115.4,110.8,114.8z"/>
			<path class="st8" d="M142.3,106.3c-0.1-0.2-0.4-0.1-0.5-0.3c1.4-0.7,2.7-1.4,4.1-2.1c2.3,0.8,4.6,1.7,7.1,2.6
				c1.1-0.6,2.3-1.2,3.5-1.9c0.2,0.1,0.4,0.2,0.5,0.3c-1.3,0.7-2.7,1.3-4,2.1c-1.9-0.7-3.8-1.4-5.7-2.1c-0.8-0.3-1.6-0.5-2.4,0.1
				C144.1,105.5,143.2,105.9,142.3,106.3z"/>
			<path class="st8" d="M143.8,106.8c-0.3,0.1-0.5-0.1-0.6-0.3c0.9-0.5,1.9-1,2.9-1.5c1.3,0.5,2.6,1,3.9,1.4
				c0.8,0.3,1.6,0.6,2.4,0.9c0.4,0.1,0.7,0.1,1.1-0.1c1-0.5,2-1,3.1-1.5c0.1,0.1,0.2,0.2,0.3,0.3c-0.1,0.2-0.4,0.1-0.4,0.4
				c-1.2,0.6-2.4,1.2-3.5,1.8c-2.4-0.9-4.6-1.7-6.9-2.6C145.4,106,144.5,106.2,143.8,106.8z"/>
			<path class="st9" d="M143.8,106.8c0.7-0.6,1.6-0.8,2.3-1.3c2.3,0.8,4.5,1.7,6.9,2.6c1.1-0.6,2.3-1.2,3.5-1.8c0.2,0,0.4,0,0.6,0.1
				c0,0.3-0.4,0.1-0.4,0.4c-0.3-0.1-0.6,0.1-0.8,0.3c-0.5,0.4-1,0.5-1.5,0.8c-0.9,0.6-1.6,0.7-2.7,0.2c-1.6-0.7-3.3-1.2-5-1.9
				c-0.4-0.1-0.7-0.2-1,0c-0.4,0.3-0.9,0.4-1.3,0.7C144.2,107.1,144,106.9,143.8,106.8z"/>
			<path class="st8" d="M155.6,101.5c-0.2-0.4-0.4-0.2-0.7-0.1c-0.7,0.4-1.5,0.7-2.2,1.1c-0.2,0.1-0.5,0.2-0.7-0.1
				c0.9-0.6,1.9-1.1,2.9-1.5c0.6-0.2,1.2,0.2,1.9,0.3c2.2,0.6,4.3,1.5,6.4,2.2c0.6,0.2,1.3,0.4,1.9,0.6c-0.2,0.1-0.4,0.2-0.7,0.4
				c-0.1-0.1-0.2-0.1-0.3-0.2c-2.3-0.8-4.6-1.5-6.8-2.3C156.7,101.7,156.2,101.4,155.6,101.5z"/>
			<path class="st8" d="M144.5,107c0.3-0.4,0.9-0.5,1.3-0.7c0.4-0.2,0.6-0.2,1,0c1.6,0.6,3.4,1.1,5,1.9c1,0.5,1.8,0.3,2.7-0.2
				c0.5-0.3,1-0.5,1.5-0.8c0.2-0.2,0.5-0.4,0.8-0.3c0.1,0,0.2,0.1,0.3,0.3c-1.3,0.7-2.6,1.4-3.9,2.1c-2.2-0.8-4.5-1.7-6.8-2.6
				c-0.3,0.2-0.7,0.4-1.1,0.6C144.8,107.3,144.6,107.4,144.5,107z"/>
			<path class="st8" d="M138.7,94.4c0.4-0.2,0.7-0.2,1.1-0.1c1.4,0.5,2.9,0.9,4.3,1.5c0.5,0.2,1,0.2,1.5,0.1c1.4-0.5,2.7,0,4,0.4
				c0.4,0.1,0.7,0.4,0.9,0.8c-0.3,0.2-0.5,0-0.7-0.1c-0.7-0.4-1.5-0.6-2.4-0.6c-1.9,0.2-3.7-0.1-5.5-0.8
				C140.9,95.1,139.8,94.7,138.7,94.4z"/>
			<path class="st8" d="M165.7,103.7c-3.7-1.1-7.1-2.5-10.8-3.6c0.9-0.4,1.5-0.1,2.1,0.1c2.7,0.9,5.4,1.9,8.1,2.8
				C165.4,103.1,165.7,103.2,165.7,103.7z"/>
			<path class="st8" d="M163.8,104.8c-0.2,0.1-0.3,0.2-0.4,0.2c-2.2-0.7-4.4-1.4-6.5-2.2c-0.4-0.1-0.7-0.1-1-0.2
				c0-0.1-0.1-0.2-0.2-0.2c-0.7-0.1-1.3,0.2-1.8,0.7c-0.2,0-0.4,0-0.6,0c0.2-0.5,0.7-0.5,1.1-0.7c0.4-0.2,0.7-0.4,1.1-0.5
				c0.2,0.5,0.6,0.2,0.9,0.3c1.9,0.7,3.8,1.4,5.8,2C162.6,104.3,163.3,104.3,163.8,104.8z"/>
			<path class="st8" d="M145.8,98.2c0,0.3-0.1,0.5-0.4,0.6c-1.4,0.4-2.5,1.2-3.8,1.8c-1.7,0.8-3.4,1.6-5.2,2.5
				c-0.1,0-0.1,0.2-0.2,0.2c-0.2,0-0.4-0.1-0.6-0.4c1.2-0.5,2.3-1.2,3.6-1.7c1.1-0.4,2.1-1,3.1-1.5c1-0.5,2.2-0.9,3.2-1.5
				C145.5,98.1,145.7,98.2,145.8,98.2z"/>
			<path class="st8" d="M127.9,106.6c0,0.3,0.3,0.1,0.4,0.3c-2.3,1.1-4.5,2.2-6.8,3.3c-0.5,0.3-1.2,0.3-1.6,0.8
				c-0.2,0-0.4,0.1-0.7-0.2c1.3-1,2.9-1.4,4.3-2.1C124.9,108,126.4,107.3,127.9,106.6z"/>
			<path class="st9" d="M163.8,104.8c-0.5-0.5-1.1-0.5-1.7-0.7c-1.9-0.7-3.9-1.3-5.8-2c-0.3-0.1-0.8,0.1-0.9-0.3
				c0.1,0,0.2-0.1,0.2-0.2c0.6-0.1,1.2,0.2,1.7,0.4c2.3,0.8,4.5,1.5,6.8,2.3c0.1,0,0.2,0.1,0.3,0.2
				C164.3,104.6,164,104.6,163.8,104.8z"/>
			<path class="st8" d="M76.2,115.7c0.9-0.6,1.9-0.9,2.9-1.3c0.5-0.2,1-0.6,1.6-0.7c0.1,0.1,0.4,0.2,0.6,0.3
				c-0.7,0.6-1.5,0.7-2.2,1.1c-0.5,0.3-1.1,0.4-1.6,0.7c-0.2,0.1-0.4,0.1-0.6,0.1C76.7,115.9,76.3,116.1,76.2,115.7z"/>
			<path class="st8" d="M156.8,103.8c0.2-0.4,0.6-0.3,0.8-0.3c1.7,0.6,3.3,1.2,5,1.8c-0.1,0.2-0.3,0.1-0.4,0.3
				C160.3,105.1,158.6,104.4,156.8,103.8z"/>
			<path class="st9" d="M144.9,97.5c1.1-0.3,2.1-0.3,3.3-0.1c0.6,0.1,1.2,0.4,1.8,0.5l0,0c0.1,0.1,0.1,0.3,0.2,0.4
				c-0.2,0-0.4,0-0.6,0c-0.1-0.1-0.1-0.2-0.2-0.2c-0.7-0.3-1.4-0.2-2.2-0.4c-0.4-0.1-1-0.3-1.4,0.2
				C145.4,97.9,145.1,97.8,144.9,97.5z"/>
			<path class="st9" d="M144.7,112.6c1.1-0.7,2.1-1.4,3.3-1.8c0.2,0,0.4,0,0.6,0.1c0,0.3-0.4,0.1-0.4,0.4c-0.8,0.2-1.5,0.6-2.2,1.1
				C145.6,112.7,145.2,112.6,144.7,112.6z"/>
			<path class="st8" d="M145.8,97.9c0.4-0.5,1-0.3,1.4-0.2c0.7,0.2,1.5,0.1,2.2,0.4c0.1,0,0.1,0.1,0.2,0.2c-0.3,0-0.6,0.3-0.9,0.3
				c-0.9-0.4-1.9-0.5-2.8-0.4C145.8,98.1,145.8,98,145.8,97.9z"/>
			<path class="st8" d="M146,112.4c0.7-0.5,1.4-0.9,2.2-1.1c0.1,0,0.2,0.1,0.3,0.3C147.7,112,147,112.5,146,112.4z"/>
			<path class="st9" d="M153.7,103c0.5-0.5,1.1-0.7,1.8-0.7c0.1,0,0.2,0.1,0.2,0.2c-0.2,0-0.3,0.1-0.4,0.2
				C154.8,103.4,154.5,103.4,153.7,103z"/>
			<path class="st8" d="M150.2,98.4c-0.1-0.1-0.1-0.3-0.2-0.4c0.2,0,0.4,0,0.6,0.1c0.1,0.3-0.1,0.4-0.3,0.5
				C150.3,98.5,150.2,98.4,150.2,98.4z"/>
			<path class="st8" d="M92.4,120.8c0,0.2,0,0.4,0,0.6C92.2,121.2,92,121,92.4,120.8L92.4,120.8z"/>
			<path class="st8" d="M104.8,107c-1.8,0.3-3.6,0.8-5.4,1.2c-1.4,0.4-2.8,0.6-4.2,1c-1.1,0.3-2.1,0.6-3.2,0.8
				c-0.9,0.2-1.8,0.3-2.7,0.7c-0.2,0.1-0.6,0.1-0.8-0.3c0.7-0.5,1.5-0.6,2.3-0.8c2.3-0.6,4.7-1.1,7-1.7c1.9-0.5,3.8-0.9,5.7-1.4
				C103.9,106.5,104.4,106.7,104.8,107z"/>
		</g>
		<g class="st6">
			<text transform="matrix(1 0 0 1 -65.5337 -149.2231)" class="st10" style="font-family:'ArialMT'; font-size:8.7314px;">Structural</text>
		</g>
		<g class="st6">
			<text transform="matrix(1 0 0 1 -65.5337 -132.7002)" class="st10" style="font-family:'ArialMT'; font-size:8.7314px;">Structural</text>
		</g>
		<g class="st6">
			<text transform="matrix(1 0 0 1 -65.5337 -99.6489)" class="st10" style="font-family:'ArialMT'; font-size:8.7314px;">Structural</text>
		</g>
		<g class="st6">
			<text transform="matrix(1 0 0 1 -65.5337 -140.9595)" class="st11" style="font-family:'ArialMT'; font-size:8.7314px;">Adhesive</text>
		</g>
		<g class="st6">
			<text transform="matrix(1 0 0 1 -65.5337 -124.4351)" class="st11" style="font-family:'ArialMT'; font-size:8.7314px;">Adhesive</text>
		</g>
		<g class="st6">
			<text transform="matrix(1 0 0 1 -65.5337 -107.9106)" class="st11" style="font-family:'ArialMT'; font-size:8.7314px;">Adhesive</text>
		</g>
		<g class="st6">
			<text transform="matrix(1 0 0 1 -65.5337 -116.1733)" class="st12" style="font-family:'ArialMT'; font-size:8.7314px;">Flexure</text>
		</g>
		<g class="st6">
			<text transform="matrix(1 0 0 1 -65.5337 -91.3853)" class="st11" style="font-family:'ArialMT'; font-size:8.7314px;">Adhesive</text>
		</g>
		<g class="st6">
			<text transform="matrix(1 0 0 1 -65.5337 -83.1226)" class="st10" style="font-family:'ArialMT'; font-size:8.7314px;">Structural</text>
		</g>
		<g class="st6">
			<line class="st10" x1="14.7" y1="18.9" x2="28.1" y2="18.9"/>
			<g>
				<line class="st13" x1="14.7" y1="18.9" x2="26.5" y2="18.9"/>
				<g>
					<polygon class="st10" points="28.1,18.9 25.8,19.8 26.3,18.9 25.8,18 					"/>
				</g>
			</g>
		</g>
		<g class="st6">
			<line class="st11" x1="14.7" y1="27" x2="28.1" y2="27"/>
			<g>
				<line class="st14" x1="14.7" y1="27" x2="26.5" y2="27"/>
				<g>
					<polygon class="st11" points="28.1,27 25.8,28 26.3,27 25.8,26.1 					"/>
				</g>
			</g>
		</g>
		<g class="st6">
			<line class="st10" x1="14.7" y1="35.1" x2="28.1" y2="35.1"/>
			<g>
				<line class="st13" x1="14.7" y1="35.1" x2="26.5" y2="35.1"/>
				<g>
					<polygon class="st10" points="28.1,35.1 25.8,36.1 26.3,35.1 25.8,34.2 					"/>
				</g>
			</g>
		</g>
		<g class="st6">
			<line class="st11" x1="14.7" y1="43.3" x2="28.1" y2="43.3"/>
			<g>
				<line class="st14" x1="14.7" y1="43.3" x2="26.5" y2="43.3"/>
				<g>
					<polygon class="st11" points="28.1,43.3 25.8,44.2 26.3,43.3 25.8,42.3 					"/>
				</g>
			</g>
		</g>
		<g class="st6">
			<line class="st12" x1="14.7" y1="51.4" x2="28.1" y2="51.4"/>
			<g>
				<line class="st15" x1="14.7" y1="51.4" x2="26.5" y2="51.4"/>
				<g>
					<polygon class="st12" points="28.1,51.4 25.8,52.3 26.3,51.4 25.8,50.5 					"/>
				</g>
			</g>
		</g>
		<g class="st6">
			<line class="st11" x1="14.7" y1="59.5" x2="28.1" y2="59.5"/>
			<g>
				<line class="st14" x1="14.7" y1="59.5" x2="26.5" y2="59.5"/>
				<g>
					<polygon class="st11" points="28.1,59.5 25.8,60.4 26.3,59.5 25.8,58.6 					"/>
				</g>
			</g>
		</g>
		<g class="st6">
			<line class="st10" x1="14.7" y1="67.6" x2="28.1" y2="67.6"/>
			<g>
				<line class="st13" x1="14.7" y1="67.6" x2="26.5" y2="67.6"/>
				<g>
					<polygon class="st10" points="28.1,67.6 25.8,68.5 26.3,67.6 25.8,66.7 					"/>
				</g>
			</g>
		</g>
		<g class="st6">
			<line class="st11" x1="14.7" y1="75.7" x2="28.1" y2="75.7"/>
			<g>
				<line class="st14" x1="14.7" y1="75.7" x2="26.5" y2="75.7"/>
				<g>
					<polygon class="st11" points="28.1,75.7 25.8,76.6 26.3,75.7 25.8,74.8 					"/>
				</g>
			</g>
		</g>
		<g class="st6">
			<line class="st10" x1="14.7" y1="83.8" x2="28.1" y2="83.8"/>
			<g>
				<line class="st13" x1="14.7" y1="83.8" x2="26.5" y2="83.8"/>
				<g>
					<polygon class="st10" points="28.1,83.8 25.8,84.8 26.3,83.8 25.8,82.9 					"/>
				</g>
			</g>
		</g>
		<g class="st6">
			<linearGradient id="SVGID_8_" gradientUnits="userSpaceOnUse" x1="129.7412" y1="76.3464" x2="133.5054" y2="76.3464">
				<stop  offset="0" style="stop-color:#000000"/>
				<stop  offset="0.4773" style="stop-color:#9D9D9D"/>
				<stop  offset="1" style="stop-color:#000000"/>
			</linearGradient>
			<rect x="129.7" y="59.6" class="st16" width="3.8" height="33.4"/>
			<line class="st17" x1="131.6" y1="93.1" x2="131.6" y2="59.6"/>
		</g>
		<line class="st18" x1="131.6" y1="96.2" x2="142.5" y2="84.4"/>
		<line class="st18" x1="131.6" y1="96.2" x2="135.7" y2="86.1"/>
		<line class="st18" x1="131.6" y1="96.2" x2="127.6" y2="88.8"/>
		<line class="st18" x1="131.6" y1="96.2" x2="122.2" y2="87.5"/>
		<g class="st6">
			<path class="st7" d="M113.7,57.3c0.1,0.4,0.5,0,0.6,0.3c0.5-0.1,1,0.3,1.5,0.4c1,0.3,2.1,0.6,3.1,0.9c1.2,0.4,2.4,0.7,3.7,1.2
				c-1.7,0.9-3.4,1.7-5.1,2.5c-1,0.5-2,1-3,1.5c0,0,0,0.1-0.1,0.2c-0.2-0.1-0.4,0.1-0.6,0.2c-0.7,0.4-1.4,0.6-2,1.1
				c-0.1,0-0.2,0-0.3,0c-1.5,0.9-3,1.5-4.6,2.2c-0.2,0.1-0.5,0-0.5,0.4c0.3,0.1,0.7,0.2,1.1,0.3c1.4,0.4,2.7,1,4.1,1.4
				c0.4,0.1,0.9,0.1,1.3,0.5c0,0.1-0.1,0.1-0.1,0.2c-0.8,0.4-1.5,0.7-2.2,1.1c-0.8-0.2-1.6-0.6-2.4-0.8c-0.8-0.2-1.5-0.6-2.4-0.4
				c0.2,0.1,0.5,0.2,0.6,0.4c-0.1,0.1-0.3,0.1-0.4,0.2c-2.3,1.2-4.6,2.2-6.8,3.5c-0.6,0.4-1.3,0.5-1.8,1c0,0.2-0.1,0.2-0.2,0.2
				c-0.7,0.1-1.5,0.2-2.2,0.5c-1.2,0.4-2.4,0.8-3.5,1.2c-1.1,0.4-2.3,0.6-3.3,1.2c-0.6,0-1,0.4-1.6,0.4c0-0.1,0-0.1,0.1-0.2
				c4.6-2.3,9.1-4.6,13.7-6.8c0.1-0.1,0.2,0,0.2-0.2c-0.8-0.4-1-0.5-1.6-0.2c-4.9,2.5-9.7,5-14.7,7.3c-0.9,0.4-1.9,0.8-2.7,1.3
				c-0.7,0.4-1.4,0.6-2,1.1c0,0.1-0.1,0.2-0.1,0.2c-0.4,0-0.8,0.2-1.2,0.4c-1.6,0.8-3.3,1.7-4.9,2.5c-0.8,0.4-1.7,0.8-2.4,1.2
				c-0.6-0.1-0.9-0.6-1.4-0.6c-0.8-0.6-1.7-0.9-2.5-1.3c-0.5,0.2-1,0.3-1.4,0.6c-0.3,0.2-0.6,0.2-0.9,0.2c-0.3,0.1-0.5-0.2-0.7-0.3
				c-0.1-0.3,0-0.5,0.3-0.7c0.3,0.1,0.5,0.3,0.8,0.4c0.1-0.2,0.3-0.2,0.4-0.3c0.1-0.2,0.5,0,0.4-0.4c-1.2-0.6-2.3-1.2-3.5-1.8
				c-0.3,0.2-0.7,0.4-1.1,0.4c0.4,0.5,1.1,0.5,1.5,1c-0.3,0.2-0.6,0.2-0.9,0.5c-0.4-0.3-0.7,0.1-1.1,0.1c-0.8,0-1.6,0-2.4,0
				c-0.2,0-0.4-0.2-0.6-0.2c0-0.1,0.1-0.1,0.1-0.2c1.2-0.5,2.4-1.1,3.6-1.7c0.1,0,0.1-0.1,0.1-0.2c0,0-0.1-0.1-0.1-0.1
				c-1.6-0.8-3.3-1.5-4.9-2.3c-0.1-0.1-0.2,0-0.3-0.1c-0.7-0.6-1.6-0.8-2.4-1.3c-0.1-0.1-0.2,0-0.4,0c0-0.1-0.1-0.1-0.1-0.2
				c-1.8-0.8-3.5-1.8-5.4-2.6c-0.5-0.2-1-0.6-1.6-0.7c-0.3-0.3-0.7-0.5-1.1-0.6c0-0.3-0.2-0.2-0.3-0.2c-1.3-0.5-2.6-1.3-3.9-1.9
				c-1.6-0.7-3-1.5-4.6-2.2c0.1-0.3,0.4-0.2,0.6-0.3c1.2-0.5,2.4-0.9,3.6-1.3c1.4-0.6,2.8-1,4.2-1.6c0.1,0,0.1,0,0.2,0
				c0.2,0,0.3,0,0.5,0.1c1.1,0.6,2.2,1,3.3,1.5c1.1,0.5,2.2,1,3.3,1.5c1.1,0.5,2.2,1,3.3,1.4c0.3,0.1,0.6,0.1,0.8,0.5
				c-0.4,0.2-0.8,0.4-1.3,0.5c-0.3,0.1-0.7,0.4-1.1,0c-0.1-0.1-0.3-0.1-0.5,0c-0.6,0.3-1.3,0.5-2,0.8c-0.5,0.3-1,0.5-1.5,0.6
				c-0.5,0.1-0.9,0.2-1.4,0.3c0.1,0.1,0.2,0.2,0.3,0.3c0.8,0.1,1.6,0,2.4-0.5c0.1,0,0.2,0,0.3-0.1c0.7-0.3,1.5-0.6,2.2-0.9
				c0.8,0.4,1.6,0.8,2.6,1.2c-0.9,0.1-0.7,0.8-1.1,1.2c0.2,0.3,0.2,0.6,0.5,0.8c0.8,0.5,1.5,0.6,2.5,0.4c0,0.3,0.4,0.1,0.4,0.3
				c0.6-0.2,1.3,0,1.8-0.2c0.5-0.2,1.2-0.1,1.7-0.7c-0.4,0-0.7-0.1-0.9-0.3c-0.2-0.1-0.4-0.1-0.6-0.1c0-0.1-0.1-0.2-0.2-0.4
				c0.4,0.1,0.7-0.1,0.9-0.3c0.3-0.2,0.7-0.1,0.9-0.4c0.1,0,0.1,0,0.2,0c1,0.4,1.9,0.8,2.9,1.3c1.3,0.6,2.7,1.1,4,1.8
				c0.5,0.3,1.1,0.4,1.7,0c0.4-0.3,0.9-0.4,1.4-0.6c1.4-0.6,2.8-1.3,4.2-1.9c1.4-0.6,2.8-1.3,4.2-1.9c1.3-0.6,2.6-1.2,3.9-1.7
				c1.4-0.6,2.8-1.3,4.2-1.9c1.4-0.7,2.8-1.3,4.2-1.9c1.4-0.6,2.8-1.3,4.2-1.9c1.3-0.6,2.6-1.1,3.9-1.8c1.1-0.5,2.2-1,3.3-1.5
				c1.3-0.7,2.7-1.2,4.1-1.9c0.6-0.3,1.2-0.5,1.8-0.7c0.2,0,0.3,0.2,0.5,0.2c0.9,0.2,1.7,0.5,2.6,0.8c1.2,0.4,2.4,0.7,3.6,1.1
				c-1.1,0.6-2.2,1.1-3.3,1.7c-0.6,0.3-1.3,0.5-1.8,1c-0.1,0-0.2,0-0.3,0.1c-0.4,0.2-0.8,0.4-1.2,0.5c-0.4,0.2-0.9,0.3-1.2,0.7
				c-0.1,0-0.1,0-0.2,0c-1,0.5-2.1,1-3.1,1.6c0.3,0.3,0.6,0.3,0.9,0.2c0.4-0.2,0.7-0.3,1.1-0.5c0.7-0.3,1.4-0.6,2.1-1.1
				c0.2,0.1,0.4-0.1,0.6-0.2c0.7-0.4,1.4-0.6,2-1.1c0.1,0,0.2,0,0.3-0.1c1.7-0.9,3.4-1.7,5.2-2.6c0-0.1,0.1-0.3,0-0.4
				c-0.4-0.1-0.8-0.3-1.2-0.4c-0.7-0.1-1.4-0.4-2-0.6c-0.7-0.2-1.4-0.4-2.1-0.7c-0.5-0.2-1.1-0.6-1.7-0.4c0-0.1,0-0.2,0.1-0.2
				c0.8-0.2,1.5-0.6,2.2-1C113.4,57.3,113.5,57.4,113.7,57.3z M40,69.2c0.3,0.5,0.8,0.5,1.2,0.7c1.2,0.6,2.4,1.1,3.5,1.7
				c0.8,0.4,1.6,0.8,2.4,1.2c0.2,0,0.3-0.2,0.4-0.2c0.2,0,0.4,0.1,0.4-0.3c-1.2-0.4-2.2-1.1-3.3-1.5c-1.2-0.5-2.2-1.2-3.6-1.6
				c0.8-0.3,1.5-0.6,2.3-0.8c0.8-0.3,1.6-0.6,2.5-0.9c0.2-0.1,0.2-0.2,0.1-0.4c-0.3,0-0.5,0-0.7,0c-0.9,0.4-1.8,0.7-2.6,1
				C41.7,68.5,40.8,68.6,40,69.2z M103.2,69.8c0.4,0.2,0.8,0.3,1.2,0.5c0.2-0.2,0.5-0.4,0.7-0.7c0-0.2,0.1-0.4-0.1-0.6
				c0,0-0.1,0-0.1,0C104.4,69.2,103.9,69.4,103.2,69.8z"/>
			<path class="st8" d="M109.7,34.9c0,0.1,0.1,0.2,0.1,0.2c0.6,0,1.1,0.2,1.6,0.3c0.5,0.1,1.1,0.3,1.6,0.3c0.7,0.1,1.4,0.4,2.1,0.4
				c0.3,0,0.6,0.3,0.9,0.2c0.3,0.3,0.7,0.1,1.1,0.2c0.4,0.1,0.8,0.2,1.2,0.3c0.4,0.1,0.7,0.3,1.1,0.2c0.3,0.3,0.8,0,1,0.4
				c0.4-0.1,0.7,0.2,1.1,0.2c0.4,0,0.7,0.3,1.1,0.2c0.2,0,0.4,0.2,0.5,0.2c-0.5,0.3-1,0.4-1.6,0.6c-0.6,0.2-1.2,0.5-1.8,0.7
				c-0.5,0.2-1,0.3-1.5,0.6c-0.5,0.2-1,0.3-1.4,0.5c-1,0.4-2,0.8-3,1.1c-0.8,0.3-1.7,0.6-2.6,0.9c0,0,0,0.1,0,0.1
				c-0.8,0.1-1.6,0.5-2.3,0.8c-0.7,0.2-1.4,0.5-2.1,0.8c-0.9,0.3-1.8,0.7-2.7,1c-0.8,0.3-1.6,0.6-2.5,0.9c-0.8,0.3-1.6,0.6-2.5,0.9
				c-0.8,0.3-1.5,0.6-2.3,0.8c-0.9,0.3-1.8,0.7-2.7,1c-0.8,0.3-1.6,0.6-2.4,0.9c-0.9,0.3-1.9,0.7-2.8,1c0.5,0.4,1.1,0.4,1.6,0.6
				c0.1,0,0.1,0,0.2,0c0.9-0.4,1.9-0.7,2.8-1.1c0,0.1,0,0.2,0.1,0.2c0.7,0.2,1.4,0.3,2,0.6c-0.3,0.3-0.7,0.3-1.1,0.5
				c-0.1,0-0.2,0-0.3,0.1c-0.5,0.3-1.1,0.5-1.7,0.7c-1.1,0.4-2.1,0.9-3.2,1.3c-1,0.4-2,0.7-2.9,1.1c-0.5,0.2-1,0.5-1.6,0.6
				c-0.4,0.4-1,0.3-1.4,0.7c0,0.1,0,0.2-0.1,0.2c-0.4-0.1-0.7,0.1-1.1,0.2c-0.4,0.1-0.8,0.1-1.1,0.3c-0.9,0-1.6,0.4-2.4,0.6
				c-1,0.2-2,0.6-3,0.8c-0.7,0.2-1.4,0.5-2.1,0.6c-0.6,0.1-1.1,0.2-1.7,0.4c-0.6,0.2-1.2,0.3-1.7,0.5c-0.8,0.2-1.6,0.5-2.4,0.6
				c-0.8,0.1-1.7,0.4-2.5,0.6c-0.4,0.1-0.7,0.1-1.1,0c-0.8-0.2-1.5-0.7-2.3-0.8c-0.4-0.1-0.4-0.3-0.3-0.7c0.2,0,0.4-0.1,0.7,0
				c0.3,0.2,0.5,0.1,0.8,0c1.4-0.4,2.6-1,4-1.4c-0.2-0.1-0.2-0.2-0.4-0.3c-0.5-0.1-1-0.3-1.5-0.5c-0.9-0.3-1.8-0.7-2.7-1
				c-0.9-0.3-1.9-0.7-2.8-1c-0.9-0.3-1.8-0.7-2.7-1c-1.1-0.4-2.2-0.8-3.3-1.2c-0.5-0.1-0.9-0.4-1.4-0.5c-0.5-0.2-1-0.4-1.5-0.6
				c-1.2-0.5-2.5-0.9-3.7-1.4c-0.5-0.2-1-0.5-1.6-0.4c-0.2-0.4-0.7-0.4-1.1-0.5c-0.5-0.2-0.9-0.4-1.4-0.6c-0.5-0.1-0.9-0.3-1.4-0.5
				c-1.1-0.4-2.2-0.8-3.4-1.2c-0.9-0.3-1.8-0.7-2.7-1c-1-0.4-2.1-0.7-3.1-1.1c1.4-0.4,2.8-0.8,4.1-1.1c1.1-0.3,2.1-0.6,3.2-0.8
				c0.7-0.1,1.4-0.4,2.1-0.6c1-0.3,2-0.5,3-0.8c0.4-0.1,0.8-0.1,1.1-0.4c0.4,0,0.7,0.1,1,0.4c0.1,0.1,0.4-0.1,0.5,0.2
				c-0.9,0.1-1.7,0.5-2.6,0.7c-0.8,0.2-1.5,0.4-2.3,0.6c-0.8,0.2-1.7,0.4-2.5,0.7c-1,0.3-1.9,0.6-2.9,0.8c-0.4,0.1-0.7,0.2-1,0.5
				c0.6,0.3,1.2,0.5,1.8,0.7c0.6,0.2,1.2,0.4,1.8,0.6c0.6,0.2,1.3,0.5,1.9,0.7c0.9,0.3,1.7,0.7,2.7,0.6c0.1,0,0.1,0,0.2-0.1
				c0-0.1-0.2-0.2-0.1-0.4c0.8-0.2,1.7-0.5,2.6-0.8c0.5-0.1,1-0.3,1.6-0.4c0.5-0.1,1.1-0.3,1.6-0.5c0.9-0.3,1.8-0.6,2.8-0.8
				c0.6-0.1,1.1-0.4,1.7-0.5c0.1,0,0.3,0,0.4,0c0.6,0.2,1.2,0.4,1.9,0.6c0.6,0.2,1.2,0.5,1.8,0.6c1.1,0.3,2.2,0.9,3.4,1
				c0,0,0,0.1,0.1,0.2c-0.4,0-0.7,0.1-1,0.3c-0.1,0.1-0.4-0.1-0.5,0.2c-0.2,0-0.2,0.2-0.3,0.2c-0.4-0.1-0.8,0.1-1.2,0.2
				c-0.5,0.1-1,0.3-1.5,0.5c0,0,0,0.1,0,0.1c-0.2,0-0.2,0.2-0.5,0.2c-0.6-0.1-1.1,0.2-1.6,0.4c-0.2,0-0.2-0.2-0.4-0.2
				c-0.2-0.2-0.5-0.2-0.7-0.2c0-0.4-0.4-0.2-0.6-0.3c-0.5-0.2-1-0.5-1.6-0.5c0-0.1-0.1-0.2-0.1-0.2c-0.6-0.1-1.1-0.3-1.7-0.5
				c-0.3,0.1-0.6,0.3-1,0.4c-1,0.2-1.9,0.6-2.9,0.8c-0.3,0.1-0.6,0.2-0.9-0.1c-0.5,0.2-0.6,0.3-0.7,0.5c1,0.1,1.9,0,2.9-0.3
				c0.2-0.1,0.4-0.2,0.7-0.2c0.6-0.1,1.2-0.3,1.7-0.5c0.5,0.2,1,0.4,1.5,0.5c0.4,0.1,0.6,0.2,0.9,0.5c-0.1,0.1-0.2,0.1-0.1,0.2
				c-0.1,0-0.2,0-0.4,0c0,0.2,0,0.3,0,0.4c0,0.1-0.1,0.2-0.2,0.3c0.2,0.2,0.4,0.5,0.6,0.6c2.2,0.7,4.3,0.5,6.4,0
				c-0.3-0.5-1-0.3-1.4-0.8c1.5-0.5,3-0.9,4.4-1.4c0.5-0.1,1-0.2,1.4-0.5c0.1,0,0.2,0,0.4,0c0.2,0,0.3-0.1,0.5,0
				c0.9,0.5,1.9,0.6,2.9,1c0.2,0.1,0.4,0,0.6,0c1-0.4,2-0.7,3-1c1.5-0.5,2.9-0.9,4.4-1.4c1-0.3,2-0.6,3-1c1.6-0.5,3.3-1.1,4.9-1.6
				c1-0.3,2-0.6,3-1c0.8-0.3,1.6-0.5,2.4-0.8c0.8-0.3,1.7-0.6,2.5-0.8c1.4-0.4,2.8-0.9,4.1-1.3c1.2-0.4,2.5-0.8,3.7-1.2
				c1.5-0.5,3.1-1,4.6-1.5c1.5-0.5,3-0.9,4.5-1.4C108.7,35.1,109.1,34.9,109.7,34.9z M109.3,42.3c0.2-0.2,0.5-0.1,0.7-0.3
				c0.8-0.4,1.7-0.7,2.6-1c1.3-0.5,2.6-0.9,3.9-1.4c0.5-0.2,1.1-0.4,1.7-0.6c0.2-0.1,0.3-0.2,0.5-0.3c-0.8-0.4-1.6-0.4-2.4-0.6
				c-0.2,0-0.4-0.2-0.7-0.2c-0.3,0-0.6,0.1-0.8-0.2c-0.6,0-1.1-0.3-1.6-0.3c-0.8-0.1-1.4-0.4-2.2-0.5c-0.7-0.1-1.3-0.4-2-0.2
				c0.1,0.2,0.3,0.1,0.4,0.3c-1,0.6-2.2,0.7-3.2,1.2c1.6,0.4,3.2,0.7,4.8,1.1c-1.2,0.4-2.3,0.7-3.3,1.1c-0.4,0.1-0.7,0.2-1,0.1
				c-0.5-0.1-1-0.2-1.5-0.4c-0.5-0.2-1.1-0.2-1.6-0.4c-0.5-0.2-1.1-0.2-1.6-0.5c-0.6-0.2-1.1-0.2-1.5,0c-0.4,0.2-0.9,0.1-1.3,0.5
				c-0.6,0-1.1,0.4-1.6,0.4c0,0.1,0,0.2,0,0.3c0.8,0.1,1.6,0.4,2.4,0.6c0.7,0.1,1.3,0.5,2,0.4c0.3,0.3,0.7,0.4,1.1,0.4
				c0.1,0,0.2,0,0.2,0.2c-0.2,0-0.3,0.1-0.5,0.2c-1,0.3-2.1,0.6-3,1.1c-0.2,0.1-0.5,0.1-0.7,0c-0.5-0.2-1-0.3-1.6-0.4
				c-0.6-0.1-1.1-0.3-1.7-0.5c-0.4-0.1-0.9-0.1-1.2-0.3c-1.3,0.5-2.7,0.9-3.9,1.4c-0.1,0-0.3,0.1-0.4,0c-0.7-0.3-1.5-0.4-2.2-0.7
				c-0.4,0.1-0.8-0.5-1.3-0.1c-1.6,0.5-3.1,1-4.7,1.5c-1.6,0.5-3.2,1.1-4.8,1.6c-1,0.3-2,0.7-3,1c-2.2,0.7-4.3,1.5-6.6,2.1
				c-1.8,0.5-3.6,1.2-5.4,1.8c-0.4,0.1-0.7,0.2-1.1,0c-0.4-0.2-0.4-0.1-0.7,0.4c0.6,0.2,1.3,0.4,1.9,0.7c0.6,0.3,1.2,0.3,1.8,0.3
				c0.5,0,1-0.2,1.4-0.3c0.7-0.1,1.4-0.4,2.1-0.5c0.8-0.1,1.7-0.4,2.5-0.6c0.5-0.1,1.1-0.2,1.6-0.3c0.6-0.2,1.3-0.3,1.9-0.5
				c0.7-0.2,1.4-0.3,2.1-0.5c0.8-0.2,1.6-0.4,2.4-0.6c0.7-0.1,1.4-0.3,2.1-0.5c0.6-0.1,1.2-0.3,1.8-0.4c0.4-0.1,0.8-0.2,1.3-0.3
				c1-0.2,1.9-0.5,2.8-0.7c0.3-0.1,0.7-0.1,1-0.2c0.8-0.2,1.6-0.5,2.5-0.6c1-0.1,1.9-0.4,2.8-0.6c1-0.3,2-0.4,2.9-0.7
				c0.5-0.1,1,0,1.5-0.2c0.5-0.1,1-0.2,1.5-0.2c0.8,0,1.5-0.3,2.3-0.2c0.1,0,0.1,0,0.2,0c0.4-0.3,0.8-0.1,1.2-0.2
				c0.4-0.2,0.8-0.2,1.2-0.2c0.1,0,0.3,0.1,0.4,0c0.4-0.3,0.9,0,1.3-0.2c0.4-0.2,0.9-0.2,1.3-0.2c0.9-0.5,1.9-0.6,2.7-1.1
				C109.2,42.3,109.3,42.3,109.3,42.3z"/>
			<path class="st7" d="M50.4,23.7c-0.1-0.4-0.5-0.1-0.8-0.3c-0.4-0.2-0.8-0.3-1.3-0.3c-0.6,0-1.2-0.3-1.8-0.4
				c-0.7-0.2-1.4-0.3-2.1-0.5c-1.2-0.4-2.4-0.5-3.6-0.9c-0.6-0.2-1.3-0.3-1.9-0.4c-0.9-0.2-1.9-0.4-2.8-0.7
				c-0.6-0.2-1.2-0.3-1.8-0.4c-1.2-0.3-2.5-0.4-3.7-0.9c-0.8,0.1-1.5-0.4-2.3-0.5c0.4-0.2,0.9,0,1.3-0.3c0.9,0,1.9-0.3,2.8-0.4
				c0.9-0.1,1.8-0.1,2.6-0.5c0.5,0.1,1-0.1,1.5-0.2c0.6-0.1,1.2-0.1,1.8-0.3c0.2-0.1,0.5,0,0.7,0c0.3,0,0.4-0.3,0.7-0.2
				c0.6,0.1,1.2-0.3,1.8-0.2c0.8-0.3,1.8-0.2,2.6-0.6c0.6,0.1,1.1-0.3,1.7-0.2c0.3,0.1,0.5-0.3,0.8-0.2c0.2,0.1,0.5,0,0.8-0.1
				c0.4-0.1,0.8-0.1,1.2-0.2c0.6,0,1.1-0.3,1.7-0.2c0.3,0,0.5-0.3,0.8-0.2c0.4,0.1,0.6-0.2,0.9-0.2c0.3,0,0.6,0,0.9-0.1
				c0.3-0.2,0.8,0.1,1.2-0.2c0.5,0.1,1-0.2,1.6-0.2c0.5,0,0.9-0.3,1.4-0.2c0.4-0.4,0.9,0,1.3-0.3c0.3-0.2,0.8,0.1,1.2-0.2
				c0.6,0.1,1.1-0.1,1.7-0.2c1-0.2,2-0.1,2.9-0.5c0.6,0.1,1.1-0.3,1.7-0.2c0.3,0.1,0.5-0.3,0.8-0.2c0.2,0.1,0.5,0,0.8-0.1
				c0.4-0.1,0.8-0.1,1.2-0.2c0.6,0,1.1-0.3,1.7-0.2c0.3,0,0.5-0.3,0.8-0.2c0.4,0.1,0.6-0.2,0.9-0.2c0.3,0,0.6,0,0.9-0.1
				c0.3-0.2,0.8,0.1,1.2-0.2c0.5,0.1,1-0.2,1.6-0.2c0.5,0,0.9-0.3,1.4-0.2c0.4-0.4,0.9,0,1.3-0.3c0.3-0.2,0.8,0.1,1.2-0.2
				c0.6,0.1,1.1-0.3,1.7-0.2c0.3,0.1,0.5-0.3,0.8-0.2c0.2,0.1,0.5-0.1,0.8-0.1c0.4-0.1,0.9-0.1,1.4-0.2c0.9-0.1,1.8-0.4,2.8-0.4
				c0.4,0,0.8-0.2,1.2,0C88.6,9,89,8.8,89.5,9c0.4,0.2,1,0.1,1.5,0.2c0.7,0.1,1.4,0.3,2.1,0.2c0.3,0,0.5,0.2,0.8,0.2
				c0.3,0,0.6-0.1,0.9,0.2c0.1,0.1,0.2,0,0.4,0c0.4-0.1,0.7,0.1,1.1,0.2c0.4,0.1,0.8-0.1,1.1,0.2c0.1,0,0.2,0,0.3,0
				c0.4,0,0.9,0,1.3,0.2c0.4,0.1,0.8-0.1,1.2,0.2c0.6-0.1,1.2,0.2,1.9,0.2c0.4,0,0.7,0.2,1.1,0.2c0.3,0,0.7,0,1,0.1
				c0.4,0.2,0.9,0,1.4,0.2c0.7-0.1,1.3,0.3,1.9,0.2c0.4,0,0.6,0.3,1,0.2c0.3-0.1,0.7-0.1,1,0.2c0.7-0.1,1.3,0.3,1.9,0.2
				c0.4-0.1,0.6,0.3,0.9,0.2c0.3-0.1,0.7-0.1,0.9,0.2c0,0,0.2,0,0.3,0c0.4,0,0.9,0,1.3,0.2c0.4,0.1,0.8-0.1,1.2,0.2
				c0.6-0.1,1.2,0.3,1.9,0.2c0.4,0,0.7,0.2,1.1,0.2c0.3,0,0.7,0,1,0.1c0.4,0.2,1,0.1,1.5,0.2c0.7,0.1,1.4,0.4,2.1,0.2
				c0.1,0.1,0.1,0.2,0.1,0.3c-1.1,0.3-2.2,0.5-3.3,0.8c-0.9,0.2-1.9,0.4-2.9,0.6c-1.2,0.3-2.4,0.4-3.5,0.9c-1,0-2,0.5-3,0.6
				c-0.5,0-1.1,0.2-1.6,0.4c-0.7,0.2-1.4,0.3-2.1,0.5c-1,0.3-2,0.4-2.9,0.7c-0.5-0.1-0.9,0.2-1.4,0.2c-0.1,0-0.2,0.2-0.3,0.2
				c-0.5-0.1-0.9,0.3-1.4,0.2c-0.1,0-0.2,0.1-0.1,0.2c-0.8-0.1-1.5,0.3-2.3,0.4c-1,0.2-2,0.4-2.9,0.7c-0.7,0.2-1.4,0.3-2.1,0.5
				c-0.5,0.2-1.1,0.3-1.6,0.4c-1,0.1-2,0.5-3,0.6c-0.7,0.1-1.5,0.3-2.2,0.5c-0.8,0.2-1.5,0.3-2.3,0.5c-0.6,0.1-1.3,0.3-1.9,0.4
				c-0.9,0.2-1.9,0.5-2.8,0.7c-0.6,0.1-1.3,0.3-1.9,0.4c-1,0.2-2,0.4-2.9,0.7c-0.7,0.2-1.4,0.3-2.1,0.5c-0.5,0.1-1.1,0.3-1.6,0.4
				c-1,0.1-1.9,0.6-3,0.6c-0.8,0.4-1.8,0.4-2.6,0.7c-0.2,0.1-0.5,0.1-0.7,0c-0.3-0.2-0.5-0.1-0.8-0.1c0-0.1,0-0.1-0.1-0.2
				c-0.7-0.1-1.4-0.2-2-0.4c-0.7-0.2-1.4-0.3-2.1-0.5c-0.4-0.1-0.9-0.3-1.4-0.2c0-0.1,0-0.2-0.1-0.2c-0.2,0-0.5,0.1-0.6,0
				c-0.9-0.4-1.8-0.5-2.7-0.7c-1.1-0.3-2.2-0.6-3.3-0.8C51.7,24,51.1,23.6,50.4,23.7z M92.2,16.7c-0.6-0.1-1.1,0.1-1.6,0.3
				c-0.3,0.1-0.9,0.1-1.3,0.1c-1,0-1.9-0.5-2.9-0.4c-0.1,0-0.1-0.2-0.3-0.2c-0.3,0.3-0.7,0.1-1,0.2c-1.2,0.5-2.6,0.6-3.9,0.9
				c-0.8,0.2-1.6,0.3-2.3,0.4c-0.7,0.2-1.5,0.3-2.3,0.5c-0.8,0.2-1.5,0.3-2.3,0.4c-0.9,0.2-1.8,0.3-2.6,0.5
				c-0.4,0.1-0.8,0.1-1.1,0.2c-0.5,0.2-1,0.2-1.5,0.3c-0.5,0.2-1.1,0.3-1.6,0.3c-1,0.1-2,0.6-3.1,0.6c-0.4,0.4-0.9,0-1.3,0.4
				c-0.5-0.1-0.9,0.2-1.4,0.2c-0.3,0-0.7,0.1-1,0.1c-0.3,0.4-0.7,0.1-1.1,0.3c-0.3,0.2-0.8,0.1-1.2,0.1c-0.2,0-0.5-0.1-0.7,0.1
				c0.3,0.1,0.5,0.3,0.8,0.3c0.6,0.1,1.2,0.3,1.8,0.4c0.2,0,0.4,0.2,0.7,0.2c0.8,0.1,1.5-0.3,2.3-0.2c0.3-0.3,0.6-0.2,0.9-0.2
				c0.4,0.1,0.6-0.3,0.9-0.2c0.7,0.1,1.3-0.3,1.9-0.2c0.4-0.3,0.9,0,1.2-0.2c0.3-0.2,0.6-0.2,0.9-0.1c0.4,0,0.6-0.3,0.9-0.2
				c0.7,0.1,1.3-0.3,1.9-0.2c0.4-0.3,1,0,1.4-0.2c0.4-0.2,0.7,0,1-0.2c0.3-0.2,0.7-0.2,1-0.2c0.1,0,0.3,0,0.4,0
				c0.3-0.3,0.6-0.2,0.9-0.2c0.3,0,0.6-0.3,0.9-0.2c0.6,0.1,1.2-0.3,1.8-0.2c0.3-0.3,0.6-0.2,0.9-0.2c0.4,0,0.6-0.3,1-0.2
				c0.6,0.1,1.2-0.3,1.9-0.2c0.9-0.4,1.9-0.3,2.9-0.5c0.4-0.1,0.8,0,1.2-0.2c0.4-0.1,0.8,0.1,1.2-0.2c1,0.1,2-0.3,3.1-0.4
				c0.5,0,1.1-0.1,1.6-0.2c0.3-0.1,0.6-0.2,0.9-0.1c0.4,0.1,0.7-0.2,1-0.2c0.4,0,0.9-0.1,1.3,0c0.5,0.1,0.9-0.3,1.3-0.2
				c0.7,0,1.4,0,2.1-0.2c0.7-0.2,1.5,0.1,2.2-0.2c1.1,0.1,2.1-0.2,3.2-0.2c1,0,1.8-0.3,2.7-0.5c0.6-0.1,1.2-0.4,1.7-0.4
				c0.4,0,0.8-0.3,1.2-0.2c0.3-0.4,0.8-0.1,1.2-0.3c0.5-0.2,1-0.4,1.6-0.4c1-0.1,1.9-0.6,3-0.6c0.8-0.4,1.7-0.4,2.6-0.6
				c-0.1-0.1-0.2-0.2-0.3-0.3c-0.8,0.1-1.5-0.3-2.3-0.2c-0.4-0.3-1-0.1-1.4-0.2c-0.3-0.1-0.6-0.2-0.9-0.1c-0.4,0.1-0.6-0.3-0.9-0.2
				c-0.4,0.1-0.7,0-1.1-0.2c-0.4-0.1-0.7,0-1.1-0.2c-0.4-0.2-1-0.2-1.4,0c-0.7,0.3-1.5,0.4-2.3,0.5c-0.3,0.3-0.8,0.1-1.3,0.3
				c1.6,0.3,3.1,0.5,4.6,0.6c-0.2,0.1-0.3,0.3-0.5,0.3c-0.5,0.1-1,0.2-1.4,0.3c-0.8,0.2-1.6,0.4-2.5,0.2c-0.3,0-0.5-0.2-0.8-0.2
				c-0.6,0.1-1.1-0.3-1.7-0.2c-0.4-0.4-1,0-1.4-0.3c-0.4-0.2-1-0.1-1.4-0.3c-0.2-0.1-0.4-0.1-0.6,0c-0.8,0.3-1.6,0.4-2.3,0.5
				c-0.4,0.1-0.8,0.2-1.2,0.3c0.5,0,1,0.2,1.6,0.2c0.5,0,1,0.3,1.5,0.2c0.5,0.4,1,0,1.5,0.3c0.5,0.2,1.1-0.1,1.4,0.4
				c-0.2,0.1-0.5,0-0.7,0.1c-0.2,0.1-0.4,0.3-0.7,0.2c-0.3-0.1-0.4,0.1-0.7,0.2c-0.5,0.1-1.1,0.2-1.6,0.3C98.9,17.2,98.4,17,98,17
				c-0.6,0-1.1-0.4-1.8-0.2c-0.4-0.3-0.9,0-1.2-0.2c-0.5-0.2-0.9-0.1-1.4-0.1C93.2,16.4,92.7,16.6,92.2,16.7
				C92.2,16.7,92.2,16.7,92.2,16.7z M66.6,17.4c0.5-0.2,0.9,0,1.1-0.3c0.5,0.1,0.9-0.2,1.3-0.2c0.5,0,1-0.3,1.5-0.2
				c0.3-0.3,0.7,0,0.9-0.2c0.4-0.3,0.6,0,0.9,0c0.9,0,1.7,0.4,2.6,0.4c0.3,0,0.4,0.3,0.8,0.2c0.2-0.1,0.5-0.1,0.7,0.2
				c0.4-0.1,0.8,0.1,1.2,0.2c0.3-0.4,0.9,0,1.2-0.4c0.6,0,1.1-0.2,1.6-0.3c0.5-0.1,1.1-0.2,1.6-0.3c0.4-0.1,0.8,0,1.1-0.2
				c0.7-0.3,1.5-0.4,2.2-0.5c0.9-0.1,1.7-0.5,2.8-0.4c-0.2-0.2-0.3-0.2-0.5-0.4c-0.3-0.1-0.7,0.1-1-0.1c-0.3-0.2-0.7,0.1-1.1-0.2
				c-0.3-0.2-0.8,0.1-1.1-0.1c-0.4-0.2-0.8,0.1-1.1-0.2c0-0.1,0-0.2,0-0.2c0.7-0.2,1.4-0.2,2.1-0.4c0.6-0.1,1.3-0.2,1.9-0.4
				c0.1,0,0.4-0.1,0.4,0c0.3,0.3,0.6,0.2,0.9,0.2c0.3,0,0.5,0.3,0.8,0.2c0.6-0.1,1.2,0.3,1.8,0.2c0.4,0.4,1,0.1,1.5,0.3
				c0.6,0.2,1.3-0.1,1.9-0.2c0.8-0.1,1.5-0.3,2.3-0.5c0.8-0.1,1.5-0.4,2.2-0.4c0.3-0.4,0.8,0,1.1-0.4c0.4,0.1,0.8-0.1,1.2-0.2
				c0.5-0.1,1-0.1,1.5-0.3c0.3-0.1,0.6,0.1,0.9-0.2c0.3-0.2,0.7,0.2,1,0.2c0.1,0,0.1,0,0.2-0.1c-0.4-0.1-0.1-0.4-0.3-0.6
				c-0.6-0.1-1.2-0.3-1.8-0.4c-1.7-0.1-3.4,0.1-5.1-0.2c-0.7-0.1-1.3-0.4-2-0.2c-0.1,0-0.1-0.1-0.2-0.1c-0.4-0.1-1-0.1-1.5,0.1
				c1.4-0.1,2.7,0.4,4,0.4c-0.5,0.4-1.1,0.4-1.6,0.5c-0.8,0.1-1.7,0.3-2.5,0.4c-0.8,0.1-1.6,0.2-2.4,0.5c-0.3,0.1-0.6,0.1-0.9,0.2
				c-0.3,0.1-0.7-0.1-0.9,0.2c-0.6-0.1-1.2,0.2-1.9,0.2c-0.7,0-1.3-0.3-1.9-0.2c-0.1,0-0.2-0.2-0.4-0.1c-2,0.4-4,0.7-6.2,1.1
				c0.5,0.1,0.8,0,1.1,0.2c0.2,0.1,0.6,0,1.1,0c-0.2,0.2-0.2,0.3-0.3,0.4c-0.3,0-0.6-0.1-0.9,0c-0.7,0.3-1.5,0.4-2.2,0.5
				c-0.8,0.1-1.6,0.4-2.4,0.4c-0.3,0-0.4,0.3-0.7,0.2c-0.2,0-0.5-0.1-0.7,0c-0.2,0.2-0.5,0.1-0.7,0.1c-0.3,0-0.4,0.2-0.7,0.2
				c-0.7,0.1-1.4-0.3-2.1-0.2c0,0,0,0-0.1-0.1c-0.3-0.3-0.7-0.2-1-0.1C69.2,16,68.6,16,68,16.2c-0.4,0.1-0.9,0.1-1.3,0.2
				c-0.9,0.3-1.8,0.3-2.7,0.5c-0.2,0-0.2,0-0.7,0.4c0.7-0.1,1.2,0.2,1.8,0.3c-0.3,0-0.6,0.3-0.9,0.3c-0.5,0-1,0.3-1.5,0.2
				c-1.1,0.4-2.2,0.5-3.4,0.7c-0.8,0.2-1.5,0.4-2.3,0.4c-0.4,0.3-0.9,0-1.2,0.2c-0.4,0.2-0.9,0-1.2,0.3c-0.5-0.1-0.9,0.3-1.4,0.2
				c-0.3-0.1-0.4,0.2-0.7,0.2c-0.2,0-0.5-0.1-0.7,0.1c-0.3,0.2-0.7-0.1-1,0.2c-0.3-0.4-0.7-0.1-1-0.2c-0.6-0.2-1.3-0.3-1.9-0.5
				c-0.4-0.1-0.7,0.1-1.1,0.2c-0.5,0.1-1,0.3-1.6,0.2c-0.8,0.3-1.7,0.4-2.6,0.4c-0.3,0-0.6,0.2-0.8,0.3c0.7,0,1.5,0.2,2.2-0.1
				c0.5,0.1,1-0.1,1.5-0.2c0.5-0.1,1-0.1,1.4-0.3c0.2-0.1,0.6-0.1,0.8,0c0.3,0.2,0.7,0,0.9,0.2c0.3,0.3,0.7,0,1,0.2
				c0.1,0.1,0.2,0.2,0.2,0.2c-0.3,0.1-0.5,0.3-0.7,0.6c0.1,0.2,0.3,0.3,0.4,0.5c0.4-0.2,0.8,0.2,1.2,0.2c2,0,4,0,6,0
				c0.1,0,0.3,0.1,0.4-0.1c-0.1-0.2-0.4,0-0.6-0.3c0.5,0.1,0.9-0.2,1.4-0.2c0.4,0,0.8-0.1,1.1-0.2c0.8-0.3,1.7-0.3,2.5-0.5
				c0.7-0.2,1.5-0.3,2.2-0.4c0.7-0.2,1.5-0.3,2.3-0.5c0.8-0.1,1.5-0.4,2.3-0.4c0.3-0.4,0.9,0,1.2-0.4c0.5,0.1,0.8-0.3,1.3-0.2
				c0.3,0,0.5-0.3,0.8-0.2c0,0,0.1,0,0.1-0.1c0-0.1-0.2,0-0.1,0C70.1,18.1,68.4,17.9,66.6,17.4z M40.8,19.9c0.8,0.1,1.5-0.1,2.2-0.3
				c0.4-0.1,0.7,0,1.1-0.2c0.3-0.1,0.7-0.1,1.1-0.2c0.4-0.1,0.8-0.3,1.2-0.2c0.4,0.1,0.8-0.2,1.2-0.2c0.4-0.1,0.9,0,1.3-0.2
				c0.8-0.3,1.7-0.2,2.4-0.5c0.5,0.1,1-0.3,1.6-0.2c0.4-0.4,1,0,1.4-0.4c0.5,0.1,1-0.2,1.6-0.2c0.4,0,0.9-0.1,1.3-0.2
				c0.5-0.2,1.1-0.3,1.6-0.3c0.6-0.1,1.1-0.2,1.7-0.4c0.3-0.1,0.7,0,1-0.2c0.3-0.1,0.7-0.1,1.1-0.2c0.4-0.1,0.8-0.3,1.2-0.2
				c0.4,0.1,0.8-0.2,1.2-0.2c0.4-0.1,0.9,0,1.3-0.2c0.8-0.3,1.6-0.3,2.5-0.5c0.5-0.1,1-0.3,1.6-0.2c0.4-0.4,1,0,1.4-0.4
				c0.5,0.1,1-0.2,1.6-0.2c0.4,0,0.9-0.2,1.3-0.1c0.3-0.4,0.9,0,1.2-0.4c0.5,0.1,0.9-0.2,1.4-0.2c0.5,0,1-0.1,1.5-0.2
				c0.6-0.1,1.1-0.3,1.7-0.3c0.1,0,0.3,0.1,0.4-0.2c-0.4,0-0.7,0-1.1,0c-0.2,0-0.3,0.2-0.5,0.2c-0.7,0.1-1.4,0-2.1,0.2
				c-0.6,0.1-1.3,0-1.9,0.2c-0.6,0.1-1.2,0.1-1.9,0.2c-0.7,0.1-1.4,0-2,0.2c-1-0.1-2,0.3-3,0.2c-0.1,0-0.1,0-0.2,0
				c-0.4,0.3-0.9,0.2-1.3,0.2c-0.5-0.1-0.9,0.2-1.4,0.2c-1-0.1-2,0.3-3,0.2c-0.1,0-0.1,0-0.2,0c-0.4,0.3-0.9,0.2-1.3,0.2
				c-0.5,0-0.8,0.3-1.3,0.2c-0.5,0-1.1-0.1-1.6,0.2c-0.9-0.1-1.7,0.2-2.6,0.2c-0.9,0-1.8,0.3-2.7,0.2c0,0-0.1,0-0.1,0
				c-0.4,0.3-0.8,0.2-1.2,0.2c-0.4,0-0.8,0.2-1.2,0.2c-0.6,0-1.2,0-1.9,0.2c-0.6,0.2-1.3,0.1-1.9,0.2c-0.5,0.1-1.1,0.4-1.7,0.2
				c-0.8,0.4-1.8,0.4-2.6,0.5c-0.9,0.2-1.8,0.4-2.8,0.4c-0.4,0.3-0.9,0.1-1.3,0.2c-0.9,0.3-1.8,0.3-2.7,0.5c-0.5,0.1-1,0.4-1.6,0.2
				c-0.4,0.3-1,0.1-1.5,0.5c0.5-0.1,0.7,0.3,1.1,0.2c0.3,0.4,0.8,0.1,1.2,0.3c0.6,0.2,1.2,0.3,1.8,0.4c0.7,0.1,1.4,0.4,2.1,0.4
				c0.4,0,0.9,0.3,1.3,0.3c0.5,0,1,0,1.5,0C41.2,19.9,40.9,20.2,40.8,19.9z"/>
			<path class="st8" d="M113.7,57.3c-0.2,0-0.4,0-0.6,0.1c-0.7,0.4-1.4,0.8-2.2,1c-0.1,0-0.2,0.1-0.1,0.2c-0.1,0-0.4-0.1-0.4,0.2
				c-0.6,0.2-1.2,0.5-1.8,0.7c-1.4,0.6-2.8,1.2-4.1,1.9c-1.1,0.6-2.2,1-3.3,1.5c-1.3,0.6-2.6,1.2-3.9,1.8c-1.4,0.6-2.8,1.3-4.2,1.9
				c-1.4,0.6-2.8,1.3-4.2,1.9c-1.4,0.7-2.8,1.3-4.2,1.9c-1.3,0.6-2.6,1.2-3.9,1.7c-1.4,0.6-2.8,1.3-4.2,1.9
				c-1.4,0.6-2.8,1.3-4.2,1.9c-0.5,0.2-1,0.3-1.4,0.6c-0.6,0.5-1.2,0.3-1.7,0c-1.3-0.7-2.6-1.1-4-1.8c-0.9-0.4-1.9-0.9-2.9-1.3
				c-0.1,0-0.1,0-0.2,0c0-0.2-0.2-0.2-0.3-0.2c-0.9-0.4-1.9-0.8-2.8-1.3c-0.7-0.4-1.5-0.6-2.2-1c-0.2-0.1-0.3,0-0.5-0.1
				c-0.1-0.3-0.5-0.4-0.8-0.5c-1.1-0.4-2.2-1-3.3-1.4c-1.1-0.5-2.2-1-3.3-1.5c-1.1-0.5-2.3-0.9-3.3-1.5c-0.2-0.1-0.4,0-0.5-0.1
				c-0.1-0.3-0.5-0.4-0.8-0.5c-1.1-0.4-2.2-1-3.2-1.4c-1.7-0.7-3.4-1.4-5-2.3c-0.3-0.1-0.6-0.2-0.9-0.3c0.2-0.4,0.6-0.4,0.9-0.5
				c2.9-0.9,5.7-2,8.6-2.8c0.2,0,0.3-0.2,0.5-0.2c1.3,0.3,2.5,0.9,3.7,1.4c0.9,0.4,1.8,0.8,2.6,1.1c0.7,0.3,1.3,0.6,2,0.8
				c0.7,0.2,1.3,0.7,2.1,0.8c0.2,0.3,0.8,0.2,1,0.5c-0.7,0.2-1.3,0.5-2,0.7c-0.2,0.1-0.5,0.1-0.6,0.4c-0.3-0.1-0.5,0.1-0.8-0.1
				c-0.2-0.1-0.4-0.1-0.7,0c-1,0.5-2,0.7-3,1.2c-0.6,0.3-0.8,0.3-1.3,0.1c-0.2,0.2-0.5,0.2-0.7,0.5c1.5,0.2,1.5,0.2,2.9-0.4
				c0.8-0.3,1.6-0.7,2.4-0.8c0.1,0.3,0.4,0.2,0.6,0.4c0.6,0.3,1.2,0.4,1.8,0.9c-0.3,0.2-0.6,0.5-0.9,0.7c0,0.6,0.3,0.9,0.8,1.1
				c0.5,0.2,1,0.4,1.6,0.4c1.2,0.1,2.4,0,3.6-0.2c0.2-0.3,0.7,0,0.9-0.5c-0.5-0.2-1-0.4-1.5-0.7c0.4-0.3,0.9-0.3,1.2-0.5
				c0.5-0.2,1.1-0.3,1.6-0.7c0.7,0.1,1.3,0.5,2,0.7c0.6,0.2,1.1,0.5,1.6,0.7c1.1,0.4,2.2,0.9,3.3,1.3c0.1-0.3,0.4,0,0.5-0.2
				c0.5-0.4,1.1-0.6,1.7-0.8c0.6-0.2,1.2-0.5,1.8-0.8c1.2-0.5,2.4-1,3.6-1.5c0.5-0.2,0.9-0.5,1.4-0.6c0.8-0.3,1.6-0.6,2.4-0.9
				c0.9-0.4,1.9-0.8,2.9-1.2c1.3-0.6,2.7-1.1,4-1.6c0.5-0.2,1-0.5,1.6-0.7c0.8-0.2,1.6-0.6,2.4-0.9c0.9-0.5,1.9-0.8,2.8-1.2
				c0.9-0.4,1.9-0.8,2.8-1.1c0.5-0.2,0.9-0.4,1.4-0.5c0,0.1,0,0.1,0.1,0.1c0.7,0.2,1.3,0.4,2,0.6c0.4,0.1,0.8,0.4,1.2,0.4
				c0.5,0.2,0.9,0.4,1.5,0.5c-1.3,0.6-2.5,1.1-3.6,1.6c-0.8,0-1.4-0.5-2.1-0.4c-0.1-0.4-0.6-0.1-0.7-0.4c-0.3,0.1-0.5-0.3-0.9-0.2
				c0,0-0.2,0.1-0.3,0.2c0.5,0.2,0.9,0.3,1.3,0.5c-0.2,0.3-0.5,0.2-0.8,0.4c-0.3,0.2-0.7,0.2-0.9,0.4c-1,0.6-2.1,0.9-3.1,1.4
				c-0.5,0.3-1.1,0.5-1.7,0.7c-0.7,0.3-1.4,0.6-2.1,0.9c-0.7,0.3-1.5,0.6-2.2,0.9c0.1,0.2,0.3,0.2,0.3,0.1c0.7-0.3,1.4-0.3,2.1-0.7
				c0.2-0.1,0.5-0.2,0.8-0.2c1-0.3,2-0.6,3-0.9c0.8-0.3,1.6-0.4,2.4-0.7c0.3-0.1,0.7-0.1,1.1-0.2c0.4-0.1,0.7-0.2,1.1-0.2
				c0.8-0.1,1.6-0.3,2.3-0.4c1.1-0.1,2.1-0.4,3.1-0.4c0.4,0,0.9,0,1.3-0.2c0.4-0.2,0.8,0,1.1-0.2c0.4-0.2,0.7-0.2,1-0.2
				c0.9-0.5,1.8-0.9,2.7-1.3c0.9-0.4,1.8-0.9,2.8-1.2c0,0,0-0.1,0-0.1c0.1,0,0.1,0,0.2,0c1.4-0.6,2.8-1.3,4.2-1.9
				c0.7-0.3,1.4-0.5,2.1-1c-0.2-0.5-0.7-0.5-1-0.6c-1.2-0.3-2.4-0.6-3.5-1c-1.2-0.4-2.5-0.7-3.8-1.1c0.4-0.4,1-0.5,1.6-0.7
				c0.4-0.1,0.7-0.5,1.2-0.4c3.4,0.9,6.9,1.9,10.3,2.8c-0.9,0.4-1.8,0.8-2.7,1.3c-1.5,0.7-2.9,1.3-4.4,2c-0.6,0.3-1.3,0.6-1.9,0.9
				C113.8,57.2,113.7,57.2,113.7,57.3z M39,61.5c0.1,0.5,0.5,0.4,0.8,0.5c0.8,0.4,1.6,0.8,2.4,1.1c1.4,0.5,2.7,1.2,4.1,1.7
				c0.1-0.4,0.6,0,0.7-0.5c-1.1-0.6-2.3-1-3.4-1.5c-1.1-0.5-2.3-1-3.6-1.5c1-0.3,1.8-0.5,2.6-0.9c0.8-0.3,1.7-0.4,2.6-1
				c-0.7-0.1-0.7-0.1-1.3,0.1c-1.2,0.4-2.4,0.7-3.6,1.1C39.8,61,39.3,61,39,61.5z"/>
			<path class="st9" d="M56.6,62.9c-0.2-0.3-0.8-0.2-1-0.5c-0.7-0.1-1.4-0.5-2.1-0.8c-0.7-0.2-1.3-0.5-2-0.8
				c-0.9-0.3-1.8-0.8-2.6-1.1c-1.2-0.5-2.4-1.1-3.7-1.4C45,58,44.7,58,44.4,57.9c-1.8-0.8-3.6-1.5-5.5-2.2c-1.1-0.4-2.1-0.8-3.2-1.3
				c-0.6-0.2-1.1-0.5-1.8-0.8c1.4-0.4,2.7-0.8,4-1.2c1.1-0.4,2.2-0.6,3.2-1c0.6-0.2,1.2-0.4,1.9-0.6c0.6-0.2,1.3-0.3,1.9-0.6
				c0.2-0.1,0.4,0,0.6,0c0.6-0.1,1.1,0.2,1.6,0.4c1.2,0.5,2.5,0.9,3.7,1.4c0.5,0.2,1,0.4,1.5,0.6c0.5,0.1,1,0.4,1.4,0.5
				c1.1,0.3,2.2,0.8,3.3,1.2c0.9,0.3,1.8,0.7,2.7,1c0.9,0.3,1.9,0.7,2.8,1c0.9,0.3,1.8,0.7,2.7,1c0.5,0.2,1,0.3,1.5,0.5
				c0.2,0,0.2,0.2,0.4,0.3c-1.4,0.4-2.7,1-4,1.4c-0.3,0.1-0.5,0.2-0.8,0c-0.2-0.1-0.5-0.1-0.7,0c-0.1,0.4,0,0.6,0.3,0.7
				c0.8,0.1,1.5,0.6,2.3,0.8c0.4,0.1,0.7,0.1,1.1,0c0.8-0.2,1.6-0.5,2.5-0.6c0.8-0.1,1.6-0.4,2.4-0.6c0.6-0.1,1.2-0.3,1.7-0.5
				c0.5-0.2,1.1-0.3,1.7-0.4c0.7-0.1,1.4-0.4,2.1-0.6c1-0.2,2-0.7,3-0.8c0.8-0.1,1.6-0.6,2.4-0.6c0.3-0.3,0.8-0.2,1.1-0.3
				c0.4-0.1,0.7-0.3,1.1-0.2c0,0,0-0.1,0.1-0.2c0.3,0.1,0.6-0.1,0.8-0.2c1.1-0.2,2.1-0.5,3.2-0.8c0.8-0.2,1.5-0.4,2.3-0.6
				c1.1-0.3,2.1-0.6,3.2-0.8c0,0,0-0.1,0-0.1c0.3-0.1,0.5,0,0.8-0.1c0.5-0.2,1.2-0.3,1.7-0.4c0.4-0.1,0.8,0,1.2-0.2
				c0.4-0.1,0.8,0,1.2-0.2c0.4-0.2,0.9-0.1,1.4-0.2c0.4-0.1,0.9-0.2,1.4-0.2c0.7,0,1.4-0.3,2.1-0.2c0.1,0,0.1,0,0.2,0
				c0.3-0.3,0.6-0.1,0.9-0.1c0.3,0,0.6-0.2,0.9-0.2c0.6,0.1,1.2-0.2,1.8-0.4c0.7-0.3,1.5-0.6,2.2-0.9c0.3-0.1,0.6-0.2,0.8-0.4
				c0.2-0.2,0.6,0,0.7-0.4c0.1,0,0.1,0,0.2,0c1.3-0.5,2.6-1.1,3.9-1.6c1-0.4,1.9-0.8,2.9-1.2c0.3-0.1,0.7-0.1,0.7-0.7
				c-0.9-0.2-1.7-0.4-2.5-0.6c-0.9-0.2-1.8-0.4-2.7-0.7c-0.8-0.3-1.7-0.4-2.6-0.7c-0.4-0.2-1-0.1-1.6,0c0.2,0.2,0.4,0,0.6,0.2
				c-1.1,0.4-2.2,0.8-3.3,1.3c1.6,0.4,3.1,0.8,4.6,1.2c-0.2,0.2-0.3,0.1-0.5,0.1c-0.7,0.4-1.6,0.6-2.3,1c-0.4,0.2-0.8,0.4-1.3,0.1
				c-0.4-0.2-0.9-0.3-1.3-0.4c-1.3-0.3-2.6-0.6-3.9-1.1c-0.2-0.1-0.5-0.3-0.7,0.1c-0.2,0-0.4,0-0.6,0.1c-0.2,0.1-0.5,0.2-0.7,0.3
				c-0.6,0.2-1.2,0.3-1.6,0.7c-0.2,0-0.4-0.1-0.6,0.1c1,0.3,1.9,0.5,2.9,0.8c1,0.3,2,0.6,3,0.9c0,0,0,0.1,0,0.1
				c-0.3,0.1-0.5,0.3-0.8,0.4c-0.6,0.2-1.3,0.5-1.9,0.7c-0.9,0.4-0.9,0.4-1.9,0.2c-0.2,0-0.3-0.2-0.5-0.2c-0.9-0.2-1.7-0.4-2.5-0.7
				c-0.7-0.3-1.3-0.1-2,0.2c-0.9,0.4-1.9,0.7-2.8,1.1c-0.1,0-0.1,0-0.2,0c-0.5-0.2-1.1-0.2-1.6-0.6c1-0.3,1.9-0.7,2.8-1
				c0.8-0.3,1.6-0.6,2.4-0.9c0.9-0.3,1.8-0.7,2.7-1c0.8-0.3,1.5-0.6,2.3-0.8c0.8-0.3,1.6-0.6,2.5-0.9c0.8-0.3,1.6-0.6,2.5-0.9
				c0.9-0.3,1.8-0.7,2.7-1c0.7-0.2,1.4-0.5,2.1-0.8c0.8-0.3,1.5-0.7,2.3-0.8c0.3,0.3,0.8,0.2,1.1,0.3c0.7,0.2,1.4,0.4,2.2,0.6
				c0.7,0.2,1.4,0.4,2.2,0.5c1.4,0.3,2.7,0.7,4.1,1c0.8,0.2,1.6,0.4,2.4,0.6c-0.9,0.4-1.8,0.8-2.7,1.1c-1.3,0.5-2.5,1.1-3.8,1.6
				c-0.3,0.1-0.6,0.4-1,0.4c-0.9,0.6-1.9,0.8-2.9,1.3c-0.1,0-0.2,0.1-0.1,0.2c-0.5-0.1-0.8,0.2-1.2,0.4c-0.5,0.2-1.1,0.3-1.6,0.7
				c-0.1,0-0.4-0.1-0.4,0.2c-0.2,0-0.3-0.1-0.5,0c-1.1,0.6-2.3,1.1-3.5,1.5c-0.6,0.2-1.1,0.7-1.8,0.7c-0.4,0.4-1,0.3-1.4,0.7
				c-0.7,0.1-1.2,0.5-1.8,0.6c0,0,0,0.1,0,0.1c0,0.1,0,0.2-0.1,0.2c-0.7-0.1-1.2,0.3-1.8,0.6c-0.5,0.1-1,0.4-1.4,0.5
				c-0.9,0.4-1.9,0.7-2.8,1.1c-0.9,0.4-1.9,0.7-2.8,1.2c-0.7,0.4-1.5,0.7-2.4,0.9c-0.5,0.2-1,0.5-1.6,0.7c-1.3,0.5-2.7,1.1-4,1.6
				c-1,0.4-1.9,0.8-2.9,1.2c-0.8,0.4-1.6,0.7-2.4,0.9c-0.5,0.2-0.9,0.4-1.4,0.6c-1.2,0.5-2.4,1-3.6,1.5c-0.6,0.2-1.2,0.5-1.8,0.8
				c-0.6,0.2-1.2,0.4-1.7,0.8c-0.2,0.1-0.5-0.1-0.5,0.2c-1.2-0.3-2.2-0.9-3.3-1.3c-0.5-0.2-1.1-0.5-1.6-0.7c-0.7-0.3-1.3-0.6-2-0.7
				c0-0.3-0.3-0.1-0.4-0.2c-0.7-0.4-1.5-0.7-2.3-1c-0.5-0.2-0.9-0.6-1.5-0.5c-0.2-0.2-0.4-0.4-0.7-0.4
				C57.4,63.1,56.9,62.9,56.6,62.9z M53.1,56.6c0.1,0.1,0.7,0.3,0.9,0.4c0,0.1,0.1,0.2,0.2,0.3c-0.4,0-0.5,0.3-0.7,0.5
				c0,0.2,0,0.4,0,0.5c0.3,0.4,0.7,0.7,1.1,0.8c0.5,0.1,1,0.2,1.5,0.2c0.5,0,1.1,0,1.6,0c0.5,0,1-0.2,1.6-0.2c0.3,0,0.8-0.1,1-0.4
				c-0.2-0.1-0.4-0.2-0.5-0.3C58.9,59,57.9,58.7,57,59c0,0-0.1,0-0.1,0c-0.4-0.3-0.9-0.1-1.3-0.2c-0.4-0.2-0.6-0.3-0.9-0.5
				c0.1-0.2-0.1-0.2-0.1-0.3c0.3-0.5,0.8-0.7,1.3-0.9c-0.2-0.1-0.3-0.1-0.5-0.2c-0.1-0.2-0.3,0-0.5-0.1c-0.2-0.3-0.6-0.4-0.9-0.4
				c-0.4-0.2-1.1-0.5-1.4-0.6c0,0-0.1,0-0.1,0c-0.3-0.2-0.6-0.3-0.8-0.3c-1.4,0.4-2.7,0.9-4.1,1.4c-0.4-0.5-0.8,0.1-1.1,0
				c0.1,0.1,0.2,0.2,0.2,0.4c0.5-0.1,1,0,1.6-0.2c0.5-0.1,0.9-0.4,1.4-0.5c0.6-0.1,1-0.5,1.6-0.4c0.3,0.1,0.6-0.1,0.8,0.2
				C52.6,56.3,52.8,56.7,53.1,56.6z M39,53.4c0.2-0.2,0.5-0.1,0.8-0.2c1.3-0.4,2.5-0.8,3.8-1.2c0.2-0.1,0.2-0.2,0.1-0.3
				c-0.5-0.2-0.9,0.2-1.4,0.2c-1.1,0.5-2.3,0.7-3.4,1.1c-0.4,0.1-1,0.2-1.3,0.7c2.5,1.1,4.9,2,7.4,3c0.1-0.3,0.5-0.1,0.7-0.3
				c-0.8-0.4-1.6-0.7-2.3-1c-0.8-0.3-1.5-0.6-2.3-0.9C40.5,54,39.6,54,39,53.4z"/>
			<path class="st7" d="M47.6,42.1c0-0.3-0.3-0.1-0.5-0.2c-0.3-0.2-0.6-0.3-1-0.4c-0.7-0.3-1.4-0.5-2.2-0.7
				c-1.8-0.5-3.5-1.2-5.3-1.7c-0.6-0.2-1.1-0.3-1.7-0.5c-0.5-0.2-1.1-0.4-1.6-0.6c-0.6-0.2-1.1-0.3-1.7-0.6
				c-0.8-0.3-1.7-0.4-2.5-0.9c1.3-0.1,2.5-0.5,3.7-0.8c1.2-0.3,2.3-0.6,3.5-0.9c0.6-0.2,1.3-0.3,1.9-0.4c1.2-0.3,2.4-0.5,3.6-0.9
				c0.6-0.2,1.3-0.3,1.9-0.4c0.6-0.1,1.2-0.3,1.8-0.5c0,0,0-0.1,0-0.1c0.2,0.2,0.5,0.1,0.7,0.2c0.2,0.1,0.5,0.2,0.7,0.2
				c0,0.2-0.1,0.2-0.2,0.2c-0.2,0-0.4,0-0.6,0c-0.9,0.3-1.8,0.4-2.7,0.7c-0.7,0.2-1.4,0.3-2.1,0.5c-0.6,0.1-1.2,0.3-1.9,0.4
				c-0.6,0.1-1.2,0.2-1.8,0.4c-0.6,0.2-1.2,0.3-1.8,0.5c-0.6,0.2-1.3,0.5-1.9,0.4c-0.3,0.2-0.7,0.1-0.9,0.5c0.1,0.1,0.2,0.2,0.3,0.2
				c0.7,0,1.3,0.4,2,0.6c1.6,0.5,3.2,0.9,4.8,1.5c0.6,0.2,1,0.1,1.4-0.1c-0.1-0.1-0.1-0.1-0.1-0.2c1-0.3,2-0.5,2.9-0.7
				c0.8-0.2,1.6-0.4,2.4-0.6c0.8-0.2,1.7-0.4,2.5-0.6c1.1-0.3,2.3-0.6,3.4-0.9c0.6-0.2,1.2-0.3,1.8-0.5c0.3,0,0.6,0,0.9,0.1
				c0.3,0.1,0.6,0.4,0.9,0.2c0.7,0.4,1.6,0.5,2.4,0.7c0.7,0.2,1.5,0.4,2.2,0.6c0.4,0.1,1,0.1,1.4,0.5c-3,0.8-6,1.6-9,2.4
				c-0.5-0.1-1-0.3-1.5-0.3c0-0.1,0-0.2-0.1-0.2c-1-0.2-2-0.6-3-0.8c-0.5-0.2-1-0.2-1.5,0c-0.1,0-0.2,0.1-0.2,0.1
				c-0.9,0.2-1.7,0.3-2.6,0.7c-0.3,0.1-0.6-0.1-0.8,0.2c-0.5-0.4-0.9,0.1-1.3,0.2c0.8,0,1.5,0,2.3,0c0.9-0.5,2-0.5,2.9-0.9
				c0.2-0.1,0.4,0,0.7,0c0.7,0.3,1.4,0.5,2.2,0.7c-0.2,0.1-0.5,0.2-0.5,0.5c0.1,0.3-0.4,0.1-0.3,0.3c0.1,0.2,0.3,0.4,0.4,0.6
				c0.2,0,0.3,0,0.4,0c0.2,0.1,1.1,0.4,1.3,0.4c1.1,0,2.1,0.1,3.2,0c0.6,0,1.2-0.1,1.8-0.5c-0.5-0.2-1.1-0.2-1.5-0.6
				c0.7,0.1,1.4-0.3,2-0.5c0.9-0.3,1.9-0.5,2.8-0.8c0.5-0.2,1-0.3,1.6-0.4c0.5-0.1,1-0.3,1.6-0.4c0.5-0.1,1-0.6,1.6-0.1
				c0.3-0.1,0.7,0,1-0.1c0.7-0.2,1.4-0.4,2-0.6c0.8-0.2,1.7-0.5,2.6-0.7c0.7-0.2,1.4-0.4,2.1-0.6c0.8-0.2,1.6-0.5,2.5-0.7
				c0.8-0.2,1.5-0.5,2.3-0.6c0.8-0.2,1.5-0.4,2.3-0.7c1-0.3,2-0.5,3-0.8c0.8-0.2,1.6-0.5,2.4-0.7c0.7-0.2,1.5-0.4,2.2-0.6
				c0.8-0.2,1.6-0.5,2.4-0.7c0.8-0.2,1.5-0.4,2.3-0.6c0.7-0.2,1.5-0.4,2.2-0.6c0.9-0.3,1.9-0.5,2.8-0.8c1-0.3,2-0.6,3.1-0.8
				c0.5-0.1,1-0.4,1.5-0.4c0.6-0.1,1.2-0.2,1.7-0.3c0-0.1,0.1-0.2,0.1-0.3c0.3-0.1,0.5-0.1,0.8-0.2c0.4-0.1,0.8-0.4,1.2-0.2
				c0.4,0,0.7,0.1,1,0.2c0.3,0.1,0.7-0.1,0.9,0.2c0.8,0,1.6,0.3,2.3,0.4c0.8,0.1,1.5,0.3,2.3,0.5c0.7,0.2,1.5,0.3,2.2,0.4
				c0.8,0.2,1.7,0.2,2.5,0.5c0.3,0.1,0.7,0.1,1.1,0.2c0.4,0,0.8,0.2,1.2,0.2c0.4,0,0.8,0.2,1.2,0.2c0.3,0.4,0.8,0,1.2,0.3
				c0.1,0.1,0.5,0,0.8,0c-0.5,0.5-1.2,0.3-1.6,0.7c-1.2,0.2-2.3,0.7-3.4,1c-1.5,0.5-3,1.1-4.5,1.5c-1.5,0.4-3,1-4.5,1.4
				c0,0,0,0.1,0,0.1c-0.5-0.1-1,0.2-1.5,0.4c-1.5,0.6-3,0.9-4.5,1.4c-1.5,0.5-3.1,1-4.6,1.5c-1.2,0.4-2.5,0.8-3.7,1.2
				c-1.4,0.4-2.7,0.9-4.1,1.3c-0.8,0.2-1.7,0.5-2.5,0.8c-0.8,0.3-1.6,0.5-2.4,0.8c-1,0.3-2,0.6-3,1c-1.6,0.5-3.3,1.1-4.9,1.6
				c-1,0.3-2,0.6-3,1c-1.5,0.5-2.9,0.9-4.4,1.4c-1,0.3-2,0.6-3,1c-0.2,0.1-0.4,0.1-0.6,0c-0.9-0.4-2-0.6-2.9-1c-0.1-0.1-0.3,0-0.5,0
				c-0.1-0.1-0.7-0.3-0.9-0.4c-0.2-0.2-0.5-0.2-0.7-0.2c0-0.1,0-0.1-0.1-0.2c-1.2-0.2-2.3-0.7-3.4-1c-0.6-0.2-1.2-0.5-1.8-0.6
				c-0.6-0.2-1.3-0.4-1.9-0.6c-0.1,0-0.2,0-0.4,0c0,0,0-0.1,0-0.1c-0.8-0.3-1.7-0.5-2.5-0.8c-1.1-0.4-2.2-0.7-3.3-1
				C48.7,42.3,48.2,42,47.6,42.1z M84.9,38.2c0.5,0.1,1-0.3,1.6-0.2c0.3-0.4,0.7,0,1-0.3c0.2-0.2,0.5,0,0.8-0.1
				c0.2-0.1,0.5-0.2,0.7-0.2c0.4-0.3,0.9-0.2,1.4-0.3c0.4-0.1,0.8-0.3,1.3-0.2c0.4-0.4,0.9,0,1.3-0.4c0.4,0.1,0.8-0.2,1.2-0.2
				c0.5-0.1,1.1,0,1.6-0.2c0.4-0.1,0.8-0.2,1.2-0.1c0.4,0.1,0.8-0.3,1.2-0.2c0.2,0,0.5,0,0.7,0c0.3,0.1,0.5-0.2,0.7-0.2
				c0.5,0,0.9,0.1,1.4-0.1c0.4-0.2,0.9,0,1.4-0.2c0.4-0.1,0.9,0,1.4,0c0.5,0,0.9-0.3,1.4-0.2c0.6,0.1,1-0.3,1.6-0.2
				c0.1-0.3,0.6,0.1,0.6-0.3c0.1,0,0.3,0,0.4,0c1.2-0.5,2.5-0.8,3.7-1.2c2.2-0.7,4.3-1.4,6.5-2.1c0.3-0.1,0.8-0.1,1-0.5
				c-1.5-0.4-3.1-0.7-4.6-1c-1.6-0.3-3.1-0.6-4.7-0.9c-0.1,0.2-0.1,0.5-0.4,0.5c-0.3,0-0.5,0.2-0.8,0.2c-0.7,0.2-1.5,0.4-2.2,0.6
				c0.4,0,0.7,0.3,1,0.3c0.8,0,1.5,0.4,2.3,0.4c0.3,0.4,0.9,0,1.2,0.5c-0.8,0.2-1.6,0.4-2.4,0.7c-0.5,0.2-1.4,0.4-1.6,0.2
				c-0.4-0.3-0.8-0.2-1.3-0.3c-0.4-0.1-0.9-0.4-1.4-0.2c-0.9-0.4-2-0.4-2.9-0.7c-0.1-0.1-0.3,0-0.4,0c-0.4,0.2-0.8,0.2-1.2,0.3
				c-0.4,0.2-0.8,0.4-1.3,0.4c-0.2,0.3-0.7,0-0.8,0.5c0.9,0.1,1.7,0.4,2.5,0.5c0.7,0.1,1.3,0.4,2,0.5c0.4,0,0.8,0.1,1.1,0.3
				c-0.2,0-0.3,0.2-0.5,0.2c-0.2,0-0.7,0.2-0.9,0.4c-0.2,0-0.4,0-0.6,0.1c-0.3,0.1-0.7,0.3-1.1,0.3c-0.4,0.3-1,0.3-1.4,0.1
				c-1-0.3-2-0.4-2.9-0.7c-0.4-0.1-0.9-0.1-1.2-0.4c-0.1,0-0.1,0.1-0.2,0.2c-1.2,0.4-2.5,0.6-3.7,1.1c-0.2,0.1-0.5,0.1-0.6,0
				c-0.5-0.3-1.1-0.3-1.6-0.4c-0.6-0.2-1.2-0.4-1.8-0.1c-0.4,0.2-0.9,0.4-1.3,0.4c-0.6,0-1.1,0.3-1.6,0.4c-0.5,0.1-1.1,0.3-1.6,0.5
				c-0.6,0.2-1.3,0.4-1.9,0.6c-1.1,0.3-2.1,0.6-3.1,0.9c0,0,0,0.1,0,0.1c-0.2,0-0.3,0.2-0.6,0.2c-0.2,0-0.4-0.1-0.5,0
				c-0.9,0.4-1.9,0.5-2.8,0.8c-0.7,0.2-1.4,0.4-2,0.6c-1,0.3-2,0.6-3,0.9c-0.8,0.2-1.7,0.4-2.5,0.8c-0.6-0.1-1.2,0.3-1.8,0.4
				c-0.6,0.1-1.2,0.3-1.8,0.5c-0.6,0.2-1.2,0.2-1.8,0c-0.1,0.2-0.3,0.2-0.3,0.4c0.4,0.2,0.8,0.3,1.2,0.4c0.4,0.1,0.8,0.4,1.2,0.2
				c0.3,0.2,1.1,0.4,1.2,0.4c0.2-0.2,0.5-0.2,0.8-0.2c0.3,0.1,0.5-0.2,0.8-0.2c0.8,0,1.5-0.4,2.3-0.4c0.3-0.4,0.8,0,1.1-0.3
				c0.4,0.1,0.7-0.2,1.1-0.2c0.4,0,0.8-0.3,1.2-0.2c0.3-0.4,0.8-0.1,1.2-0.3c0.6-0.3,1.3-0.3,2-0.4c0.7-0.1,1.5-0.4,2.2-0.4
				c0.9-0.5,1.9-0.5,2.9-0.7c0.9-0.2,1.8-0.4,2.7-0.6c0.2,0,0.5,0.1,0.6-0.2C83.2,38.8,84,38.4,84.9,38.2z"/>
			<path class="st8" d="M52.2,41c-0.1,0-0.2,0-0.4,0c-0.1-0.2-0.3-0.4-0.4-0.6c-0.2-0.2,0.3,0,0.3-0.3c0.7,0.1,1.3-0.4,2-0.5
				c0,0,0-0.1,0-0.1c0.5,0,0.9,0.2,1.5,0.3c3-0.8,6-1.6,9-2.4c-0.4-0.4-0.9-0.4-1.4-0.5c-0.8-0.2-1.5-0.4-2.2-0.6
				c-0.8-0.2-1.6-0.3-2.4-0.7c-0.3,0.1-0.7-0.1-0.9-0.2c-0.3-0.1-0.6-0.1-0.9-0.1c0,0,0-0.1-0.1-0.2c-0.9-0.3-1.8-0.5-2.7-0.7
				c-1-0.3-1.9-0.5-2.9-0.8c-0.6-0.2-1.2-0.2-1.7-0.5c-0.3,0-0.5-0.1-0.7-0.2c-0.2-0.1-0.5,0-0.7-0.2c-1-0.2-2-0.5-3-0.8
				c-0.8-0.2-1.5-0.4-2.3-0.6c-1-0.3-2-0.5-3-0.8c-0.8-0.2-1.5-0.5-2.3-0.7c-0.8-0.2-1.5-0.4-2.3-0.6c-0.8-0.2-1.6-0.5-2.5-0.7
				c-0.7-0.2-1.4-0.4-2.1-0.6c0-0.1,0-0.1,0-0.2c0,0,0.1-0.1,0.1-0.1c0.6,0,1.2-0.2,1.8-0.3c0.4-0.1,0.7-0.1,1.1-0.2
				c0.9-0.2,1.7-0.4,2.6-0.5c0.8-0.1,1.6-0.3,2.3-0.4c1.1-0.2,2.1-0.4,3.2-0.7c0.8-0.2,1.6-0.3,2.3-0.4c1.1-0.2,2.1-0.4,3.2-0.7
				c0.8-0.2,1.5-0.3,2.3-0.4c0.4-0.1,0.8-0.1,1.2-0.2c0.7-0.1,1.3,0.3,2,0.4c0,0.2-0.1,0.2-0.2,0.2c-0.4,0-0.9-0.1-1.3,0
				c-0.4,0.1-0.7,0.2-1,0.1c-0.4,0-0.7,0.2-1,0.2c-0.4,0-0.8-0.1-1.2,0.2c-1.1,0-2.1,0.5-3.2,0.5c-0.3,0.4-0.8,0-1.1,0.4
				c-0.4-0.1-0.8,0.2-1.2,0.2c-0.4,0-0.8,0.2-1.2,0.2c-0.4,0-0.8,0.1-1.1,0.2c-1,0.3-2.1,0.4-3.1,0.7c-1,0.2-1.9,0.4-2.8,0.6
				c0,0.1,0,0.1,0,0.2c2.5,0.7,5,1.4,7.6,2.1c0.3-0.3,0.7,0,1-0.2c-0.1-0.2-0.3,0-0.4-0.3c0.3,0,0.6,0,0.9-0.1
				c0.7-0.2,1.4-0.3,2.1-0.5c0.7-0.1,1.4-0.3,2.1-0.5c0.7-0.2,1.3-0.3,2-0.4c0.7-0.1,1.5-0.3,2.2-0.5c0.8-0.1,1.6-0.3,2.4-0.5
				c0.7-0.2,1.3-0.3,2-0.5c1-0.2,2-0.5,3-0.6c0.2,0,0.3-0.2,0.5-0.2c0.5-0.1,0.9,0.1,1.4,0.2c0.7,0.2,1.4,0.3,2.1,0.5
				c0.7,0.2,1.3,0.3,2,0.4c0,0,0,0.1,0.1,0.2c-0.2-0.1-0.4,0.2-0.6,0.2c-1,0-1.9,0.6-3,0.6c-0.3,0.3-0.8,0.2-1.1,0.3
				c-0.4,0.1-0.8,0.2-1.2,0.3c-0.4,0.1-0.8,0.2-1.2,0.3c-0.4,0.1-0.8,0.2-1.2,0.3c-0.6,0.1-1.2,0.3-1.8,0.4
				c-0.9,0.2-1.8,0.4-2.7,0.7c-0.2,0-0.3,0-0.5-0.1c-0.8-0.3-1.6-0.5-2.5-0.6c-0.9-0.1-1.8,0.3-2.6,0.5c-0.9,0.1-1.7,0.5-2.6,0.4
				c-0.2,0-0.5-0.1-0.7,0.1c0.3,0.2,0.6,0.3,0.9,0.3c0.8,0,1.5-0.3,2.3-0.4c0.5-0.1,1-0.2,1.5-0.3c0.3-0.1,0.6-0.2,0.9-0.1
				c0.5,0.2,1,0.3,1.6,0.4c0.1,0.3,0.6,0,0.6,0.4c-0.3,0.1-0.6,0.3-0.7,0.6c0.6,0.7,1.4,0.8,2.2,0.8c0.5,0,0.9,0,1.4,0
				c0.5,0,1,0,1.5,0c0.4,0,0.9,0.2,1.3-0.2c0.4,0.3,0.9,0.1,1.3,0.2c0.1-0.2,0-0.4,0.1-0.5c0.3-0.1,0.7,0.1,0.9-0.2
				c0.9-0.1,1.7-0.4,2.5-0.6c0.7-0.2,1.4-0.3,2.1-0.5c0.8-0.2,1.7-0.4,2.5-0.6c0.7-0.2,1.4-0.3,2.1-0.5c0.9-0.2,1.7-0.4,2.6-0.6
				c0.7-0.2,1.3-0.3,2-0.5c1.1-0.3,2.2-0.5,3.3-0.8c0.7-0.2,1.4-0.3,2.1-0.5c0.8-0.2,1.6-0.5,2.4-0.6c0.7-0.1,1.4-0.3,2.1-0.5
				c0.8-0.2,1.6-0.5,2.5-0.6c1-0.2,1.9-0.5,2.8-0.7c0.7-0.1,1.3-0.4,2-0.5c1-0.2,2.1-0.5,3.1-0.8c0.6-0.1,1.2-0.3,1.8-0.4
				c0.9-0.2,1.7-0.4,2.6-0.7c0.7-0.2,1.3-0.3,2-0.4c0.9-0.2,1.7-0.5,2.6-0.7c0.6-0.1,1.3-0.4,2-0.4c0.3-0.3,0.6-0.1,0.9,0
				c0.1,0,0.2,0.1,0.3-0.1c-0.2-0.4-0.2-1-0.8-1c-0.9-0.1-1.9-0.3-2.8-0.2c0-0.1,0.1-0.2,0.1-0.2c0.5,0.1,0.9-0.3,1.4-0.2
				c0.1,0,0.1-0.2,0.3-0.2c0,0.1,0,0.2,0.1,0.1c0.6-0.1,1.2,0.3,1.7,0.2c0.3,0,0.5,0.3,0.8,0.2c0.2-0.1,0.5,0,0.8,0.1
				c0.4,0.1,0.8,0,1.2,0.2c0.5-0.1,1,0.2,1.6,0.2c0.5,0,0.9,0.3,1.4,0.2c0.4,0.4,0.9,0,1.3,0.3c0.3,0.2,0.9,0.1,1.3,0.2
				c0.6,0.1,1.1,0.4,1.7,0.2c0.8,0.3,1.8,0.2,2.6,0.6c0.6-0.1,1.2,0.1,1.8,0.2c0.8,0.2,1.7,0.1,2.4,0.5c0.7-0.1,1.4,0.3,2.1,0.2
				c-0.9,0.2-1.7,0.6-2.6,0.8c-0.8,0.2-1.6,0.4-2.4,0.6c-0.7,0.2-1.4,0.4-2.1,0.6c-0.8,0.3-1.6,0.4-2.4,0.7
				c-0.9,0.3-1.9,0.5-2.9,0.8c-1.1,0.3-2.2,0.6-3.3,0.9c-0.5,0.1-1.1,0.1-1.5,0.5c-0.4-0.1-0.8,0.1-1.2,0.2
				c-0.3,0.1-0.5,0.1-0.8,0.2c0,0.1-0.1,0.2-0.1,0.3c-0.6,0-1.2,0.2-1.7,0.3c-0.5,0.1-1,0.3-1.5,0.4c-1,0.2-2,0.5-3.1,0.8
				c-0.9,0.3-1.9,0.5-2.8,0.8c-0.7,0.2-1.5,0.5-2.2,0.6c-0.8,0.2-1.5,0.4-2.3,0.6c-0.8,0.2-1.6,0.5-2.4,0.7
				c-0.7,0.2-1.5,0.4-2.2,0.6c-0.8,0.2-1.6,0.5-2.4,0.7c-1,0.3-2,0.5-3,0.8c-0.8,0.2-1.5,0.5-2.3,0.7c-0.8,0.2-1.5,0.4-2.3,0.6
				c-0.8,0.2-1.6,0.5-2.5,0.7c-0.7,0.2-1.4,0.4-2.1,0.6c-0.8,0.3-1.7,0.5-2.6,0.7c-0.7,0.2-1.4,0.4-2,0.6c-0.4,0.1-0.7,0.1-1,0.1
				c-0.5-0.5-1.1,0-1.6,0.1c-0.5,0.1-1,0.3-1.6,0.4c-0.5,0.1-1.1,0.3-1.6,0.4c-0.9,0.3-1.9,0.5-2.8,0.8c-0.7,0.2-1.3,0.5-2,0.5
				c-0.2-0.1-0.4,0.2-0.6,0.2c-0.2,0-0.5,0-0.7,0c-0.3,0-0.4,0.2-0.7,0.2c-0.2,0-0.6-0.1-0.7,0c-0.3,0.3-0.7,0.1-1,0.2
				C52.9,40.8,52.6,41.1,52.2,41z M101.1,25.7c-0.3,0.1-0.5,0-0.8,0.1c-0.5,0.2-1.1,0.5-1.6,0.2c-0.4-0.2-1,0-1.3-0.3
				c-0.5,0.1-0.9-0.3-1.4-0.2c-0.3-0.4-0.9,0-1.2-0.3c-0.2-0.1-0.6-0.1-0.9,0c-0.5,0.2-0.9,0.3-1.4,0.4c-0.5,0.1-1,0.2-1.4,0.4
				c-0.4,0.1-0.8,0.1-1.1,0.3c-0.2,0-0.2-0.2-0.4-0.2c-0.8-0.1-1.6-0.2-2.4-0.5c-0.2-0.1-0.5-0.1-0.8,0c-0.6,0.2-1.3,0.3-1.9,0.5
				c-0.6,0.2-1.3,0.3-1.9,0.4c-1.1,0.3-2.3,0.6-3.4,0.9c-0.9,0.2-1.7,0.5-2.6,0.7c-0.8,0.2-1.6,0.5-2.4,0.6c-1,0.1-1.9,0.4-2.8,0.6
				c-0.9,0.2-1.8,0.4-2.7,0.7c-0.8,0.2-1.6,0.5-2.4,0.6c-0.2,0.4-0.7-0.1-0.8,0.4c0,0.1-0.1,0.2-0.1,0.2c-0.7-0.1-1.3,0.1-1.9,0.2
				c-0.8,0.2-1.7,0.4-2.5,0.6c-0.5,0.2-1,0.2-1.5-0.1c-0.2,0.1-0.3,0.2-0.5,0.3c0.1,0.1,0.2,0.2,0.4,0.3c0.7,0.2,1.4,0.4,2.1,0.5
				c0.5,0.1,1,0.3,1.6,0.2c0.5-0.1,0.9-0.3,1.4-0.2c0.8-0.4,1.6-0.2,2.4-0.5c0.5,0.1,1-0.3,1.6-0.2c0.4-0.4,1,0,1.4-0.4
				c0.5,0.1,1-0.2,1.6-0.2c0.4,0,0.8-0.2,1.3-0.3c0.5-0.1,1-0.2,1.4-0.3c0.4,0.1,0.7-0.2,1.1-0.2c0.5,0,1-0.3,1.5-0.2
				c0.8-0.4,1.6-0.4,2.4-0.5c0.9-0.1,1.8-0.5,2.7-0.4c0.8-0.4,1.6-0.2,2.4-0.6c0.5,0.1,1-0.2,1.6-0.2c0.4-0.4,1.1,0,1.5-0.4
				c1.1-0.1,2.2-0.3,3.3-0.6c0.6-0.1,1.2-0.2,1.8-0.3c0.3-0.1,0.7-0.2,1.1-0.2c0.4,0,0.8-0.2,1.2-0.2c0.4,0,0.8,0,1.1-0.2
				c1,0.1,2-0.3,3-0.2c0.2,0,0.3,0,0.5,0c0.1,0,0.2,0,0.2-0.2c0.7-0.1,1.3,0.1,2-0.2c0.4-0.2,0.9,0,1.4,0c0.5,0,0.9-0.3,1.4-0.2
				c0.4,0,0.8-0.1,1.1-0.1c0.8-0.1,1.5-0.1,2.2-0.4c1.2-0.4,2.5-0.7,3.8-1c1.1-0.2,2.1-0.6,3.1-0.9c1.6-0.4,3.2-0.9,4.8-1.3
				c-0.1-0.1-0.2-0.2-0.3-0.3c-0.2,0-0.5,0.1-0.7,0c-0.3-0.2-0.6-0.1-0.9-0.2c-0.3-0.1-0.6-0.2-0.9-0.2c-0.8-0.1-1.6-0.3-2.4-0.4
				c-0.2-0.3-0.4-0.1-0.7-0.2c-0.5,0-1-0.3-1.5-0.2c-0.3-0.4-0.8,0-1.2-0.2c-0.4-0.2-0.8-0.1-1.2-0.1c0,0,0,0.1-0.1,0.1
				c0.2,0.1,0.4-0.1,0.6,0.2c-1.2,0.2-2.3,0.7-3.7,0.9c1.8,0.3,3.4,0.5,5.1,0.9c-1.5,0.2-2.7,0.6-3.8,1c-2.3-0.4-4.4-0.8-6.5-1.2
				c-1.3,0.3-2.6,0.6-3.9,1c2,0.5,4.1,0.7,6.1,1.3c-0.5-0.1-0.8,0.3-1.3,0.2C101.6,25.7,101.2,25.4,101.1,25.7z"/>
			<path class="st8" d="M45.4,73.7c0.4,0,0.8,0.3,1.1,0.6c0,0.1,0,0.1-0.1,0.2c-0.8,0.3-1.6,0.6-2.4,1c-0.7,0.3-1.5,0.6-2.2,0.9
				c-0.3,0.1-0.5,0.4-0.7,0.6c2,1,4,2,5.9,3c0.2,0.1,0.4,0.3,0.7,0.3c0,0.3,0.4,0.1,0.5,0.4c0.3-0.4,0.7,0,1-0.2
				c-0.1-0.3-0.5-0.2-0.5-0.5c0.1,0,0.1,0,0.2,0c1.1-0.5,2.2-1,3.3-1.5c0.5-0.2,1-0.4,1.5-0.6c0.1,0,0.3,0,0.4,0
				c0.8,0.4,1.7,0.7,2.4,1.3c-0.7,0.4-0.7,0.4-1.3,0.2c-0.2-0.1-0.3-0.1-0.5,0c-0.4,0.3-0.8,0.3-1.2,0.5c-0.7,0.3-1.4,0.6-2.1,1
				c-0.3,0.2-0.6,0.1-0.8,0c-0.3,0.1-0.5,0.3-0.8,0.4c0.6,0.3,1.1,0.3,1.8,0.1c1.1-0.3,2.1-1,3.2-1.3c0.9,0.4,1.7,0.8,2.6,1.2
				c-0.7,0.1-0.7,0.8-1,1.2c0.3,0.8,0.9,1.1,1.7,1.3c0.2,0,0.3,0.2,0.6,0.2c0.8,0,1.6,0,2.4,0c0.4,0,0.8-0.4,1.1-0.1
				c0.3-0.3,0.6-0.3,0.9-0.5c-0.4-0.5-1.1-0.4-1.5-1c0.4,0,0.8-0.2,1.1-0.4c1.2,0.6,2.3,1.2,3.5,1.8c0.1,0.4-0.3,0.2-0.4,0.4
				c-0.1,0.1-0.3,0-0.4,0.3c-0.3-0.2-0.6-0.3-0.8-0.4c-0.3,0.2-0.4,0.4-0.3,0.7c0.3,0,0.4,0.3,0.7,0.3c0.4,0.4,1,0.6,1.5,0.8
				c0.5,0.3,1.1,0.3,1.7,0.1c0.5-0.2,1-0.5,1.6-0.4c0.5,0,0.9,0.4,1.4,0.6c0.8-0.4,1.6-0.8,2.4-1.2c1.6-0.8,3.3-1.7,4.9-2.5
				c0.4-0.2,0.8-0.4,1.2-0.4c0.1,0,0.2-0.1,0.1-0.2c0.2,0,0.3,0,0.5-0.1c0.6-0.2,1.1-0.5,1.7-0.6c0.6-0.1,1.2-0.4,1.8-0.6
				c1-0.3,2-0.7,2.9-1.1c0.6,0.1,1-0.4,1.6-0.4c1-0.6,2.2-0.8,3.3-1.2c1.2-0.4,2.4-0.8,3.5-1.2c0.7-0.2,1.4-0.4,2.2-0.5
				c0.1,0,0.2,0,0.2-0.2c0.6,0.1,1.2-0.2,1.9-0.2c0.4-0.3,0.8-0.1,1.2-0.2c0.8-0.3,1.7-0.3,2.5-0.5c0.5-0.1,1-0.1,1.5-0.2
				c0.6-0.1,1.2-0.3,1.8-0.4c1-0.3,1.8-1,2.8-1.5c0.5-0.2,1.1-0.4,1.5-0.9c0.7-0.4,1.5-0.7,2.2-1.1c0.1,0,0.2-0.1,0.1-0.2
				c0.1,0,0.3,0,0.4-0.1c0.7-0.4,1.3-0.8,2-1.1c0.7-0.3,1.4-0.7,2.1-1.2c0.1-0.1,0.2,0,0.3-0.2c0-0.1,0-0.2,0-0.4
				c-1.5-0.5-3-1-4.5-1.5c-0.5-0.2-1-0.2-1.4-0.5c0.6-0.5,1.4-0.7,2-1.1c0.2-0.1,0.3-0.3,0.6-0.2c0.3,0.4,0.9,0.4,1.3,0.5
				c1.4,0.5,2.8,0.9,4.2,1.4c0.8,0.2,1.6,0.5,2.4,0.7c0,0.4-0.4,0.3-0.6,0.4c-1.3,0.8-2.8,1.4-4.1,2.3c-0.5,0.3-1,0.5-1.5,0.7
				c-0.4,0.2-0.8,0.4-1.1,0.7c-0.7,0.2-1.9,0.8-2.8,1.5c-0.1,0-0.2,0-0.3,0.1c-0.6,0.4-1.3,0.7-1.9,1c-0.9,0.5-1.9,1-2.9,1.5
				c-1.7,0.9-3.4,1.8-5.1,2.7c-1.7,0.9-3.5,1.9-5.2,2.8c-0.9,0.5-1.8,1-2.7,1.4c-1.2,0.6-2.4,1.3-3.6,1.9c-0.3,0.2-0.7,0.3-1,0.5
				c-1.2,0.8-2.5,1.3-3.7,2c-0.5,0.3-1.1,0.5-1.6,0.9c-0.2,0.3-0.6,0.3-0.9,0.5c-0.8,0.4-1.6,0.9-2.4,1.3c-1.7,0.9-3.3,1.8-4.9,2.6
				c-1.2,0.7-2.5,1.3-3.7,2c-0.2,0.1-0.5,0.2-0.7,0.4c-0.5-0.2-1-0.5-1.5-0.7c-0.3-0.1-0.5-0.4-0.9-0.4c0-0.1-0.1-0.1-0.1-0.2
				c-0.7-0.4-1.4-0.5-2-1.1c-0.4,0-0.6-0.4-1-0.4c0-0.1,0-0.1-0.1-0.2c-0.8-0.4-1.6-0.7-2.3-1.1c-1.1-0.6-2.4-1.1-3.4-1.8
				c-0.4-0.2-0.8-0.6-1.3-0.6c0-0.3-0.3-0.2-0.4-0.3c-0.6-0.3-1.2-0.7-1.8-0.8c-0.3-0.4-0.8-0.5-1.2-0.7c-0.6-0.3-1.1-0.7-1.7-0.8
				c-0.1-0.2-0.2-0.3-0.4-0.4c-2.2-1.1-4.4-2.2-6.6-3.3c-0.3-0.3-0.7-0.5-1.1-0.6c-0.5-0.4-1.2-0.6-1.8-0.9
				c-1.2-0.6-2.4-1.2-3.6-1.8c-0.8-0.5-1.7-0.9-2.5-1.4c0-0.4,0.4-0.4,0.5-0.4c1.1-0.3,2.1-0.8,3.2-1.2c1.2-0.5,2.4-1,3.6-1.4
				C45.3,73.8,45.3,73.7,45.4,73.7z"/>
			<path class="st7" d="M59,87.8c0.5,0,0.9,0.3,1.3,0.6c1.1,0.7,2.3,1.2,3.4,1.8c0.8,0.4,1.6,0.8,2.3,1.1c0,0,0,0.1,0.1,0.2
				c-0.2,0-0.2,0.2-0.5,0.2c-0.1-0.2-0.4-0.2-0.6-0.3c-0.1,0.2-0.4,0.3-0.5,0.6c0.9,0.6,1.9,1,2.9,1.6c0.3,0,0.6,0,1-0.2
				c0.2-0.1,0.4-0.3,0.7-0.2c0.3,0,0.6,0.2,0.9,0.4c0.5,0.2,1,0.5,1.5,0.7c0.2-0.1,0.5-0.2,0.7-0.4c1.2-0.7,2.5-1.3,3.7-2
				c1.6-0.9,3.3-1.8,4.9-2.6c0.8-0.4,1.6-0.8,2.4-1.3c0.3-0.2,0.7-0.1,0.9-0.5c0.2,0,0.3,0,0.5-0.1c0.4-0.2,0.8-0.3,1.3-0.5
				c1.1-0.4,2.1-0.8,3.2-1.2c1.1-0.4,2.1-0.8,3.2-1.2c0.9-0.3,1.8-0.8,2.8-1c0.1,0,0.4-0.1,0.5-0.3c0.2,0,0.6,0.1,0.7,0
				c0.3-0.3,0.7,0,1-0.2c0.3-0.3,0.7,0,1.1-0.3c0.2-0.2,0.7-0.2,1-0.2c0.5,0,1-0.2,1.5-0.3c0.5-0.1,1-0.2,1.4-0.3
				c0.5-0.1,1.1-0.2,1.6-0.3c0.5-0.1,1.1-0.3,1.6-0.3c0.4,0,0.8-0.2,1.1-0.4c1-0.7,2-1.2,3-1.8c1.2-0.7,2.4-1.3,3.6-2
				c0.5-0.3,1-0.5,1.4-0.8c0.8-0.5,1.7-1,2.6-1.5c-0.1-0.5-0.1-0.7-0.7-0.8c-1-0.3-2-0.7-3-1.1c-0.5-0.2-1-0.5-1.6-0.4
				c0.8-0.6,2.1-1.3,2.8-1.5c0.3,0.4,0.9,0.4,1.3,0.5c0.8,0.3,1.7,0.7,2.5,0.9c0.8,0.3,1.7,0.5,2.5,0.9c0.2,0.1,0.5-0.1,0.6,0.4
				c0,0.1-0.2,0.1-0.3,0.2c-1.2,0.7-2.5,1.4-3.7,2.1c-0.5,0.3-1,0.5-1.5,0.8c-1.4,0.8-2.8,1.6-4.2,2.4c-1.2,0.7-2.5,1.4-3.7,2.2
				c-1,0.6-2.1,1.1-3.1,1.8c-0.7,0.1-1.2,0.6-1.8,0.9c-1.1,0.6-2.2,1.3-3.3,1.9c-0.5,0.3-1,0.5-1.5,0.8c-1.1,0.7-2.3,1.3-3.4,2
				c-1.1,0.6-2.2,1.2-3.3,1.9c-1,0.6-2.1,1.2-3.1,1.8c-0.6,0.4-1.3,0.7-1.9,1.1c-1.1,0.6-2.2,1.2-3.2,1.8c-0.5,0.3-1,0.5-1.5,0.8
				c-1.1,0.6-2.2,1.2-3.3,1.9c-1.3,0.8-2.7,1.4-3.9,2.3c-0.7,0.2-1.2,0.7-1.9,1c-0.4,0.1-0.7,0.4-1.1,0.7c-1.1-0.6-2.2-1.2-3.3-1.8
				c-1.4-0.8-2.8-1.5-4.2-2.3c-1.2-0.7-2.4-1.4-3.6-2c-1.4-0.8-2.8-1.5-4.1-2.2c-1.3-0.7-2.6-1.5-4-2.2c-1.4-0.7-2.8-1.4-4.1-2.2
				c-1.3-0.7-2.6-1.4-3.9-2.1c-1.3-0.7-2.6-1.4-3.8-2.1c-0.7-0.4-1.3-0.7-2-1.1c-0.2-0.1-0.3-0.2-0.4-0.5c0.7-0.1,1.3-0.5,1.9-0.8
				c0.6-0.3,1.1-0.5,1.7-0.7c0.6-0.2,1.1-0.5,1.7-0.7c0.5-0.2,1-0.4,1.6-0.7c0.4,0,0.8,0.3,1.1,0.6c0,0.1-0.1,0.2-0.1,0.2
				c-0.5,0.2-1,0.3-1.4,0.6c-0.7,0.3-1.4,0.7-2.2,0.9c-0.3,0.1-0.8,0.3-0.9,0.8c2.3,1.3,4.7,2.5,7,3.8c0.3-0.2,0.7-0.3,1.1-0.3
				c-0.2-0.2-0.5-0.2-0.6-0.5c0.5-0.2,1.1-0.4,1.6-0.6c0.7-0.3,1.3-0.7,2.1-1c0.1,0,0.4,0,0.4-0.3c0.7,0.1,1.2,0.5,1.7,0.8
				c0.4,0.2,0.9,0.3,1.2,0.7c-0.2,0-0.3,0-0.4,0.2c-0.2-0.1-0.5-0.2-0.6-0.3c-1.4,0.5-2.6,1.2-3.8,1.8c-0.5-0.4-0.8,0-1.3,0.2
				c0.5,0.3,0.9,0.5,1.5,0.3c1.2-0.5,2.3-1,3.5-1.6c0.7,0.5,1.7,0.7,2.3,1.4c-0.4,0.4-0.9,0.8-0.7,1.5c0.1,0.1,0.1,0.1,0.2,0.2
				c0.6,0.7,1.4,1,2.3,1c0.5,0,1.1,0,1.6,0c0.5,0.1,1-0.3,1.6-0.2c0.2-0.3,0.6-0.3,0.9-0.5c-1.8-0.8-3.4-1.8-5.2-2.7
				C58.8,87.8,58.9,87.9,59,87.8z"/>
			<path class="st8" d="M58.3,75.7c0.6-0.4,1.4-0.5,1.9-0.9c0.1-0.1,0.3,0,0.4,0c0.2,0,0.4,0,0.6,0.1c0.3,0.2,0.5,0.3,0.9,0.3
				c-0.5,0.6-1.1,0.5-1.7,0.7c-0.6,0.2-1.2-0.1-1.8,0.2C58.7,75.8,58.3,76,58.3,75.7z"/>
			<path class="st8" d="M109.9,65.1c-0.2-0.2-0.5-0.2-0.7-0.2c0.3-0.4,0.8-0.5,1.2-0.7c0.4-0.2,0.8-0.3,1.2-0.5
				c0.1-0.1,0.2,0,0.3-0.1c0.2,0,0.3,0.3,0.6,0.2c-0.6,0.5-1.4,0.7-2,1.1C110.3,64.9,110.1,65.1,109.9,65.1z"/>
			<path class="st9" d="M102,41.4c-0.7,0.1-1.4-0.3-2-0.4c-0.8-0.2-1.6-0.4-2.4-0.6c0-0.1,0-0.2,0-0.3c0.6,0,1-0.4,1.6-0.4
				c0.3-0.1,0.5,0.2,0.8,0.2c0.9,0.1,1.7,0.4,2.6,0.6c1.1,0.3,2.2,0.6,3.3,0.8c0.9,0.2,1.7,0.5,2.6,0.6c0.2,0.4,0.7-0.1,0.8,0.3
				c-0.1,0-0.1,0-0.2,0c-0.8,0.5-1.9,0.6-2.7,1.1c-0.4,0-0.8,0-1.3,0.2c-0.4,0.1-0.9-0.1-1.3,0.2c-0.1,0.1-0.2,0-0.4,0
				c-0.4,0-0.8,0-1.2,0.2c-0.4,0.1-0.8-0.1-1.2,0.2c0,0-0.1,0-0.2,0c-0.8-0.1-1.5,0.2-2.3,0.2c-0.5,0-1,0-1.5,0.2
				c-0.5,0.1-1,0-1.5,0.2c-1,0.3-2,0.4-2.9,0.7c-0.9,0.2-1.8,0.5-2.8,0.6c-0.8,0.1-1.7,0.4-2.5,0.6c-0.3,0.1-0.7,0.2-1,0.2
				c-1,0.2-1.9,0.5-2.8,0.7c-0.4,0.1-0.8,0.2-1.3,0.3c-0.6,0.1-1.2,0.3-1.8,0.4c-0.7,0.2-1.4,0.4-2.1,0.5c-0.8,0.1-1.6,0.4-2.4,0.6
				c-0.7,0.2-1.4,0.3-2.1,0.5c-0.6,0.2-1.3,0.3-1.9,0.5c-0.5,0.1-1.1,0.2-1.6,0.3c-0.8,0.2-1.6,0.5-2.5,0.6
				c-0.7,0.1-1.4,0.4-2.1,0.5c-0.5,0.1-0.9,0.3-1.4,0.3c-0.6,0-1.2-0.1-1.8-0.3c-0.6-0.3-1.3-0.4-1.9-0.7c0.3-0.6,0.3-0.6,0.7-0.4
				c0.4,0.2,0.7,0.1,1.1,0c1.8-0.5,3.6-1.2,5.4-1.8c2.2-0.6,4.4-1.5,6.6-2.1c1-0.3,2-0.7,3-1c1.6-0.5,3.2-1,4.8-1.6
				c1.6-0.5,3.1-1,4.7-1.5c0.5-0.5,0.9,0.2,1.3,0.1c0.7,0.3,1.5,0.4,2.2,0.7c0.1,0,0.2,0,0.4,0c1.3-0.5,2.6-1,3.9-1.4
				c0.3,0.2,0.8,0.2,1.2,0.3c0.6,0.1,1.1,0.3,1.7,0.5c0.5,0.1,1.1,0.2,1.6,0.4c0.2,0.1,0.5,0.1,0.7,0c1-0.5,2-0.8,3-1.1
				c0.2,0,0.3-0.2,0.5-0.2c0.2,0,0.4-0.1,0.6,0.1c0.2,0.2,0.2,0.4,0.1,0.6c-0.1,0-0.2,0.1-0.3,0.1c0.2,0,0.3,0.3,0.6,0.3
				c0.1-0.3,0.5-0.1,0.7-0.3c-0.2-0.2,0.3-0.3,0.1-0.6c-0.1,0-0.2-0.2-0.3-0.2C104.2,41.7,102.9,41.3,102,41.4z"/>
			<path class="st9" d="M63.8,47.4c-0.4,0.3-0.9,0.4-1.4,0.5c-1.4,0.5-2.9,0.9-4.4,1.4c0.4,0.5,1.1,0.3,1.4,0.8
				c-2.1,0.5-4.2,0.7-6.4,0c-0.2-0.2-0.4-0.4-0.6-0.6c0-0.1,0.2-0.1,0.2-0.3c0.5,0,0.9-0.1,1.4-0.1c0.6-0.1,1.1-0.3,1.7-0.3
				c0,0,0-0.1,0.1-0.1c0.2,0,0.2,0.1,0.4,0.2c0.5-0.2,1-0.5,1.6-0.4c0.2,0,0.3-0.2,0.5-0.2c0.3,0,0.7,0.1,0.9-0.2
				c1,0,1.9-0.4,2.8-0.4c0.1,0,0.2,0,0.2-0.1C62.6,47.6,63.2,47.4,63.8,47.4z"/>
			<path class="st19" d="M93.2,53.5C93.2,53.5,93.2,53.6,93.2,53.5c-1.1,0.4-2.1,0.7-3.2,0.9c-0.8,0.2-1.5,0.4-2.3,0.6
				c-1.1,0.3-2.1,0.6-3.2,0.8c-0.3,0-0.5,0.3-0.8,0.2c0.3-0.5,1-0.3,1.4-0.7c0.6,0,1.1-0.4,1.6-0.6c1-0.4,2-0.7,2.9-1.1
				c1.1-0.4,2.1-0.9,3.2-1.3c0.6-0.2,1.2-0.4,1.7-0.7c0.1-0.1,0.2,0,0.3-0.1c0.3,0.3,0.7,0.4,1.1,0.4c0.1,0,0.2,0,0.2,0.2
				c-0.4,0.3-0.9,0.4-1.4,0.6C94.2,53,93.6,53.1,93.2,53.5z"/>
			<path class="st9" d="M52.2,48.2c0-0.2,0.2-0.2,0.3-0.2c0.1,0,0.2,0,0.2-0.2c0.6,0,1.1,0.3,1.6,0.5c0.2,0.1,0.5-0.1,0.6,0.3
				c-0.2,0-0.2,0.2-0.3,0.2c-0.6-0.1-1.1,0.3-1.7,0.2c0-0.1,0.1-0.2,0.1-0.2C52.8,48.4,52.6,48.2,52.2,48.2z"/>
			<path class="st9" d="M63.2,47.1c0,0,0,0.1-0.1,0.1c-0.7,0-1.4,0.3-2.1,0.2c0-0.3,0.3-0.1,0.5-0.2c0.3-0.2,0.6-0.3,1-0.3
				C62.8,46.8,63,46.9,63.2,47.1z"/>
			<path class="st8" d="M97.8,17.8c-0.5-0.1-0.8,0.3-1.3,0.2c-0.4-0.1-0.9,0-1.3,0c-0.4,0-0.6,0.2-1,0.2c-0.3,0-0.6,0.1-0.9,0.1
				c-0.5,0.1-1,0.2-1.6,0.2c-1,0.1-2,0.5-3.1,0.4c-0.4,0.3-0.8,0.1-1.2,0.2c-0.4,0.1-0.8,0.1-1.2,0.2c-1,0.3-2,0.2-2.9,0.5
				c-0.6-0.1-1.2,0.3-1.9,0.2c-0.4,0-0.7,0.2-1,0.2c-0.3,0-0.7-0.1-0.9,0.2c-0.6-0.1-1.2,0.3-1.8,0.2c-0.4-0.1-0.6,0.2-0.9,0.2
				c-0.3,0-0.7-0.1-0.9,0.2c-0.1,0.1-0.2,0-0.4,0c-0.4,0-0.7,0-1,0.2c-0.3,0.1-0.7,0-1,0.2c-0.4,0.2-0.9-0.1-1.4,0.2
				c-0.7-0.1-1.3,0.3-1.9,0.2c-0.3-0.1-0.6,0.2-0.9,0.2c-0.3,0-0.6,0-0.9,0.1c-0.3,0.2-0.8-0.1-1.2,0.2c-0.7-0.1-1.3,0.3-1.9,0.2
				c-0.3-0.1-0.6,0.3-0.9,0.2c-0.3-0.1-0.7-0.1-0.9,0.2c-0.8-0.1-1.5,0.3-2.3,0.2c-0.2,0-0.4-0.2-0.7-0.2c-0.6-0.1-1.2-0.3-1.8-0.4
				c-0.3,0-0.5-0.2-0.8-0.3c0.2-0.2,0.5-0.1,0.7-0.1c0.4,0,0.9,0.1,1.2-0.1c0.4-0.2,0.8,0.1,1.1-0.3c0.4,0,0.7-0.1,1-0.1
				c0.5,0,0.9-0.3,1.4-0.2c0.4-0.4,0.9,0,1.3-0.4c1.1,0,2-0.5,3.1-0.6c0.5-0.1,1.1-0.2,1.6-0.3c0.5-0.1,1-0.2,1.5-0.3
				c0.3-0.1,0.7-0.1,1.1-0.2c0.9-0.2,1.7-0.4,2.6-0.5c0.8-0.1,1.6-0.3,2.3-0.4c0.8-0.2,1.5-0.3,2.3-0.5c0.8-0.2,1.6-0.3,2.3-0.4
				c1.3-0.3,2.6-0.4,3.9-0.9c0.3-0.1,0.7,0.1,1-0.2c0.2,0,0.2,0.2,0.3,0.2c1-0.1,1.9,0.4,2.9,0.4c0.3,0,0.9,0,1.3-0.1
				c0.5-0.1,1.1-0.3,1.6-0.3c0,0.2,0.2,0.2,0.3,0.2c0.6-0.1,1.1,0.3,1.7,0.2c0.2,0.2,0.5,0.2,0.7,0.2c0.3-0.1,0.5,0.2,0.8,0.2
				c0.6-0.1,1.2,0.3,1.8,0.2C97.7,17.7,97.7,17.8,97.8,17.8z"/>
			<path class="st7" d="M100.5,55.1C100.5,55.1,100.5,55,100.5,55.1c0.6-0.2,1.2-0.6,1.8-0.7c0.2,0,0.2,0.2,0.3,0.2
				c1.1,0.1,2,0.6,3,0.9c0.4,0.1,0.8,0.2,1.1,0.4c0.4,0.2,0.8-0.2,1.2-0.1c0,0,0.1,0,0.1,0c0.5,0.3,1,0.3,1.5,0.5
				c0.7,0.3,1.4,0.4,2.1,0.6c0,0,0,0.1,0,0.1c-1,0.3-1.9,0.8-2.8,1.2c-0.9,0.4-1.8,0.7-2.7,1.3c-0.3,0-0.6,0-1,0.2
				c-0.3,0.2-0.7,0-1.1,0.2c-0.4,0.2-0.9,0.2-1.3,0.2c-1.1,0-2.1,0.4-3.1,0.4c-0.8,0-1.5,0.3-2.3,0.4c-0.4,0-0.7,0.1-1.1,0.2
				c-0.4,0.1-0.8,0.1-1.1,0.2c-0.8,0.3-1.6,0.5-2.4,0.7c-1,0.3-2,0.6-3,0.9c-0.3,0.1-0.6,0.1-0.8,0.2c-0.7,0.3-1.4,0.3-2.1,0.7
				c-0.1,0-0.2,0-0.3-0.1c0.7-0.3,1.5-0.6,2.2-0.9c0.7-0.3,1.4-0.6,2.1-0.9c0.6-0.3,1.2-0.5,1.7-0.7c1-0.5,2.1-0.8,3.1-1.4
				c0.3-0.2,0.6-0.2,0.9-0.4c0.3-0.2,0.6-0.1,0.8-0.4c0.2,0.1,0.4-0.2,0.5-0.2c0.7-0.1,1.2,0.4,2.1,0.4c1.1-0.5,2.3-1,3.6-1.6
				c-0.5-0.1-1-0.3-1.5-0.5c0.2-0.3,0.6-0.3,0.8-0.5c0.6,0.1,1.1,0.3,1.5,0.5c0.4-0.1,0.6-0.2,0.8-0.5c0.1-0.3-0.2-0.5-0.2-0.8
				c-0.9-0.5-1.8-0.7-2.8-0.6C101.5,55.2,101,55.1,100.5,55.1z"/>
			<path class="st7" d="M58.3,63.6c0.6,0,1,0.3,1.5,0.5c0.8,0.3,1.6,0.5,2.3,1c0.1,0.1,0.4-0.1,0.4,0.2c-0.4,0.4-1,0.5-1.6,0.7
				c-0.4,0.2-0.8,0.2-1.2,0.5c0.5,0.2,1,0.4,1.5,0.7c-0.1,0.4-0.6,0.2-0.9,0.5c-1.2,0.1-2.4,0.3-3.6,0.2c-0.5-0.1-1.1-0.3-1.6-0.4
				c-0.5-0.2-0.7-0.5-0.8-1.1c0.3-0.2,0.6-0.4,0.9-0.7c-0.6-0.6-1.2-0.7-1.8-0.9c0,0,0-0.1,0-0.1c0.7-0.2,1.3-0.3,2-0.5
				C56.4,63.9,57.3,63.8,58.3,63.6z"/>
			<path class="st7" d="M52.9,64.3c-0.8,0.2-1.6,0.6-2.4,0.8c-1.4,0.5-1.4,0.5-2.9,0.4c0.1-0.3,0.5-0.3,0.7-0.5
				c0.5,0.2,0.7,0.2,1.3-0.1c1-0.5,2-0.7,3-1.2c0.2-0.1,0.5-0.1,0.7,0c0.3,0.2,0.5,0.1,0.8,0.1c0,0.2-0.2,0.2-0.3,0.2
				C53.4,64.1,53.2,64.1,52.9,64.3z"/>
			<path class="st7" d="M57.5,63.2c0,0.1-0.1,0.2-0.1,0.2c-0.8-0.1-1.5,0.5-2.3,0.4c-0.3,0.3-0.7,0.1-1,0.2c0.1-0.3,0.4-0.3,0.6-0.4
				c0.6-0.3,1.3-0.5,2-0.7C56.9,62.9,57.4,63.1,57.5,63.2z"/>
			<path class="st8" d="M100.9,46.9c0.5,0.3,1.1,0.4,1.7,0.5c0.7,0.2,1.5,0.4,2.2,0.6c0.2,0.4,0.6,0,0.9,0.3
				c0.2,0.2,0.6-0.1,0.8,0.3c0.3-0.1,0.6,0.1,0.9,0.2c1,0.3,2,0.5,3,0.9c0.1,0,0.1,0,0.2,0c-0.1,0.3-0.5,0.1-0.7,0.4
				c-0.2,0.2-0.5,0.3-0.8,0.4c-0.7,0.3-1.5,0.6-2.2,0.9c-0.6,0.2-1.2,0.5-1.8,0.4c-0.4,0-0.6,0.2-0.9,0.2c-0.3,0-0.7-0.2-0.9,0.1
				c0,0-0.1,0-0.2,0c-0.7-0.1-1.4,0.2-2.1,0.2c-0.5,0-0.9,0.1-1.4,0.2c-0.5,0.1-1,0-1.4,0.2c-0.4,0.2-0.8,0-1.2,0.2
				c-0.4,0.1-0.8,0.1-1.2,0.2c-0.6,0.1-1.2,0.2-1.7,0.4c-0.3,0.1-0.5,0-0.8,0.1c0.4-0.4,1-0.5,1.5-0.7c0.5-0.2,1-0.3,1.4-0.6
				c0.4,0.1,0.7-0.4,1.1-0.4c0.4-0.4,1.1-0.3,1.5-0.7c0.9,0.2,0.9,0.2,1.9-0.2c0.6-0.3,1.2-0.5,1.9-0.7c0.3-0.1,0.5-0.3,0.8-0.4
				c0.3-0.1,0.4,0.2,0.7,0.2c0.2,0,0.5,0,0.7,0c0.1-0.2,0.4-0.3,0.4-0.5c-0.3-0.3-0.5-0.5-0.8-0.8c-0.3-0.2-0.8-0.1-1.2-0.4
				c-0.9,0.1-1.8-0.2-2.7,0.2c-0.1,0-0.2,0-0.3,0c-0.2-0.4-0.7-0.1-1-0.3c-0.3-0.2-0.7-0.4-1.2-0.2c0.5-0.4,1.1-0.5,1.6-0.7
				c0.2-0.1,0.5-0.2,0.7-0.3C100.5,46.8,100.7,46.9,100.9,46.9z"/>
			<path class="st8" d="M109.5,51.5c0,0.2-0.2,0.3-0.3,0.4c-1,0.3-2,0.8-3.1,1.2c0.8,0.2,1.6,0.4,2.3,0.6c0.7,0.2,1.4,0.5,2.2,0.6
				c0,0.1,0,0.2,0,0.2c-0.8,0.4-1.8,0.6-2.6,1.2c0,0-0.1,0-0.1,0c-0.4-0.1-0.7,0.4-1.2,0.1c-0.3-0.2-0.7-0.3-1.1-0.4
				c-1-0.2-2-0.8-3-0.9c-0.1,0-0.1-0.2-0.3-0.2c0.3-0.5,1-0.3,1.4-0.7c0.7-0.1,1.2-0.5,1.8-0.7c1.2-0.4,2.4-0.9,3.5-1.5
				C109.2,51.4,109.4,51.5,109.5,51.5z"/>
			<path class="st8" d="M55,56.8c0.2,0,0.4-0.1,0.5,0.1c0.1,0.1,0.3,0.1,0.5,0.2c-0.6,0.2-1,0.5-1.3,0.9c0,0.1,0.2,0.2,0.1,0.3
				c0.3,0.1,0.5,0.3,0.9,0.5c0.4,0.1,0.9-0.1,1.3,0.2c0,0,0.1,0,0.1,0c0.9-0.3,1.9,0,2.7-0.6c0.2,0.1,0.4,0.2,0.5,0.3
				c-0.2,0.3-0.7,0.4-1,0.4c-0.5,0-1,0.3-1.6,0.2c-0.5,0-1.1,0-1.6,0c-0.5,0-1-0.1-1.5-0.2c-0.4-0.1-0.8-0.3-1.1-0.8
				c0-0.1,0-0.3,0-0.5c0.2-0.2,0.3-0.5,0.7-0.5c0-0.2-0.2-0.2-0.2-0.3C54.3,56.7,54.6,56.8,55,56.8z"/>
			<path class="st8" d="M51.5,56.2c0.3-0.3,0.7-0.4,1.1-0.4c0,0,0.1,0,0.1,0c0.3,0,1,0.3,1.4,0.6c0,0.2-0.1,0.2-0.2,0.2
				c-0.2,0-0.5,0-0.7,0c-0.3,0.1-0.5-0.3-0.8-0.2C52.1,56.1,51.7,56.3,51.5,56.2z"/>
			<path class="st8" d="M76.8,37.1C76.8,37.1,76.8,37,76.8,37.1c1.1-0.3,2.1-0.7,3.1-0.9c0.6-0.1,1.3-0.3,1.9-0.6
				c0.5-0.2,1.1-0.4,1.6-0.5c0.5-0.1,1-0.4,1.6-0.4c0.4,0,0.9-0.2,1.3-0.4c0.7-0.3,1.3,0,1.8,0.1c0.6,0.1,1.1,0.2,1.6,0.4
				c0.2,0.1,0.4,0.1,0.6,0c1.2-0.5,2.5-0.7,3.7-1.1c0.1,0,0.1-0.1,0.2-0.2c0.4,0.3,0.8,0.2,1.2,0.4c0.9,0.3,2,0.4,2.9,0.7
				c0.4,0.1,0.9,0.2,1.4-0.1c0.1,0.4,0.6,0,0.7,0.3c-0.1,0.1-0.1,0.2-0.2,0.2c-0.8,0.1-1.4,0.6-2.2,0.6c-0.1,0-0.2,0.1-0.1,0.2
				c-0.4-0.1-0.8,0.3-1.2,0.2c-0.4-0.1-0.8,0-1.2,0.1c-0.5,0.1-1,0.1-1.6,0.2c-0.4,0.1-0.8,0.3-1.2,0.2c-0.4,0.4-0.9,0-1.3,0.4
				c-0.5-0.1-0.9,0.1-1.3,0.2c-0.5,0.1-1,0-1.4,0.3c0-0.2-0.1-0.2-0.2-0.2c-0.3,0-0.5,0-0.7-0.2c-0.2,0-0.4,0.1-0.5-0.1
				c-0.2-0.3-0.7,0.1-0.9-0.3c-0.1,0.2-0.3,0.1-0.5,0.2c-0.7,0.4-1.5,0.4-2.3,0.7c-0.2,0.1-0.3,0.2-0.6,0.2c-0.6,0-1.2,0.3-1.8,0.5
				c-0.2,0.1-0.5-0.1-0.5,0.2c0,0.2,0.1,0.2,0.2,0.2c0.1,0,0.3-0.1,0.3,0.2c-0.9,0.2-1.8,0.4-2.7,0.6c-1,0.2-2,0.2-2.9,0.7
				c-0.8,0-1.5,0.3-2.2,0.4c-0.7,0.1-1.4,0.2-2,0.4c-0.4,0.2-0.9-0.1-1.2,0.3c-0.4-0.1-0.8,0.2-1.2,0.2c-0.4,0-0.7,0.3-1.1,0.2
				c-0.3,0.4-0.8,0-1.1,0.3c-0.8,0-1.5,0.4-2.3,0.4c-0.3,0-0.4,0.3-0.8,0.2c-0.2-0.1-0.5-0.1-0.8,0.2c-0.1,0.1-0.9-0.2-1.2-0.4
				c0.2,0,0.3-0.2,0.5-0.2c0.7-0.1,1.5-0.3,2.2-0.6c1.5-0.5,3-0.9,4.5-1.3c0.7-0.2,1.4-0.5,2.1-0.6c0.7-0.2,1.5-0.5,2.2-0.6
				c0.5-0.1,1-0.4,1.5-0.5c0.5-0.1,1-0.5,1.6-0.4c0.5-0.4,1.2-0.3,1.8-0.6c0.6-0.3,1.2-0.3,1.8-0.6c0.5-0.2,1-0.1,1.4-0.5
				c-0.9-0.2-1.7,0.2-2.6,0.1c-0.3,0.3-0.8,0.1-1.1,0.2C77.6,37.1,77.2,37.1,76.8,37.1z"/>
			<path class="st8" d="M105.1,35.1c-0.2-0.6-0.7-0.7-1.1-0.7c-0.4,0-0.8-0.2-1.2-0.2c-0.4,0-0.8,0-1.2,0c0.2-0.1,0.8-0.4,0.9-0.4
				c0.2,0,0.3-0.2,0.5-0.2c0.5-0.1,1,0.1,1.5,0.2c0.4,0.2,0.9,0.1,1.3,0.3c0.4,0.2,0.9,0.3,1.4,0.3c0,0,0,0.1,0.1,0.2
				c0,0.4-0.5,0-0.6,0.3C106.1,34.9,105.7,35.2,105.1,35.1z"/>
			<path class="st9" d="M84.9,38.2c0.1-0.4,0.6,0,0.7-0.4c0.6,0,1.2-0.3,1.7-0.5c0.2-0.1,0.6,0.2,0.7-0.2c0.2,0.2,0.4,0.2,0.7,0.2
				c0.1,0,0.2,0,0.2,0.2c-0.3,0-0.5,0.1-0.7,0.2c-0.2,0.1-0.5-0.1-0.8,0.1c-0.3,0.2-0.7-0.1-1,0.3C85.9,37.9,85.4,38.3,84.9,38.2z"
				/>
			<path class="st7" d="M65.2,30.9c0.1-0.4,0.7,0,0.8-0.4c0.8-0.1,1.6-0.4,2.4-0.6c0.9-0.2,1.8-0.5,2.7-0.7c0.9-0.2,1.8-0.5,2.8-0.6
				c0.8-0.1,1.6-0.4,2.4-0.6c0.9-0.2,1.7-0.5,2.6-0.7c1.1-0.3,2.3-0.6,3.4-0.9c0.6-0.1,1.3-0.3,1.9-0.4c0.6-0.2,1.3-0.3,1.9-0.5
				c0.3-0.1,0.6-0.1,0.8,0c0.8,0.3,1.6,0.5,2.4,0.5c0.2,0,0.2,0.2,0.4,0.2c0.3-0.3,0.8-0.2,1.1-0.3c0.4-0.2,0.9-0.3,1.4-0.4
				c0.5-0.1,0.9-0.2,1.4-0.4c0.3-0.1,0.7-0.1,0.9,0c0.4,0.3,0.9-0.1,1.2,0.3c0.5-0.1,0.9,0.3,1.4,0.2c0.4,0.4,0.9,0.1,1.3,0.3
				c0.5,0.2,1.1-0.1,1.6-0.2c0.3-0.1,0.5,0,0.8-0.1c0.1,0.1,0.3,0.2,0.4,0.2c0.9,0,1.6,0.4,2.5,0.4c0,0,0,0.1,0.1,0.1
				c-0.5-0.1-0.9,0.2-1.4,0.2c-0.5,0-1-0.1-1.4,0c-0.7,0.3-1.4,0.1-2,0.2c0-0.2-0.1-0.2-0.2-0.2c-0.5,0.1-1-0.1-1.5-0.3
				c-0.8-0.2-1.5-0.3-2.3-0.5c-0.2-0.1-0.5-0.1-0.8,0.1c1.1,0.2,2.1,0.5,3.1,0.6c0.2,0,0.3,0.2,0.5,0.2c0.2,0,0.4-0.2,0.5,0.2
				c-1-0.1-2,0.3-3,0.2c-0.3,0.2-0.7,0.2-1.1,0.2c-0.4,0-0.8,0.3-1.2,0.2c-0.4,0-0.8,0.1-1.1,0.2c-0.6,0.2-1.2,0.2-1.8,0.3
				c-1.1,0.2-2.2,0.4-3.3,0.6c-0.4,0.4-1.1,0-1.5,0.4c-0.5-0.1-1,0.3-1.6,0.2c-0.8,0.3-1.7,0.2-2.4,0.6c-0.9-0.1-1.8,0.3-2.7,0.4
				c-0.8,0.1-1.7,0.1-2.4,0.5c-0.5-0.1-1,0.2-1.5,0.2c-0.4,0-0.7,0.3-1.1,0.2c0.2-0.3,0.6-0.3,0.9-0.4c0.8-0.2,1.7-0.4,2.5-0.6
				c0.9-0.2,1.8-0.5,2.7-0.7c0.3-0.1,0.6-0.2,0.9-0.2c0.2-0.4,0.6,0,0.8-0.3c-1-0.3-1.9,0.2-2.8,0.1c-0.2,0.3-0.6,0.2-0.8,0.2
				c-0.4-0.1-0.6,0.2-0.9,0.2c-0.7-0.1-1.4,0.3-2.1,0.2c-0.1,0-0.2,0-0.2,0c-0.3,0.3-0.7,0.1-1,0.2c-0.4,0-0.7,0.3-1.1,0.2
				c-0.6-0.1-1.2,0.3-1.8,0.2c-0.4,0.3-0.8,0.1-1.2,0.2c-0.4,0.2-0.8,0.2-1.2,0.2c-0.1,0-0.3,0-0.4,0c-0.4,0.3-0.9,0-1.3,0.2
				C66.2,31,65.7,30.8,65.2,30.9z"/>
			<path class="st7" d="M52.4,31.8c0.1-0.4,0.7,0,0.8-0.4c0.7,0,1.3-0.3,2-0.4c0.8-0.1,1.6-0.3,2.3-0.6c0.7-0.2,1.4-0.3,2.1-0.5
				c0.6-0.2,1.2-0.3,1.9-0.4c0.6-0.1,1.2-0.2,1.8-0.5c0.3-0.1,0.6-0.2,0.9-0.2c0.3,0,0.6-0.2,0.8-0.2c0.6,0,1.2-0.3,1.9-0.4
				c0.5-0.1,1-0.2,1.5-0.3c0.5-0.1,0.9-0.2,1.4-0.4c1.4-0.4,2.8-0.6,4.3-1c0.6-0.2,1.3-0.3,1.9-0.4c1.4-0.4,2.9-0.6,4.3-1.1
				c0.6-0.2,1.2-0.3,1.9-0.4c0.6-0.1,1.2-0.3,1.9-0.4c0.6-0.1,1.2-0.3,1.8-0.5c0.8-0.2,1.6-0.6,2.5-0.4c0.5,0.1,1,0.2,1.4,0.3
				c0,0,0,0.1,0,0.1c-0.7,0-1.3,0.3-2,0.5c-1,0.2-1.9,0.5-2.8,0.7c-0.8,0.1-1.7,0.4-2.5,0.6c-0.7,0.2-1.4,0.4-2.1,0.5
				c-0.8,0.1-1.6,0.4-2.4,0.6c-0.7,0.2-1.4,0.3-2.1,0.5c-1.1,0.3-2.2,0.5-3.3,0.8c-0.7,0.2-1.3,0.3-2,0.5c-0.9,0.2-1.7,0.4-2.6,0.6
				c-0.7,0.1-1.4,0.3-2.1,0.5c-0.8,0.2-1.7,0.4-2.5,0.6c-0.7,0.2-1.4,0.3-2.1,0.5c-0.8,0.2-1.6,0.5-2.5,0.6
				c-0.3,0.3-0.6,0.1-0.9,0.2c-0.1,0.1,0,0.3-0.1,0.5c-0.4,0-0.9,0.2-1.3-0.2c-0.4,0.3-0.9,0.1-1.3,0.2c-0.5,0-1,0-1.5,0
				C53.3,31.8,52.8,31.8,52.4,31.8z"/>
			<path class="st7" d="M47.8,80.1c0.4,0,0.6-0.3,0.9-0.4c0.1,0.3,0.5,0.2,0.5,0.5c-0.3,0.2-0.7-0.1-1,0.2
				C48.2,80.2,47.8,80.4,47.8,80.1z"/>
		</g>
		<use xlink:href="#SVGID_5_"  style="overflow:visible;fill:none;stroke:#202020;stroke-width:0.4799;stroke-miterlimit:10;"/>
	</g>
</g>
</svg>
