<?xml version="1.0" encoding="utf-8"?>
<!-- Generator: Adobe Illustrator 20.1.0, SVG Export Plug-In . SVG Version: 6.00 Build 0)  -->
<svg version="1.1" id="Layer_1" xmlns="http://www.w3.org/2000/svg" xmlns:xlink="http://www.w3.org/1999/xlink" x="0px" y="0px"
	 viewBox="0 0 348 104" style="enable-background:new 0 0 348 104;" xml:space="preserve">
<style type="text/css">
	.st0{fill:#7B7B7B;}
</style>
<path class="st0" d="M32,25.8c0,7.7-1.1,13.5-12.8,13.5c-11.6,0-13.4-5.6-13.4-13.5V7.2C5.8,3,4,2.6,1,2.6V1.5h14.7v1.1
	c-3,0-4.9,0.4-4.9,4.6v18.6c0,5.7,1.3,11.3,8.6,11.3c8.1,0,9.4-4.6,9.4-11.3V7.2c0-4.2-1.8-4.6-4.9-4.6V1.5h12.9v1.1
	C33.8,2.6,32,3,32,7.2V25.8z"/>
<path class="st0" d="M62.9,37.8c-2.7,1-5.9,1.5-10,1.5c-11.2,0-16.6-8.5-16.6-20.4c0-10.4,3.4-18,15.3-18c4.5,0,8.3,0.9,10.8,1.6
	l0.5,8.8h-1.4c-0.7-3.1-3-8.2-9.9-8.2c-9,0-9.7,9.6-9.7,15.3c0,7.2,1.6,18.4,13.8,18.4c3.7,0,5.8-0.8,7.2-1.4V37.8z"/>
<path class="st0" d="M93,9.6c-0.5-3-2.8-6.4-8.7-6.4c-3.8,0-7.1,2.4-7.1,6.1c0,5,6.7,6.6,11.5,9.5c4.4,2.6,7.4,4.9,7.4,10.2
	c0,7.1-6.2,10.5-13.8,10.5c-3.8,0-8.2-0.8-9.6-1.1l-0.4-7.9h1.4c0.4,3,3.1,6.4,9.1,6.4c4.9,0,8.1-3.2,8.1-7.1c0-6-9.3-7.9-14.5-11.9
	c-2.5-1.9-3.6-3.9-3.6-7.5c0-6.7,5.5-9.5,12.6-9.5c3.8,0,6.2,0.4,8.7,1l0.4,7.7H93z"/>
<path class="st0" d="M119,38.8c-0.6,0.2-1.8,0.4-3.6,0.4c-2.9,0-3.7-1.5-3.7-3.6h-0.1c-1.5,2.2-3.7,3.6-7.1,3.6c-3.4,0-6-2.4-6-5.6
	c0-7.2,9.4-7.2,13.1-7.6v-1.9c0-3.5-0.1-7.2-4.2-7.2c-3.1,0-3.5,1.3-3.5,2.9c0,2-1.5,2.6-2.3,2.6c-1.3,0-2.4-0.9-2.4-2.2
	c0-3.2,4.8-4.9,8.3-4.9c6.8,0,8.1,3.3,8.1,7.9v12.4c0,1.7,0.6,2.3,2.1,2.3c0.4,0,0.9-0.1,1.3-0.2V38.8z M111.6,27.7
	c-2.3,0.1-8.7,0.5-8.7,5.1c0,2.6,1.7,4.3,3.4,4.3c3.2,0,5.3-3.1,5.3-6.5V27.7z"/>
<path class="st0" d="M120.1,37.9c2.1,0,3.8-0.4,3.8-3.7V20.6c0-3-2.3-3.1-3.8-3.2v-0.8l7.7-1.2v6.6h0.1c0.7-1.8,2.9-6.6,7.9-6.6
	c5.3,0,5.8,2.9,5.8,7.5v11.4c0,3.2,1.7,3.7,3.8,3.7v0.8h-11.5v-0.8c2.1,0,3.8-0.4,3.8-3.7V24c0-4.3,0-6.2-3.3-6.2
	c-2.9,0-6.5,5.6-6.5,10.4v6.1c0,3.2,1.7,3.7,3.8,3.7v0.8h-11.5V37.9z"/>
<path class="st0" d="M151,37.7c3,0,4.9-0.4,4.9-4.6V7.2c0-4.2-1.8-4.6-4.9-4.6V1.5h13.1c9.3,0,19.1,2,19.1,18.7
	c0,16.6-10.4,18.6-19.1,18.6H151V37.7z M160.9,31.9c0,4.1,0.5,4.7,3.3,4.7c9.6,0,13.6-5.2,13.6-16.4c0-10.3-3-16.5-13.6-16.5
	c-2.8,0-3.3,0.3-3.3,4.7V31.9z"/>
<path class="st0" d="M185.3,37.9c2.1,0,3.8-0.4,3.8-3.7V20.6c0-3-2.3-3.1-3.8-3.2v-0.8l7.7-1.2v18.9c0,3.2,1.7,3.7,3.8,3.7v0.8
	h-11.5V37.9z M188,7.9c0-1.6,1.2-2.8,2.8-2.8c1.6,0,2.8,1.2,2.8,2.8c0,1.6-1.2,2.8-2.8,2.8C189.3,10.8,188,9.5,188,7.9z"/>
<path class="st0" d="M214.8,38.4c-1.2,0.5-2.9,0.9-5.9,0.9c-7.7,0-12-4.2-12-12.6c0-7.3,2.9-11.3,10.1-11.3c4.5,0,8.5,2.5,8.5,8.3
	v1.1h-14.5c0,4.2,2,12.7,10.4,12.7c1.1,0,2.5-0.2,3.5-0.6V38.4z M211,23.1c0-2.6-0.9-6.1-4.7-6.1c-3.8,0-5.3,4.2-5.3,6.1H211z"/>
<path class="st0" d="M231.6,34.8c2.4,0,7.9,0.1,7.9,5.6c0,5.7-5.6,8.9-12.2,8.9c-4.9,0-10-1.8-10-6.3c0-3.1,2.3-4.4,3.9-5.2
	c-0.9-0.5-2.1-1.4-2.1-3.5c0-1.8,1.6-3.7,2.1-4.3c-1.2-0.9-2.9-2.4-2.9-6.7c0-6.4,4.7-7.8,9.4-7.8c2.3,0,3.5,0.4,5.1,1.2
	c0.8-1.9,2-5.3,5-5.3c1.4,0,2.4,0.9,2.4,2.4c0,1.3-0.8,2.2-2.3,2.2c-1.3,0-1.6-0.7-2.2-0.7c-1.1,0-1.5,1.4-1.8,2.2
	c0.6,0.6,2.2,2.5,2.2,6c0,5-3.1,7.9-9.1,7.9c-2,0-3.4-0.3-4.5-0.7c-0.3,0.4-0.9,1.1-0.9,2.2c0,2,2.5,2,4.1,2H231.6z M223,38.3
	c-1,0.7-2.4,1.6-2.4,3.8c0,2.9,2.6,5.5,7,5.5c4.5,0,8.7-2.3,8.7-5.9c0-2.5-2.1-3.4-4.6-3.4H223z M227.3,29.7c4.2,0,4.7-3.3,4.7-5.9
	c0-3.7-1.3-6.7-4.9-6.7c-3.9,0-4.7,2.9-4.7,5.8C222.5,26.6,223.7,29.7,227.3,29.7z"/>
<path class="st0" d="M239.6,27.3c0-7.5,4-12,10.4-12c6.4,0,10.4,4.5,10.4,12c0,7.5-4,11.9-10.4,11.9
	C243.6,39.3,239.6,34.8,239.6,27.3z M250,37.6c5,0,6-6.2,6-10.3c0-4.1-1-10.3-6-10.3c-5,0-6,6.2-6,10.3C244,31.5,245,37.6,250,37.6z
	"/>
<g id="line_10_">
	<path class="st0" d="M214.8,47.4H1v1.3H216C215.6,48.2,215.2,47.8,214.8,47.4z"/>
	<path class="st0" d="M260,47.4h-19.7c-0.4,0.5-0.9,0.9-1.5,1.3H260V47.4z"/>
</g>
<path class="st0" d="M9.6,62h3.2V71c0,4-1.9,5.4-5,5.4c-0.7,0-1.7-0.1-2.3-0.3l0.4-2.6c0.4,0.1,1,0.3,1.6,0.3c1.3,0,2.2-0.6,2.2-2.8
	V62z"/>
<path class="st0" d="M18.4,72.5l-1,3.6h-3.3L18.4,62h4.2L27,76.2h-3.4l-1.1-3.6H18.4z M22,70.2l-0.9-3c-0.3-0.8-0.5-1.9-0.7-2.7h0
	c-0.2,0.8-0.4,1.9-0.7,2.7l-0.8,3H22z"/>
<path class="st0" d="M38.7,75.8c-0.6,0.3-1.9,0.6-3.6,0.6c-4.9,0-7.4-3-7.4-7.1c0-4.8,3.4-7.5,7.7-7.5c1.7,0,2.9,0.3,3.5,0.6
	L38.3,65c-0.7-0.3-1.6-0.5-2.7-0.5c-2.5,0-4.5,1.5-4.5,4.7c0,2.8,1.7,4.6,4.5,4.6c1,0,2-0.2,2.7-0.5L38.7,75.8z"/>
<path class="st0" d="M53.5,69c0,4.6-2.8,7.5-6.9,7.5c-4.2,0-6.7-3.2-6.7-7.2c0-4.2,2.7-7.4,6.9-7.4C51.1,61.8,53.5,65.1,53.5,69z
	 M43.2,69.1c0,2.8,1.3,4.7,3.4,4.7c2.2,0,3.4-2.1,3.4-4.8c0-2.5-1.2-4.7-3.4-4.7C44.5,64.3,43.2,66.4,43.2,69.1z"/>
<path class="st0" d="M55.8,62.2c0.8-0.2,2.5-0.3,4.1-0.3c2,0,3.1,0.2,4.2,0.8c1,0.5,1.7,1.5,1.7,2.8c0,1.3-0.7,2.4-2.3,3v0
	c1.6,0.4,2.8,1.7,2.8,3.5c0,1.3-0.6,2.3-1.5,3c-1,0.8-2.8,1.3-5.6,1.3c-1.6,0-2.8-0.1-3.5-0.2V62.2z M58.9,67.6h1
	c1.7,0,2.6-0.7,2.6-1.7c0-1.1-0.8-1.6-2.3-1.6c-0.7,0-1.1,0-1.4,0.1V67.6z M58.9,73.9c0.3,0,0.7,0,1.2,0c1.4,0,2.7-0.5,2.7-2
	c0-1.4-1.3-2-2.9-2h-1.1V73.9z"/>
<path class="st0" d="M68.5,72.9c0.9,0.4,2.2,0.9,3.5,0.9c1.5,0,2.2-0.6,2.2-1.5c0-0.9-0.7-1.4-2.4-2c-2.4-0.8-3.9-2.1-3.9-4.2
	c0-2.4,2-4.3,5.4-4.3c1.6,0,2.8,0.3,3.6,0.7l-0.7,2.6c-0.6-0.3-1.6-0.7-3-0.7s-2.1,0.6-2.1,1.4c0,0.9,0.8,1.3,2.6,2
	c2.5,0.9,3.7,2.2,3.7,4.2c0,2.4-1.8,4.4-5.7,4.4c-1.6,0-3.2-0.4-4-0.9L68.5,72.9z"/>
<path class="st0" d="M84.5,72.9c0.9,0.4,2.2,0.9,3.5,0.9c1.5,0,2.2-0.6,2.2-1.5c0-0.9-0.7-1.4-2.4-2c-2.4-0.8-3.9-2.1-3.9-4.2
	c0-2.4,2-4.3,5.4-4.3c1.6,0,2.8,0.3,3.6,0.7l-0.7,2.6c-0.6-0.3-1.6-0.7-3-0.7s-2.1,0.6-2.1,1.4c0,0.9,0.8,1.3,2.6,2
	c2.5,0.9,3.7,2.2,3.7,4.2c0,2.4-1.8,4.4-5.7,4.4c-1.6,0-3.2-0.4-4-0.9L84.5,72.9z"/>
<path class="st0" d="M106.1,75.8c-0.6,0.3-1.9,0.6-3.6,0.6c-4.9,0-7.4-3-7.4-7.1c0-4.8,3.4-7.5,7.7-7.5c1.7,0,2.9,0.3,3.5,0.6
	l-0.7,2.5c-0.7-0.3-1.6-0.5-2.7-0.5c-2.5,0-4.5,1.5-4.5,4.7c0,2.8,1.7,4.6,4.5,4.6c1,0,2-0.2,2.7-0.5L106.1,75.8z"/>
<path class="st0" d="M111.5,62v5.4h5.3V62h3.2v14.2h-3.2v-5.9h-5.3v5.9h-3.2V62H111.5z"/>
<path class="st0" d="M135.9,69c0,4.6-2.8,7.5-6.9,7.5c-4.2,0-6.7-3.2-6.7-7.2c0-4.2,2.7-7.4,6.9-7.4C133.5,61.8,135.9,65.1,135.9,69
	z M125.6,69.1c0,2.8,1.3,4.7,3.4,4.7c2.2,0,3.4-2.1,3.4-4.8c0-2.5-1.2-4.7-3.4-4.7C126.9,64.3,125.6,66.4,125.6,69.1z"/>
<path class="st0" d="M151.1,69c0,4.6-2.8,7.5-7,7.5c-4.2,0-6.7-3.2-6.7-7.2c0-4.2,2.7-7.4,6.9-7.4C148.7,61.8,151.1,65.1,151.1,69z
	 M140.9,69.1c0,2.8,1.3,4.7,3.4,4.7c2.2,0,3.4-2.1,3.4-4.8c0-2.5-1.2-4.7-3.4-4.7C142.1,64.3,140.9,66.4,140.9,69.1z"/>
<path class="st0" d="M153.4,62h3.2v11.5h5.6v2.7h-8.8V62z"/>
<path class="st0" d="M180.9,69c0,4.6-2.8,7.5-6.9,7.5c-4.2,0-6.7-3.2-6.7-7.2c0-4.2,2.7-7.4,6.9-7.4C178.5,61.8,180.9,65.1,180.9,69
	z M170.7,69.1c0,2.8,1.3,4.7,3.4,4.7c2.2,0,3.4-2.1,3.4-4.8c0-2.5-1.2-4.7-3.4-4.7C171.9,64.3,170.7,66.4,170.7,69.1z"/>
<path class="st0" d="M183.2,62h8.7v2.6h-5.4v3.2h5.1v2.6h-5.1v5.7h-3.2V62z"/>
<path class="st0" d="M207.3,70.2h-5.2v3.4h5.8v2.6h-9V62h8.7v2.6h-5.5v2.9h5.2V70.2z"/>
<path class="st0" d="M210.4,76.2V62h3.7l2.9,5.2c0.8,1.5,1.7,3.3,2.3,4.8h0.1c-0.2-1.9-0.3-3.8-0.3-5.9V62h2.9v14.2h-3.4l-3-5.5
	c-0.8-1.5-1.8-3.3-2.5-5l-0.1,0c0.1,1.9,0.1,3.9,0.1,6.2v4.3H210.4z"/>
<path class="st0" d="M236.9,75.5c-1,0.3-2.9,0.8-4.7,0.8c-2.6,0-4.5-0.7-5.8-1.9c-1.3-1.2-2-3.1-2-5.1c0-4.7,3.4-7.4,8.1-7.4
	c1.8,0,3.2,0.4,3.9,0.7l-0.7,2.6c-0.8-0.3-1.7-0.6-3.3-0.6c-2.7,0-4.7,1.5-4.7,4.6c0,2.9,1.8,4.6,4.5,4.6c0.7,0,1.3-0.1,1.6-0.2v-3
	h-2.2v-2.5h5.3V75.5z"/>
<path class="st0" d="M242.8,62v14.2h-3.2V62H242.8z"/>
<path class="st0" d="M245.8,76.2V62h3.7l2.9,5.2c0.8,1.5,1.7,3.3,2.3,4.8h0.1c-0.2-1.9-0.3-3.8-0.3-5.9V62h2.9v14.2h-3.4l-3-5.5
	c-0.8-1.5-1.8-3.3-2.5-5l-0.1,0c0.1,1.9,0.1,3.9,0.1,6.2v4.3H245.8z"/>
<path class="st0" d="M268.9,70.2h-5.2v3.4h5.8v2.6h-9V62h8.7v2.6h-5.5v2.9h5.2V70.2z"/>
<path class="st0" d="M280.4,70.2h-5.2v3.4h5.8v2.6h-9V62h8.7v2.6h-5.5v2.9h5.2V70.2z"/>
<path class="st0" d="M283.5,62.2c1-0.2,2.6-0.3,4.3-0.3c2.1,0,3.6,0.3,4.6,1.1c0.8,0.7,1.3,1.7,1.3,3c0,1.8-1.3,3-2.5,3.5v0.1
	c1,0.4,1.5,1.3,1.9,2.6c0.4,1.6,0.9,3.4,1.2,4h-3.3c-0.2-0.4-0.6-1.6-1-3.3c-0.4-1.8-1-2.2-2.3-2.3h-1v5.6h-3.2V62.2z M286.7,68.3
	h1.3c1.6,0,2.5-0.8,2.5-2c0-1.3-0.9-2-2.4-2c-0.8,0-1.2,0.1-1.4,0.1V68.3z"/>
<path class="st0" d="M299.4,62v14.2h-3.2V62H299.4z"/>
<path class="st0" d="M302.3,76.2V62h3.7l2.9,5.2c0.8,1.5,1.7,3.3,2.3,4.8h0.1c-0.2-1.9-0.3-3.8-0.3-5.9V62h2.9v14.2h-3.4l-3-5.5
	c-0.8-1.5-1.8-3.3-2.5-5l-0.1,0c0.1,1.9,0.1,3.9,0.1,6.2v4.3H302.3z"/>
<path class="st0" d="M328.8,75.5c-1,0.3-2.9,0.8-4.7,0.8c-2.6,0-4.5-0.7-5.8-1.9c-1.3-1.2-2-3.1-2-5.1c0-4.7,3.4-7.4,8.1-7.4
	c1.8,0,3.2,0.4,3.9,0.7l-0.7,2.6c-0.8-0.3-1.7-0.6-3.3-0.6c-2.7,0-4.7,1.5-4.7,4.6c0,2.9,1.8,4.6,4.5,4.6c0.7,0,1.3-0.1,1.6-0.2v-3
	h-2.2v-2.5h5.3V75.5z"/>
<path class="st0" d="M19,92.5c-0.1-2-0.2-4.3-0.2-6.1h-0.1c-0.5,1.7-1.1,3.4-1.8,5.4l-2.5,6.9H13l-2.3-6.7c-0.7-2-1.2-3.8-1.6-5.5h0
	c0,1.8-0.1,4.1-0.3,6.3l-0.4,6.1H6.7l1-14.2H10l2.4,6.8c0.6,1.7,1.1,3.3,1.4,4.8h0.1c0.4-1.4,0.9-3,1.5-4.8l2.5-6.8h2.3l0.9,14.2
	h-1.8L19,92.5z"/>
<path class="st0" d="M25,93.9c0,2.5,1.6,3.5,3.5,3.5c1.3,0,2.1-0.2,2.8-0.5l0.3,1.3c-0.7,0.3-1.8,0.6-3.4,0.6c-3.1,0-5-2.1-5-5.1
	s1.8-5.5,4.8-5.5c3.3,0,4.2,2.9,4.2,4.8c0,0.4,0,0.7-0.1,0.9H25z M30.4,92.6c0-1.2-0.5-3-2.6-3c-1.9,0-2.7,1.7-2.8,3H30.4z"/>
<path class="st0" d="M41.9,98.3c-0.5,0.3-1.6,0.6-2.9,0.6c-3.1,0-5.1-2.1-5.1-5.2c0-3.1,2.1-5.4,5.5-5.4c1.1,0,2.1,0.3,2.6,0.5
	l-0.4,1.4c-0.4-0.3-1.1-0.5-2.1-0.5c-2.3,0-3.6,1.7-3.6,3.8c0,2.4,1.5,3.8,3.5,3.8c1,0,1.7-0.3,2.3-0.5L41.9,98.3z"/>
<path class="st0" d="M44,83.8h1.8v6.3h0c0.3-0.5,0.8-1,1.3-1.3c0.5-0.3,1.2-0.5,1.9-0.5c1.4,0,3.5,0.8,3.5,4.3v6h-1.8v-5.8
	c0-1.6-0.6-3-2.4-3c-1.2,0-2.1,0.8-2.5,1.8c-0.1,0.3-0.1,0.5-0.1,0.9v6.1H44V83.8z"/>
<path class="st0" d="M61.2,98.7L61,97.4H61c-0.6,0.8-1.7,1.5-3.1,1.5c-2.1,0-3.1-1.4-3.1-2.9c0-2.5,2.2-3.8,6.1-3.8V92
	c0-0.8-0.2-2.4-2.3-2.4c-0.9,0-1.9,0.3-2.6,0.8l-0.4-1.2c0.8-0.5,2.1-0.9,3.3-0.9c3.1,0,3.9,2.1,3.9,4.2v3.8c0,0.9,0,1.7,0.2,2.4
	H61.2z M60.9,93.5c-2,0-4.3,0.3-4.3,2.3c0,1.2,0.8,1.8,1.7,1.8c1.3,0,2.2-0.8,2.5-1.7c0.1-0.2,0.1-0.4,0.1-0.6V93.5z"/>
<path class="st0" d="M65.6,91.3c0-1,0-1.9-0.1-2.8h1.6l0.1,1.7h0c0.5-1,1.7-1.9,3.4-1.9c1.4,0,3.6,0.8,3.6,4.3v6.1h-1.8v-5.9
	c0-1.6-0.6-3-2.4-3c-1.2,0-2.2,0.9-2.5,1.9c-0.1,0.2-0.1,0.5-0.1,0.9v6.1h-1.8V91.3z"/>
<path class="st0" d="M79.2,85.7c0,0.6-0.4,1.1-1.2,1.1c-0.7,0-1.1-0.5-1.1-1.1c0-0.7,0.5-1.2,1.2-1.2C78.8,84.5,79.2,85,79.2,85.7z
	 M77.2,98.7V88.5H79v10.2H77.2z"/>
<path class="st0" d="M89.3,98.3c-0.5,0.3-1.6,0.6-2.9,0.6c-3.1,0-5.1-2.1-5.1-5.2c0-3.1,2.1-5.4,5.5-5.4c1.1,0,2.1,0.3,2.6,0.5
	l-0.4,1.4c-0.4-0.3-1.1-0.5-2.1-0.5c-2.3,0-3.6,1.7-3.6,3.8c0,2.4,1.5,3.8,3.5,3.8c1,0,1.7-0.3,2.3-0.5L89.3,98.3z"/>
<path class="st0" d="M97.2,98.7L97,97.4H97c-0.6,0.8-1.7,1.5-3.1,1.5c-2.1,0-3.1-1.4-3.1-2.9c0-2.5,2.2-3.8,6.1-3.8V92
	c0-0.8-0.2-2.4-2.3-2.4c-0.9,0-1.9,0.3-2.6,0.8l-0.4-1.2c0.8-0.5,2.1-0.9,3.3-0.9c3.1,0,3.9,2.1,3.9,4.2v3.8c0,0.9,0,1.7,0.2,2.4
	H97.2z M96.9,93.5c-2,0-4.3,0.3-4.3,2.3c0,1.2,0.8,1.8,1.7,1.8c1.3,0,2.2-0.8,2.5-1.7c0.1-0.2,0.1-0.4,0.1-0.6V93.5z"/>
<path class="st0" d="M101.6,83.8h1.8v14.9h-1.8V83.8z"/>
<path class="st0" d="M116.2,98.7l-0.1-1.3H116c-0.6,0.8-1.7,1.5-3.1,1.5c-2.1,0-3.1-1.4-3.1-2.9c0-2.5,2.2-3.8,6.1-3.8V92
	c0-0.8-0.2-2.4-2.3-2.4c-0.9,0-1.9,0.3-2.6,0.8l-0.4-1.2c0.8-0.5,2.1-0.9,3.3-0.9c3.1,0,3.9,2.1,3.9,4.2v3.8c0,0.9,0,1.7,0.2,2.4
	H116.2z M116,93.5c-2,0-4.3,0.3-4.3,2.3c0,1.2,0.8,1.8,1.7,1.8c1.3,0,2.2-0.8,2.5-1.7c0.1-0.2,0.1-0.4,0.1-0.6V93.5z"/>
<path class="st0" d="M120.7,91.3c0-1,0-1.9-0.1-2.8h1.6l0.1,1.7h0c0.5-1,1.7-1.9,3.4-1.9c1.4,0,3.6,0.8,3.6,4.3v6.1h-1.8v-5.9
	c0-1.6-0.6-3-2.4-3c-1.2,0-2.2,0.9-2.5,1.9c-0.1,0.2-0.1,0.5-0.1,0.9v6.1h-1.8V91.3z"/>
<path class="st0" d="M141.1,83.8v12.3c0,0.9,0,1.9,0.1,2.6h-1.7l-0.1-1.8h0c-0.6,1.1-1.8,2-3.5,2c-2.5,0-4.3-2.1-4.3-5.2
	c0-3.4,2.1-5.5,4.6-5.5c1.6,0,2.6,0.7,3.1,1.6h0v-6.1H141.1z M139.3,92.7c0-0.2,0-0.5-0.1-0.8c-0.3-1.2-1.3-2.1-2.7-2.1
	c-1.9,0-3,1.7-3,3.9c0,2.1,1,3.8,3,3.8c1.2,0,2.4-0.8,2.7-2.2c0.1-0.3,0.1-0.5,0.1-0.8V92.7z"/>
<path class="st0" d="M150.6,94.2l-1.5,4.5h-1.9l4.8-14.2h2.2l4.8,14.2h-2l-1.5-4.5H150.6z M155.2,92.8l-1.4-4.1
	c-0.3-0.9-0.5-1.8-0.7-2.6h0c-0.2,0.8-0.4,1.7-0.7,2.6l-1.4,4.1H155.2z"/>
<path class="st0" d="M161.9,93.9c0,2.5,1.6,3.5,3.5,3.5c1.3,0,2.1-0.2,2.8-0.5l0.3,1.3c-0.7,0.3-1.8,0.6-3.4,0.6c-3.1,0-5-2.1-5-5.1
	s1.8-5.5,4.8-5.5c3.3,0,4.2,2.9,4.2,4.8c0,0.4,0,0.7-0.1,0.9H161.9z M167.3,92.6c0-1.2-0.5-3-2.6-3c-1.9,0-2.7,1.7-2.8,3H167.3z"/>
<path class="st0" d="M171.4,91.7c0-1.2,0-2.2-0.1-3.2h1.6l0.1,2h0.1c0.5-1.4,1.6-2.2,2.8-2.2c0.2,0,0.4,0,0.5,0.1v1.7
	c-0.2,0-0.4-0.1-0.6-0.1c-1.3,0-2.2,1-2.5,2.4c0,0.3-0.1,0.5-0.1,0.9v5.4h-1.8V91.7z"/>
<path class="st0" d="M187.4,93.5c0,3.8-2.6,5.4-5.1,5.4c-2.8,0-4.9-2-4.9-5.2c0-3.4,2.2-5.4,5-5.4C185.4,88.3,187.4,90.4,187.4,93.5
	z M179.3,93.6c0,2.2,1.3,3.9,3.1,3.9c1.8,0,3.1-1.7,3.1-3.9c0-1.7-0.9-3.9-3-3.9S179.3,91.7,179.3,93.6z"/>
<path class="st0" d="M189.4,96.8c0.5,0.4,1.5,0.7,2.4,0.7c1.3,0,2-0.7,2-1.5c0-0.9-0.5-1.4-1.9-1.9c-1.8-0.7-2.7-1.7-2.7-2.9
	c0-1.6,1.3-3,3.5-3c1,0,1.9,0.3,2.5,0.6l-0.5,1.3c-0.4-0.3-1.1-0.6-2.1-0.6c-1.1,0-1.7,0.6-1.7,1.4c0,0.8,0.6,1.2,1.9,1.7
	c1.8,0.7,2.7,1.6,2.7,3.1c0,1.8-1.4,3-3.8,3c-1.1,0-2.1-0.3-2.9-0.7L189.4,96.8z"/>
<path class="st0" d="M197.8,91.8c0-1.3,0-2.4-0.1-3.3h1.7l0.1,1.7h0c0.8-1.2,2-2,3.6-2c2.5,0,4.3,2.1,4.3,5.2c0,3.7-2.2,5.5-4.6,5.5
	c-1.3,0-2.5-0.6-3.1-1.6h0v5.5h-1.8V91.8z M199.6,94.5c0,0.3,0,0.5,0.1,0.8c0.3,1.3,1.4,2.2,2.8,2.2c2,0,3.1-1.6,3.1-3.9
	c0-2-1.1-3.8-3-3.8c-1.3,0-2.4,0.9-2.8,2.3c-0.1,0.2-0.1,0.5-0.1,0.8V94.5z"/>
<path class="st0" d="M215.5,98.7l-0.1-1.3h-0.1c-0.6,0.8-1.7,1.5-3.1,1.5c-2.1,0-3.1-1.4-3.1-2.9c0-2.5,2.2-3.8,6.1-3.8V92
	c0-0.8-0.2-2.4-2.3-2.4c-0.9,0-1.9,0.3-2.6,0.8l-0.4-1.2c0.8-0.5,2.1-0.9,3.3-0.9c3.1,0,3.9,2.1,3.9,4.2v3.8c0,0.9,0,1.7,0.2,2.4
	H215.5z M215.2,93.5c-2,0-4.3,0.3-4.3,2.3c0,1.2,0.8,1.8,1.7,1.8c1.3,0,2.2-0.8,2.5-1.7c0.1-0.2,0.1-0.4,0.1-0.6V93.5z"/>
<path class="st0" d="M227.2,98.3c-0.5,0.3-1.6,0.6-2.9,0.6c-3.1,0-5.1-2.1-5.1-5.2c0-3.1,2.1-5.4,5.5-5.4c1.1,0,2.1,0.3,2.6,0.5
	l-0.4,1.4c-0.4-0.3-1.1-0.5-2.1-0.5c-2.3,0-3.6,1.7-3.6,3.8c0,2.4,1.5,3.8,3.5,3.8c1,0,1.7-0.3,2.3-0.5L227.2,98.3z"/>
<path class="st0" d="M230.1,93.9c0,2.5,1.6,3.5,3.5,3.5c1.3,0,2.1-0.2,2.8-0.5l0.3,1.3c-0.7,0.3-1.8,0.6-3.4,0.6c-3.1,0-5-2.1-5-5.1
	s1.8-5.5,4.8-5.5c3.3,0,4.2,2.9,4.2,4.8c0,0.4,0,0.7-0.1,0.9H230.1z M235.6,92.6c0-1.2-0.5-3-2.6-3c-1.9,0-2.7,1.7-2.8,3H235.6z"/>
<path class="st0" d="M251.1,92h-5.5v5.1h6.1v1.5h-8V84.5h7.6v1.5h-5.8v4.5h5.5V92z"/>
<path class="st0" d="M253.8,91.3c0-1,0-1.9-0.1-2.8h1.6l0.1,1.7h0c0.5-1,1.7-1.9,3.4-1.9c1.4,0,3.6,0.8,3.6,4.3v6.1h-1.8v-5.9
	c0-1.6-0.6-3-2.4-3c-1.2,0-2.2,0.9-2.5,1.9c-0.1,0.2-0.1,0.5-0.1,0.9v6.1h-1.8V91.3z"/>
<path class="st0" d="M274.2,88.5c0,0.7-0.1,1.6-0.1,2.8v5.9c0,2.3-0.5,3.8-1.4,4.6c-1,0.9-2.4,1.2-3.7,1.2c-1.2,0-2.6-0.3-3.4-0.8
	l0.5-1.4c0.7,0.4,1.7,0.8,3,0.8c1.9,0,3.3-1,3.3-3.5v-1.1h0c-0.6,0.9-1.7,1.7-3.2,1.7c-2.5,0-4.3-2.1-4.3-5c0-3.4,2.2-5.4,4.6-5.4
	c1.8,0,2.7,0.9,3.2,1.8h0l0.1-1.5H274.2z M272.3,92.5c0-0.3,0-0.6-0.1-0.8c-0.3-1.1-1.2-2-2.6-2c-1.8,0-3,1.5-3,3.8c0,2,1,3.7,3,3.7
	c1.1,0,2.2-0.7,2.6-1.9c0.1-0.3,0.1-0.7,0.1-1V92.5z"/>
<path class="st0" d="M279.2,85.7c0,0.6-0.4,1.1-1.2,1.1c-0.7,0-1.1-0.5-1.1-1.1c0-0.7,0.5-1.2,1.2-1.2
	C278.8,84.5,279.2,85,279.2,85.7z M277.2,98.7V88.5h1.8v10.2H277.2z"/>
<path class="st0" d="M282,91.3c0-1,0-1.9-0.1-2.8h1.6l0.1,1.7h0c0.5-1,1.7-1.9,3.4-1.9c1.4,0,3.6,0.8,3.6,4.3v6.1h-1.8v-5.9
	c0-1.6-0.6-3-2.4-3c-1.2,0-2.2,0.9-2.5,1.9c-0.1,0.2-0.1,0.5-0.1,0.9v6.1H282V91.3z"/>
<path class="st0" d="M294.7,93.9c0,2.5,1.6,3.5,3.5,3.5c1.3,0,2.1-0.2,2.8-0.5l0.3,1.3c-0.7,0.3-1.8,0.6-3.4,0.6c-3.1,0-5-2.1-5-5.1
	s1.8-5.5,4.8-5.5c3.3,0,4.2,2.9,4.2,4.8c0,0.4,0,0.7-0.1,0.9H294.7z M300.1,92.6c0-1.2-0.5-3-2.6-3c-1.9,0-2.7,1.7-2.8,3H300.1z"/>
<path class="st0" d="M305.4,93.9c0,2.5,1.6,3.5,3.5,3.5c1.3,0,2.1-0.2,2.8-0.5l0.3,1.3c-0.7,0.3-1.8,0.6-3.4,0.6c-3.1,0-5-2.1-5-5.1
	s1.8-5.5,4.8-5.5c3.3,0,4.2,2.9,4.2,4.8c0,0.4,0,0.7-0.1,0.9H305.4z M310.8,92.6c0-1.2-0.5-3-2.6-3c-1.9,0-2.7,1.7-2.8,3H310.8z"/>
<path class="st0" d="M314.9,91.7c0-1.2,0-2.2-0.1-3.2h1.6l0.1,2h0.1c0.5-1.4,1.6-2.2,2.8-2.2c0.2,0,0.4,0,0.5,0.1v1.7
	c-0.2,0-0.4-0.1-0.6-0.1c-1.3,0-2.2,1-2.5,2.4c0,0.3-0.1,0.5-0.1,0.9v5.4h-1.8V91.7z"/>
<path class="st0" d="M323.9,85.7c0,0.6-0.4,1.1-1.2,1.1c-0.7,0-1.1-0.5-1.1-1.1c0-0.7,0.5-1.2,1.2-1.2
	C323.4,84.5,323.9,85,323.9,85.7z M321.8,98.7V88.5h1.8v10.2H321.8z"/>
<path class="st0" d="M326.6,91.3c0-1,0-1.9-0.1-2.8h1.6l0.1,1.7h0c0.5-1,1.7-1.9,3.4-1.9c1.4,0,3.6,0.8,3.6,4.3v6.1h-1.8v-5.9
	c0-1.6-0.6-3-2.4-3c-1.2,0-2.2,0.9-2.5,1.9c-0.1,0.2-0.1,0.5-0.1,0.9v6.1h-1.8V91.3z"/>
<path class="st0" d="M347,88.5c0,0.7-0.1,1.6-0.1,2.8v5.9c0,2.3-0.5,3.8-1.4,4.6c-1,0.9-2.4,1.2-3.7,1.2c-1.2,0-2.6-0.3-3.4-0.8
	l0.5-1.4c0.7,0.4,1.7,0.8,3,0.8c1.9,0,3.3-1,3.3-3.5v-1.1h0c-0.6,0.9-1.7,1.7-3.2,1.7c-2.5,0-4.3-2.1-4.3-5c0-3.4,2.2-5.4,4.6-5.4
	c1.8,0,2.7,0.9,3.2,1.8h0l0.1-1.5H347z M345.1,92.5c0-0.3,0-0.6-0.1-0.8c-0.3-1.1-1.2-2-2.6-2c-1.8,0-3,1.5-3,3.8c0,2,1,3.7,3,3.7
	c1.1,0,2.2-0.7,2.6-1.9c0.1-0.3,0.1-0.7,0.1-1V92.5z"/>
</svg>
